<svg xmlns="http://www.w3.org/2000/svg" width="69.773" height="69.773" viewBox="0 0 69.773 69.773"><g transform="translate(0.5 0.5)"><ellipse cx="34.386" cy="34.386" rx="34.386" ry="34.386" transform="translate(0 0)" fill="#f7f2db" stroke="#383838" stroke-width="1"/><path d="M415.429,38.225c-1.152-1.418-7.444.266-14.268,4.254a.577.577,0,0,1-.8-.177.326.326,0,0,1-.089-.266c.266-7.71-.177-13.471-1.95-13.737s-4.431,4.963-6.2,12.407a.548.548,0,0,1-.709.443c-.089,0-.266-.089-.266-.177-5.406-5.672-9.926-8.951-11.344-7.888s.62,6.2,4.786,12.762a.577.577,0,0,1-.177.8.533.533,0,0,1-.354.089c-7.976-.354-14.091.532-14.357,2.3s5.495,3.9,13.205,5.761a.582.582,0,0,1,.443.709c0,.089-.089.177-.177.266-5.849,5.229-10.192,9.66-9.04,11.078s7.444-.62,14.18-4.608a.577.577,0,0,1,.8.177c.089.089.089.177.089.354-.355,7.71-.355,13.471,1.418,13.737s4.963-4.963,6.824-12.585a.548.548,0,0,1,.709-.443c.089,0,.266.089.266.177,5.317,5.761,9.217,9.571,10.635,8.508s0-6.647-3.988-13.294a.577.577,0,0,1,.177-.8c.089-.089.177-.089.355-.089,7.888.354,13.914-.089,14.18-1.861s-5.406-4.254-13.116-6.2c-.266-.089-.532-.354-.443-.62a.46.46,0,0,1,.177-.354C412.061,43.808,416.493,39.643,415.429,38.225Z" transform="translate(-360.216 -17.93)" fill="#383838"/><path d="M405.651,48.035c-7.976,4.343-6.913,1.861-3.279-6.735-3.722,8.419-6.292,10.192-5.672,1.684-.886,8.508-3.368,6.381-10.369.266,6.824,6.292,7.976,9.128,1.152,4.165,7,4.963,6.913,4.963-.355.532,7.179,4.52,3.811,4.608-5.229,5.495,9.04-.62,11.787.266,3.811,2.747,8.508-2.216,8.508-2.127.354,1.329,7.888-3.279,5.849-1.507,0,5.583,6.026-6.913,9.04-7.71,6.647.709,2.747-8.6,2.747-8.508,1.6.443,1.329-8.685,2.836-6.2,3.013,2.836,0-9.128.266-10.458,5.761-4.874-4.786-6.824-3.013-5.849,3.19.532-5.938-6.647-7.976-8.774.8-6.292-8.951-2.747-9.128-2.747-.443-.709-8.685-2.038-8.419-2.127.709-.886-8.951-1.418-6.2-2.216,2.659-1.684C400.954,52.555,399.536,52.289,405.651,48.035Z" transform="translate(-361.605 -19.41)" fill="#f7f2db"/></g></svg>