<svg xmlns="http://www.w3.org/2000/svg" width="71.804" height="71.804" viewBox="0 0 71.804 71.804"><g transform="translate(0.5 0.5)"><ellipse cx="35.402" cy="35.402" rx="35.402" ry="35.402" transform="translate(0 0)" fill="#f7f2db" stroke="#383838" stroke-width="1"/><path d="M260.089,351.89v-2.436H258.61V331.362h.783V329.1h-4.61v2.262h.87v18.092H254v2.436h1.653V355.8H254v1.566h6.089V355.8H258.61V351.89Z" transform="translate(-237.038 -301.787)" fill="#f7f2db" stroke="#383838" stroke-width="1"/><path d="M269.789,351.89v-2.436H268.31V331.362h.783V329.1h-4.61v2.262h.87v18.092H263.7v2.436h1.653V355.8H263.7v1.566h6.089V355.8H268.31V351.89Z" transform="translate(-238.301 -301.787)" fill="#f7f2db" stroke="#383838" stroke-width="1"/><path d="M285.889,351.89v-2.436H284.41V331.362h.7V329.1H280.5v2.262h.87v18.092H279.8v2.436h1.566V355.8H279.8v1.566h6.089V355.8H284.41V351.89Z" transform="translate(-240.397 -301.787)" fill="#f7f2db" stroke="#383838" stroke-width="1"/><path d="M295.589,351.89v-2.436H294.11V331.362h.7V329.1H290.2v2.262h.87v18.092H289.5v2.436h1.566V355.8H289.5v1.566h6.089V355.8H294.11V351.89Z" transform="translate(-241.659 -301.787)" fill="#f7f2db" stroke="#383838" stroke-width="1"/><path d="M272.788,309.7A16.742,16.742,0,0,0,256,326.488h33.749A17.119,17.119,0,0,0,272.788,309.7Z" transform="translate(-237.299 -299.262)" fill="none" stroke="#383838" stroke-miterlimit="10" stroke-width="2.106"/><path d="M273.269,309.7c-6.524,0-13.569,9.916-13.569,16.875h27.139C286.752,319.7,279.793,309.7,273.269,309.7Z" transform="translate(-237.78 -299.262)" fill="none" stroke="#383838" stroke-miterlimit="10" stroke-width="2.106"/><path d="M274.089,309.7c-5.045,0-8.089,9.916-8.089,16.788h16.179C282.092,319.7,279.134,309.7,274.089,309.7Z" transform="translate(-238.6 -299.262)" fill="none" stroke="#383838" stroke-miterlimit="10" stroke-width="2.106"/></g></svg>