<svg xmlns="http://www.w3.org/2000/svg" width="69.773" height="69.773" viewBox="0 0 69.773 69.773"><g transform="translate(0.5 0.5)"><ellipse cx="34.386" cy="34.386" rx="34.386" ry="34.386" transform="translate(0 0)" fill="#f7f2db" stroke="#383838" stroke-width="1"/><g transform="translate(9.241 12.583)"><path d="M67.25,36.349l-.177,4.077a5.68,5.68,0,0,0,3.722,5.583l3.9,1.418a5.7,5.7,0,0,1,3.456,7.267A5.261,5.261,0,0,1,75.4,57.8l-3.634,1.95a5.652,5.652,0,0,0-2.925,5.938l.709,4.077a5.646,5.646,0,0,1-4.608,6.558,5.24,5.24,0,0,1-3.988-.8L57.5,73.305a5.589,5.589,0,0,0-6.647.443l-3.19,2.659a5.714,5.714,0,0,1-7.976-.62,5.65,5.65,0,0,1-1.329-3.9l.177-4.165a5.758,5.758,0,0,0-3.722-5.583l-3.9-1.241a5.73,5.73,0,0,1-3.456-7.267,5.261,5.261,0,0,1,2.747-3.1l3.634-1.95a5.71,5.71,0,0,0,2.925-6.115l-.886-3.988a5.646,5.646,0,0,1,4.608-6.558,5.539,5.539,0,0,1,4.077.8l3.456,2.216a5.589,5.589,0,0,0,6.647-.443l3.19-2.659a5.635,5.635,0,0,1,7.976.709A5.129,5.129,0,0,1,67.25,36.349Z" transform="translate(-27.127 -30.498)" fill="#383838"/><path d="M68.16,50.6h0a5.214,5.214,0,0,0,.62,6.115h0a5.17,5.17,0,0,1-.443,7.267,4.728,4.728,0,0,1-3.545,1.241h0a5.163,5.163,0,0,0-5.14,3.545h0a5.109,5.109,0,0,1-6.47,3.368,5.545,5.545,0,0,1-3.1-2.57h0a5.117,5.117,0,0,0-5.495-2.57h0a5.149,5.149,0,0,1-6.026-4.165,4.872,4.872,0,0,1,.709-3.634h0a5.2,5.2,0,0,0-.532-6.115h0a5.2,5.2,0,0,1,.532-7.356,4.65,4.65,0,0,1,3.456-1.241h0a5.055,5.055,0,0,0,5.052-3.545h0a5.133,5.133,0,0,1,9.483-.8h0a5.117,5.117,0,0,0,5.495,2.57h0a5.21,5.21,0,0,1,6.026,4.254A5.1,5.1,0,0,1,68.16,50.6Z" transform="translate(-28.303 -31.273)" fill="#f7f2db"/><path d="M64.978,52.76h0a3.867,3.867,0,0,0,.354,4.52h0a3.7,3.7,0,0,1-.354,5.317,4.037,4.037,0,0,1-2.57.975h0a3.835,3.835,0,0,0-3.722,2.57h0a3.864,3.864,0,0,1-4.874,2.393,3.76,3.76,0,0,1-2.127-1.772h0a3.936,3.936,0,0,0-4.077-1.95h0a3.888,3.888,0,0,1-4.52-3.013,3.983,3.983,0,0,1,.443-2.659h0a3.867,3.867,0,0,0-.354-4.52h0a3.807,3.807,0,0,1,.354-5.406,3.861,3.861,0,0,1,2.57-.975h0a3.648,3.648,0,0,0,3.634-2.57h0a3.94,3.94,0,0,1,4.874-2.393,4.139,4.139,0,0,1,2.127,1.772h0A4,4,0,0,0,60.813,47h0a3.692,3.692,0,0,1,4.431,3.013A2.756,2.756,0,0,1,64.978,52.76Z" transform="translate(-28.843 -31.932)" fill="none" stroke="#000" stroke-miterlimit="10" stroke-width="1.508"/><ellipse cx="4.431" cy="4.431" rx="4.431" ry="4.431" transform="translate(21.246 19.676)" fill="none" stroke="#000" stroke-miterlimit="10" stroke-width="1.374"/></g></g></svg>