<svg xmlns="http://www.w3.org/2000/svg" width="70.304" height="70.304" viewBox="0 0 70.304 70.304"><g transform="translate(0.5 0.5)"><ellipse cx="34.652" cy="34.652" rx="34.652" ry="34.652" transform="translate(0 0)" fill="#f7f2db" stroke="#383838" stroke-width="1"/><g transform="translate(17.351 12.099)"><path d="M111.265,498.745a7.316,7.316,0,1,0,7.323,7.316v-.008a7.312,7.312,0,0,0-7.315-7.308Zm0,13.895a6.587,6.587,0,1,1,6.595-6.587,6.591,6.591,0,0,1-6.595,6.587h0Z" transform="translate(-103.942 -471.63)" fill="#fff" stroke="#383838" stroke-miterlimit="10" stroke-width="0.586"/><ellipse cx="0.882" cy="0.881" rx="0.882" ry="0.881" transform="translate(6.416 33.881)" fill="#383838"/><path d="M125.338,497.668a7.317,7.317,0,1,0,7.314,7.326v-.01A7.32,7.32,0,0,0,125.338,497.668Zm0,13.9a6.588,6.588,0,1,1,6.593-6.588,6.591,6.591,0,0,1-6.593,6.588Z" transform="translate(-95.636 -472.264)" fill="#fff" stroke="#383838" stroke-miterlimit="10" stroke-width="0.586"/><ellipse cx="0.882" cy="0.881" rx="0.882" ry="0.881" transform="translate(28.819 31.84)" fill="#383838"/><path d="M108.626,508.319l10.79-.8,5.247-12.042-11.146.855Z" transform="translate(-101.176 -473.557)" fill="none" stroke="#383838" stroke-miterlimit="10" stroke-width="0.586"/><line x1="6.756" y1="12.888" transform="translate(11.485 21.068)" fill="none" stroke="#383838" stroke-miterlimit="10" stroke-width="0.586"/><line x2="6.756" y2="13.413" transform="translate(22.97 19.671)" fill="none" stroke="#383838" stroke-miterlimit="10" stroke-width="0.586"/><path d="M118.4,494.278l5.179-.389a1.929,1.929,0,0,1,.619,0,1.483,1.483,0,0,1,.848.729.888.888,0,0,1,.2.466.76.76,0,0,1-.517.618,2.921,2.921,0,0,1-.932.178" transform="translate(-95.404 -474.505)" fill="none" stroke="#383838" stroke-linecap="round" stroke-miterlimit="10" stroke-width="0.586"/><path d="M120.531,494.05l1.7-.135a1.929,1.929,0,0,1,.619,0,1.485,1.485,0,0,1,.848.728.892.892,0,0,1,.2.466.775.775,0,0,1-.517.618,2.868,2.868,0,0,1-.932.178" transform="translate(-94.144 -474.49)" fill="none" stroke="#383838" stroke-linecap="round" stroke-miterlimit="10" stroke-width="0.586"/><ellipse cx="0.907" cy="0.906" rx="0.907" ry="0.906" transform="translate(17.334 33.051)"/><ellipse cx="3.933" cy="3.929" rx="3.933" ry="3.929" transform="translate(14.486)" fill="#383838"/><path d="M127.362,496.691l-4.543-1.821-3.145-6.164h0a1.167,1.167,0,0,0-.5-.491,2.629,2.629,0,0,0-.787-.669l-1.933-1.042a2.546,2.546,0,0,0-3.391,1.009l-4.764,8.8v.076l-.084.119-.2.389a1.829,1.829,0,0,0,.735,2.48h0l.534.289.059.042,1.934,1.05h.075l4.909,2.651a1.663,1.663,0,0,0,.27.119l2.052,9.959a1.035,1.035,0,0,0,1.22.8l.993-.211a1.025,1.025,0,0,0,.8-1.211l0-.01L119.1,501.111a.687.687,0,0,0-.059-.186,1.8,1.8,0,0,0-.848-1.119l-2.772-1.5,3.348-6.181,2.018,3.963h0a1.172,1.172,0,0,0,.449.458,1.067,1.067,0,0,0,.611.643l4.653,1.862h0a1.044,1.044,0,0,0,1.339-.6l.153-.407A1.092,1.092,0,0,0,127.362,496.691Z" transform="translate(-101.67 -479.01)" fill="#383838"/></g><line y1="2.583" x2="42.214" transform="translate(14.359 55.235)" fill="none" stroke="#383838" stroke-miterlimit="10" stroke-width="0.405"/><line y1="1.905" x2="28.641" transform="translate(21.229 58.736)" fill="none" stroke="#383838" stroke-miterlimit="10" stroke-width="0.405"/><line y1="1.55" x2="23.31" transform="translate(24.248 61.294)" fill="none" stroke="#383838" stroke-miterlimit="10" stroke-width="0.405"/></g></svg>