<svg xmlns="http://www.w3.org/2000/svg" width="69.77" height="69.77" viewBox="0 0 69.77 69.77"><g transform="translate(0.5 0.5)"><ellipse cx="34.385" cy="34.385" rx="34.385" ry="34.385" transform="translate(0 0)" fill="#f7f2db" stroke="#383838" stroke-width="1"/><g transform="translate(11.07 15.762)"><path d="M223.908,45.6c-9.04,0-17.636,2.747-23.308,6.47V65.275a.888.888,0,0,0,.886.886h7.976a.888.888,0,0,0,.886-.886v-.62a13.427,13.427,0,1,1,26.853-.089v.709a.888.888,0,0,0,.886.886h7.976a.888.888,0,0,0,.886-.886V52.07C241.545,48.347,232.948,45.6,223.908,45.6Z" transform="translate(-200.6 -35.497)" fill="#383838"/><path d="M245.933,40.315a1.305,1.305,0,0,0-1.329,1.329v.177a44.827,44.827,0,0,0-7.179-3.1V37.213a1.329,1.329,0,1,0-2.659,0v.709a45.13,45.13,0,0,0-9.306-1.329V35.529a1.329,1.329,0,1,0-2.659,0v1.152a40.527,40.527,0,0,0-9.306,1.329V37.3a1.329,1.329,0,1,0-2.659,0v1.507a44.829,44.829,0,0,0-7.179,3.1v-.177a1.305,1.305,0,0,0-1.329-1.329A1.363,1.363,0,0,0,201,41.733v7.71c.886-.532,1.861-.975,2.747-1.418V45.1a35.921,35.921,0,0,1,7.179-3.456v3.634c.975-.266,1.861-.443,2.747-.709V40.758a44.749,44.749,0,0,1,9.306-1.418v4.077h2.747V39.34a39.536,39.536,0,0,1,9.306,1.418v3.811c.886.177,1.772.443,2.747.709V41.644a31.9,31.9,0,0,1,7.179,3.456v2.925c.975.443,1.861.975,2.747,1.418v-7.71A2.307,2.307,0,0,0,245.933,40.315Z" transform="translate(-200.646 -34.2)" fill="#383838"/></g><path d="M242.682,73.8c-.089,4.7-12.053,4.7-12.053,0,0,4.7-12.053,4.7-12.053,0,0,4.7-11.876,4.786-11.876,0" transform="translate(-190.224 -22.943)" fill="none" stroke="#383838" stroke-linejoin="round" stroke-width="0.783"/><path d="M239.26,80.2c-.089,3.722-9.483,3.722-9.483,0,0,3.722-9.483,3.722-9.483,0,0,3.722-9.394,3.722-9.394,0" transform="translate(-190.702 -23.671)" fill="none" stroke="#383838" stroke-linejoin="round" stroke-width="0.783"/></g></svg>