<?xml version="1.0" encoding="utf-8"?>
<!-- Generator: Adobe Illustrator 23.0.3, SVG Export Plug-In . SVG Version: 6.00 Build 0)  -->
<svg version="1.1" id="Layer_1" xmlns="http://www.w3.org/2000/svg" xmlns:xlink="http://www.w3.org/1999/xlink" x="0px" y="0px"
	 viewBox="0 0 640.3 300" style="enable-background:new 0 0 640.3 300;" xml:space="preserve">
<style type="text/css">
	.st0{fill:#D1F3FF;}
	.st1{fill:#39C5FB;}
	.st2{fill:#006824;}
	.st3{fill:#001C00;}
	.st4{fill:#383838;}
	.st5{fill:none;stroke:#383838;stroke-width:5.3493;stroke-miterlimit:10;}
	.st6{fill:none;}
</style>
<g id="ovbg_x5F_logo_x5F_abbriviated">
	<g id="wing_x5F_left_1_">
		<path class="st0" d="M118.2,138.4c42.5-56.3,89.6-39.4,138.3-28.1c0,24,0,33.2,0,33.2S160.5,116.3,118.2,138.4z"/>
		<path class="st1" d="M82.9,184.9c42.4-52.2,67.7-48.8,97.1-43c36.3,7.1,42.1,12.1,76.5,11c0,25.9,0,28.1,0,28.1
			s-12.8,5.1-28.4,5.3c-14.9,0.2-42.8-4.3-53.3-7.5C153.4,172,113.7,165.4,82.9,184.9z"/>
	</g>
	<g id="wing_x5F_right_1_">
		<path class="st2" d="M518.5,142.8c-42.5,56.3-89.6,39.4-138.3,28.1c0-24,0-33.2,0-33.2S476.2,164.9,518.5,142.8z"/>
		<path class="st3" d="M553.8,96.4c-42.4,52.2-67.7,48.8-97.1,43c-36.3-7.1-42.1-12.1-76.5-11c0-25.9,0-28.1,0-28.1
			s12.8-5.1,28.4-5.3c14.9-0.2,42.8,4.3,53.3,7.5C483.2,109.3,522.9,115.8,553.8,96.4z"/>
	</g>
	<g id="Gazebo_1_">
		<polygon class="st4" points="279.3,161.3 279.3,154.3 275.1,154.3 275.1,101.3 277.3,101.3 277.3,94.7 263.8,94.7 263.8,101.3 
			266.2,101.3 266.2,154.3 265.8,154.3 261.6,154.3 261.6,161.3 265.8,161.3 266.2,161.3 266.2,172.6 265.8,172.6 261.6,172.6 
			261.6,177.2 265.8,177.2 275.1,177.2 279.3,177.2 279.3,172.6 275.1,172.6 275.1,161.3 		"/>
		<polygon class="st4" points="304,161.3 304,154.3 299.7,154.3 299.7,101.3 301.9,101.3 301.9,94.7 288.4,94.7 288.4,101.3 
			290.8,101.3 290.8,154.3 290.5,154.3 286.2,154.3 286.2,161.3 290.5,161.3 290.8,161.3 290.8,172.6 290.5,172.6 286.2,172.6 
			286.2,177.2 290.5,177.2 299.7,177.2 304,177.2 304,172.6 299.7,172.6 299.7,161.3 		"/>
		<polygon class="st4" points="350.6,161.3 350.6,154.3 346.3,154.3 346.3,101.3 348.5,101.3 348.5,94.7 335,94.7 335,101.3 
			337.5,101.3 337.5,154.3 337.1,154.3 332.8,154.3 332.8,161.3 337.1,161.3 337.5,161.3 337.5,172.6 337.1,172.6 332.8,172.6 
			332.8,177.2 337.1,177.2 346.3,177.2 350.6,177.2 350.6,172.6 346.3,172.6 346.3,161.3 		"/>
		<polygon class="st4" points="375.2,161.3 375.2,154.3 371,154.3 371,101.3 373.2,101.3 373.2,94.7 359.7,94.7 359.7,101.3 
			362.1,101.3 362.1,154.3 361.7,154.3 357.4,154.3 357.4,161.3 361.7,161.3 362.1,161.3 362.1,172.6 361.7,172.6 357.4,172.6 
			357.4,177.2 361.7,177.2 371,177.2 375.2,177.2 375.2,172.6 371,172.6 371,161.3 		"/>
		<path class="st5" d="M318.9,45.5c-27.1,0-49.1,22-49.1,49.1l7.5,0l41.6,0.1l41.6-0.1l7.5,0C367.9,67.5,346,45.5,318.9,45.5z"/>
		<path class="st5" d="M318.9,45.5c-19.1,0-39.5,29-39.5,49.2h39.5h39.5C358.4,74.5,338,45.5,318.9,45.5z"/>
		<path class="st5" d="M318.9,45.5c-14.8,0-23.5,29-23.5,49.1l23.5,0l23.5,0C342.4,74.5,333.7,45.5,318.9,45.5z"/>
		<polygon class="st4" points="320.2,38.9 320.2,28.5 317.5,28.5 317.5,38.9 316.2,38.9 316.2,94.7 321.5,94.7 321.5,38.9 		"/>
		<rect x="273.1" y="74.3" class="st4" width="91.6" height="5.3"/>
		<rect x="283.4" y="58.9" class="st4" width="71" height="5.3"/>
	</g>
	<g id="OSHAWA_VALLEY_BOTANICAL_GARDENS_1_">
		<rect x="82.9" y="213.7" class="st6" width="470.9" height="84.9"/>
		<path class="st4" d="M204.1,239.1c0,12.6-9.4,22.2-22.3,22.2s-22.3-9.6-22.3-22.2c0-12.6,9.4-22.2,22.3-22.2
			S204.1,226.5,204.1,239.1z M197.5,239.1c0-9.5-6.5-16.2-15.7-16.2s-15.7,6.7-15.7,16.2c0,9.5,6.5,16.2,15.7,16.2
			S197.5,248.6,197.5,239.1z"/>
		<path class="st4" d="M264.5,217.7l11.9,29.9l11.9-29.9h7.1l-19,45.6l-19-45.6H264.5z"/>
		<path class="st4" d="M358.7,217.7c5.5,0,9,0.7,11.8,3.3c2.3,2.2,3.4,4.9,3.4,8.5c0,1.7-0.3,3.4-1.3,5.1c-1,1.7-2.2,2.5-3.2,3
			c0.8,0.2,3.4,0.9,5.5,3.1c2.3,2.4,2.8,5.4,2.8,8c0,3.1-0.8,5.5-2.8,7.7c-3.4,3.6-8.7,4.2-12,4.2h-10.7v-42.8H358.7z M358.8,236.1
			h2c1.6,0,3.8-0.2,5.3-1.7c1.5-1.4,1.7-3.4,1.7-4.9c0-1.3-0.2-2.8-1.5-4.1c-1.5-1.4-3.3-1.6-5.2-1.6h-2.2V236.1z M358.8,254.3h4
			c1.9,0,4.8-0.3,6.5-1.7c1.3-1,2.1-2.8,2.1-4.8c0-1.7-0.6-3.4-1.7-4.5c-1.8-1.7-4.4-1.9-6.7-1.9h-4.1V254.3z"/>
		<path class="st4" d="M459.5,238.2h17.7v0.3c0,7.3-2.2,13.3-6.4,17.3c-4.4,4.3-9.7,5.5-14.6,5.5c-6.2,0-10.7-1.8-14.6-5.8
			c-4.2-4.3-6.4-10-6.4-16.2c0-6.7,2.7-12.5,6.2-16c3.7-3.7,9.5-6.4,16.1-6.4c3.9,0,7.8,0.8,11.2,2.7c3.5,2,5.7,4.5,6.9,6.4
			l-5.2,3.7c-1.3-1.8-3.2-3.7-5.3-4.9c-2.4-1.4-4.9-1.9-7.6-1.9c-5.6,0-9.2,2.3-11.3,4.4c-2.8,2.8-4.6,7.4-4.6,12
			c0,4.3,1.6,8.6,4.4,11.6c3,3.1,6.6,4.3,10.7,4.3c3.7,0,6.8-1.1,9.6-3.8c2.4-2.3,3.3-4.8,3.6-7.3h-10.7V238.2z"/>
	</g>
</g>
<g>
</g>
<g>
</g>
<g>
</g>
<g>
</g>
<g>
</g>
</svg>
