<?xml version="1.0" encoding="utf-8"?>
<!-- Generator: Adobe Illustrator 23.0.3, SVG Export Plug-In . SVG Version: 6.00 Build 0)  -->
<svg version="1.1" id="Layer_1" xmlns="http://www.w3.org/2000/svg" xmlns:xlink="http://www.w3.org/1999/xlink" x="0px" y="0px"
	 viewBox="0 0 500 300" style="enable-background:new 0 0 500 300;" xml:space="preserve">
<style type="text/css">
	.st0{fill:#D1F3FF;}
	.st1{fill:#39C5FB;}
	.st2{fill:#006824;}
	.st3{fill:#001C00;}
	.st4{fill:#383838;}
	.st5{fill:none;stroke:#383838;stroke-width:5;stroke-miterlimit:10;}
	.st6{fill:none;}
</style>
<g id="ovbg_x5F_logo_x5F_full_x5F_name">
	<g id="wing_x5F_left">
		<path class="st0" d="M61.9,124.7c39.7-52.6,83.7-36.8,129.2-26.3c0,22.5,0,31,0,31S101.5,104.1,61.9,124.7z"/>
		<path class="st1" d="M28.9,168.1c39.6-48.8,63.3-45.6,90.7-40.2c34,6.6,39.4,11.4,71.5,10.2c0,24.2,0,26.2,0,26.2
			s-12,4.8-26.6,4.9c-14,0.2-40-4-49.8-7.1C94.9,156.1,57.8,149.9,28.9,168.1z"/>
	</g>
	<g id="wing_x5F_right">
		<path class="st2" d="M436.1,128.8c-39.7,52.6-83.7,36.8-129.2,26.3c0-22.5,0-31,0-31S396.5,149.4,436.1,128.8z"/>
		<path class="st3" d="M469.1,85.4c-39.6,48.8-63.3,45.6-90.7,40.2c-34-6.6-39.4-11.4-71.5-10.2c0-24.2,0-26.2,0-26.2
			s12-4.8,26.6-4.9c14-0.2,40,4,49.8,7.1C403.1,97.4,440.2,103.6,469.1,85.4z"/>
	</g>
	<g id="Gazebo">
		<polygon class="st4" points="212.6,146 212.6,139.5 208.6,139.5 208.6,90 210.6,90 210.6,83.8 198,83.8 198,90 200.3,90 
			200.3,139.5 199.9,139.5 195.9,139.5 195.9,146 199.9,146 200.3,146 200.3,156.6 199.9,156.6 195.9,156.6 195.9,160.9 
			199.9,160.9 208.6,160.9 212.6,160.9 212.6,156.6 208.6,156.6 208.6,146 		"/>
		<polygon class="st4" points="235.6,146 235.6,139.5 231.6,139.5 231.6,90 233.7,90 233.7,83.8 221,83.8 221,90 223.3,90 
			223.3,139.5 223,139.5 219,139.5 219,146 223,146 223.3,146 223.3,156.6 223,156.6 219,156.6 219,160.9 223,160.9 231.6,160.9 
			235.6,160.9 235.6,156.6 231.6,156.6 231.6,146 		"/>
		<polygon class="st4" points="279.2,146 279.2,139.5 275.2,139.5 275.2,90 277.2,90 277.2,83.8 264.6,83.8 264.6,90 266.9,90 
			266.9,139.5 266.5,139.5 262.5,139.5 262.5,146 266.5,146 266.9,146 266.9,156.6 266.5,156.6 262.5,156.6 262.5,160.9 
			266.5,160.9 275.2,160.9 279.2,160.9 279.2,156.6 275.2,156.6 275.2,146 		"/>
		<polygon class="st4" points="302.2,146 302.2,139.5 298.2,139.5 298.2,90 300.3,90 300.3,83.8 287.6,83.8 287.6,90 289.9,90 
			289.9,139.5 289.6,139.5 285.6,139.5 285.6,146 289.6,146 289.9,146 289.9,156.6 289.6,156.6 285.6,156.6 285.6,160.9 
			289.6,160.9 298.2,160.9 302.2,160.9 302.2,156.6 298.2,156.6 298.2,146 		"/>
		<path class="st5" d="M249.5,37.9c-25.3,0-45.9,20.5-45.9,45.9l7,0l38.9,0.1l38.9-0.1l7,0C295.4,58.4,274.8,37.9,249.5,37.9z"/>
		<path class="st5" d="M249.5,37.9c-17.9,0-36.9,27.1-36.9,46h36.9h36.9C286.4,65,267.4,37.9,249.5,37.9z"/>
		<path class="st5" d="M249.5,37.9c-13.9,0-22,27.1-22,45.9l22,0l22,0C271.5,65,263.4,37.9,249.5,37.9z"/>
		<polygon class="st4" points="250.8,31.6 250.8,22 248.3,22 248.3,31.6 247,31.6 247,83.8 252,83.8 252,31.6 		"/>
		<rect x="206.7" y="64.7" class="st4" width="85.6" height="5"/>
		<rect x="216.3" y="50.4" class="st4" width="66.4" height="5"/>
	</g>
	<g id="OSHAWA_VALLEY_BOTANICAL_GARDENS">
		<rect x="28.9" y="195" class="st6" width="440.1" height="79.4"/>
		<path d="M112.8,210.9c0,7.8-5.9,13.8-13.9,13.8s-13.9-6-13.9-13.8c0-7.8,5.9-13.8,13.9-13.8S112.8,203.1,112.8,210.9z
			 M108.7,210.9c0-5.9-4.1-10.1-9.8-10.1s-9.8,4.2-9.8,10.1s4.1,10.1,9.8,10.1S108.7,216.8,108.7,210.9z"/>
		<path d="M132.4,203.5c-0.2-0.6-0.6-1.2-1.2-1.7c-0.8-0.7-1.7-1-2.9-1c-2.5,0-3.8,1.5-3.8,3.2c0,0.8,0.3,2.2,2.9,3.2l2.7,1.1
			c4.9,2,6.3,4.8,6.3,7.8c0,5.1-3.6,8.6-8.6,8.6c-3.1,0-4.9-1.2-6.3-2.7c-1.4-1.6-2.1-3.4-2.2-5.2l4-0.9c0,1.3,0.5,2.6,1.1,3.4
			c0.8,1,1.9,1.6,3.5,1.6c2.5,0,4.4-1.8,4.4-4.5c0-2.7-2.1-3.8-3.8-4.6l-2.6-1.1c-2.2-0.9-5.4-2.8-5.4-6.8c0-3.6,2.8-7,7.8-7
			c2.9,0,4.5,1.1,5.4,1.8c0.7,0.6,1.5,1.6,2,2.7L132.4,203.5z"/>
		<path d="M148.6,208.1H160v-10.6h4.1v26.7H160v-12.3h-11.4v12.3h-4.1v-26.7h4.1V208.1z"/>
		<path d="M189.2,217.8h-11.4l-2.9,6.4h-4.4l13.3-28.2l12.6,28.2H192L189.2,217.8z M187.6,213.9l-4-9l-4.1,9H187.6z"/>
		<path d="M202.7,197.5l7,17.8l7.2-19.1l7,19.1l7.3-17.8h4.4l-11.9,28.4l-7-18.9l-7,18.9l-11.4-28.4H202.7z"/>
		<path d="M255.7,217.8h-11.4l-2.9,6.4H237l13.3-28.2l12.6,28.2h-4.4L255.7,217.8z M254.1,213.9l-4-9l-4.1,9H254.1z"/>
		<path d="M283,197.5l7.4,18.6l7.4-18.6h4.4l-11.8,28.4l-11.8-28.4H283z"/>
		<path d="M322.4,217.8H311l-2.9,6.4h-4.4L317,196l12.6,28.2h-4.4L322.4,217.8z M320.8,213.9l-4-9l-4.1,9H320.8z"/>
		<path d="M340.1,197.5v22.8h7.8v3.8H336v-26.7H340.1z"/>
		<path d="M358.8,197.5v22.8h7.8v3.8h-11.9v-26.7H358.8z"/>
		<path d="M388.2,201.4h-10.6v6.8h10.3v3.8h-10.3v8.4h10.6v3.8h-14.7v-26.7h14.7V201.4z"/>
		<path d="M402.1,212.7l-8.8-15.2h4.6l6.2,10.7l6.2-10.7h4.6l-8.8,15.2v11.5h-4.1V212.7z"/>
		<path d="M41,245.5c3.4,0,5.6,0.4,7.4,2.1c1.4,1.4,2.1,3.1,2.1,5.3c0,1-0.2,2.1-0.8,3.2c-0.6,1-1.4,1.6-2,1.8
			c0.5,0.1,2.1,0.6,3.4,1.9c1.4,1.5,1.8,3.4,1.8,5c0,1.9-0.5,3.4-1.8,4.8c-2.1,2.2-5.4,2.6-7.5,2.6H37v-26.7H41z M41,257h1.2
			c1,0,2.4-0.1,3.3-1c0.9-0.9,1-2.1,1-3c0-0.8-0.1-1.8-1-2.6c-0.9-0.9-2.1-1-3.2-1H41V257z M41,268.4h2.5c1.2,0,3-0.2,4-1
			c0.8-0.6,1.3-1.8,1.3-3c0-1.1-0.4-2.1-1.1-2.8c-1.1-1.1-2.8-1.2-4.2-1.2H41V268.4z"/>
		<path d="M86.3,258.9c0,7.8-5.9,13.8-13.9,13.8s-13.9-6-13.9-13.8c0-7.8,5.9-13.8,13.9-13.8S86.3,251.1,86.3,258.9z M82.2,258.9
			c0-5.9-4.1-10.1-9.8-10.1s-9.8,4.2-9.8,10.1s4.1,10.1,9.8,10.1S82.2,264.8,82.2,258.9z"/>
		<path d="M101.8,249.4v22.8h-4.1v-22.8h-6.1v-3.8h16.3v3.8H101.8z"/>
		<path d="M128.6,265.8h-11.4l-2.9,6.4h-4.4l13.3-28.2l12.6,28.2h-4.4L128.6,265.8z M127,261.9l-4-9l-4.1,9H127z"/>
		<path d="M142.2,272.2v-28.5l19.4,20.3v-18.5h4.1v28.3l-19.4-20.3v18.6H142.2z"/>
		<path d="M179.1,245.5v26.7H175v-26.7H179.1z"/>
		<path d="M208.2,251.8c-3-2.7-5.7-3-7.2-3c-5.8,0-9.7,4.3-9.7,10.2c0,5.6,4.1,10,9.8,10c3.2,0,5.7-1.6,7.2-3.1v4.8
			c-2.7,1.6-5.5,2-7.3,2c-4.8,0-7.9-2.2-9.4-3.7c-3.1-2.9-4.3-6.3-4.3-10.1c0-4.9,2-8.3,4.3-10.4c2.8-2.6,6-3.5,9.6-3.5
			c2.4,0,4.8,0.4,7.1,1.9V251.8z"/>
		<path d="M231.6,265.8h-11.4l-2.9,6.4h-4.4l13.3-28.2l12.6,28.2h-4.4L231.6,265.8z M229.9,261.9l-4-9l-4.1,9H229.9z"/>
		<path d="M249.2,245.5v22.8h7.8v3.8h-11.9v-26.7H249.2z"/>
		<path d="M290,258.3h11v0.2c0,4.6-1.4,8.3-4,10.8c-2.8,2.7-6,3.4-9.1,3.4c-3.9,0-6.6-1.1-9.1-3.6c-2.6-2.7-4-6.2-4-10.1
			c0-4.2,1.7-7.8,3.9-10c2.3-2.3,5.9-4,10-4c2.4,0,4.9,0.5,7,1.7c2.2,1.2,3.6,2.8,4.3,4l-3.2,2.3c-0.8-1.1-2-2.3-3.3-3
			c-1.5-0.9-3.1-1.2-4.7-1.2c-3.5,0-5.7,1.4-7,2.8c-1.8,1.8-2.8,4.6-2.8,7.5c0,2.7,1,5.4,2.8,7.2c1.8,2,4.1,2.7,6.7,2.7
			c2.3,0,4.2-0.7,6-2.4c1.5-1.4,2.1-3,2.2-4.5H290V258.3z"/>
		<path d="M324.3,265.8h-11.4l-2.9,6.4h-4.4l13.3-28.2l12.6,28.2h-4.4L324.3,265.8z M322.6,261.9l-4-9l-4.1,9H322.6z"/>
		<path d="M342.6,245.5c3.2,0,5.3,0.4,7,1.6c2.9,2,3.2,5.1,3.2,6.3c0,3.8-2.4,6.6-5.9,7.4l8.3,11.4h-4.9l-7.6-10.9h-0.7v10.9h-4.1
			v-26.7H342.6z M341.9,257.8h1.3c1.1,0,5.7-0.1,5.7-4.4c0-3.8-3.6-4.1-5.6-4.1h-1.4V257.8z"/>
		<path d="M367.8,245.5c3.7,0,7,0.4,9.9,2.6c3.2,2.4,5.1,6.3,5.1,10.8c0,4.4-1.8,8.3-5.4,10.8c-3.1,2.2-6,2.6-9.8,2.6h-5.5v-26.7
			H367.8z M366.3,268.4h1.8c2,0,4.8-0.2,7.1-1.9c1.8-1.4,3.6-4,3.6-7.6c0-3.5-1.7-6.3-3.6-7.7c-2.3-1.7-5.2-1.8-7.1-1.8h-1.8V268.4z
			"/>
		<path d="M405.7,249.4H395v6.8h10.3v3.8H395v8.4h10.6v3.8H391v-26.7h14.7V249.4z"/>
		<path d="M414,272.2v-28.5l19.4,20.3v-18.5h4.1v28.3L418,253.6v18.6H414z"/>
		<path d="M458.3,251.5c-0.2-0.6-0.6-1.2-1.2-1.7c-0.8-0.7-1.7-1-2.9-1c-2.5,0-3.8,1.5-3.8,3.2c0,0.8,0.3,2.2,2.9,3.2l2.7,1.1
			c4.9,2,6.3,4.8,6.3,7.8c0,5.1-3.6,8.6-8.6,8.6c-3.1,0-4.9-1.2-6.3-2.7c-1.4-1.6-2.1-3.4-2.2-5.2l4-0.9c0,1.3,0.5,2.6,1.1,3.4
			c0.8,1,1.9,1.6,3.5,1.6c2.5,0,4.4-1.8,4.4-4.5c0-2.7-2.1-3.8-3.8-4.6l-2.6-1.1c-2.2-0.9-5.4-2.8-5.4-6.8c0-3.6,2.8-7,7.8-7
			c2.9,0,4.5,1.1,5.4,1.8c0.7,0.6,1.5,1.6,2,2.7L458.3,251.5z"/>
	</g>
</g>
<g>
</g>
<g>
</g>
<g>
</g>
<g>
</g>
<g>
</g>
</svg>
