<svg id="svgMap" xmlns="http://www.w3.org/2000/svg" viewBox="0 0 1921 1082.42"><defs><style>
#svgMap {
  transition: 0.5s ease-in-out;
}
.moveTo-memory-peony {
    transform: translate(-35%, -20%) scale(0.45);
  }
.moveTo-memory-waterfall {
    transform: translate(-35%, -20%) scale(0.45);
  }
.moveTo-memory-bridge {
    transform: translate(-35%, -20%) scale(0.45);
  }
.moveTo-memory-daylily {
    transform: translate(-32%, -15%) scale(0.5);
  }
.moveTo-memory-bike {
    transform: translate(-35%, -20%) scale(0.45);
  }
.moveTo-peony-daylily {
    transform: translate(-65%, -10%) scale(1);
  }
.moveTo-peony-waterfall {
    transform: translate(-40%, -30%) scale(1);
  }
.moveTo-daylily-waterfall {
    transform: translate(-45%, -12%) scale(0.65);
  }
.moveTo-daylily-bridge {
    transform: translate(-70%, -2.5%) scale(1.1);
  }
.moveTo-bike-daylily {
    transform: translate(-65%, -8%) scale(1.05);
  }
.moveTo-bridge-peony {
    transform: translate(-70%, -20%) scale(1.2);
  }
.moveTo-bridge-waterfall {
    transform: translate(-43.5%, -20%) scale(0.65);    
  }
.moveTo-bridge-bike {
    transform: translate(-75%, -15%) scale(1.2);   
  }
.moveTo-waterfall-peony {
    transform: translate(-35%, -10%) scale(1.45);   
  }
.moveTo-waterfall-bike {
    transform: translate(-22.5%, -30%) scale(1.1);   
  }
.moveTo-peony-bike {
    transform: translate(-60%, -25%) scale(1.2);   
  }
.cls-1{fill:#88b086;}.cls-1,.cls-11,.cls-12,.cls-13,.cls-14,.cls-34,.cls-35,.cls-36,.cls-37,.cls-38,.cls-39,.cls-41,.cls-42{stroke:#f7f2db;}.cls-2{fill:#537c4e;}.cls-3{fill:#65997d;}.cls-4,.cls-44,.cls-48,.cls-51,.cls-56{fill:#477043;}.cls-12,.cls-13,.cls-14,.cls-16,.cls-18,.cls-23,.cls-34,.cls-35,.cls-36,.cls-37,.cls-38,.cls-39,.cls-40,.cls-5,.cls-59,.cls-61,.cls-62,.cls-63,.cls-65,.cls-66,.cls-67,.cls-9{fill:none;}.cls-5{stroke:#9dd8d8;stroke-width:75px;}.cls-11,.cls-12,.cls-16,.cls-23,.cls-34,.cls-35,.cls-36,.cls-37,.cls-40,.cls-5,.cls-59,.cls-60,.cls-61,.cls-62,.cls-63,.cls-64,.cls-66,.cls-67,.cls-9{stroke-miterlimit:10;}.cls-17,.cls-6{fill:#f7f2db;}.cls-7{fill:#707070;}.cls-8{fill:#9dd8d8;}.cls-9{stroke:#2e3192;stroke-width:0.76px;}.cls-10{fill:#4d4d4d;}.cls-11{fill:#5491d3;}.cls-11,.cls-12{stroke-width:2.11px;}.cls-13{stroke-width:10px;}.cls-14{stroke-width:8px;}.cls-15,.cls-24,.cls-60,.cls-64{fill:#383838;}.cls-16,.cls-23,.cls-60,.cls-61,.cls-62,.cls-63,.cls-64,.cls-65{stroke:#383838;}.cls-16{stroke-width:1.83px;}.cls-17{stroke:#e8e8e8;stroke-width:1.91px;}.cls-18{stroke:#88b086;stroke-width:4px;}.cls-18,.cls-41,.cls-42,.cls-59,.cls-62{stroke-linecap:round;}.cls-19{fill:#d1f3ff;}.cls-20{fill:#39c5fb;}.cls-21{fill:#006824;}.cls-22{fill:#001c00;}.cls-23{stroke-width:1.35px;}.cls-24{font-size:11px;font-family:FuturaPT-Medium, Futura PT;font-weight:500;}.cls-24,.cls-29{letter-spacing:0.08em;}.cls-25{letter-spacing:0.04em;}.cls-26{letter-spacing:0.03em;}.cls-27{letter-spacing:0.03em;}.cls-28{letter-spacing:0.05em;}.cls-30{letter-spacing:0.03em;}.cls-31{letter-spacing:0.06em;}.cls-32{letter-spacing:0.07em;}.cls-33{letter-spacing:0.06em;}.cls-34{stroke-width:20px;}.cls-35,.cls-38{stroke-width:18.75px;}.cls-36,.cls-39,.cls-40{stroke-width:30px;}.cls-37{stroke-width:15px;}.cls-40{stroke:#ea9154;stroke-dasharray:150 22.5;}.cls-41,.cls-42{fill:#d1d1d1;}.cls-41,.cls-42,.cls-65{stroke-linejoin:round;}.cls-41{stroke-width:5.02px;}.cls-42{stroke-width:5px;}.cls-43{fill:#606060;}.cls-44,.cls-48,.cls-51,.cls-56{font-size:21px;font-family:Lato-Black, Lato;font-weight:800;}.cls-44,.cls-55{letter-spacing:0.07em;}.cls-45{letter-spacing:0.07em;}.cls-46,.cls-48{letter-spacing:0.08em;}.cls-47{letter-spacing:0.05em;}.cls-49{letter-spacing:0.05em;}.cls-50{letter-spacing:0.05em;}.cls-51{letter-spacing:0.06em;}.cls-52{letter-spacing:0.04em;}.cls-53{letter-spacing:0.03em;}.cls-54{letter-spacing:0.06em;}.cls-56{letter-spacing:0.07em;}.cls-57{letter-spacing:0.05em;}.cls-58{fill:#7f736a;}.cls-59{stroke:#679df6;stroke-width:7.5px;}.cls-61,.cls-62{stroke-width:1.1px;}.cls-63{stroke-width:0.76px;}.cls-64{stroke-width:1px;}.cls-65{stroke-width:0.78px;}.cls-66,.cls-67{stroke:#000;}.cls-66{stroke-width:1.51px;}.cls-67{stroke-width:1.37px;}.cls-68{fill:#c44343;}.cls-69{font-size:24px;fill:#404040;font-family:Lato-Bold, Lato;font-weight:700;}</style></defs><title>park_map_v4</title><g id="Layer_2" data-name="Layer 2"><g id="park_map_v3"><rect id="backgound" class="cls-1" x="0.5" y="1.92" width="1920" height="1080"/><g id="creek_bush"><g id="creek_bush_6"><path class="cls-2" d="M1412.54,355.32c2.34-7.9,11.18-10.83,15.2-5.05l-1.5,6.71c2.88-3.71,5.88-7.52,9.53-9.47s8.16-1.54,10.41,2.36a19.14,19.14,0,0,0,1.72,3c3,3.36,7.38-1.77,10.91-4.83,4.88-4.23,11.35-4.42,15.84-.46s6.77,11.85,5.58,19.33c2.28-7.24,5.73-14.61,11.08-17.79s12.59.23,13,7.8c2.4-3.44,6.41-4.54,9.29-2.57s4.37,6.86,3.45,11.3c1.91-3.9,6.57-4.58,8.62-1.26-1.61,8.79-3.65,17.48-6.11,26-.54,1.89-1.2,3.92-2.5,5-3.1,2.5-7.2-2.37-10.09.57-1.08,1.1-1.55,2.92-2.25,4.46-2.75,6-8.69,7.13-13.71,7.36-13.67.61-27.24-.43-40.8-1.47l-54.45-4.17a110.42,110.42,0,0,1-17.29-2.25c-10.09-2.42-10.51-10.27-6-21.76,3.52-9.06,6-17.9,9.13-27,2.68-7.75,5.56-12.4,12.35-13.29C1398.23,337.26,1415.23,346.24,1412.54,355.32Z"/><path class="cls-3" d="M1410.83,377.78a21.08,21.08,0,0,1,2.51-4.62c1.33-1.68,3.71-3.08,4.1-5.56C1414.18,368.48,1411.46,373.64,1410.83,377.78Z"/><path class="cls-3" d="M1431,387.78a16.16,16.16,0,0,1,1.84-3.39c1-1.22,2.73-2.25,3-4.07C1433.44,381,1431.45,384.75,1431,387.78Z"/><path class="cls-3" d="M1441.46,371.17a15.3,15.3,0,0,1,1.84-3.39c1-1.23,2.72-2.25,3-4.07C1443.92,364.35,1441.92,368.14,1441.46,371.17Z"/><path class="cls-3" d="M1456.83,383.32a23.88,23.88,0,0,1,2.78-5.12c1.47-1.85,4.12-3.41,4.54-6.15C1460.55,373,1457.54,378.73,1456.83,383.32Z"/><path class="cls-3" d="M1468.05,392.59a23.05,23.05,0,0,1,2.83-5.08c1.49-1.83,4.15-3.33,4.6-6.07C1471.87,382.34,1468.8,388,1468.05,392.59Z"/><path class="cls-3" d="M1515.56,378.79a15.42,15.42,0,0,0,1.08-3.37c.24-1.51,0-3.65.91-4.79C1518.33,373.19,1517.1,376.89,1515.56,378.79Z"/><path class="cls-3" d="M1502.31,380.49a15.59,15.59,0,0,0,1.08-3.37c.24-1.51,0-3.65.91-4.79C1505.07,374.88,1503.85,378.59,1502.31,380.49Z"/><path class="cls-3" d="M1493.49,385.48a15,15,0,0,0,1.08-3.36c.24-1.51,0-3.66.91-4.8C1496.26,379.88,1495,383.58,1493.49,385.48Z"/></g><g id="creek_bush_5"><path class="cls-4" d="M1270.81,365.56c.19-8.26,8-13.43,13.42-8.89l.32,6.9c1.81-4.35,3.71-8.83,6.74-11.68s7.52-3.63,10.74-.45a18.53,18.53,0,0,0,2.46,2.47c3.77,2.48,6.7-3.65,9.32-7.54,3.62-5.38,9.84-7.26,15.25-4.61s9.71,9.7,10.53,17.26c.3-7.62,1.7-15.66,6.05-20.15s12.28-3.08,14.65,4.15c1.41-4,5-6.08,8.34-4.93s6,5.5,6.33,10c.82-4.28,5.17-6.17,8-3.48a266.81,266.81,0,0,1,1,26.79c0,2-.13,4.1-1.12,5.46-2.34,3.24-7.62-.41-9.65,3.2-.75,1.35-.72,3.23-1,4.91-1.08,6.51-6.54,9.19-11.36,10.73-13.1,4.19-26.56,6.75-40,9.31l-54,10.27a110.58,110.58,0,0,1-17.37,2.36c-10.43.31-12.92-7.19-11.63-19.49,1-9.7,1.08-18.91,1.72-28.55.55-8.21,2.11-13.48,8.47-16.12C1252.14,351.83,1271,356.06,1270.81,365.56Z"/><path class="cls-3" d="M1249.17,372.06a14.71,14.71,0,0,1,.84-3.59c.59-1.37,2-2.76,1.75-4.51C1249.72,365.15,1248.83,369.15,1249.17,372.06Z"/><path class="cls-3" d="M1265.55,384a15.19,15.19,0,0,1,.85-3.59c.59-1.37,1.95-2.76,1.75-4.51C1266.11,377.13,1265.22,381.12,1265.55,384Z"/><path class="cls-3" d="M1285.15,375.75a14.6,14.6,0,0,1,.84-3.59c.59-1.38,2-2.77,1.75-4.51C1285.71,368.84,1284.81,372.83,1285.15,375.75Z"/><path class="cls-3" d="M1299,361.73a15,15,0,0,1,.84-3.59c.6-1.38,2-2.77,1.76-4.52C1299.56,354.81,1298.67,358.81,1299,361.73Z"/><path class="cls-3" d="M1322.25,365.43a14.61,14.61,0,0,1,.85-3.59c.59-1.38,2-2.77,1.75-4.52C1322.81,358.51,1321.92,362.51,1322.25,365.43Z"/><path class="cls-3" d="M1356,352.25a15,15,0,0,1,.85-3.59c.59-1.38,2-2.77,1.75-4.52C1356.52,345.33,1355.63,349.33,1356,352.25Z"/><path class="cls-3" d="M1369.81,352.63a14.69,14.69,0,0,1,.85-3.6c.59-1.37,1.95-2.76,1.75-4.51C1370.37,345.71,1369.48,349.71,1369.81,352.63Z"/></g><g id="creek_bush_4"><path class="cls-2" d="M473.12,575.24c.36-8.23,8.21-13.23,13.51-8.6l.18,6.88c1.9-4.3,3.88-8.72,6.94-11.5s7.54-3.49,10.68-.25a17.87,17.87,0,0,0,2.4,2.5c3.7,2.54,6.72-3.5,9.41-7.34,3.7-5.29,9.92-7,15.25-4.3s9.45,9.85,10.12,17.39c.45-7.58,2-15.57,6.41-19.95s12.27-2.84,14.47,4.41c1.49-3.92,5.11-6,8.39-4.75s5.91,5.58,6.09,10.12c.9-4.25,5.26-6.05,8-3.33.58,8.92.72,17.85.41,26.71-.07,2-.21,4.09-1.21,5.42-2.4,3.18-7.57-.55-9.66,3-.77,1.32-.78,3.2-1.09,4.87-1.21,6.46-6.69,9-11.5,10.47-13.11,3.93-26.53,6.23-39.93,8.52l-53.84,9.21a109.59,109.59,0,0,1-17.31,2c-10.37.11-12.7-7.4-11.16-19.63,1.2-9.65,1.45-18.82,2.28-28.42.7-8.16,2.37-13.38,8.74-15.88C454.85,561.21,473.53,565.78,473.12,575.24Z"/><path class="cls-3" d="M476.94,597.44a21.11,21.11,0,0,1,1.3-5.09c.88-2,2.86-3.89,2.63-6.38C477.93,587.61,476.54,593.27,476.94,597.44Z"/><path class="cls-3" d="M498.92,602.24a15.32,15.32,0,0,1,1-3.74c.64-1.42,2.09-2.85,1.92-4.68C499.65,595,498.63,599.18,498.92,602.24Z"/><path class="cls-3" d="M505,583.58a15.32,15.32,0,0,1,1-3.74c.65-1.43,2.09-2.85,1.92-4.68C505.76,576.36,504.74,580.52,505,583.58Z"/><path class="cls-3" d="M522.9,591.62a24,24,0,0,1,1.45-5.65c1-2.15,3.17-4.3,2.91-7.07C524,580.72,522.47,587,522.9,591.62Z"/><path class="cls-3" d="M536,597.87a23.6,23.6,0,0,1,1.51-5.61c1-2.14,3.21-4.24,3-7C537.25,587,535.65,593.25,536,597.87Z"/><path class="cls-3" d="M578.76,572.92a15.35,15.35,0,0,0,.23-3.53c-.14-1.52-.9-3.54-.29-4.87C580.08,566.81,579.79,570.7,578.76,572.92Z"/><path class="cls-3" d="M566.32,577.79a15.3,15.3,0,0,0,.23-3.52c-.13-1.53-.9-3.55-.29-4.88C567.64,571.68,567.35,575.58,566.32,577.79Z"/><path class="cls-3" d="M559,584.78a15.3,15.3,0,0,0,.22-3.52c-.13-1.52-.89-3.54-.28-4.87C560.3,578.68,560,582.57,559,584.78Z"/></g><g id="creek_bush_3"><path class="cls-4" d="M339.13,577.26c1.25-8.17,9.65-12.29,14.45-7.08l-.57,6.88c2.36-4.08,4.82-8.28,8.19-10.71s7.93-2.64,10.71.93a18.23,18.23,0,0,0,2.12,2.77c3.42,2.94,7.11-2.76,10.21-6.28,4.28-4.87,10.7-5.93,15.72-2.6s8.38,10.86,8.22,18.46c1.28-7.51,3.71-15.3,8.59-19.19s12.58-1.48,14,6c1.92-3.74,5.76-5.39,8.91-3.81s5.3,6.23,5,10.77c1.37-4.14,5.92-5.45,8.41-2.43-.39,9-1.23,17.89-2.5,26.7-.29,1.94-.66,4.05-1.81,5.27-2.74,2.91-7.51-1.38-10,1.93-.92,1.24-1.14,3.11-1.63,4.74-1.91,6.31-7.67,8.27-12.65,9.18-13.53,2.46-27.21,3.27-40.85,4.07l-54.84,3.23a110.33,110.33,0,0,1-17.53.11c-10.39-1-11.9-8.79-9-20.82,2.26-9.5,3.5-18.62,5.38-28.1,1.6-8.06,3.84-13.09,10.48-14.89C322.38,561.24,340.57,567.87,339.13,577.26Z"/><path class="cls-3" d="M316.83,580.92a14.49,14.49,0,0,1,1.3-3.45c.76-1.29,2.29-2.49,2.32-4.25C318.27,574.14,316.87,578,316.83,580.92Z"/><path class="cls-3" d="M331.54,594.91a14.49,14.49,0,0,1,1.3-3.45c.76-1.29,2.29-2.49,2.32-4.25C333,588.13,331.58,592,331.54,594.91Z"/><path class="cls-3" d="M352,589.21a15,15,0,0,1,1.31-3.45c.76-1.29,2.28-2.49,2.31-4.25C353.48,582.43,352.08,586.27,352,589.21Z"/><path class="cls-3" d="M367.58,577.09a14.49,14.49,0,0,1,1.3-3.45c.76-1.29,2.29-2.49,2.32-4.25C369,570.31,367.62,574.15,367.58,577.09Z"/><path class="cls-3" d="M390.16,583.76a14.93,14.93,0,0,1,1.3-3.45c.77-1.29,2.29-2.5,2.32-4.25C391.61,577,390.21,580.82,390.16,583.76Z"/><path class="cls-3" d="M425.29,575a14.93,14.93,0,0,1,1.3-3.45c.77-1.29,2.29-2.49,2.32-4.25C426.73,568.25,425.33,572.09,425.29,575Z"/><path class="cls-3" d="M439,577.19a15.4,15.4,0,0,1,1.3-3.45c.77-1.29,2.29-2.49,2.32-4.25C440.42,570.41,439,574.25,439,577.19Z"/></g><g id="creek_bush_2"><path class="cls-2" d="M198.84,569.71c2.63-7.8,11.56-10.42,15.37-4.5l-1.74,6.66c3-3.61,6.15-7.31,9.87-9.13s8.21-1.25,10.32,2.73a18.54,18.54,0,0,0,1.61,3.07c2.85,3.47,7.43-1.5,11.08-4.43,5-4.06,11.49-4,15.84.1s6.35,12.08,4.89,19.52c2.54-7.16,6.25-14.4,11.7-17.39s12.58.68,12.68,8.26c2.52-3.35,6.57-4.31,9.38-2.24s4.12,7,3,11.42c2.05-3.83,6.73-4.35,8.66-1a266.81,266.81,0,0,1-7,25.77c-.61,1.87-1.34,3.87-2.67,4.87-3.19,2.39-7.12-2.63-10.11.21-1.12,1.06-1.65,2.86-2.41,4.37-3,5.88-8.93,6.82-14,6.87-13.68.13-27.21-1.39-40.72-2.91l-54.27-6.11a109.88,109.88,0,0,1-17.2-2.87c-10-2.77-10.14-10.63-5.27-22,3.84-8.93,6.62-17.67,10.09-26.66,2.94-7.64,6-12.19,12.81-12.83C185.18,551.15,201.86,560.74,198.84,569.71Z"/><path class="cls-3" d="M196.34,592.1a20.8,20.8,0,0,1,2.67-4.53c1.38-1.63,3.82-2.94,4.29-5.4C200,582.93,197.12,588,196.34,592.1Z"/><path class="cls-3" d="M216.12,602.81a16,16,0,0,1,2-3.32c1-1.19,2.8-2.15,3.15-4C218.82,596.09,216.7,599.8,216.12,602.81Z"/><path class="cls-3" d="M227.18,586.59a15.37,15.37,0,0,1,2-3.33c1-1.19,2.8-2.15,3.14-4C229.88,579.86,227.75,583.57,227.18,586.59Z"/><path class="cls-3" d="M242.11,599.28a23.8,23.8,0,0,1,3-5c1.54-1.8,4.24-3.26,4.76-6C246.2,589.11,243,594.72,242.11,599.28Z"/><path class="cls-3" d="M253,608.93a23.54,23.54,0,0,1,3-5c1.56-1.77,4.27-3.18,4.82-5.9C257.18,598.83,253.91,604.38,253,608.93Z"/><path class="cls-3" d="M301,596.84a15.35,15.35,0,0,0,1.19-3.33c.3-1.5.13-3.65,1.08-4.76C303.93,591.34,302.57,595,301,596.84Z"/><path class="cls-3" d="M287.67,598.06a15.7,15.7,0,0,0,1.19-3.33c.3-1.5.12-3.65,1.08-4.75C290.63,592.56,289.27,596.22,287.67,598.06Z"/><path class="cls-3" d="M278.67,602.74a15.38,15.38,0,0,0,1.2-3.33c.29-1.5.12-3.65,1.08-4.75C281.63,597.24,280.27,600.89,278.67,602.74Z"/><path class="cls-3" d="M306.5,608.75a15.29,15.29,0,0,1,1.87-3.18c1-1.14,2.69-2.06,3-3.79C309.09,602.32,307.05,605.86,306.5,608.75Z"/></g><g id="creek_bush_1"><path class="cls-4" d="M71.73,516.13a21.93,21.93,0,0,1,5-5.46c2-1.34,4.54-1.85,6.57-.6s3,3.69,3.74,6.1a45.2,45.2,0,0,1,1.7,17,27.21,27.21,0,0,1,16-5.75c2.3,7.74.74,16.85-3.93,23,2.21-4.53,6.47-8.08,10.94-7.52s8.24,6.4,6.45,11.18a24.34,24.34,0,0,1,16.62-11.23,9.53,9.53,0,0,1,6.24.83c4,2.31,5,9.57,1.75,13.17a7.7,7.7,0,0,1,5.64-5.89,12.61,12.61,0,0,1,7.86,1.1c3.18,1.35,6.32,3.55,7.81,7.07s.65,8.54-2.43,10.16a14.46,14.46,0,0,1,6.64,1.58,6.87,6.87,0,0,1,3.39,6.32c-.26,2.62-3,4.7-5,3.32a13.49,13.49,0,0,1,9.15,1.84c2.18,4.91-.72,11.2-4.92,13.79s-1.31,2.31-6.06,2.06c-9.57-.5-27-1.08-36.61-1.79l-13.66-1c-7-.52-18.54-1.38-25.41-2.73-7.53-1.48-14.64-1.07-22.15-2.63-7.84-1.62-25.46-6.47-33.4-7.08,1.56-5.48,3.37-6.79,6.5-17.79,5.47-18.93-5.47-60.84,16-60.59C60.65,502.54,71,513.1,71.73,516.13Z"/><path class="cls-3" d="M72.38,532.41a26.24,26.24,0,0,1,3-6.69c1.74-2.5,5.21-4.83,5.28-8.24C75.67,519.26,72.48,526.71,72.38,532.41Z"/><path class="cls-3" d="M56.2,554.14A16.86,16.86,0,0,1,58.06,550c1.09-1.57,3.27-3,3.31-5.16C58.26,545.9,56.27,550.57,56.2,554.14Z"/><path class="cls-3" d="M90.81,544.19a30.31,30.31,0,0,1,1.54-4c.79-1.56,2.16-3.22,2.44-5.11C93,536.58,91.29,541,90.81,544.19Z"/><path class="cls-3" d="M96.25,563.46a17.64,17.64,0,0,1,1.94-4.38c1.14-1.63,3.42-3.16,3.46-5.39C98.41,554.86,96.32,559.74,96.25,563.46Z"/><path class="cls-3" d="M79.13,578.73a18.65,18.65,0,0,0,1-4.79c.07-2.1-.76-5,.44-6.69C82.31,570.56,81.14,575.84,79.13,578.73Z"/><path class="cls-3" d="M114.48,573.06a26.46,26.46,0,0,1,3-6.7c1.74-2.49,5.22-4.83,5.29-8.23C117.77,559.91,114.58,567.36,114.48,573.06Z"/><path class="cls-3" d="M104.94,588a13,13,0,0,0,.68-3.32c0-1.45-.56-3.45.28-4.64C107.15,582.34,106.35,586,104.94,588Z"/><path class="cls-3" d="M114.48,573.06a26.46,26.46,0,0,1,3-6.7c1.74-2.49,5.22-4.83,5.29-8.23C117.77,559.91,114.58,567.36,114.48,573.06Z"/><path class="cls-3" d="M114.48,573.06a26.46,26.46,0,0,1,3-6.7c1.74-2.49,5.22-4.83,5.29-8.23C117.77,559.91,114.58,567.36,114.48,573.06Z"/><path class="cls-3" d="M65.6,574.73a14.78,14.78,0,0,0,.78-3.78c0-1.66-.65-3.94.31-5.3C68.12,568.29,67.21,572.46,65.6,574.73Z"/><path class="cls-3" d="M142.85,575.07a26.46,26.46,0,0,1,3-6.7c1.74-2.49,5.21-4.83,5.28-8.23C146.14,561.92,143,569.37,142.85,575.07Z"/></g></g><path id="creek" class="cls-5" d="M3.5,592.78S87.64,596.5,137,621.85c65.14,33.47,224.05,45.63,426.13,14.7,127.53-19.51,580.2-224,884.29-205.93,98.16,8.59,162.7,29.91,304.16,48.35,70.4,9.18,106.76-21,166.69-23"/><g id="peony_garden"><path class="cls-6" d="M1178.94,849.49a179.65,179.65,0,0,1,32.45-100.38,2,2,0,0,0-.34-2.67l-10-8.51a2,2,0,0,0-2.94.38c-21.54,31.19-34.3,70.46-34.71,111.13a2,2,0,0,0,2,2h11.56A2,2,0,0,0,1178.94,849.49Z"/><path class="cls-6" d="M1341.67,669.9V656.59a2,2,0,0,0-2.2-2,195.84,195.84,0,0,0-126.35,64.66,2,2,0,0,0,.21,2.87l10.28,8.59a2,2,0,0,0,2.75-.19c28.87-31.53,68.72-53.74,113.53-58.64A2,2,0,0,0,1341.67,669.9Z"/><path class="cls-6" d="M1203.21,851.46h13.24a2,2,0,0,0,2-2,140.44,140.44,0,0,1,23.24-74.69,2,2,0,0,0-.36-2.63l-11.29-9.6a2,2,0,0,0-3,.42c-16,24.47-25.47,55.12-25.86,86.45A2,2,0,0,0,1203.21,851.46Z"/><path class="cls-6" d="M1312.8,717.71a62.43,62.43,0,0,1,2.82-16.82,2,2,0,0,0-2.48-2.56,158.54,158.54,0,0,0-71,45.19,2,2,0,0,0,.21,2.88l11.5,9.62a2,2,0,0,0,2.79-.22c14.29-16.26,35.64-31.67,54.57-36.18A2,2,0,0,0,1312.8,717.71Z"/><path class="cls-6" d="M1257.42,788.93c-10,17.26-15.82,39.24-16.17,60.51a2,2,0,0,0,2,2h13.5a2,2,0,0,0,2-2c.32-17.23,4.92-35.43,12.72-49.56a2,2,0,0,0-.44-2.5l-10.6-9A2,2,0,0,0,1257.42,788.93Z"/><path class="cls-6" d="M1326,750.9a48.41,48.41,0,0,1-8-11.5,2,2,0,0,0-2.53-.94,119.7,119.7,0,0,0-43.08,30.26,2,2,0,0,0,.21,2.88l10.54,8.81a2,2,0,0,0,2.75-.18,101,101,0,0,1,39.44-26.09A2,2,0,0,0,1326,750.9Z"/><path class="cls-6" d="M1280.88,851.46h14.19a2,2,0,0,0,2-1.94c1.17-26.79,18.9-50.16,43.22-58.3a2,2,0,0,0,1.38-1.89V773.56a2,2,0,0,0-2.53-1.93c-34.06,9-59.36,41.12-60.26,77.8A2,2,0,0,0,1280.88,851.46Z"/><rect class="cls-6" x="1161.34" y="864.32" width="178.93" height="17.2" rx="2"/><path class="cls-6" d="M1541,849.49a179.65,179.65,0,0,0-32.45-100.38,2,2,0,0,1,.34-2.67l10-8.51a2,2,0,0,1,2.94.38c21.54,31.19,34.3,70.46,34.71,111.13a2,2,0,0,1-2,2H1543A2,2,0,0,1,1541,849.49Z"/><path class="cls-6" d="M1378.23,669.9V656.59a2,2,0,0,1,2.2-2,195.84,195.84,0,0,1,126.35,64.66,2,2,0,0,1-.21,2.87l-10.28,8.59a2,2,0,0,1-2.75-.19c-28.87-31.53-68.72-53.74-113.53-58.64A2,2,0,0,1,1378.23,669.9Z"/><path class="cls-6" d="M1516.69,851.46h-13.24a2,2,0,0,1-2-2,140.44,140.44,0,0,0-23.24-74.69,2,2,0,0,1,.36-2.63l11.29-9.6a2,2,0,0,1,3,.42c16,24.47,25.47,55.12,25.86,86.45A2,2,0,0,1,1516.69,851.46Z"/><path class="cls-6" d="M1407.1,717.71a62.43,62.43,0,0,0-2.82-16.82,2,2,0,0,1,2.48-2.56,158.54,158.54,0,0,1,71,45.19,2,2,0,0,1-.2,2.88L1466,756a2,2,0,0,1-2.79-.22c-14.29-16.26-35.64-31.67-54.57-36.18A2,2,0,0,1,1407.1,717.71Z"/><path class="cls-6" d="M1462.48,788.93c10,17.26,15.82,39.24,16.17,60.51a2,2,0,0,1-2,2h-13.5a2,2,0,0,1-2-2c-.32-17.23-4.92-35.43-12.72-49.56a2,2,0,0,1,.44-2.5l10.6-9A2,2,0,0,1,1462.48,788.93Z"/><path class="cls-6" d="M1393.92,750.9a48.41,48.41,0,0,0,8-11.5,2,2,0,0,1,2.53-.94,119.7,119.7,0,0,1,43.08,30.26,2,2,0,0,1-.21,2.88l-10.54,8.81a2,2,0,0,1-2.75-.18,101,101,0,0,0-39.44-26.09A2,2,0,0,1,1393.92,750.9Z"/><path class="cls-6" d="M1439,851.46h-14.19a2,2,0,0,1-2-1.94c-1.17-26.79-18.9-50.16-43.22-58.3a2,2,0,0,1-1.38-1.89V773.56a2,2,0,0,1,2.53-1.93c34.06,9,59.36,41.12,60.26,77.8A2,2,0,0,1,1439,851.46Z"/><rect class="cls-6" x="1378.92" y="863.32" width="178.93" height="19.27" rx="2"/><path class="cls-6" d="M1548.11,712.78l-10,8.26a2,2,0,0,0-.39,2.66c22.25,33,39.14,80.22,41.12,125.79a2,2,0,0,0,2,1.91l12.72.05a2,2,0,0,0,2-2.07c-2-49.54-21.15-101.42-44.49-136.19A2,2,0,0,0,1548.11,712.78Z"/><path class="cls-7" d="M1397.44,717.83A38,38,0,0,0,1368.53,681v-94.1h-17.9V681a38,38,0,0,0,0,73.77V916.14h17.9V754.72A38,38,0,0,0,1397.44,717.83Z"/></g><g id="water_feature"><path class="cls-6" d="M943.65,740.62c-3.73,4.41-8.32,14.54-13.15,18.49-5,4.1-10.91,6.41-12.21,12.13a62.74,62.74,0,0,1-5,14.23c-1.89,4.11-16.31,12.44-19.56,13.95-6.54,3-14.35,3.37-21.84,3.63-13.54.46-37.26,0-47.85-7.06-5.6-3.71-13.27-1.94-28.6,7.38-15.59,9.48-45.49,11.3-54.2-.14-4.87-6.4-1.65-19.88,3.27-25.05,4.5-4.73,17.28-20.67,44.65-18.21,8.55.77,17.8.54,22.28-13.07.5-1.52-.12-6.17,5.68-12,13-13,39.81-20,59.5-22,12.62-1.27,18.55-1.23,28.71-7.6,3-1.9,16.31-2.45,20-1.57,10.8,2.6,9,4.49,13.94,9.58C944.91,719.32,947.54,736,943.65,740.62Z"/><path class="cls-8" d="M936.21,741.25c1.19,11.84-12.85,14.81-19.1,23.2-9.12,12.25-2.78,18.09-19.25,27.87-21,12.49-42.47,8-65,2.19-26.87-6.94-33,7.21-58.21,12.62-19.79,4.26-41.86-5.15-27.12-27.65,3.79-5.79,10.41-8.7,16.49-11.62,9.9-4.74,35.55-1.22,41.47-5.59,11.86-8.77,7-24.76,28-33.16,19.72-7.87,46.45-11.06,67-14.72,10-1.79,20.84-8.83,31.17.18C942.71,724.22,934.91,728.35,936.21,741.25Z"/><path class="cls-9" d="M837,758.36c.12-2.23,3.53-3.16,6.25-3.38s6.11-.7,6.88-2.84"/><path class="cls-9" d="M851.09,779.7a7.68,7.68,0,0,1,6.39-3.74c1.68-.09,3.37.28,5,.13S866,775,866,773.62"/><path class="cls-9" d="M887.84,763.78c3.74.89,6.59-4.18,10.42-3.24"/><path class="cls-9" d="M896.85,736c1.71-3.34,5.59-5.89,10-6.55"/><path class="cls-9" d="M761.75,792c1.21-1.94,2.23-2.86,4.51-2.25a13.61,13.61,0,0,0,1.38.41c2,.29,3-1.95,3.11-3.61"/><path class="cls-9" d="M797.22,779.92c.77-1.59,1.62-2.23,2.65-2.21a4.79,4.79,0,0,1,2.25,1,3.56,3.56,0,0,0,2.54.73c1.32-.1,2.34-1.09,2.26-3"/></g><g id="memory_garden_circle"><g id="trees_around_memoryGarden"><path class="cls-10" d="M153.46,257.56c-1.33,3.87-1.76,8.31-.4,12.13a5.13,5.13,0,0,0,1.37,2.23,5,5,0,0,0,1.81.86,11.07,11.07,0,0,0,3.48.71c3.42,0,6.18-3.1,8.44-6.06,4-5.25,5.7-13.17-1.34-16.33C161.75,248.83,155.4,251.89,153.46,257.56Z"/><path class="cls-2" d="M157.75,255.45c-.16,2.75.36,4.89,2.34,6.43a7.11,7.11,0,0,0,4.29,1.45,13.28,13.28,0,0,0,5.23-.54c.39-.11.49.12,1-.22a1.92,1.92,0,0,0,.5-.59c2.31-3.64,2.55-8.42,2.56-12.89,0-2.27-.46-4.36-2.12-5.57a5.92,5.92,0,0,0-4.07-1c-3.27.48-5.13,3.24-6.72,4.87C158.71,249.47,157.83,254.2,157.75,255.45Z"/><path class="cls-10" d="M184.51,229.22c-1.32,3.87-1.76,8.3-.39,12.13a5.12,5.12,0,0,0,1.36,2.23,5.23,5.23,0,0,0,1.82.85,11.31,11.31,0,0,0,3.47.72c3.42,0,6.19-3.11,8.45-6.07,4-5.25,5.69-13.16-1.34-16.32C192.81,220.48,186.46,223.55,184.51,229.22Z"/><path class="cls-2" d="M188.81,227.1c-.16,2.75.35,4.89,2.34,6.43a7,7,0,0,0,4.29,1.45,13.1,13.1,0,0,0,5.23-.54c.38-.11.48.12,1-.22a1.94,1.94,0,0,0,.5-.59c2.3-3.63,2.55-8.41,2.56-12.89,0-2.26-.46-4.36-2.12-5.57a5.91,5.91,0,0,0-4.07-1c-3.28.47-5.13,3.23-6.73,4.86C189.76,221.13,188.88,225.86,188.81,227.1Z"/><path class="cls-10" d="M226.09,211.94c-1.33,3.87-1.77,8.31-.4,12.13a5.13,5.13,0,0,0,1.37,2.23,5,5,0,0,0,1.81.86,11.37,11.37,0,0,0,3.48.72c3.41,0,6.18-3.11,8.44-6.07,4-5.25,5.7-13.16-1.34-16.32C234.38,203.21,228,206.27,226.09,211.94Z"/><path class="cls-2" d="M230.38,209.83c-.16,2.75.35,4.89,2.34,6.43a7,7,0,0,0,4.29,1.45,13.28,13.28,0,0,0,5.23-.54c.38-.11.49.12,1-.22a1.92,1.92,0,0,0,.5-.59c2.3-3.64,2.55-8.42,2.56-12.89,0-2.27-.46-4.36-2.12-5.57a5.92,5.92,0,0,0-4.07-1c-3.28.48-5.13,3.24-6.73,4.87C231.33,203.85,230.45,208.58,230.38,209.83Z"/><path class="cls-10" d="M134.87,302.37c-1.33,3.87-1.76,8.3-.39,12.13a5,5,0,0,0,1.36,2.23,5.18,5.18,0,0,0,1.81.85,11.14,11.14,0,0,0,3.48.72c3.42,0,6.18-3.11,8.44-6.07,4-5.24,5.7-13.16-1.34-16.32C143.16,293.63,136.81,296.7,134.87,302.37Z"/><path class="cls-2" d="M139.16,300.25c-.16,2.76.36,4.9,2.35,6.44a7.08,7.08,0,0,0,4.28,1.45,13.29,13.29,0,0,0,5.23-.55c.39-.11.49.12,1-.21a2.17,2.17,0,0,0,.49-.59c2.31-3.64,2.55-8.42,2.56-12.9,0-2.26-.46-4.36-2.12-5.57a5.9,5.9,0,0,0-4.06-1c-3.28.47-5.14,3.23-6.73,4.87C140.12,294.28,139.24,299,139.16,300.25Z"/><path class="cls-10" d="M129.84,347.33c-1.33,3.87-1.77,8.3-.4,12.13a4,4,0,0,0,3.18,3.08,11.08,11.08,0,0,0,3.47.72c3.42,0,6.19-3.11,8.45-6.07,4-5.24,5.69-13.16-1.34-16.32C138.13,338.59,131.78,341.66,129.84,347.33Z"/><path class="cls-2" d="M134.13,345.21c-.16,2.76.35,4.9,2.34,6.44a7.11,7.11,0,0,0,4.29,1.45,13.31,13.31,0,0,0,5.23-.55c.38-.11.49.13,1-.21a2,2,0,0,0,.5-.59c2.3-3.64,2.55-8.42,2.56-12.9,0-2.26-.46-4.36-2.12-5.57a5.91,5.91,0,0,0-4.07-1c-3.28.47-5.13,3.23-6.73,4.87C135.08,339.24,134.2,344,134.13,345.21Z"/><path class="cls-10" d="M139,390.69c-1.33,3.87-1.77,8.3-.4,12.13a4,4,0,0,0,3.18,3.08,11.37,11.37,0,0,0,3.48.72c3.41,0,6.18-3.11,8.44-6.07,4-5.24,5.7-13.16-1.34-16.32C147.3,382,141,385,139,390.69Z"/><path class="cls-2" d="M143.3,388.57c-.16,2.75.36,4.89,2.34,6.43a7,7,0,0,0,4.29,1.45,13.1,13.1,0,0,0,5.23-.54c.39-.11.49.12,1-.21a2,2,0,0,0,.5-.6c2.3-3.63,2.55-8.41,2.56-12.89,0-2.26-.46-4.36-2.12-5.57a5.91,5.91,0,0,0-4.07-1c-3.27.47-5.13,3.23-6.72,4.86C144.26,382.6,143.38,387.33,143.3,388.57Z"/><path class="cls-10" d="M161.48,428.48c-1.33,3.87-1.76,8.3-.4,12.13a4,4,0,0,0,3.18,3.08,11.08,11.08,0,0,0,3.48.72c3.42,0,6.18-3.11,8.44-6.07,4-5.24,5.7-13.16-1.34-16.32C169.77,419.74,163.42,422.81,161.48,428.48Z"/><path class="cls-2" d="M165.77,426.36c-.16,2.76.36,4.89,2.34,6.44a7.11,7.11,0,0,0,4.29,1.45,13.31,13.31,0,0,0,5.23-.55c.39-.11.49.12,1-.21a2,2,0,0,0,.5-.59c2.31-3.64,2.55-8.42,2.56-12.9,0-2.26-.46-4.36-2.12-5.57a5.91,5.91,0,0,0-4.07-1c-3.27.47-5.13,3.23-6.72,4.86C166.73,420.39,165.85,425.12,165.77,426.36Z"/><path class="cls-10" d="M199,455.8c-1.33,3.87-1.77,8.3-.4,12.13a4,4,0,0,0,3.18,3.08,11.08,11.08,0,0,0,3.48.72c3.41,0,6.18-3.11,8.44-6.07,4-5.24,5.7-13.16-1.34-16.32C207.27,447.06,200.92,450.13,199,455.8Z"/><path class="cls-2" d="M203.27,453.68c-.16,2.76.36,4.9,2.34,6.44a7.11,7.11,0,0,0,4.29,1.45,13.31,13.31,0,0,0,5.23-.55c.39-.11.49.13,1-.21a2,2,0,0,0,.5-.59c2.31-3.64,2.55-8.42,2.56-12.89,0-2.27-.46-4.37-2.12-5.58a5.91,5.91,0,0,0-4.07-1c-3.27.47-5.13,3.23-6.72,4.87C204.23,447.71,203.35,452.44,203.27,453.68Z"/><path class="cls-10" d="M238.87,468.64c-1.33,3.87-1.76,8.31-.39,12.13a5,5,0,0,0,1.36,2.23,5.39,5.39,0,0,0,1.81.86,11.13,11.13,0,0,0,3.48.71c3.42,0,6.18-3.1,8.44-6.06,4-5.25,5.7-13.17-1.34-16.33C247.16,459.91,240.81,463,238.87,468.64Z"/><path class="cls-2" d="M243.16,466.53c-.16,2.75.36,4.89,2.35,6.43a7.08,7.08,0,0,0,4.28,1.45,13.26,13.26,0,0,0,5.23-.54c.39-.11.49.12,1-.22a2.17,2.17,0,0,0,.49-.59c2.31-3.64,2.55-8.42,2.56-12.89,0-2.27-.46-4.36-2.12-5.58a5.94,5.94,0,0,0-4.06-1c-3.28.48-5.14,3.24-6.73,4.87C244.12,460.55,243.24,465.28,243.16,466.53Z"/></g><g id="memory_garden"><path id="memory_garden_path" class="cls-6" d="M446,333l-127.26.66a43.29,43.29,0,1,0-.32,14.74l127.41-1.17Z"/><circle class="cls-7" cx="275.74" cy="340.31" r="40.68"/><g id="memory_gazebo_icon"><polygon class="cls-6" points="261.52 357.22 261.52 354.46 259.85 354.46 259.85 333.61 260.72 333.61 260.72 331.02 255.4 331.02 255.4 333.61 256.35 333.61 256.35 354.46 254.53 354.46 254.53 357.22 256.35 357.22 256.35 361.69 256.2 361.69 254.53 361.69 254.53 363.48 261.52 363.48 261.52 361.69 259.85 361.69 259.85 357.22 261.52 357.22"/><polygon class="cls-6" points="271.22 357.22 271.22 354.46 269.54 354.46 269.54 333.61 270.41 333.61 270.41 331.02 265.1 331.02 265.1 333.61 266.05 333.61 266.05 354.46 264.22 354.46 264.22 357.22 266.05 357.22 266.05 361.69 264.22 361.69 264.22 363.48 271.22 363.48 271.22 361.69 269.54 361.69 269.54 357.22 271.22 357.22"/><polygon class="cls-6" points="287.26 357.22 287.26 354.46 285.58 354.46 285.58 333.61 286.45 333.61 286.45 331.02 281.13 331.02 281.13 333.61 282.08 333.61 282.08 354.46 280.26 354.46 280.26 357.22 282.08 357.22 282.08 361.69 280.26 361.69 280.26 363.48 287.26 363.48 287.26 361.69 285.58 361.69 285.58 357.22 287.26 357.22"/><polygon class="cls-6" points="296.95 357.22 296.95 354.46 295.28 354.46 295.28 333.61 296.15 333.61 296.15 331.02 290.83 331.02 290.83 333.61 291.78 333.61 291.78 354.46 289.96 354.46 289.96 357.22 291.78 357.22 291.78 361.69 289.96 361.69 289.96 363.48 296.95 363.48 296.95 361.69 295.28 361.69 295.28 357.22 296.95 357.22"/><path class="cls-11" d="M275.77,311.66A19.32,19.32,0,0,0,256.45,331h3l16.36,0,16.37,0h2.95A19.32,19.32,0,0,0,275.77,311.66Z"/><path class="cls-12" d="M275.77,311.66c-7.53,0-15.55,11.42-15.55,19.36h31.11C291.33,323.08,283.31,311.66,275.77,311.66Z"/><path class="cls-12" d="M275.77,311.66c-5.83,0-9.26,11.42-9.26,19.34l9.26,0,9.27,0C285,323.08,281.61,311.66,275.77,311.66Z"/></g></g><path class="cls-13" d="M395.41,217.76c-84.07,56.94-84.07,188.83,0,246.49"/><path class="cls-14" d="M345.76,275.84c42,28.47,42,94.41,0,123.24"/><path class="cls-14" d="M367.63,242.59c61.08,45,61.08,149.42,0,195"/></g><g id="gazebo"><circle class="cls-6" cx="1359.58" cy="718.08" r="33.41"/><g id="gazebo_icon"><polygon class="cls-15" points="1346.45 732.89 1346.45 730.5 1344.99 730.5 1344.99 712.42 1345.74 712.42 1345.74 710.17 1341.13 710.17 1341.13 712.42 1341.96 712.42 1341.96 730.5 1341.83 730.5 1340.38 730.5 1340.38 732.89 1341.83 732.89 1341.96 732.89 1341.96 736.77 1341.83 736.77 1340.38 736.77 1340.38 738.31 1341.83 738.31 1344.99 738.31 1346.45 738.31 1346.45 736.77 1344.99 736.77 1344.99 732.89 1346.45 732.89"/><polygon class="cls-15" points="1354.85 732.89 1354.85 730.5 1353.4 730.5 1353.4 712.42 1354.15 712.42 1354.15 710.17 1349.54 710.17 1349.54 712.42 1350.37 712.42 1350.37 730.5 1350.24 730.5 1348.79 730.5 1348.79 732.89 1350.24 732.89 1350.37 732.89 1350.37 736.77 1350.24 736.77 1348.79 736.77 1348.79 738.31 1350.24 738.31 1353.4 738.31 1354.85 738.31 1354.85 736.77 1353.4 736.77 1353.4 732.89 1354.85 732.89"/><polygon class="cls-15" points="1370.76 732.89 1370.76 730.5 1369.31 730.5 1369.31 712.42 1370.06 712.42 1370.06 710.17 1365.45 710.17 1365.45 712.42 1366.28 712.42 1366.28 730.5 1366.15 730.5 1364.69 730.5 1364.69 732.89 1366.15 732.89 1366.28 732.89 1366.28 736.76 1366.15 736.76 1364.69 736.76 1364.69 738.31 1366.15 738.31 1369.31 738.31 1370.76 738.31 1370.76 736.76 1369.31 736.76 1369.31 732.89 1370.76 732.89"/><polygon class="cls-15" points="1379.17 732.89 1379.17 730.5 1377.71 730.5 1377.71 712.41 1378.47 712.41 1378.47 710.17 1373.86 710.17 1373.86 712.41 1374.68 712.41 1374.68 730.5 1374.56 730.5 1373.1 730.5 1373.1 732.89 1374.56 732.89 1374.68 732.89 1374.68 736.76 1374.56 736.76 1373.1 736.76 1373.1 738.31 1374.56 738.31 1377.71 738.31 1379.17 738.31 1379.17 736.76 1377.71 736.76 1377.71 732.89 1379.17 732.89"/><path class="cls-16" d="M1359.93,693.39a16.75,16.75,0,0,0-16.75,16.75h2.57l14.18,0,14.19,0h2.56A16.75,16.75,0,0,0,1359.93,693.39Z"/><path class="cls-16" d="M1359.93,693.39c-6.53,0-13.48,9.9-13.48,16.78h27C1373.42,703.29,1366.47,693.39,1359.93,693.39Z"/><path class="cls-16" d="M1359.93,693.39c-5.06,0-8,9.9-8,16.77H1368C1368,703.29,1365,693.39,1359.93,693.39Z"/><polygon class="cls-15" points="1360.39 691.12 1359.93 687.59 1359.93 687.59 1359.48 691.12 1359.02 691.12 1359.02 710.17 1360.85 710.17 1360.85 691.12 1360.39 691.12"/><rect class="cls-15" x="1344.3" y="703.2" width="31.26" height="1.83"/><rect class="cls-15" x="1347.82" y="697.97" width="24.23" height="1.83"/></g></g><g id="daylily_garden"><g id="daylily_bottom"><path class="cls-17" d="M1426.54,236c-2.34-18.36,28.48-25.37,28.48-25.37s32.61,3.87,35,22.22-10,33.95-27.48,34.82S1428.88,254.32,1426.54,236Z"/><path class="cls-18" d="M1437.12,213.61s-3.7,22,11.32,40.89c8.31,10.42,13.8,10,19.56-1,10.75-20.46,4.5-43.31,4.5-43.31"/><path class="cls-18" d="M1455,210.59a108.42,108.42,0,0,0,3.12,37.54"/></g><g id="daylily_top_left"><path class="cls-17" d="M1440.72,157.57c16,9.27,2.91,38,2.91,38s-22.85,23.59-38.87,14.32-21-28.5-11-43S1424.7,148.29,1440.72,157.57Z"/><path class="cls-18" d="M1452.08,179.52s-15.28-16.29-39.38-15.78c-13.33.29-16.33,4.91-11.1,16.14,9.76,21,31.72,29.84,31.72,29.84"/><path class="cls-18" d="M1411.88,175.32a148,148,0,0,1,31.75,20.27"/></g><g id="daylily_top_right"><path class="cls-17" d="M1503.19,206.38c-15.48,10.15-35.28-14.47-35.28-14.47s-10.82-31,4.65-41.16,34.88-5.92,43.34,9.44S1518.67,196.23,1503.19,206.38Z"/><path class="cls-18" d="M1480.51,206.67s21.42-6.33,31.78-28.1c5.73-12,3-16.79-9.43-17.16-23.1-.69-40.9,14.94-40.9,14.94"/><path class="cls-18" d="M1500.28,172.64a131.48,131.48,0,0,0-32.37,19.27"/></g></g><g id="ovbg_icon"><g id="wing_left"><path class="cls-19" d="M1716.47,975c10.73-14.22,22.62-9.94,34.91-7.1v8.37S1727.15,969.42,1716.47,975Z"/><path class="cls-20" d="M1707.56,986.72c10.7-13.19,17.09-12.31,24.51-10.86,9.17,1.78,10.63,3.06,19.31,2.76v7.08a22.06,22.06,0,0,1-7.18,1.34,60.49,60.49,0,0,1-13.46-1.91C1725.36,983.46,1715.34,981.8,1707.56,986.72Z"/></g><g id="wing_right"><path class="cls-21" d="M1817.52,976.1c-10.73,14.21-22.62,9.94-34.91,7.09v-8.37S1806.84,981.68,1817.52,976.1Z"/><path class="cls-22" d="M1826.43,964.37c-10.7,13.19-17.09,12.31-24.51,10.87-9.17-1.78-10.63-3.07-19.31-2.76v-7.09a22.21,22.21,0,0,1,7.18-1.33,61.11,61.11,0,0,1,13.46,1.9C1808.63,967.63,1818.65,969.29,1826.43,964.37Z"/></g><g id="gazebo_logo"><polygon class="cls-15" points="1757.15 980.76 1757.15 978.99 1756.08 978.99 1756.08 965.61 1756.64 965.61 1756.64 963.95 1753.23 963.95 1753.23 965.61 1753.84 965.61 1753.84 978.99 1753.74 978.99 1752.67 978.99 1752.67 980.76 1753.74 980.76 1753.84 980.76 1753.84 983.62 1753.74 983.62 1752.67 983.62 1752.67 984.77 1753.74 984.77 1756.08 984.77 1757.15 984.77 1757.15 983.62 1756.08 983.62 1756.08 980.76 1757.15 980.76"/><polygon class="cls-15" points="1763.37 980.76 1763.37 978.99 1762.3 978.99 1762.3 965.61 1762.86 965.61 1762.86 963.95 1759.45 963.95 1759.45 965.61 1760.06 965.61 1760.06 978.99 1759.96 978.99 1758.88 978.99 1758.88 980.76 1759.96 980.76 1760.06 980.76 1760.06 983.62 1759.96 983.62 1758.88 983.62 1758.88 984.77 1759.96 984.77 1762.3 984.77 1763.37 984.77 1763.37 983.62 1762.3 983.62 1762.3 980.76 1763.37 980.76"/><polygon class="cls-15" points="1775.14 980.76 1775.14 978.99 1774.06 978.99 1774.06 965.61 1774.62 965.61 1774.62 963.95 1771.21 963.95 1771.21 965.61 1771.82 965.61 1771.82 978.99 1771.73 978.99 1770.65 978.99 1770.65 980.76 1771.73 980.76 1771.82 980.76 1771.82 983.62 1771.73 983.62 1770.65 983.62 1770.65 984.77 1771.73 984.77 1774.06 984.77 1775.14 984.77 1775.14 983.62 1774.06 983.62 1774.06 980.76 1775.14 980.76"/><polygon class="cls-15" points="1781.36 980.76 1781.36 978.99 1780.28 978.99 1780.28 965.61 1780.84 965.61 1780.84 963.95 1777.43 963.95 1777.43 965.61 1778.04 965.61 1778.04 978.99 1777.95 978.99 1776.87 978.99 1776.87 980.76 1777.95 980.76 1778.04 980.76 1778.04 983.62 1777.95 983.62 1776.87 983.62 1776.87 984.77 1777.95 984.77 1780.28 984.77 1781.36 984.77 1781.36 983.62 1780.28 983.62 1780.28 980.76 1781.36 980.76"/><path class="cls-23" d="M1767.13,951.54a12.39,12.39,0,0,0-12.39,12.39h1.9l10.49,0,10.5,0h1.89A12.39,12.39,0,0,0,1767.13,951.54Z"/><path class="cls-23" d="M1767.13,951.54c-4.83,0-10,7.32-10,12.41h20C1777.11,958.86,1772,951.54,1767.13,951.54Z"/><path class="cls-23" d="M1767.13,951.54c-3.74,0-5.94,7.32-5.94,12.4h11.88C1773.07,958.86,1770.87,951.54,1767.13,951.54Z"/><polygon class="cls-15" points="1767.47 949.86 1767.12 947.25 1767.12 947.25 1766.79 949.86 1766.46 949.86 1766.46 963.95 1767.81 963.95 1767.81 949.86 1767.47 949.86"/><rect class="cls-15" x="1755.57" y="958.79" width="23.13" height="1.35"/><rect class="cls-15" x="1758.17" y="954.93" width="17.92" height="1.35"/></g><text id="OSHAWA_VALLEY_BOTANICAL_GARDENS" data-name="OSHAWA VALLEY BOTANICAL GARDENS" class="cls-24" transform="translate(1721.37 1002.01)">OSH<tspan class="cls-25" x="23.99" y="0">A</tspan><tspan class="cls-26" x="31.65" y="0">W</tspan><tspan x="42.28" y="0">A </tspan><tspan class="cls-27" x="53.71" y="0">V</tspan><tspan x="60.63" y="0">ALLEY</tspan><tspan class="cls-28"><tspan x="-13.56" y="12.96">B</tspan><tspan class="cls-29" x="-7.28" y="12.96">O</tspan><tspan class="cls-30" x="2.23" y="12.96">T</tspan><tspan class="cls-29" x="7.33" y="12.96">ANI</tspan><tspan class="cls-31" x="28.11" y="12.96">C</tspan><tspan class="cls-32" x="35.64" y="12.96">AL </tspan><tspan class="cls-33" x="52.23" y="12.96">G</tspan><tspan class="cls-29" x="61.14" y="12.96">ARDENS</tspan></tspan></text></g><g id="paths"><g id="path_south_of_creek"><path id="path_left_of_water_feature" class="cls-34" d="M355.65,750.71S399.72,865,566,834.89C656.64,818.48,709.25,699.4,709.25,699.4"/><path id="water_feature_bridge" class="cls-34" d="M631.31,803.12s64.39,44,140,44c56,0,106.8-11.4,160.94-37.47,76.22-36.7,108-109.39,108-109.39"/><path id="parking_to_bike_right" class="cls-34" d="M1191.67,923.63h-94.5a2,2,0,0,1-2-2V792.51S1134.88,634,1284.37,573.9"/><path id="parking_to_bike_left" class="cls-34" d="M944,632.55s121.74,48,151.14,160"/><g id="arena_st_to_bike"><path id="going_left" class="cls-35" d="M1636.83,1079.67c-.88-23.25,25.94-121,3.92-308.46-4.47-25.2-40.35-117.83-92.72-137.89"/><path id="going_right" class="cls-35" d="M1640.75,771.21s-18.36-103.53,91.91-134.82"/></g></g><g id="bridge"><line class="cls-36" x1="1774.61" y1="325.13" x2="1724.15" y2="640.56"/><path class="cls-37" d="M1736.07,562.37c-9.24,79.13-61.44,87.29-61.44,87.29"/><path class="cls-37" d="M1756.76,622.82s-26.16,7.45-23.69-38"/><path class="cls-37" d="M1821.21,308.26c-12.06,2.3-48.34,26-56,75.35"/><path class="cls-37" d="M1714.4,324s64.53,14.82,52.94,46.52"/></g><g id="path_north_of_creek"><path id="memory_garden_connection_bottom" class="cls-38" d="M870.45,366.73C835,421.84,753.39,455.31,682,412.58c-130.29-74.49-236.18-71.95-236.18-71.95"/><path id="memory_garden_connection_top" class="cls-38" d="M689.61,149.59c-2.63,35.87-22.48,61.14-45.68,69.6-39.19,14.29-90.56-22-130.3-33-41.05-11.39-102.54-32.73-146,8.73"/><path id="memory_garden_circle_psth" class="cls-38" d="M445.86,340.63c0,96.56-76.78,174.84-173.34,174.84S96.19,437.19,96.19,340.63a174.84,174.84,0,1,1,349.67,0Z"/><path id="kids_garden_2" class="cls-38" d="M856.83,179.66s-10.05.54-26.25,66C812.13,320.23,841,356.49,871.77,367.21c94.87,33,150.18-37.77,165.91-61.18"/><path id="kids_garden_1" class="cls-38" d="M1108.36,329.14s16.74-88.51-29.9-101.49c-35-9.75-65-43.73-75.83-59.91"/><path id="daylilly_circle" class="cls-38" d="M1286.91,308.29s-1.74-54.37,29.39-105.38c16.14-26.45,53.37-71.61,109.53-78.59,62.31-7.74,96.63-1.54,129.51,20.43,72.4,48.37,56.66,114.18,84.59,133"/><path id="kaiser_entry_2" class="cls-38" d="M886.92,195.82s149.36-12.41,167.8-76.75c13.42-46.82,8.43-117.15,8.43-117.15"/><path id="kaiser_entry_1_to_3" class="cls-38" d="M584.1,1.92S551.85,155.8,618.89,149.31c70.72-4.33,158.52,6.53,232.73,28.22C939.17,211.71,979.33,308.2,1084,328.92c90.15,5.74,182.61-20.62,309.51-37.23,129.35-16.94,175.47,1.47,296.92-22,41.83-8.09,65.74-51.85,71.62-71.77,14.17-48.08,16.27-196,16.27-196"/><path id="bridge_connection_top" class="cls-38" d="M1571.53,282.67c97.76-1.86,135.69,62.7,197.44,44.14,58-17.42,59.77-29.68,149.28-40.87,0,0-140.49,0-157.43-83-11.44,40.74,6.77,137.88,6.52,167.65"/></g><path id="bike_path" class="cls-39" d="M2.75,1041.84s54.64,2.46,105.21-53c52.46-57.57,111-254.19,280-237.53C558.06,768,872.89,656.14,968.69,624.16c226.68-76.85,260.28-64.43,315.68-50.26s80.36,13.68,105.66,18c74.74,12.89,231.93,78.6,323.42,51.54,80.12-23.69,110.6-87.13,204.56-100.31"/><path id="bike_path_dashed" class="cls-40" d="M3,1041.84s54.64,2.46,105.21-53c52.45-57.57,110.94-254.19,280-237.53C558.31,768,873.13,656.14,968.93,624.16c226.69-76.85,260.28-64.43,315.69-50.26s80.36,13.68,105.66,18c74.73,12.89,231.93,78.6,323.41,51.54,80.13-23.69,109.11-87.13,203.06-100.31"/></g><g id="buildings_structure"><rect id="parking" class="cls-41" x="1191.67" y="916.14" width="334.06" height="118.72"/><polygon id="childrens_arena_main" class="cls-42" points="1064.91 1034.86 1064.91 1003.61 1075.85 1003.61 1075.85 987.67 1064.91 987.67 1064.91 941.68 1047.76 941.68 1047.76 929.4 1028.24 929.4 1028.24 917.12 997.18 917.12 997.18 904.31 958.59 904.31 958.59 927.04 728.34 927.04 728.34 1034.86 1064.91 1034.86"/><polygon id="fire_department" class="cls-42" points="645.08 943.41 645.08 904.31 405.03 904.31 405.03 943.41 461.39 943.41 461.39 957.21 427.5 957.21 427.5 1034.86 622.61 1034.86 622.61 957.21 588.72 957.21 588.72 943.41 645.08 943.41"/><g id="parking_icon"><circle class="cls-43" cx="1359.58" cy="975" r="21.4"/><g id="P"><path class="cls-6" d="M1357.07,988.36h-6.83V962.07h10.87q4.44,0,6.79,2.31a10.11,10.11,0,0,1,0,13c-1.57,1.54-3.83,2.3-6.79,2.3h-4Zm0-14.22h2.27c2.51,0,3.76-1.1,3.76-3.28s-1.25-3.28-3.76-3.28h-2.27Z"/></g></g></g><g id="streets"><g id="streets-2" data-name="streets"><path class="cls-6" d="M1875.5,46.92v990H45.5v-990h1830m45-45H.5v1080h1920V1.92Z"/></g><g id="street_names_text"><text class="cls-44" transform="translate(909.41 1062.98)">A<tspan class="cls-45" x="16.51" y="0">r</tspan><tspan class="cls-46" x="25.9" y="0">ena </tspan><tspan class="cls-47" x="71.21" y="0">S</tspan><tspan class="cls-46" x="83.96" y="0">t</tspan></text><text class="cls-48" transform="translate(907.18 33.19)">Kaise<tspan class="cls-49" x="59.86" y="0">r</tspan><tspan x="69.02" y="0" xml:space="preserve"> C</tspan><tspan class="cls-50" x="90.78" y="0">r</tspan></text><text class="cls-51" transform="translate(34.69 636.72) rotate(-90)">A<tspan class="cls-46" x="16.29" y="0">delaide</tspan><tspan class="cls-52" x="96.01" y="0"> </tspan><tspan class="cls-53" x="101.72" y="0">A</tspan><tspan class="cls-54" x="117.32" y="0">v</tspan><tspan class="cls-55" x="129.84" y="0">e W</tspan></text><text class="cls-56" transform="translate(1904.24 603.21) rotate(-90)">B<tspan class="cls-46" x="15.49" y="0">ond </tspan><tspan class="cls-57" x="62.87" y="0">S</tspan><tspan class="cls-55" x="75.62" y="0">t W</tspan></text></g></g><g id="entry_points"><g id="gate"><rect class="cls-58" x="1799.38" y="68.83" width="8.18" height="34.5" rx="1"/><path class="cls-58" d="M1776.08,75.38c7,0,12.11-8,6.65-15.36a1.05,1.05,0,0,0-.23-.24c-7.35-5.46-15.37-.34-15.37,6.66A9,9,0,0,0,1776.08,75.38Zm-4.4-6.2,3.56-8.81a1,1,0,0,1,.88-.61h0a1,1,0,0,1,.88.62l3.46,8.82a1,1,0,0,1-.89,1.32H1778a1,1,0,0,0-1,1v.61a1,1,0,0,1-1.91,0v-.61a1,1,0,0,0-1-1h-1.55a1,1,0,0,1-.79-.43A1,1,0,0,1,1771.68,69.18Z"/><path class="cls-58" d="M1786.93,66.26v.18a10.86,10.86,0,0,1-21.68.93l-1.17-.91a67.63,67.63,0,0,0-7.68,1.86l-1,.3a1,1,0,0,0-.72,1v15l1.18-.34a69,69,0,0,1,40.45,0l1.16.34v-15a1,1,0,0,0-.71-1l-1-.3A68.4,68.4,0,0,0,1786.93,66.26Z"/><rect class="cls-58" x="1744.6" y="68.83" width="8.18" height="34.5" rx="1"/></g><g id="gate-2" data-name="gate"><rect class="cls-58" x="1086.45" y="68.95" width="8.18" height="34.5" rx="1"/><path class="cls-58" d="M1063.15,75.5c7,0,12.11-8,6.66-15.36a1.09,1.09,0,0,0-.24-.24c-7.34-5.46-15.37-.34-15.37,6.66A9,9,0,0,0,1063.15,75.5Zm-4.39-6.2,3.56-8.81a1,1,0,0,1,.88-.61h0a1,1,0,0,1,.89.62l3.46,8.82a1,1,0,0,1-.56,1.26.92.92,0,0,1-.33.06h-1.55a1,1,0,0,0-1,1v.61a1,1,0,0,1-1.91,0v-.61a1,1,0,0,0-1-1h-1.56a1,1,0,0,1-.79-.43A1,1,0,0,1,1058.76,69.3Z"/><path class="cls-58" d="M1074,66.38v.18a10.86,10.86,0,0,1-21.67.93l-1.17-.91a67.79,67.79,0,0,0-7.69,1.86l-1,.3a1,1,0,0,0-.71,1v15l1.17-.34a69,69,0,0,1,40.46,0l1.15.34v-15a1,1,0,0,0-.71-1l-1-.3A68.16,68.16,0,0,0,1074,66.38Z"/><rect class="cls-58" x="1031.68" y="68.95" width="8.18" height="34.5" rx="1"/></g><g id="gate-3" data-name="gate"><rect class="cls-58" x="598.45" y="68.92" width="8.18" height="34.5" rx="1"/><path class="cls-58" d="M575.15,75.47c7,0,12.12-8,6.66-15.37a1.31,1.31,0,0,0-.24-.23c-7.34-5.46-15.37-.34-15.37,6.65A9,9,0,0,0,575.15,75.47Zm-4.39-6.2,3.56-8.81a.94.94,0,0,1,.88-.61h0a1,1,0,0,1,.89.62l3.46,8.82a1,1,0,0,1-.56,1.26.92.92,0,0,1-.33.06h-1.55a1,1,0,0,0-1,1v.61a1,1,0,0,1-1.91,0v-.61a1,1,0,0,0-1-1h-1.56a1,1,0,0,1-.79-.44A1,1,0,0,1,570.76,69.27Z"/><path class="cls-58" d="M586,66.35c0,.06,0,.12,0,.17a10.86,10.86,0,0,1-21.68.94l-1.17-.91a67.79,67.79,0,0,0-7.69,1.86l-1,.3a1,1,0,0,0-.71,1v15l1.17-.34a69,69,0,0,1,40.46,0l1.16.34v-15a1,1,0,0,0-.72-1l-1-.3A68.16,68.16,0,0,0,586,66.35Z"/><rect class="cls-58" x="543.68" y="68.92" width="8.18" height="34.5" rx="1"/></g></g><g id="navigation_paths"><path id="peony_to_daylily" class="cls-59" d="M1359.58,662.58l-.19-55.7c0-10.44,9.74-17.26,20-15.28,109.94,21.17,322.07,101.27,345.35,33.41,11.7-34.12,36.18-211.91,45.25-271.56,1.4-9.2-4.52-18.21-13.67-19.9-70.29-13-104-44.68-144.85-49.06-39.91-4.29-143.57.58-143.57.58a8,8,0,0,1-8.16-8V274"/></g><g id="icons"><g id="bike_path_icon"><g id="pin"><path class="cls-60" d="M256.89,734.67a40.77,40.77,0,1,0-42,40.74v56.24l1.28,2.23,1.28-2.23V775.41A40.77,40.77,0,0,0,256.89,734.67Z"/><circle class="cls-6" cx="216.12" cy="734.67" r="38.76"/></g><g id="Bike"><path class="cls-61" d="M204.19,740.31a8.64,8.64,0,1,0,8.64,8.64A8.63,8.63,0,0,0,204.19,740.31Zm0,16.42A7.78,7.78,0,1,1,212,749,7.78,7.78,0,0,1,204.19,756.73Z"/><circle class="cls-15" cx="204.16" cy="749.35" r="1.04"/><path class="cls-61" d="M230.59,738.3a8.64,8.64,0,1,0,8.63,8.64A8.64,8.64,0,0,0,230.59,738.3Zm0,16.42a7.79,7.79,0,1,1,7.78-7.78A7.78,7.78,0,0,1,230.59,754.72Z"/><circle class="cls-15" cx="230.59" cy="746.94" r="1.04"/><polygon class="cls-61" points="204.34 749.35 217.07 748.4 223.26 734.18 210.11 735.19 204.34 749.35"/><line class="cls-61" x1="217.07" y1="748.4" x2="209.1" y2="733.17"/><line class="cls-61" x1="222.65" y1="731.52" x2="230.62" y2="747.36"/><path class="cls-62" d="M222.68,731.65l6.11-.46a1.8,1.8,0,0,1,.73,0,1.77,1.77,0,0,1,1,.85,1.14,1.14,0,0,1,.24.55.93.93,0,0,1-.61.74,3.41,3.41,0,0,1-1.1.21"/><path class="cls-62" d="M226.68,731.34l2-.15a1.8,1.8,0,0,1,.73,0,1.77,1.77,0,0,1,1,.85,1.14,1.14,0,0,1,.24.55,1,1,0,0,1-.61.74,3.41,3.41,0,0,1-1.1.21"/><circle cx="217.07" cy="748.4" r="1.07"/><circle class="cls-15" cx="217.28" cy="712.94" r="4.64"/><path class="cls-15" d="M225.86,729.18,220.47,727l-3.71-7.28h0a1.37,1.37,0,0,0-.59-.58,3,3,0,0,0-.93-.79L213,717.13a3,3,0,0,0-4,1.2l-5.62,10.39s0,.06,0,.08-.07.09-.1.15l-.24.45a2.17,2.17,0,0,0,.87,2.94l.63.34.07.05L206.8,734l.09,0,5.79,3.13a1.27,1.27,0,0,0,.32.13L215.47,749a1.21,1.21,0,0,0,1.44.94l1.17-.24a1.22,1.22,0,0,0,.94-1.45l-2.91-13.85a.88.88,0,0,0-.07-.23,2.14,2.14,0,0,0-1-1.32l-3.27-1.77,3.95-7.29,2.38,4.67h0a1.4,1.4,0,0,0,.53.55,1.28,1.28,0,0,0,.72.76l5.49,2.19h0a1.23,1.23,0,0,0,1.58-.71l.18-.49A1.28,1.28,0,0,0,225.86,729.18Z"/></g><line id="line1" class="cls-63" x1="194.3" y1="760.61" x2="239.86" y2="757.56"/><line id="line2" class="cls-63" x1="200.19" y1="763.2" x2="233.98" y2="760.94"/><line id="line3" class="cls-63" x1="203.73" y1="765.79" x2="231.23" y2="763.96"/></g><g id="daylily_icon"><g id="pin-2" data-name="pin"><path class="cls-64" d="M1661.72,170.63a40.8,40.8,0,1,0-42.08,40.77v56.29l1.28,2.22,1.28-2.22V211.4A40.8,40.8,0,0,0,1661.72,170.63Z"/><circle class="cls-6" cx="1620.92" cy="170.63" r="38.79"/></g><path id="daylily_outside" class="cls-15" d="M1644.34,154.77c-1.25-1.62-8.38.33-16.07,4.81a.67.67,0,0,1-.91-.25.58.58,0,0,1-.09-.34c.3-8.75-.23-15.18-2.24-15.49s-5,5.59-7,14a.66.66,0,0,1-.8.5.64.64,0,0,1-.34-.19c-6.1-6.43-11.18-10.15-12.78-8.95s.67,7,5.37,14.43a.67.67,0,0,1-.59,1c-9-.39-15.93.59-16.18,2.57s6.2,4.39,14.93,6.49a.67.67,0,0,1,.47.82.7.7,0,0,1-.19.32c-6.57,5.87-11.49,10.9-10.24,12.5s8.39-.67,16-5.17a.67.67,0,0,1,.92.24.6.6,0,0,1,.09.37c-.36,8.72-.45,15.15,1.56,15.46s5.6-5.59,7.72-14.17a.67.67,0,0,1,.8-.51.73.73,0,0,1,.35.2c6,6.51,10.37,10.79,12,9.59s0-7.5-4.53-15a.66.66,0,0,1,.24-.91.62.62,0,0,1,.37-.09c8.89.42,15.74-.14,16-2.1s-6.15-4.83-14.84-7a.63.63,0,0,1-.52-.74.6.6,0,0,1,.24-.4C1640.6,161.06,1645.57,156.36,1644.34,154.77Z"/><path id="daylily_inside" class="cls-6" d="M1631.82,164.13c-9,4.87-7.77,2.07-3.69-7.6-4.25,9.53-7.07,11.51-6.37,1.87-1,9.62-3.8,7.24-11.71.28,7.66,7.07,9,10.32,1.31,4.72,7.86,5.6,7.77,5.6-.42.62,8.11,5.06,4.33,5.2-5.9,6.18,10.18-.7,13.28.25,4.34,3.13,9.56-2.49,9.56-2.43.44,1.51,8.89-3.75,6.57-1.71,0,6.31,6.77-7.79,10.18-8.66,7.47.84,3.1-9.67,3.13-9.64,1.79.51,1.53-9.82,3.15-7,3.41,3.24,0-10.29.33-11.77,6.48-5.45-5.37-7.69-3.35-6.63,3.58.58-6.71-7.46-9-9.89.87-7.07-10.12-3.1-10.26-3.1-.51-.78-9.75-2.32-9.5-2.4.84-1-10.06-1.56-7-2.49,3-1.87C1626.51,169.22,1624.83,169,1631.82,164.13Z"/></g><g id="water_feature_icon"><g id="pin-3" data-name="pin"><path class="cls-64" d="M868.38,605.05a40.81,40.81,0,1,0-42.09,40.77v56.29l1.29,2.23,1.28-2.23V645.82A40.79,40.79,0,0,0,868.38,605.05Z"/><circle class="cls-6" cx="827.58" cy="605.05" r="38.79"/></g><g id="water_drop"><g id="park_map" data-name="park map"><g id="water_feature_icon-2" data-name="water feature icon"><path id="droplet" class="cls-15" d="M828.19,573.93,812,606.34c-6.06,12.12,2.37,27,15.88,27.12h.63c13.52-.15,22-15,15.89-27.12Z"/></g></g></g><g id="fountain"><ellipse class="cls-6" cx="828.18" cy="617.55" rx="13" ry="3.44"/><ellipse class="cls-6" cx="828.18" cy="622.78" rx="7.9" ry="1.72"/><ellipse class="cls-6" cx="828.18" cy="626.25" rx="5" ry="1.72"/><path class="cls-6" d="M828.19,615.61c-.32-3.2-1.5-9.55-5.9-12.63a1.86,1.86,0,0,1-.95-2.27c.63-2.26,4.49-5.15,6.88-5.15,2.17,0,5.88,2.35,6.72,4.75a2.21,2.21,0,0,1-.77,2.68C829.77,606.06,828.53,612.41,828.19,615.61Z"/><path class="cls-15" d="M828.22,595.69c2.13,0,5.78,2.31,6.6,4.66a2.1,2.1,0,0,1-.71,2.53c-3.18,2.22-4.69,6.09-5.39,8.94-.24,1-.41,1.89-.53,2.69-.11-.8-.27-1.72-.5-2.69-.68-2.85-2.16-6.72-5.34-9a1.74,1.74,0,0,1-.89-2.13c.62-2.22,4.41-5,6.76-5m0-.25c-3.3,0-9.64,5.47-6,7.65,6,4.2,6,14.44,6,14.46s.05-10.26,6.07-14.46c3.36-2.68-2.72-7.65-6-7.65Zm0,22.11Z"/></g></g><g id="bridge_icon"><g id="pin-4" data-name="pin"><path class="cls-64" d="M1755.2,513.92a40.8,40.8,0,1,0-42.08,40.77V611l1.28,2.23,1.29-2.23V554.69A40.78,40.78,0,0,0,1755.2,513.92Z"/><circle class="cls-6" cx="1714.4" cy="513.92" r="38.79"/></g><g id="bridge-2" data-name="bridge"><path class="cls-15" d="M1714.4,504.33c-10.21,0-19.93,3.11-26.28,7.27v14.95a1,1,0,0,0,1,1h9a1,1,0,0,0,1-1v-.7a15.17,15.17,0,1,1,30.34-.14v.84a1,1,0,0,0,1,1h9.05a1,1,0,0,0,1-1V511.6C1734.26,507.39,1724.55,504.33,1714.4,504.33Z"/><path class="cls-15" d="M1739.14,499.76a1.55,1.55,0,0,0-1.55,1.55v.17a44.75,44.75,0,0,0-8.09-3.5v-1.7a1.55,1.55,0,0,0-3.09,0v.82a49.51,49.51,0,0,0-10.46-1.45v-1.22a1.55,1.55,0,1,0-3.09,0v1.22a49.32,49.32,0,0,0-10.46,1.45v-.82a1.55,1.55,0,0,0-3.09,0V498a44.14,44.14,0,0,0-8.09,3.5v-.17a1.55,1.55,0,1,0-3.1,0V510c1-.58,2.08-1.13,3.1-1.61V505.1a38.17,38.17,0,0,1,8.09-3.86v4.12c1-.3,2.06-.55,3.09-.78v-4.29a46,46,0,0,1,10.46-1.55v4.55c1,0,2.07,0,3.09,0v-4.55a46.14,46.14,0,0,1,10.46,1.55v4.29c1,.23,2,.48,3.09.78v-4.12a38.25,38.25,0,0,1,8.09,3.86v3.29c1.09.52,2.12,1.06,3.09,1.61v-8.69A1.55,1.55,0,0,0,1739.14,499.76Z"/></g><path id="wave_1" class="cls-65" d="M1734.82,532.49c-.1,5.33-13.59,5.33-13.59,0,0,5.33-13.62,5.33-13.62,0,0,5.33-13.44,5.38-13.44,0"/><path id="wave_2" class="cls-65" d="M1730.4,538.92c-.08,4.19-10.7,4.19-10.7,0,0,4.19-10.72,4.19-10.72,0,0,4.19-10.57,4.23-10.57,0"/></g><g id="peony_icon"><g id="pin-5" data-name="pin"><path class="cls-64" d="M1319.18,573.6a40.8,40.8,0,1,0-42.08,40.77v56.29l1.28,2.23,1.28-2.23V614.37A40.79,40.79,0,0,0,1319.18,573.6Z"/><circle class="cls-6" cx="1278.42" cy="573.56" r="38.79"/></g><g id="peony"><path class="cls-15" d="M1295.31,555.57l-.21,4.64a6.41,6.41,0,0,0,4.22,6.3l4.37,1.59a6.39,6.39,0,0,1,.78,11.69l-4.12,2.15a6.44,6.44,0,0,0-3.31,6.71l.8,4.58a6.41,6.41,0,0,1-9.75,6.52l-3.93-2.48a6.36,6.36,0,0,0-7.54.51l-3.59,3a6.38,6.38,0,0,1-10.5-5.17l.19-4.66a6.44,6.44,0,0,0-4.23-6.28l-4.37-1.4a6.41,6.41,0,0,1-.78-11.71l4.12-2.16a6.41,6.41,0,0,0,3.29-6.87l-.83-4.58a6.41,6.41,0,0,1,9.75-6.54l3.93,2.5a6.41,6.41,0,0,0,7.54-.51l3.64-3a6.41,6.41,0,0,1,10.53,5.17Z"/><path class="cls-6" d="M1295,570.76h0a5.85,5.85,0,0,0,.73,6.87h0a5.85,5.85,0,0,1-4.53,9.7h0a5.89,5.89,0,0,0-5.81,4h0a5.85,5.85,0,0,1-10.78.95h0a5.84,5.84,0,0,0-6.25-2.94h0a5.84,5.84,0,0,1-6-8.78h0a5.86,5.86,0,0,0-.6-6.87h0a5.87,5.87,0,0,1,4.53-9.72h0a5.89,5.89,0,0,0,5.68-4h0a5.85,5.85,0,0,1,10.78-.92h0A5.85,5.85,0,0,0,1289,562h0a5.84,5.84,0,0,1,6,8.72Z"/><path class="cls-66" d="M1290.84,572.49h0a4.28,4.28,0,0,0,.43,5.06h0a4.29,4.29,0,0,1-.39,6.05,4.23,4.23,0,0,1-2.92,1.06h0a4.39,4.39,0,0,0-4.18,2.91h0a4.31,4.31,0,0,1-7.84.7h0a4.25,4.25,0,0,0-4.58-2.15h0a4.31,4.31,0,0,1-4.52-6.44h0a4.28,4.28,0,0,0-.43-5.06h0a4.31,4.31,0,0,1,3.34-7.14h0a4.26,4.26,0,0,0,4.15-2.91h0a4.29,4.29,0,0,1,5.48-2.65,4.25,4.25,0,0,1,2.35,2h0a4.32,4.32,0,0,0,4.61,2.15h0a4.28,4.28,0,0,1,4.5,6.44Z"/><circle class="cls-67" cx="1279.01" cy="576.13" r="4.98"/></g></g><g id="compass"><g id="Compass-2" data-name="Compass"><path class="cls-15" d="M272.69,957.36l6-11.33-11.34,6,1,4.31Z"/><path class="cls-15" d="M246.42,957.36l4.31-1,1-4.31-11.33-6Z"/><path class="cls-15" d="M246.42,973l-6,11.33,11.33-6-1-4.31Z"/><path class="cls-15" d="M272.69,973l-4.31,1-1,4.31,11.34,6Z"/><path class="cls-15" d="M261.43,965.15l6.26,6.27,26.3-6.27-26.3-6.26Z"/><path class="cls-15" d="M265.82,957l-6.26-26.3L253.29,957l6.27,6.26Z"/><path class="cls-68" d="M257.68,965.15l-6.26-6.26-26.3,6.26,26.3,6.27Z"/><path class="cls-15" d="M253.29,973.29l6.27,26.3,6.26-26.3L259.56,967Z"/></g><g id="north"><path class="cls-15" d="M215.89,960.11l4.87,6.12V962a2,2,0,0,0-.26-1.2,1.4,1.4,0,0,0-1.17-.41v-.27h3.26v.27a2.24,2.24,0,0,0-.84.21.82.82,0,0,0-.33.41,2.83,2.83,0,0,0-.12,1v8.21h-.25L214.38,962v6.27a1.2,1.2,0,0,0,1.28,1.44h.23V970h-3.5v-.27a1.21,1.21,0,0,0,1.46-1.44v-7l-.21-.27a1.9,1.9,0,0,0-.56-.51,1.7,1.7,0,0,0-.69-.14v-.27Z"/></g><g id="south"><path class="cls-15" d="M303.88,960l.08,3.29h-.3a3.37,3.37,0,0,0-1-2,2.62,2.62,0,0,0-1.79-.75,1.63,1.63,0,0,0-1.17.4,1.19,1.19,0,0,0-.44.91,1.11,1.11,0,0,0,.15.58,2.73,2.73,0,0,0,.68.68,16.8,16.8,0,0,0,1.58.85,7,7,0,0,1,2.33,1.61,2.7,2.7,0,0,1,.6,1.73,2.79,2.79,0,0,1-1,2.12,3.46,3.46,0,0,1-2.45.9,4.16,4.16,0,0,1-.88-.1,5.9,5.9,0,0,1-1-.36,1.66,1.66,0,0,0-.58-.14.8.8,0,0,0-.4.14,1.07,1.07,0,0,0-.34.45h-.27v-3.73h.27a4.31,4.31,0,0,0,1.24,2.4,2.87,2.87,0,0,0,2,.83,1.82,1.82,0,0,0,1.3-.45,1.37,1.37,0,0,0,.49-1,1.43,1.43,0,0,0-.19-.68,2.26,2.26,0,0,0-.56-.62,10,10,0,0,0-1.34-.77,11.86,11.86,0,0,1-1.94-1.12,3.5,3.5,0,0,1-.9-1,2.63,2.63,0,0,1-.32-1.27,2.7,2.7,0,0,1,.87-2,3,3,0,0,1,2.18-.83,3.59,3.59,0,0,1,.93.12,5.07,5.07,0,0,1,.83.32,2,2,0,0,0,.69.24.38.38,0,0,0,.3-.12,1.28,1.28,0,0,0,.2-.56Z"/></g><g id="west"><path class="cls-15" d="M266.87,1003.39v.27a.93.93,0,0,0-.46.15,1.14,1.14,0,0,0-.34.4c0,.06-.18.44-.45,1.13l-3.1,8.14h-.28l-2.44-6.36-2.7,6.36h-.26l-3.25-8.05a8.78,8.78,0,0,0-.69-1.47.9.9,0,0,0-.66-.3v-.27h4.28v.27a1.15,1.15,0,0,0-.69.16.41.41,0,0,0-.17.35,4.58,4.58,0,0,0,.35,1.17l1.94,4.79,1.55-3.74-.41-1a7.18,7.18,0,0,0-.52-1.15,1.23,1.23,0,0,0-.41-.41,1.6,1.6,0,0,0-.7-.12v-.27h4.78v.27a2.85,2.85,0,0,0-.72.08.46.46,0,0,0-.24.17.44.44,0,0,0-.09.27,4.78,4.78,0,0,0,.33,1l1.8,4.67,1.6-4.23a9.09,9.09,0,0,0,.32-.89,1.86,1.86,0,0,0,.06-.45.56.56,0,0,0-.21-.46,1.25,1.25,0,0,0-.78-.19v-.27Z"/></g><g id="east"><path class="cls-15" d="M258.83,918.35v4h.2a1.57,1.57,0,0,0,1.36-.59,3.65,3.65,0,0,0,.54-1.74h.27v5.17h-.27a3.73,3.73,0,0,0-.37-1.38,1.63,1.63,0,0,0-.65-.73,2.57,2.57,0,0,0-1.08-.18v2.77a4.32,4.32,0,0,0,.07,1,.62.62,0,0,0,.26.3,1.19,1.19,0,0,0,.61.12h.59a3.18,3.18,0,0,0,3.41-2.59H264l-.44,3.13h-8.53v-.27h.33a1.36,1.36,0,0,0,.69-.15.64.64,0,0,0,.29-.35,3.14,3.14,0,0,0,.08-.92v-6.48a4.52,4.52,0,0,0,0-.83.64.64,0,0,0-.26-.39,1.32,1.32,0,0,0-.76-.2h-.33v-.27h8.26v2.91h-.28a3.6,3.6,0,0,0-.59-1.53,2.21,2.21,0,0,0-1.08-.68,5.74,5.74,0,0,0-1.53-.13Z"/></g></g></g><g id="names"><g id="Joseph_Kolodzie_Bike_Path_Joseph_Kolodzie_Bike_Path_text" data-name="Joseph Kolodzie Bike Path 																									Joseph Kolodzie Bike Path_text"><text class="cls-69" transform="translate(390.12 725.08) rotate(4.69)">J</text><text class="cls-69" transform="matrix(1, 0.05, -0.05, 1, 400.26, 725.94)">o</text><text class="cls-69" transform="translate(414.36 726.55) rotate(0.74)">s</text><text class="cls-69" transform="matrix(1, -0.01, 0.01, 1, 425.38, 726.69)">e</text><text class="cls-69" transform="matrix(1, -0.04, 0.04, 1, 438.69, 726.49)">p</text><text class="cls-69" transform="translate(452.88 725.89) rotate(-3.79)">h</text><text class="cls-69" transform="translate(467.14 724.91) rotate(-4.71)"> </text><text class="cls-69" transform="matrix(1, -0.1, 0.1, 1, 473.74, 724.4)">K</text><text class="cls-69" transform="matrix(0.99, -0.12, 0.12, 0.99, 489.92, 722.78)">o</text><text class="cls-69" transform="translate(504.48 721.03) rotate(-7.44)">l</text><text class="cls-69" transform="translate(511.27 720.16) rotate(-8.1)">o</text><text class="cls-69" transform="translate(525.75 718.09) rotate(-8.91)">d</text><text class="cls-69" transform="translate(540.07 715.84) rotate(-9.59)">z</text><text class="cls-69" transform="matrix(0.98, -0.17, 0.17, 0.98, 551.93, 713.82)">i</text><text class="cls-69" transform="matrix(0.98, -0.18, 0.18, 0.98, 558.89, 712.59)">e</text><text class="cls-69" transform="translate(572.48 710.06) rotate(-10.95)"> </text><text class="cls-69" transform="translate(579.16 708.78) rotate(-11.43)">B</text><text class="cls-69" transform="matrix(0.98, -0.21, 0.21, 0.98, 595.42, 705.47)">i</text><text class="cls-69" transform="translate(602.4 704.01) rotate(-12.25)">k</text><text class="cls-69" transform="matrix(0.98, -0.22, 0.22, 0.98, 615.29, 701.21)">e</text><text class="cls-69" transform="matrix(0.97, -0.23, 0.23, 0.97, 628.8, 698.15)"> </text><text class="cls-69" transform="translate(635.52 696.6) rotate(-13.38)">P</text><text class="cls-69" transform="matrix(0.97, -0.24, 0.24, 0.97, 650.59, 693.01)">a</text><text class="cls-69" transform="translate(663.25 689.89) rotate(-14.11)">t</text><text class="cls-69" transform="translate(672.94 687.46) rotate(-14.43)">h</text><text class="cls-69" transform="matrix(0.97, -0.25, 0.25, 0.97, 687.09, 683.81)">	</text><text class="cls-69" transform="translate(700.43 680.28) rotate(-15.04)">	</text><text class="cls-69" transform="translate(726.2 673.24) rotate(-15.64)">	</text><text class="cls-69" transform="matrix(0.96, -0.28, 0.28, 0.96, 751.93, 665.94)">	</text><text class="cls-69" transform="translate(777.61 658.39) rotate(-16.68)">	</text><text class="cls-69" transform="translate(803.26 650.61) rotate(-17.14)">	</text><text class="cls-69" transform="translate(828.84 642.64) rotate(-17.56)">	</text><text class="cls-69" transform="matrix(0.95, -0.31, 0.31, 0.95, 854.4, 634.48)">	</text><text class="cls-69" transform="translate(879.95 626.15) rotate(-18.26)">	</text><text class="cls-69" transform="matrix(0.95, -0.32, 0.32, 0.95, 905.44, 617.68)">	</text><text class="cls-69" transform="translate(930.97 609.09) rotate(-18.67)">	</text><text class="cls-69" transform="translate(956.62 600.44) rotate(-18.53)">	</text><text class="cls-69" transform="matrix(0.95, -0.31, 0.31, 0.95, 982.32, 591.82)">	</text><text class="cls-69" transform="matrix(0.95, -0.31, 0.31, 0.95, 1008.23, 583.35)">	</text><text class="cls-69" transform="translate(1034.25 575.14) rotate(-17.1)">	</text><text class="cls-69" transform="translate(1060.47 567.22) rotate(-16.26)">	</text><text class="cls-69" transform="translate(1086.92 559.71) rotate(-15.17)">	</text><text class="cls-69" transform="translate(1113.71 552.71) rotate(-13.7)">	</text><text class="cls-69" transform="translate(1140.92 546.46) rotate(-11.64)">	</text><text class="cls-69" transform="translate(1168.85 541.27) rotate(-8.58)">	</text><text class="cls-69" transform="translate(1197.81 537.79) rotate(-3.86)">	</text><text class="cls-69" transform="matrix(1, 0.06, -0.06, 1, 1228.06, 537.17)">	</text><text class="cls-69" transform="matrix(0.98, 0.2, -0.2, 0.98, 1258.55, 540.73)">	</text><text class="cls-69" transform="translate(1286.2 547.19) rotate(14.42)">	</text><text class="cls-69" transform="translate(1311.42 553.31) rotate(12.13)">	</text><text class="cls-69" transform="matrix(0.99, 0.15, -0.15, 0.99, 1336.46, 558.2)">J</text><text class="cls-69" transform="matrix(0.99, 0.13, -0.13, 0.99, 1346.79, 559.83)">o</text><text class="cls-69" transform="translate(1361.27 561.7) rotate(6.6)">s</text><text class="cls-69" transform="translate(1373.15 563.04) rotate(7.07)">e</text><text class="cls-69" transform="translate(1388.54 564.91) rotate(10.33)">p</text><text class="cls-69" transform="translate(1404.19 567.79) rotate(12.63)">h</text><text class="cls-69" transform="translate(1419.1 571.2) rotate(13.85)"> </text><text class="cls-69" transform="matrix(0.97, 0.25, -0.25, 0.97, 1426.33, 572.96)">K</text><text class="cls-69" transform="translate(1442.83 577.33) rotate(15.45)">o</text><text class="cls-69" transform="translate(1457.4 581.37) rotate(15.71)">l</text><text class="cls-69" transform="translate(1464.34 583.32) rotate(15.84)">o</text><text class="cls-69" transform="translate(1478.77 587.42) rotate(15.83)">d</text><text class="cls-69" transform="translate(1492.96 591.44) rotate(15.68)">z</text><text class="cls-69" transform="matrix(0.96, 0.27, -0.27, 0.96, 1504.64, 594.72)">i</text><text class="cls-69" transform="translate(1511.54 596.64) rotate(15.2)">e</text><text class="cls-69" transform="translate(1524.91 600.25) rotate(14.85)"> </text><text class="cls-69" transform="matrix(0.97, 0.25, -0.25, 0.97, 1531.48, 602.01)">B</text><text class="cls-69" transform="translate(1547.49 606.09) rotate(13.78)">i</text><text class="cls-69" transform="matrix(0.97, 0.23, -0.23, 0.97, 1554.32, 607.78)">k</text><text class="cls-69" transform="translate(1566.98 610.74) rotate(12.31)">e</text><text class="cls-69" transform="matrix(0.98, 0.2, -0.2, 0.98, 1580.32, 613.62)"> </text><text class="cls-69" transform="translate(1586.77 614.97) rotate(10.54)">P</text><text class="cls-69" transform="translate(1601.57 617.71) rotate(9.13)">a</text><text class="cls-69" transform="translate(1614.01 619.69) rotate(7.82)">t</text><text class="cls-69" transform="translate(1623.3 621) rotate(6.2)">h</text></g><text class="cls-69" transform="translate(1361.16 127.35) rotate(-29.72)">D</text><text class="cls-69" transform="matrix(0.92, -0.4, 0.4, 0.92, 1378.34, 117.8)">a</text><text class="cls-69" transform="translate(1390.53 112.52) rotate(-18.31)">y</text><text class="cls-69" transform="matrix(0.97, -0.24, 0.24, 0.97, 1403.7, 108.33)">l</text><text class="cls-69" transform="translate(1410.23 106.71) rotate(-11.3)">i</text><text class="cls-69" transform="matrix(0.99, -0.15, 0.15, 0.99, 1416.97, 105.39)">l</text><text class="cls-69" transform="translate(1423.46 104.43) rotate(-6.42)">y</text><text class="cls-69" transform="matrix(1, -0.09, 0.09, 1, 1435.73, 103.07)"> </text><text class="cls-69" transform="translate(1441.96 102.42) rotate(-3.83)">C</text><text class="cls-69" transform="translate(1458.28 101.35) rotate(-1.21)">o</text><text class="cls-69" transform="translate(1472.65 101.12) rotate(0.99)">l</text><text class="cls-69" transform="translate(1479.04 101.24) rotate(2.52)">l</text><text class="cls-69" transform="translate(1485.75 101.47) rotate(5.25)">e</text><text class="cls-69" transform="matrix(0.99, 0.16, -0.16, 0.99, 1499.67, 102.8)">c</text><text class="cls-69" transform="translate(1512.57 104.9) rotate(14.78)">ti</text><text class="cls-69" transform="matrix(0.93, 0.36, -0.36, 0.93, 1529.17, 109.42)">o</text><text class="cls-69" transform="matrix(0.89, 0.45, -0.45, 0.89, 1543.51, 115.07)">n</text><text class="cls-69" transform="translate(1786.42 559.43) rotate(-80.91)">R</text><text class="cls-69" transform="matrix(0.16, -0.99, 0.99, 0.16, 1788.73, 544.98)">o</text><text class="cls-69" transform="matrix(0.16, -0.99, 0.99, 0.16, 1790.87, 531.61)">t</text><text class="cls-69" transform="translate(1792.28 522.8) rotate(-80.91)">a</text><text class="cls-69" transform="translate(1794.21 510.76) rotate(-80.91)">r</text><text class="cls-69" transform="translate(1795.62 501.92) rotate(-80.91)">y</text><text class="cls-69" transform="translate(1797.53 490.01) rotate(-80.91)"> </text><text class="cls-69" transform="translate(1798.45 484.26) rotate(-80.91)">B</text><text class="cls-69" transform="matrix(0.16, -0.99, 0.99, 0.16, 1800.91, 468.87)">r</text><text class="cls-69" transform="translate(1802.32 460.04) rotate(-80.91)">i</text><text class="cls-69" transform="translate(1803.29 454.01) rotate(-80.91)">d</text><text class="cls-69" transform="translate(1805.44 440.56) rotate(-80.91)">g</text><text class="cls-69" transform="translate(1807.4 428.27) rotate(-80.91)">e</text><g id="Oshawa_Creek_text" data-name="Oshawa Creek_text"><text class="cls-69" transform="translate(859.51 490.73) rotate(-17.75)">O</text><text class="cls-69" transform="translate(877.97 484.83) rotate(-17.59)">s</text><text class="cls-69" transform="translate(888.15 481.6) rotate(-17.45)">h</text><text class="cls-69" transform="matrix(0.95, -0.3, 0.3, 0.95, 901.19, 477.5)">a</text><text class="cls-69" transform="translate(912.89 473.85) rotate(-17.09)">w</text><text class="cls-69" transform="translate(931.34 468.19) rotate(-16.87)">a</text><text class="cls-69" transform="translate(943.1 464.62) rotate(-16.74)"> </text><text class="cls-69" transform="matrix(0.96, -0.29, 0.29, 0.96, 948.81, 462.9)">C</text><text class="cls-69" transform="translate(964.16 458.33) rotate(-16.38)">r</text><text class="cls-69" transform="translate(972.59 455.86) rotate(-16.2)">e</text><text class="cls-69" transform="translate(985.08 452.23) rotate(-15.98)">e</text><text class="cls-69" transform="translate(997.6 448.64) rotate(-15.75)">k</text></g><text class="cls-69" transform="matrix(1, -0.03, 0.03, 1, 772.81, 882.36)">W</text><text class="cls-69" transform="translate(798.67 881.35) rotate(-4.56)">a</text><text class="cls-69" transform="matrix(0.99, -0.11, 0.11, 0.99, 812.02, 880.25)">t</text><text class="cls-69" transform="matrix(0.99, -0.14, 0.14, 0.99, 822.23, 879.14)">e</text><text class="cls-69" transform="translate(836.41 877.07) rotate(-9.96)">r</text><text class="cls-69" transform="translate(846.38 875.3) rotate(-11.48)">f</text><text class="cls-69" transform="translate(856.18 873.31) rotate(-13.26)">a</text><text class="cls-69" transform="translate(869.25 870.17) rotate(-14.82)">l</text><text class="cls-69" transform="translate(875.77 868.44) rotate(-15.83)">l</text><text class="cls-69" transform="translate(882.27 866.59) rotate(-16.82)"> </text><text class="cls-69" transform="matrix(0.95, -0.32, 0.32, 0.95, 889.3, 864.54)">G</text><text class="cls-69" transform="translate(907.48 858.28) rotate(-21.01)">a</text><text class="cls-69" transform="matrix(0.92, -0.38, 0.38, 0.92, 920.01, 853.43)">r</text><text class="cls-69" transform="matrix(0.91, -0.41, 0.41, 0.91, 928.99, 849.71)">d</text><text class="cls-69" transform="matrix(0.9, -0.44, 0.44, 0.9, 942.79, 843.57)">e</text><text class="cls-69" transform="matrix(0.87, -0.5, 0.5, 0.87, 956.58, 836.72)">n</text><text class="cls-69" transform="matrix(0.31, -0.95, 0.95, 0.31, 82, 291.89)">M</text><text class="cls-69" transform="translate(89.56 269.27) rotate(-66.62)">e</text><text class="cls-69" transform="translate(95.14 256.11) rotate(-61.34)">m</text><text class="cls-69" transform="matrix(0.56, -0.83, 0.83, 0.56, 105.69, 237.27)">o</text><text class="cls-69" transform="translate(114.07 225.08) rotate(-52.29)">r</text><text class="cls-69" transform="matrix(0.66, -0.75, 0.75, 0.66, 120.09, 217.25)">y</text><text class="cls-69" transform="translate(128.6 207.64) rotate(-46.1)"> </text><text class="cls-69" transform="translate(133.26 202.58) rotate(-42.4)">G</text><text class="cls-69" transform="translate(147.14 190.11) rotate(-37.7)">a</text><text class="cls-69" transform="matrix(0.83, -0.56, 0.56, 0.83, 157.56, 182.16)">r</text><text class="cls-69" transform="translate(165.48 176.68) rotate(-30.82)">d</text><text class="cls-69" transform="translate(178.19 169.17) rotate(-26.59)">e</text><text class="cls-69" transform="translate(190.73 162.93) rotate(-22.34)">n</text><text class="cls-69" transform="matrix(0.01, -1, 1, 0.01, 1153.28, 852.46)">P</text><text class="cls-69" transform="translate(1153.46 837.7) rotate(-84.77)">e</text><text class="cls-69" transform="translate(1154.67 824.5) rotate(-80.58)">o</text><text class="cls-69" transform="translate(1157.02 810.49) rotate(-76.64)">n</text><text class="cls-69" transform="matrix(0.29, -0.96, 0.96, 0.29, 1160.17, 797.32)">y</text><text class="cls-69" transform="translate(1163.79 785.57) rotate(-70.81)"> </text><text class="cls-69" transform="translate(1165.68 779.69) rotate(-67.7)">G</text><text class="cls-69" transform="translate(1172.52 763.29) rotate(-63.75)">a</text><text class="cls-69" transform="matrix(0.49, -0.87, 0.87, 0.49, 1178.07, 752.13)">r</text><text class="cls-69" transform="matrix(0.53, -0.85, 0.85, 0.53, 1182.37, 744.28)">d</text><text class="cls-69" transform="translate(1189.84 732.44) rotate(-54.15)">e</text><text class="cls-69" transform="matrix(0.64, -0.77, 0.77, 0.64, 1197.58, 721.73)">n</text></g></g></g></svg>