<svg id="ovbg_map" xmlns="http://www.w3.org/2000/svg" viewBox="0 0 1920.05 1080.88">
  <defs>
    <style>
      .cls-1 {
        fill: #699366;
      }

      .cls-2 {
        fill: #537c4e;
      }

      .cls-3 {
        fill: #65997d;
      }

      .cls-4, .cls-45 {
        fill: #477043;
      }

      .cls-10, .cls-11, .cls-12, .cls-13, .cls-15, .cls-18, .cls-19, .cls-20, .cls-22, .cls-28, .cls-43, .cls-44, .cls-47, .cls-48, .cls-49, .cls-5, .cls-52, .cls-54, .cls-55, .cls-8, .cls-9 {
        fill: none;
      }

      .cls-5 {
        stroke: #9dd8d8;
        stroke-width: 75px;
      }

      .cls-10, .cls-11, .cls-15, .cls-17, .cls-18, .cls-28, .cls-44, .cls-46, .cls-47, .cls-48, .cls-49, .cls-5, .cls-52, .cls-53, .cls-55, .cls-8, .cls-9 {
        stroke-miterlimit: 10;
      }

      .cls-21, .cls-58, .cls-6, .cls-60 {
        fill: #f7f2db;
      }

      .cls-7 {
        fill: #707070;
      }

      .cls-10, .cls-11, .cls-12, .cls-13, .cls-17, .cls-18, .cls-19, .cls-20, .cls-39, .cls-40, .cls-41, .cls-52, .cls-57, .cls-59, .cls-61, .cls-62, .cls-63, .cls-8, .cls-9 {
        stroke: #f7f2db;
      }

      .cls-12, .cls-8 {
        stroke-width: 20px;
      }

      .cls-9 {
        stroke-width: 18.75px;
      }

      .cls-10, .cls-13 {
        stroke-width: 30px;
      }

      .cls-11 {
        stroke-width: 15px;
      }

      .cls-14 {
        fill: #9dd8d8;
      }

      .cls-15 {
        stroke: #2e3192;
        stroke-width: 0.76px;
      }

      .cls-16 {
        fill: #4d4d4d;
      }

      .cls-17 {
        fill: #5491d3;
      }

      .cls-17, .cls-18 {
        stroke-width: 2.11px;
      }

      .cls-19 {
        stroke-width: 10px;
      }

      .cls-20 {
        stroke-width: 8px;
      }

      .cls-21 {
        stroke: #e8e8e8;
        stroke-width: 1.91px;
      }

      .cls-22 {
        stroke: #699366;
        stroke-width: 4px;
      }

      .cls-22, .cls-39, .cls-40, .cls-41, .cls-48, .cls-52 {
        stroke-linecap: round;
      }

      .cls-23 {
        fill: #d1f3ff;
      }

      .cls-24 {
        fill: #39c5fb;
      }

      .cls-25 {
        fill: #006824;
      }

      .cls-26 {
        fill: #001c00;
      }

      .cls-27, .cls-29, .cls-46, .cls-53 {
        fill: #383838;
      }

      .cls-28, .cls-44, .cls-46, .cls-47, .cls-48, .cls-49, .cls-53, .cls-54, .cls-55 {
        stroke: #383838;
      }

      .cls-28 {
        stroke-width: 1.81px;
      }

      .cls-29 {
        font-size: 14.78px;
        font-family: FuturaPT-Medium, Futura PT;
      }

      .cls-29, .cls-58, .cls-60 {
        font-weight: 500;
      }

      .cls-29, .cls-34 {
        letter-spacing: 0.07em;
      }

      .cls-30 {
        letter-spacing: 0.04em;
      }

      .cls-31 {
        letter-spacing: 0.03em;
      }

      .cls-32 {
        letter-spacing: 0.03em;
      }

      .cls-33 {
        letter-spacing: 0.04em;
      }

      .cls-35 {
        letter-spacing: 0.04em;
      }

      .cls-36 {
        letter-spacing: 0.06em;
      }

      .cls-37 {
        letter-spacing: 0.08em;
      }

      .cls-38 {
        letter-spacing: 0.06em;
      }

      .cls-39, .cls-40, .cls-41 {
        fill: #d1d1d1;
      }

      .cls-39, .cls-40, .cls-41, .cls-54 {
        stroke-linejoin: round;
      }

      .cls-39 {
        stroke-width: 5.02px;
      }

      .cls-40 {
        stroke-width: 4.84px;
      }

      .cls-41 {
        stroke-width: 5px;
      }

      .cls-42 {
        fill: #4c4947;
      }

      .cls-44 {
        stroke-width: 1.83px;
      }

      .cls-45, .cls-58, .cls-60 {
        font-size: 21px;
      }

      .cls-45, .cls-56 {
        font-family: Poppins-SemiBold, Poppins SemiBold;
        font-weight: 600;
      }

      .cls-47, .cls-48 {
        stroke-width: 1.1px;
      }

      .cls-49 {
        stroke-width: 0.76px;
      }

      .cls-50 {
        fill: #c44343;
      }

      .cls-51 {
        fill: #606060;
      }

      .cls-52 {
        stroke-width: 0.49px;
      }

      .cls-53 {
        stroke-width: 1px;
      }

      .cls-54 {
        stroke-width: 0.78px;
      }

      .cls-56 {
        font-size: 24px;
      }

      .cls-57, .cls-59, .cls-61, .cls-62, .cls-63 {
        fill: #494949;
      }

      .cls-57 {
        stroke-width: 0.79px;
      }

      .cls-58, .cls-60 {
        font-family: Poppins-Medium, Poppins Medium;
      }

      .cls-58 {
        letter-spacing: 0.01em;
      }

      .cls-59 {
        stroke-width: 0.81px;
      }

      .cls-60 {
        letter-spacing: 0.01em;
      }

      .cls-61 {
        stroke-width: 0.79px;
      }

      .cls-62 {
        stroke-width: 0.88px;
      }

      .cls-63 {
        stroke-width: 0.87px;
      }
    </style>
  </defs>
  <title>park_map</title>
  <rect id="background" class="cls-1" x="0.05" y="0.88" width="1920" height="1080"/>
  <g id="creek_bush">
    <g id="creek_bush_6">
      <path class="cls-2" d="M1198,382.67c.49-8.22,8.42-13.09,13.65-8.38l.07,6.89c2-4.27,4-8.66,7.12-11.4s7.6-3.35,10.68-.07a18.09,18.09,0,0,0,2.36,2.55c3.65,2.6,6.78-3.4,9.53-7.18,3.79-5.23,10-6.89,15.32-4.05s9.29,10,9.83,17.55c.57-7.57,2.26-15.53,6.74-19.84s12.32-2.64,14.4,4.64c1.55-3.89,5.2-5.88,8.46-4.61s5.82,5.69,5.92,10.22c1-4.23,5.37-6,8.11-3.19.43,8.93.42,17.86,0,26.71-.1,2-.28,4.09-1.31,5.4-2.44,3.14-7.55-.67-9.7,2.85-.79,1.31-.84,3.19-1.17,4.85-1.32,6.44-6.84,8.92-11.68,10.28-13.17,3.71-26.63,5.79-40.06,7.86l-54,8.32a109.81,109.81,0,0,1-17.34,1.74c-10.38-.06-12.58-7.61-10.84-19.81,1.37-9.63,1.76-18.8,2.75-28.37.84-8.15,2.59-13.35,9-15.75C1179.93,368.34,1198.54,373.22,1198,382.67Z" transform="translate(0.05 0.88)"/>
      <path class="cls-3" d="M1201.42,404.93a21.37,21.37,0,0,1,1.39-5.07c.92-1.93,2.92-3.84,2.73-6.34C1202.57,395.11,1201.1,400.75,1201.42,404.93Z" transform="translate(0.05 0.88)"/>
      <path class="cls-3" d="M1223.32,410.09a16,16,0,0,1,1-3.72c.67-1.42,2.14-2.82,2-4.65C1224.17,402.89,1223.09,407,1223.32,410.09Z" transform="translate(0.05 0.88)"/>
      <path class="cls-3" d="M1229.74,391.53a16.15,16.15,0,0,1,1-3.72c.67-1.42,2.14-2.81,2-4.65C1230.59,384.33,1229.51,388.47,1229.74,391.53Z" transform="translate(0.05 0.88)"/>
      <path class="cls-3" d="M1247.48,399.86a23.84,23.84,0,0,1,1.54-5.62c1-2.14,3.24-4.25,3-7C1248.76,389,1247.12,395.24,1247.48,399.86Z" transform="translate(0.05 0.88)"/>
      <path class="cls-3" d="M1260.51,406.33a23.44,23.44,0,0,1,1.6-5.58c1-2.12,3.29-4.19,3.1-7C1261.91,395.49,1260.2,401.7,1260.51,406.33Z" transform="translate(0.05 0.88)"/>
      <path class="cls-3" d="M1303.64,382.09a15.27,15.27,0,0,0,.29-3.52c-.11-1.52-.84-3.56-.21-4.87C1305.06,376,1304.7,379.89,1303.64,382.09Z" transform="translate(0.05 0.88)"/>
      <path class="cls-3" d="M1291.12,386.76a15.32,15.32,0,0,0,.29-3.52c-.11-1.53-.84-3.56-.21-4.88C1292.54,380.67,1292.19,384.56,1291.12,386.76Z" transform="translate(0.05 0.88)"/>
      <path class="cls-3" d="M1283.67,393.63a15.32,15.32,0,0,0,.29-3.52c-.11-1.53-.84-3.56-.21-4.88C1285.09,387.54,1284.73,391.43,1283.67,393.63Z" transform="translate(0.05 0.88)"/>
    </g>
    <g id="creek_bush_5">
      <path class="cls-4" d="M1057.25,410c-.4-8.25,7-14,12.75-9.82l.81,6.87c1.51-4.47,3.08-9.08,5.9-12.13s7.24-4.17,10.68-1.22A18,18,0,0,0,1090,396c3.94,2.2,6.42-4.11,8.76-8.19,3.22-5.62,9.3-7.94,14.88-5.67s10.38,9,11.74,16.46c-.25-7.62.58-15.74,4.59-20.52s12-4,14.91,3.1c1.13-4.05,4.57-6.43,8-5.51s6.43,5.05,7,9.56c.52-4.33,4.72-6.52,7.76-4.05a267.33,267.33,0,0,1,2.86,26.66c.11,2,.16,4.11-.72,5.53-2.11,3.39-7.63.13-9.4,3.88-.66,1.39-.49,3.27-.65,5-.62,6.57-5.88,9.64-10.57,11.51-12.78,5.11-26,8.62-39.23,12.13l-53.1,14.07a109.71,109.71,0,0,1-17.16,3.59c-10.39,1.06-13.4-6.24-13-18.61.33-9.75-.27-18.94-.31-28.6,0-8.22,1.15-13.59,7.3-16.68C1037.65,397.6,1056.79,400.48,1057.25,410Z" transform="translate(0.05 0.88)"/>
      <path class="cls-3" d="M1036.12,418a15.14,15.14,0,0,1,.59-3.64c.49-1.42,1.75-2.9,1.43-4.63C1036.19,411.06,1035.58,415.11,1036.12,418Z" transform="translate(0.05 0.88)"/>
      <path class="cls-3" d="M1053.32,428.78a14.74,14.74,0,0,1,.59-3.64c.49-1.41,1.75-2.9,1.43-4.62C1053.39,421.85,1052.78,425.89,1053.32,428.78Z" transform="translate(0.05 0.88)"/>
      <path class="cls-3" d="M1072.27,419.12a15.14,15.14,0,0,1,.59-3.64c.5-1.42,1.75-2.9,1.43-4.63C1072.34,412.18,1071.73,416.23,1072.27,419.12Z" transform="translate(0.05 0.88)"/>
      <path class="cls-3" d="M1085.1,404.15a14.74,14.74,0,0,1,.58-3.65c.5-1.41,1.75-2.89,1.43-4.62C1085.16,397.21,1084.56,401.26,1085.1,404.15Z" transform="translate(0.05 0.88)"/>
      <path class="cls-3" d="M1108.55,406.19a15.22,15.22,0,0,1,.59-3.65c.49-1.41,1.75-2.89,1.43-4.62C1108.62,399.25,1108,403.3,1108.55,406.19Z" transform="translate(0.05 0.88)"/>
      <path class="cls-3" d="M1141.24,390.64a15.22,15.22,0,0,1,.59-3.64c.5-1.41,1.75-2.89,1.43-4.62C1141.31,383.71,1140.7,387.76,1141.24,390.64Z" transform="translate(0.05 0.88)"/>
      <path class="cls-3" d="M1155.08,390a15.14,15.14,0,0,1,.59-3.64c.49-1.42,1.75-2.9,1.43-4.63C1155.15,383.1,1154.54,387.15,1155.08,390Z" transform="translate(0.05 0.88)"/>
    </g>
    <g id="creek_bush_4">
      <path class="cls-2" d="M467.42,567.49c0-8.24,7.57-13.61,13.09-9.24l.51,6.86c1.68-4.38,3.45-8.9,6.37-11.83s7.37-3.84,10.66-.76a18.7,18.7,0,0,0,2.51,2.39c3.82,2.36,6.55-3.82,9.05-7.78,3.44-5.46,9.58-7.51,15-5s9.91,9.38,10.94,16.88c.08-7.59,1.25-15.64,5.44-20.23s12.13-3.43,14.67,3.71c1.3-4,4.82-6.21,8.15-5.15s6.17,5.3,6.57,9.81c.7-4.29,5-6.29,7.89-3.7,1,8.88,1.57,17.79,1.69,26.65,0,2,0,4.1-1,5.48-2.24,3.29-7.58-.19-9.49,3.47-.72,1.35-.63,3.23-.87,4.91-.89,6.51-6.24,9.34-11,11-12.91,4.55-26.2,7.49-39.47,10.42l-53.33,11.78a109.08,109.08,0,0,1-17.2,2.86c-10.35.61-13-6.78-12.09-19.07.74-9.7.54-18.87.91-28.49.32-8.19,1.73-13.48,8-16.29C448.49,554.35,467.37,558,467.42,567.49Z" transform="translate(0.05 0.88)"/>
      <path class="cls-3" d="M472.3,589.48a21.11,21.11,0,0,1,1.06-5.15c.79-2,2.66-4,2.31-6.5C472.81,579.61,471.71,585.33,472.3,589.48Z" transform="translate(0.05 0.88)"/>
      <path class="cls-3" d="M494.49,593.21a15.2,15.2,0,0,1,.78-3.77c.57-1.46,2-3,1.69-4.77C494.87,586,494.05,590.17,494.49,593.21Z" transform="translate(0.05 0.88)"/>
      <path class="cls-3" d="M499.7,574.28a15.65,15.65,0,0,1,.77-3.78c.58-1.45,2-2.94,1.7-4.76C500.08,567,499.26,571.24,499.7,574.28Z" transform="translate(0.05 0.88)"/>
      <path class="cls-3" d="M517.93,581.45a24,24,0,0,1,1.18-5.7c.87-2.21,2.95-4.46,2.56-7.21C518.51,570.51,517.28,576.86,517.93,581.45Z" transform="translate(0.05 0.88)"/>
      <path class="cls-3" d="M531.36,587.07a23.29,23.29,0,0,1,1.23-5.68c.9-2.18,3-4.39,2.65-7.14C532.05,576.16,530.75,582.47,531.36,587.07Z" transform="translate(0.05 0.88)"/>
      <path class="cls-3" d="M572.83,560.1a15.51,15.51,0,0,0,.06-3.54c-.21-1.51-1.07-3.49-.52-4.85C573.85,553.93,573.75,557.83,572.83,560.1Z" transform="translate(0.05 0.88)"/>
      <path class="cls-3" d="M560.64,565.56a15.42,15.42,0,0,0,.06-3.53c-.21-1.52-1.07-3.5-.52-4.86C561.66,559.4,561.56,563.3,560.64,565.56Z" transform="translate(0.05 0.88)"/>
      <path class="cls-3" d="M553.65,572.9a15,15,0,0,0,.05-3.54c-.2-1.51-1.06-3.49-.52-4.85C554.67,566.73,554.57,570.63,553.65,572.9Z" transform="translate(0.05 0.88)"/>
    </g>
    <g id="creek_bush_3">
      <path class="cls-4" d="M333.68,575.94c.86-8.23,9.05-12.74,14.09-7.78l-.23,6.91c2.16-4.19,4.42-8.5,7.67-11.09s7.78-3,10.73.41a18.61,18.61,0,0,0,2.26,2.67c3.56,2.77,7-3.1,9.89-6.77,4.05-5.07,10.4-6.44,15.58-3.35s8.89,10.45,9.1,18c.91-7.57,3-15.47,7.66-19.59s12.49-2.08,14.26,5.33c1.73-3.83,5.5-5.66,8.71-4.24s5.6,6,5.5,10.52c1.17-4.2,5.66-5.73,8.29-2.82,0,9-.37,17.92-1.22,26.78-.19,2-.46,4.08-1.55,5.35-2.6,3-7.56-1-9.88,2.41-.86,1.28-1,3.16-1.4,4.81-1.61,6.4-7.27,8.63-12.19,9.78-13.4,3.11-27,4.57-40.61,6l-54.62,5.86a110.35,110.35,0,0,1-17.51.94c-10.43-.53-12.3-8.2-10-20.36,1.8-9.59,2.6-18.76,4-28.32,1.21-8.14,3.2-13.26,9.75-15.38C316.19,560.73,334.67,566.48,333.68,575.94Z" transform="translate(0.05 0.88)"/>
      <path class="cls-3" d="M311.58,580.66a15,15,0,0,1,1.14-3.51c.7-1.32,2.16-2.6,2.11-4.35C312.7,573.82,311.49,577.73,311.58,580.66Z" transform="translate(0.05 0.88)"/>
      <path class="cls-3" d="M326.94,593.93a15,15,0,0,1,1.14-3.51c.7-1.32,2.17-2.6,2.11-4.35C328.06,587.09,326.85,591,326.94,593.93Z" transform="translate(0.05 0.88)"/>
      <path class="cls-3" d="M347.15,587.25a14.57,14.57,0,0,1,1.13-3.51c.7-1.32,2.17-2.6,2.11-4.35C348.26,580.41,347.05,584.32,347.15,587.25Z" transform="translate(0.05 0.88)"/>
      <path class="cls-3" d="M362.09,574.4a14.88,14.88,0,0,1,1.13-3.51c.71-1.33,2.17-2.6,2.12-4.36C363.21,567.56,362,571.46,362.09,574.4Z" transform="translate(0.05 0.88)"/>
      <path class="cls-3" d="M385,580a14.57,14.57,0,0,1,1.13-3.51c.7-1.32,2.17-2.6,2.11-4.35C386.08,573.13,384.87,577,385,580Z" transform="translate(0.05 0.88)"/>
      <path class="cls-3" d="M419.64,569.57a14.43,14.43,0,0,1,1.13-3.51c.7-1.32,2.17-2.6,2.11-4.36C420.75,562.73,419.54,566.63,419.64,569.57Z" transform="translate(0.05 0.88)"/>
      <path class="cls-3" d="M433.41,571.07a15,15,0,0,1,1.13-3.51c.7-1.32,2.17-2.6,2.11-4.35C434.52,564.23,433.31,568.13,433.41,571.07Z" transform="translate(0.05 0.88)"/>
    </g>
    <g id="creek_bush_2">
      <path class="cls-2" d="M193.19,575.13c2.25-7.92,11.05-11,15.14-5.24l-1.42,6.74c2.84-3.75,5.79-7.6,9.42-9.59s8.14-1.65,10.44,2.22a18.59,18.59,0,0,0,1.75,3c3,3.33,7.36-1.86,10.85-5,4.83-4.29,11.29-4.56,15.84-.66s6.91,11.77,5.82,19.26c2.19-7.27,5.55-14.68,10.85-17.93s12.6.08,13.06,7.64c2.35-3.46,6.35-4.62,9.26-2.68s4.46,6.8,3.58,11.26c1.87-3.93,6.52-4.67,8.61-1.37-1.5,8.81-3.43,17.52-5.78,26.07-.52,1.89-1.16,3.93-2.44,5-3.07,2.54-7.23-2.28-10.09.7-1.06,1.11-1.5,2.93-2.19,4.48-2.67,6-8.6,7.24-13.61,7.53-13.67.79-27.25-.08-40.82-1L177,622.14a110.37,110.37,0,0,1-17.31-2c-10.12-2.29-10.65-10.14-6.32-21.68,3.4-9.11,5.76-18,8.79-27.11,2.58-7.78,5.4-12.47,12.18-13.44C178.66,557.25,195.78,566,193.19,575.13Z" transform="translate(0.05 0.88)"/>
      <path class="cls-3" d="M191.77,597.61a20.73,20.73,0,0,1,2.45-4.65c1.3-1.69,3.67-3.12,4-5.6C195,588.27,192.35,593.46,191.77,597.61Z" transform="translate(0.05 0.88)"/>
      <path class="cls-3" d="M212,607.36a15.76,15.76,0,0,1,1.8-3.41c1-1.24,2.7-2.29,2.95-4.11C214.42,600.51,212.47,604.32,212,607.36Z" transform="translate(0.05 0.88)"/>
      <path class="cls-3" d="M222.31,590.62a15.74,15.74,0,0,1,1.79-3.41c1-1.24,2.7-2.29,3-4.11C224.68,583.77,222.74,587.58,222.31,590.62Z" transform="translate(0.05 0.88)"/>
      <path class="cls-3" d="M237.84,602.58a23.08,23.08,0,0,1,2.71-5.15c1.45-1.88,4.07-3.46,4.46-6.21C241.42,592.23,238.48,598,237.84,602.58Z" transform="translate(0.05 0.88)"/>
      <path class="cls-3" d="M249.17,611.71a23.09,23.09,0,0,1,2.76-5.11c1.47-1.85,4.11-3.39,4.53-6.13C252.86,601.41,249.86,607.12,249.17,611.71Z" transform="translate(0.05 0.88)"/>
      <path class="cls-3" d="M296.5,597.32a15.05,15.05,0,0,0,1-3.38c.22-1.51-.05-3.65.85-4.8C299.2,591.68,298,595.4,296.5,597.32Z" transform="translate(0.05 0.88)"/>
      <path class="cls-3" d="M283.28,599.18a15.56,15.56,0,0,0,1-3.38c.22-1.51-.05-3.65.85-4.8C286,593.54,284.79,597.26,283.28,599.18Z" transform="translate(0.05 0.88)"/>
      <path class="cls-3" d="M274.52,604.29a15.19,15.19,0,0,0,1-3.38c.23-1.52-.05-3.66.85-4.81C277.21,598.65,276,602.37,274.52,604.29Z" transform="translate(0.05 0.88)"/>
      <path class="cls-3" d="M302.6,609a15.13,15.13,0,0,1,1.72-3.27c.92-1.18,2.58-2.19,2.83-3.93C304.87,602.4,303,606.05,302.6,609Z" transform="translate(0.05 0.88)"/>
    </g>
    <g id="creek_bush_1">
      <path class="cls-4" d="M63.36,542.24a21.83,21.83,0,0,1,4.39-5.94c1.83-1.54,4.32-2.3,6.47-1.27s3.37,3.36,4.35,5.69A45,45,0,0,1,82,557.43a27.27,27.27,0,0,1,15.36-7.36c3.08,7.47,2.46,16.69-1.56,23.26,1.73-4.74,5.61-8.7,10.11-8.6s8.85,5.52,7.56,10.45a24.34,24.34,0,0,1,15.39-12.87,9.62,9.62,0,0,1,6.29.19c4.24,1.89,5.94,9,3.09,12.92a7.68,7.68,0,0,1,5-6.43,12.55,12.55,0,0,1,7.93.29c3.3,1,6.65,2.89,8.49,6.24s1.52,8.43-1.38,10.35a14.48,14.48,0,0,1,6.77.89,6.9,6.9,0,0,1,4,5.94c0,2.64-2.54,5-4.61,3.81a13.5,13.5,0,0,1,9.29.9c2.67,4.66.43,11.22-3.49,14.21s-1.06,2.44-5.81,2.68c-9.57.48-27,1.69-36.6,2l-13.69.39c-7,.2-18.59.52-25.56-.12-7.64-.7-14.67.43-22.31-.34-8-.81-26-3.83-33.94-3.64,1-5.61,2.65-7.09,4.64-18.35,3.51-19.4-11.66-60,9.74-61.91C51,529.85,62.33,539.3,63.36,542.24Z" transform="translate(0.05 0.88)"/>
      <path class="cls-3" d="M65.67,558.36a26.41,26.41,0,0,1,2.26-7c1.48-2.66,4.69-5.33,4.41-8.73C67.6,545,65.19,552.69,65.67,558.36Z" transform="translate(0.05 0.88)"/>
      <path class="cls-3" d="M51.8,581.64a16.52,16.52,0,0,1,1.42-4.36c.93-1.67,2.94-3.35,2.76-5.47C53,573.23,51.5,578.08,51.8,581.64Z" transform="translate(0.05 0.88)"/>
      <path class="cls-3" d="M85.21,568.2a29.69,29.69,0,0,1,1.12-4.15c.62-1.63,1.82-3.42,1.91-5.33C86.57,560.41,85.37,565,85.21,568.2Z" transform="translate(0.05 0.88)"/>
      <path class="cls-3" d="M92.6,586.82a16.81,16.81,0,0,1,1.48-4.56c1-1.75,3.07-3.5,2.89-5.72C93.86,578,92.28,583.1,92.6,586.82Z" transform="translate(0.05 0.88)"/>
      <path class="cls-3" d="M77.12,603.75a18.46,18.46,0,0,0,.5-4.86c-.15-2.1-1.27-4.86-.25-6.7C79.45,595.3,78.83,600.67,77.12,603.75Z" transform="translate(0.05 0.88)"/>
      <path class="cls-3" d="M111.71,594.49a26.05,26.05,0,0,1,2.26-7c1.48-2.66,4.69-5.33,4.41-8.73C113.64,581.08,111.23,588.82,111.71,594.49Z" transform="translate(0.05 0.88)"/>
      <path class="cls-3" d="M103.74,610.32a12.3,12.3,0,0,0,.34-3.37c-.11-1.45-.91-3.37-.2-4.64C105.36,604.48,104.94,608.2,103.74,610.32Z" transform="translate(0.05 0.88)"/>
      <path class="cls-3" d="M111.71,594.49a26.05,26.05,0,0,1,2.26-7c1.48-2.66,4.69-5.33,4.41-8.73C113.64,581.08,111.23,588.82,111.71,594.49Z" transform="translate(0.05 0.88)"/>
      <path class="cls-3" d="M111.71,594.49a26.05,26.05,0,0,1,2.26-7c1.48-2.66,4.69-5.33,4.41-8.73C113.64,581.08,111.23,588.82,111.71,594.49Z" transform="translate(0.05 0.88)"/>
      <path class="cls-3" d="M63.25,601.16a14.16,14.16,0,0,0,.39-3.84c-.13-1.66-1-3.85-.23-5.31C65.1,594.49,64.62,598.73,63.25,601.16Z" transform="translate(0.05 0.88)"/>
      <path class="cls-3" d="M140.13,593.59a26.43,26.43,0,0,1,2.27-7c1.47-2.66,4.69-5.33,4.41-8.73C142.06,580.18,139.65,587.92,140.13,593.59Z" transform="translate(0.05 0.88)"/>
    </g>
  </g>
  <path id="creek" class="cls-5" d="M2.25,642.67s115,7.06,180.53,6.76c76.21-.35,221.75-7.51,395.19-38.14,127-22.44,564.84-200.63,868.93-182.59,98.16,8.59,162.7,29.91,304.16,48.35,70.4,9.17,106.76-21,166.69-23" transform="translate(0.05 0.88)"/>
  <g id="peony_garden">
    <path class="cls-6" d="M1178.21,818.18a179.8,179.8,0,0,1,32.45-100.38,2,2,0,0,0-.33-2.67l-10-8.51a2,2,0,0,0-2.94.38c-21.54,31.19-34.31,70.46-34.72,111.13a2,2,0,0,0,2,2h11.56A2,2,0,0,0,1178.21,818.18Z" transform="translate(0.05 0.88)"/>
    <path class="cls-6" d="M1341,638.59V625.28a2,2,0,0,0-2.21-2,195.84,195.84,0,0,0-126.35,64.66,2,2,0,0,0,.22,2.87l10.28,8.59a2,2,0,0,0,2.75-.19c28.86-31.53,68.72-53.74,113.52-58.64A2,2,0,0,0,1341,638.59Z" transform="translate(0.05 0.88)"/>
    <path class="cls-6" d="M1202.49,820.15h13.24a2,2,0,0,0,2-2A140.35,140.35,0,0,1,1241,743.49a2,2,0,0,0-.37-2.63l-11.29-9.6a2,2,0,0,0-3,.42c-16,24.47-25.46,55.12-25.85,86.45A2,2,0,0,0,1202.49,820.15Z" transform="translate(0.05 0.88)"/>
    <path class="cls-6" d="M1312.07,686.4a62.45,62.45,0,0,1,2.83-16.82,2,2,0,0,0-2.48-2.56,158.57,158.57,0,0,0-71,45.19,2,2,0,0,0,.21,2.88l11.51,9.62a2,2,0,0,0,2.79-.22c14.29-16.26,35.63-31.67,54.57-36.18A2,2,0,0,0,1312.07,686.4Z" transform="translate(0.05 0.88)"/>
    <path class="cls-6" d="M1256.7,757.62c-10,17.26-15.82,39.24-16.17,60.51a2,2,0,0,0,2,2H1256a2,2,0,0,0,2-2c.33-17.23,4.92-35.43,12.73-49.56a2,2,0,0,0-.45-2.5l-10.6-9A2,2,0,0,0,1256.7,757.62Z" transform="translate(0.05 0.88)"/>
    <path class="cls-6" d="M1325.26,719.59a48.41,48.41,0,0,1-8-11.5,2,2,0,0,0-2.53-.94,119.86,119.86,0,0,0-43.09,30.26,2,2,0,0,0,.21,2.88l10.54,8.81a2,2,0,0,0,2.75-.18,101.06,101.06,0,0,1,39.44-26.09A2,2,0,0,0,1325.26,719.59Z" transform="translate(0.05 0.88)"/>
    <path class="cls-6" d="M1280.16,820.15h14.19a2,2,0,0,0,2-1.94c1.16-26.79,18.9-50.16,43.22-58.3A2,2,0,0,0,1341,758V742.25a2,2,0,0,0-2.54-1.93c-34.06,9-59.35,41.12-60.26,77.8A2,2,0,0,0,1280.16,820.15Z" transform="translate(0.05 0.88)"/>
    <path class="cls-6" d="M1162.82,859.17h174.93a2.34,2.34,0,0,0,2-2.57v-17a2.34,2.34,0,0,0-2-2.57H1162.82a2.34,2.34,0,0,0-2,2.57v17A2.34,2.34,0,0,0,1162.82,859.17Z" transform="translate(0.05 0.88)"/>
    <path class="cls-6" d="M1540.24,818.18a179.72,179.72,0,0,0-32.45-100.38,2,2,0,0,1,.34-2.67l10-8.51a2,2,0,0,1,2.95.38c21.54,31.19,34.3,70.46,34.71,111.13a2,2,0,0,1-2,2h-11.56A2,2,0,0,1,1540.24,818.18Z" transform="translate(0.05 0.88)"/>
    <path class="cls-6" d="M1377.5,638.59V625.28a2,2,0,0,1,2.21-2,195.84,195.84,0,0,1,126.35,64.66,2,2,0,0,1-.22,2.87l-10.28,8.59a2,2,0,0,1-2.75-.19c-28.86-31.53-68.71-53.74-113.52-58.64A2,2,0,0,1,1377.5,638.59Z" transform="translate(0.05 0.88)"/>
    <path class="cls-6" d="M1516,820.15h-13.23a2,2,0,0,1-2-2,140.35,140.35,0,0,0-23.24-74.69,2,2,0,0,1,.37-2.63l11.29-9.6a2,2,0,0,1,3,.42c16,24.47,25.46,55.12,25.85,86.45A2,2,0,0,1,1516,820.15Z" transform="translate(0.05 0.88)"/>
    <path class="cls-6" d="M1406.38,686.4a62.45,62.45,0,0,0-2.83-16.82A2,2,0,0,1,1406,667a158.57,158.57,0,0,1,71,45.19,2,2,0,0,1-.21,2.88l-11.51,9.62a2,2,0,0,1-2.78-.22c-14.3-16.26-35.64-31.67-54.57-36.18A2,2,0,0,1,1406.38,686.4Z" transform="translate(0.05 0.88)"/>
    <path class="cls-6" d="M1461.76,757.62c10,17.26,15.82,39.24,16.17,60.51a2,2,0,0,1-2,2h-13.51a2,2,0,0,1-2-2c-.33-17.23-4.92-35.43-12.73-49.56a2,2,0,0,1,.45-2.5l10.6-9A2,2,0,0,1,1461.76,757.62Z" transform="translate(0.05 0.88)"/>
    <path class="cls-6" d="M1393.19,719.59a47.84,47.84,0,0,0,8-11.5,2,2,0,0,1,2.53-.94,119.78,119.78,0,0,1,43.09,30.26,2,2,0,0,1-.21,2.88l-10.54,8.81a2,2,0,0,1-2.75-.18,101.06,101.06,0,0,0-39.44-26.09A2,2,0,0,1,1393.19,719.59Z" transform="translate(0.05 0.88)"/>
    <path class="cls-6" d="M1438.29,820.15H1424.1a2,2,0,0,1-2-1.94c-1.17-26.79-18.9-50.16-43.22-58.3a2,2,0,0,1-1.39-1.89V742.25a2,2,0,0,1,2.54-1.93c34.06,9,59.36,41.12,60.26,77.8A2,2,0,0,1,1438.29,820.15Z" transform="translate(0.05 0.88)"/>
    <path class="cls-6" d="M1380.4,859.17h174.93a2.16,2.16,0,0,0,2-2.29V839.37a2.16,2.16,0,0,0-2-2.3H1380.4a2.17,2.17,0,0,0-2,2.3v17.51A2.17,2.17,0,0,0,1380.4,859.17Z" transform="translate(0.05 0.88)"/>
    <path class="cls-6" d="M1547.39,681.47l-10,8.26a2,2,0,0,0-.38,2.66c22.25,33,39.14,80.22,41.12,125.79a2,2,0,0,0,2,1.91l12.72,0a2,2,0,0,0,2-2.07c-2-49.54-21.15-101.42-44.48-136.19A2,2,0,0,0,1547.39,681.47Z" transform="translate(0.05 0.88)"/>
    <path class="cls-7" d="M1396.72,686.52a38,38,0,0,0-28.92-36.88l1.27-63.71h-17.9l-1.27,63.71a38,38,0,0,0,0,73.77l1.27,191.81h17.9l-1.27-191.81A38,38,0,0,0,1396.72,686.52Z" transform="translate(0.05 0.88)"/>
  </g>
  <g id="paths">
    <g id="path_south_of_creek">
      <path id="path_left_of_water_feature" class="cls-8" d="M355.15,748.78S399.22,863.09,565.53,833c90.61-16.41,143.22-135.49,143.22-135.49" transform="translate(0.05 0.88)"/>
      <path id="water_feature_bridge" class="cls-8" d="M630.81,801.19s64.39,44.06,140,44.06c56,0,106.8-11.4,160.94-37.47,76.22-36.7,108-109.4,108-109.4" transform="translate(0.05 0.88)"/>
      <path id="parking_to_bike_right" class="cls-8" d="M1191.17,921.71h-94.5a2,2,0,0,1-2-2V790.59S1134.38,632,1283.87,572" transform="translate(0.05 0.88)"/>
      <path id="parking_to_bike_left" class="cls-8" d="M943.53,630.62s121.74,48,151.14,160" transform="translate(0.05 0.88)"/>
      <g id="arena_st_to_bike">
        <path id="going_left" class="cls-9" d="M1636.33,1077.75c-.88-23.25,25.94-121,3.92-308.47-4.47-25.19-40.35-117.82-92.72-137.89" transform="translate(0.05 0.88)"/>
        <path id="going_right" class="cls-9" d="M1640.25,769.28s-18.36-103.52,91.91-134.82" transform="translate(0.05 0.88)"/>
      </g>
    </g>
    <g id="bridge">
      <line class="cls-10" x1="1774.15" y1="324.09" x2="1723.69" y2="639.52"/>
      <path class="cls-11" d="M1735.57,560.44c-9.24,79.13-61.44,87.29-61.44,87.29" transform="translate(0.05 0.88)"/>
      <path class="cls-11" d="M1756.26,620.89s-26.16,7.46-23.69-38" transform="translate(0.05 0.88)"/>
      <path class="cls-11" d="M1820.71,306.34c-12.06,2.3-48.34,26-56,75.35" transform="translate(0.05 0.88)"/>
      <path class="cls-11" d="M1713.9,322.12s64.53,14.82,52.94,46.52" transform="translate(0.05 0.88)"/>
    </g>
    <g id="path_north_of_creek">
      <path id="memory_garden_connection_bottom" class="cls-12" d="M870,364.81c-35.44,55.1-117.06,88.57-188.41,45.85-130.29-74.49-236.18-72-236.18-72" transform="translate(0.05 0.88)"/>
      <path id="memory_garden_connection_top" class="cls-12" d="M689.11,147.66c-2.63,35.88-22.48,61.14-45.68,69.61-39.19,14.29-90.56-22-130.3-33-41.05-11.4-102.54-32.73-146,8.73" transform="translate(0.05 0.88)"/>
      <path id="memory_garden_circle_path" class="cls-12" d="M445.36,338.7c0,96.56-76.78,174.84-173.34,174.84S95.69,435.26,95.69,338.7a174.84,174.84,0,0,1,349.67,0Z" transform="translate(0.05 0.88)"/>
      <path id="kids_garden_2" class="cls-12" d="M856.33,177.74s-10.05.54-26.25,66c-18.45,74.57,10.41,110.84,41.19,121.55,94.87,33,150.18-37.76,165.91-61.17" transform="translate(0.05 0.88)"/>
      <path id="kids_garden_1" class="cls-12" d="M1107.86,327.22s16.74-88.51-29.9-101.5c-35-9.74-65-43.72-75.83-59.9" transform="translate(0.05 0.88)"/>
      <path id="daylilly_circle" class="cls-12" d="M1286.41,306.36S1284.67,252,1315.8,201c16.14-26.45,53.37-71.62,109.53-78.59,62.31-7.74,96.63-1.54,129.51,20.42,72.4,48.38,56.66,114.18,84.59,133" transform="translate(0.05 0.88)"/>
      <path id="kaiser_entry_2" class="cls-12" d="M886.42,193.9s149.36-12.42,167.8-76.76C1067.64,70.32,1062.65,0,1062.65,0" transform="translate(0.05 0.88)"/>
      <path id="kaiser_entry_1_to_3" class="cls-12" d="M583.6,0s-13.41,151,34.79,147.39c70.72-4.34,158.52,6.52,232.73,28.21,87.55,34.19,127.71,130.68,232.39,151.4,90.15,5.74,182.61-20.62,309.51-37.24,129.35-16.93,175.47,1.48,296.92-22,41.83-8.09,65.74-51.85,71.62-71.78,14.17-48.08,16.27-196,16.27-196" transform="translate(0.05 0.88)"/>
      <path id="bridge_connection_top" class="cls-12" d="M1571,280.75c97.76-1.86,135.69,62.7,197.44,44.14,58-17.43,59.77-29.68,149.28-40.87,0,0-140.49,0-157.43-83-11.44,40.74,6.77,137.88,6.52,167.65" transform="translate(0.05 0.88)"/>
    </g>
    <path id="bike_path" class="cls-13" d="M2.25,1039.92s54.64,2.46,105.21-53c52.46-57.56,111-254.18,280-237.53,170.08,16.75,484.91-95.14,580.71-127.12,153.18-50.7,207.23-60.8,315.68-50.25,56.93,5.54,80.36,13.68,105.66,18,74.74,12.89,231.93,78.6,323.42,51.54,80.12-23.7,110.6-87.14,204.56-100.32" transform="translate(0.05 0.88)"/>
  </g>
  <g id="water_feature">
    <path class="cls-6" d="M943.15,738.69c-3.73,4.42-8.32,14.55-13.15,18.49-5,4.11-10.91,6.42-12.21,12.13a62.67,62.67,0,0,1-5,14.24c-1.89,4.11-16.31,12.44-19.56,14-6.54,3-14.35,3.37-21.84,3.62-13.54.46-37.26,0-47.85-7-5.6-3.72-13.27-1.94-28.6,7.38-15.59,9.48-45.49,11.29-54.2-.14-4.87-6.41-1.65-19.89,3.27-25,4.5-4.73,17.28-20.68,44.65-18.21,8.55.77,17.8.53,22.28-13.07.5-1.53-.12-6.17,5.68-12,13-13,39.81-20,59.5-22,12.62-1.28,18.55-1.23,28.71-7.6,3-1.9,16.31-2.45,20-1.57,10.8,2.59,9,4.49,13.94,9.58C944.41,717.4,947,734.08,943.15,738.69Z" transform="translate(0.05 0.88)"/>
    <path class="cls-14" d="M935.71,739.33c1.19,11.84-12.85,14.8-19.1,23.19-9.12,12.25-2.78,18.1-19.25,27.88-21,12.49-42.47,8-65,2.19-26.87-6.94-33,7.2-58.21,12.62-19.79,4.26-41.86-5.15-27.12-27.65,3.79-5.79,10.41-8.7,16.49-11.62,9.9-4.75,35.55-1.22,41.47-5.59,11.86-8.77,7-24.76,28-33.16,19.72-7.88,46.45-11.07,67-14.73,10-1.79,20.84-8.83,31.17.19C942.21,722.3,934.41,726.42,935.71,739.33Z" transform="translate(0.05 0.88)"/>
    <path class="cls-15" d="M836.54,756.43c.12-2.22,3.53-3.15,6.25-3.37s6.11-.7,6.88-2.84" transform="translate(0.05 0.88)"/>
    <path class="cls-15" d="M850.59,777.78A7.68,7.68,0,0,1,857,774c1.68-.09,3.37.28,5,.13s3.47-1.11,3.44-2.48" transform="translate(0.05 0.88)"/>
    <path class="cls-15" d="M887.34,761.86c3.74.89,6.59-4.18,10.42-3.24" transform="translate(0.05 0.88)"/>
    <path class="cls-15" d="M896.35,734.08c1.71-3.34,5.59-5.89,10-6.55" transform="translate(0.05 0.88)"/>
    <path class="cls-15" d="M761.25,790.07c1.21-1.94,2.23-2.86,4.51-2.26a11.51,11.51,0,0,0,1.38.42c2,.28,3-2,3.11-3.62" transform="translate(0.05 0.88)"/>
    <path class="cls-15" d="M796.72,778c.77-1.59,1.62-2.23,2.65-2.21a4.76,4.76,0,0,1,2.25,1,3.52,3.52,0,0,0,2.54.74c1.32-.1,2.34-1.09,2.26-3.05" transform="translate(0.05 0.88)"/>
  </g>
  <g id="memory_garden_circle">
    <g id="trees_around_memory_garden">
      <path class="cls-16" d="M153,255.64c-1.33,3.87-1.76,8.3-.4,12.13a4,4,0,0,0,3.18,3.08,11.08,11.08,0,0,0,3.48.72c3.42,0,6.18-3.11,8.44-6.06,4-5.25,5.7-13.17-1.34-16.33C161.25,246.91,154.9,250,153,255.64Z" transform="translate(0.05 0.88)"/>
      <path class="cls-2" d="M157.25,253.52c-.16,2.76.36,4.9,2.34,6.44a7.11,7.11,0,0,0,4.29,1.45,13.31,13.31,0,0,0,5.23-.55c.39-.11.49.13,1-.21a2,2,0,0,0,.5-.59c2.31-3.64,2.55-8.42,2.56-12.89,0-2.27-.46-4.37-2.12-5.58a6,6,0,0,0-4.07-1c-3.27.47-5.13,3.23-6.72,4.87C158.21,247.55,157.33,252.28,157.25,253.52Z" transform="translate(0.05 0.88)"/>
      <path class="cls-16" d="M184,227.29c-1.32,3.87-1.76,8.31-.39,12.13a4,4,0,0,0,3.18,3.09,11.31,11.31,0,0,0,3.47.72c3.42,0,6.19-3.11,8.45-6.07,4-5.25,5.69-13.16-1.34-16.32C192.31,218.56,186,221.62,184,227.29Z" transform="translate(0.05 0.88)"/>
      <path class="cls-2" d="M188.31,225.18c-.16,2.75.35,4.89,2.34,6.43a7,7,0,0,0,4.29,1.45,13.28,13.28,0,0,0,5.23-.54c.38-.11.48.12,1-.22a2.06,2.06,0,0,0,.5-.59c2.3-3.64,2.55-8.42,2.56-12.89,0-2.27-.46-4.36-2.12-5.57a5.92,5.92,0,0,0-4.07-1c-3.28.48-5.13,3.24-6.73,4.87C189.26,219.2,188.38,223.93,188.31,225.18Z" transform="translate(0.05 0.88)"/>
      <path class="cls-16" d="M225.59,210c-1.33,3.87-1.77,8.31-.4,12.13a5.13,5.13,0,0,0,1.37,2.23,5.39,5.39,0,0,0,1.81.86,11.36,11.36,0,0,0,3.48.71c3.41,0,6.18-3.11,8.44-6.06,4-5.25,5.7-13.17-1.34-16.33C233.88,201.29,227.53,204.35,225.59,210Z" transform="translate(0.05 0.88)"/>
      <path class="cls-2" d="M229.88,207.9c-.16,2.76.35,4.9,2.34,6.44a7.11,7.11,0,0,0,4.29,1.45,13.47,13.47,0,0,0,5.23-.54c.38-.11.49.12,1-.22a2,2,0,0,0,.5-.59c2.3-3.64,2.55-8.42,2.56-12.89,0-2.27-.46-4.37-2.12-5.58a6,6,0,0,0-4.07-1c-3.28.48-5.13,3.23-6.73,4.87C230.83,201.93,230,206.66,229.88,207.9Z" transform="translate(0.05 0.88)"/>
      <path class="cls-16" d="M134.37,300.45c-1.33,3.87-1.76,8.3-.39,12.12a5,5,0,0,0,1.36,2.24,5.18,5.18,0,0,0,1.81.85,11.43,11.43,0,0,0,3.48.72c3.42,0,6.18-3.11,8.44-6.07,4-5.25,5.7-13.16-1.34-16.32C142.66,291.71,136.31,294.78,134.37,300.45Z" transform="translate(0.05 0.88)"/>
      <path class="cls-2" d="M138.66,298.33c-.16,2.75.36,4.89,2.35,6.43a7,7,0,0,0,4.28,1.45,13.08,13.08,0,0,0,5.23-.54c.39-.11.49.12,1-.22a1.91,1.91,0,0,0,.49-.59c2.31-3.63,2.55-8.41,2.56-12.89,0-2.26-.46-4.36-2.12-5.57a5.9,5.9,0,0,0-4.06-1c-3.28.47-5.14,3.23-6.73,4.86C139.62,292.36,138.74,297.09,138.66,298.33Z" transform="translate(0.05 0.88)"/>
      <path class="cls-16" d="M129.34,345.41c-1.33,3.87-1.77,8.3-.4,12.12a5.11,5.11,0,0,0,1.37,2.24,5.18,5.18,0,0,0,1.81.85,11.37,11.37,0,0,0,3.47.72c3.42,0,6.19-3.11,8.45-6.07,4-5.25,5.7-13.16-1.34-16.32C137.63,336.67,131.28,339.74,129.34,345.41Z" transform="translate(0.05 0.88)"/>
      <path class="cls-2" d="M133.63,343.29c-.16,2.75.35,4.89,2.34,6.43a7,7,0,0,0,4.29,1.45,13.1,13.1,0,0,0,5.23-.54c.38-.11.49.12,1-.22a1.81,1.81,0,0,0,.5-.59c2.3-3.63,2.55-8.41,2.56-12.89,0-2.26-.46-4.36-2.12-5.57a5.91,5.91,0,0,0-4.07-1c-3.28.47-5.13,3.23-6.73,4.86C134.58,337.32,133.7,342.05,133.63,343.29Z" transform="translate(0.05 0.88)"/>
      <path class="cls-16" d="M138.51,388.76c-1.33,3.87-1.77,8.31-.4,12.13a4.07,4.07,0,0,0,3.18,3.09,11.37,11.37,0,0,0,3.48.72c3.41,0,6.18-3.11,8.44-6.07,4-5.25,5.7-13.16-1.34-16.32C146.8,380,140.45,383.09,138.51,388.76Z" transform="translate(0.05 0.88)"/>
      <path class="cls-2" d="M142.8,386.65c-.16,2.75.36,4.89,2.34,6.43a7,7,0,0,0,4.29,1.45,13.1,13.1,0,0,0,5.23-.54c.39-.11.49.12,1-.22a1.92,1.92,0,0,0,.5-.59c2.31-3.64,2.55-8.41,2.56-12.89,0-2.27-.46-4.36-2.12-5.57a5.92,5.92,0,0,0-4.07-1c-3.27.48-5.13,3.24-6.72,4.87C143.76,380.67,142.88,385.4,142.8,386.65Z" transform="translate(0.05 0.88)"/>
      <path class="cls-16" d="M161,426.56c-1.33,3.87-1.76,8.3-.4,12.12a5.11,5.11,0,0,0,1.37,2.24,5.18,5.18,0,0,0,1.81.85,11.37,11.37,0,0,0,3.48.72c3.42,0,6.18-3.11,8.44-6.07,4-5.25,5.7-13.16-1.34-16.32C169.27,417.82,162.92,420.89,161,426.56Z" transform="translate(0.05 0.88)"/>
      <path class="cls-2" d="M165.27,424.44c-.16,2.75.36,4.89,2.34,6.43a7,7,0,0,0,4.29,1.45,13.1,13.1,0,0,0,5.23-.54c.39-.11.49.12,1-.22a1.81,1.81,0,0,0,.5-.59c2.31-3.64,2.55-8.41,2.56-12.89,0-2.26-.46-4.36-2.12-5.57a5.91,5.91,0,0,0-4.07-1c-3.27.47-5.13,3.23-6.72,4.86C166.23,418.47,165.35,423.2,165.27,424.44Z" transform="translate(0.05 0.88)"/>
      <path class="cls-16" d="M198.48,453.88c-1.33,3.87-1.77,8.3-.4,12.13a4,4,0,0,0,3.18,3.08,11.37,11.37,0,0,0,3.48.72c3.41,0,6.18-3.11,8.44-6.07,4-5.25,5.7-13.16-1.34-16.32C206.77,445.14,200.42,448.21,198.48,453.88Z" transform="translate(0.05 0.88)"/>
      <path class="cls-2" d="M202.77,451.76c-.16,2.75.36,4.89,2.34,6.43a7,7,0,0,0,4.29,1.45,13.1,13.1,0,0,0,5.23-.54c.39-.11.49.12,1-.22a1.81,1.81,0,0,0,.5-.59c2.31-3.63,2.55-8.41,2.56-12.89,0-2.26-.46-4.36-2.12-5.57a5.91,5.91,0,0,0-4.07-1c-3.27.47-5.13,3.23-6.72,4.86C203.73,445.79,202.85,450.52,202.77,451.76Z" transform="translate(0.05 0.88)"/>
      <path class="cls-16" d="M238.37,466.72c-1.33,3.87-1.76,8.3-.39,12.13a5,5,0,0,0,1.36,2.23,5.18,5.18,0,0,0,1.81.85,11.14,11.14,0,0,0,3.48.72c3.42,0,6.18-3.11,8.44-6.07,4-5.24,5.7-13.16-1.34-16.32C246.66,458,240.32,461.05,238.37,466.72Z" transform="translate(0.05 0.88)"/>
      <path class="cls-2" d="M242.66,464.6c-.16,2.76.36,4.9,2.35,6.44a7.08,7.08,0,0,0,4.28,1.45,13.29,13.29,0,0,0,5.23-.55c.39-.11.49.13,1-.21a2.17,2.17,0,0,0,.49-.59c2.31-3.64,2.55-8.42,2.56-12.9,0-2.26-.46-4.36-2.12-5.57a5.88,5.88,0,0,0-4.06-1c-3.28.47-5.14,3.23-6.73,4.87C243.62,458.63,242.74,463.36,242.66,464.6Z" transform="translate(0.05 0.88)"/>
    </g>
    <g id="memory_garden">
      <path id="memory_garden_path" class="cls-6" d="M445.45,331.07l-127.26.67a43.29,43.29,0,1,0-.32,14.73l127.41-1.16Z" transform="translate(0.05 0.88)"/>
      <circle class="cls-7" cx="275.29" cy="339.28" r="40.68"/>
      <g id="memory_gazebo_icon">
        <polygon class="cls-6" points="261.07 356.18 261.07 353.43 259.39 353.43 259.39 332.57 260.26 332.57 260.26 329.98 254.95 329.98 254.95 332.57 255.9 332.57 255.9 353.43 254.07 353.43 254.07 356.18 255.9 356.18 255.9 360.65 255.75 360.65 254.07 360.65 254.07 362.44 261.07 362.44 261.07 360.65 259.39 360.65 259.39 356.18 261.07 356.18"/>
        <polygon class="cls-6" points="270.77 356.18 270.77 353.43 269.09 353.43 269.09 332.57 269.96 332.57 269.96 329.98 264.64 329.98 264.64 332.57 265.6 332.57 265.6 353.43 263.77 353.43 263.77 356.18 265.6 356.18 265.6 360.65 263.77 360.65 263.77 362.44 270.77 362.44 270.77 360.65 269.09 360.65 269.09 356.18 270.77 356.18"/>
        <polygon class="cls-6" points="286.8 356.18 286.8 353.43 285.13 353.43 285.13 332.57 286 332.57 286 329.98 280.68 329.98 280.68 332.57 281.63 332.57 281.63 353.43 279.81 353.43 279.81 356.18 281.63 356.18 281.63 360.65 279.81 360.65 279.81 362.44 286.8 362.44 286.8 360.65 285.13 360.65 285.13 356.18 286.8 356.18"/>
        <polygon class="cls-6" points="296.5 356.18 296.5 353.43 294.82 353.43 294.82 332.57 295.69 332.57 295.69 329.98 290.38 329.98 290.38 332.57 291.33 332.57 291.33 353.43 289.5 353.43 289.5 356.18 291.33 356.18 291.33 360.65 289.5 360.65 289.5 362.44 296.5 362.44 296.5 360.65 294.82 360.65 294.82 356.18 296.5 356.18"/>
        <path class="cls-17" d="M275.27,309.74A19.32,19.32,0,0,0,256,329.06h3l16.36,0,16.37,0h2.95A19.32,19.32,0,0,0,275.27,309.74Z" transform="translate(0.05 0.88)"/>
        <path class="cls-18" d="M275.27,309.74c-7.53,0-15.55,11.42-15.55,19.36h31.11C290.83,321.16,282.81,309.74,275.27,309.74Z" transform="translate(0.05 0.88)"/>
        <path class="cls-18" d="M275.27,309.74c-5.83,0-9.26,11.42-9.26,19.34l9.26,0,9.27,0C284.54,321.16,281.11,309.74,275.27,309.74Z" transform="translate(0.05 0.88)"/>
      </g>
    </g>
    <path class="cls-19" d="M394.91,215.84c-84.07,56.93-84.07,188.82,0,246.48" transform="translate(0.05 0.88)"/>
    <path class="cls-20" d="M345.26,273.92c42,28.46,42,94.41,0,123.24" transform="translate(0.05 0.88)"/>
    <path class="cls-20" d="M367.13,240.67c61.08,45.05,61.08,149.42,0,195" transform="translate(0.05 0.88)"/>
  </g>
  <g id="daylily_garden">
    <g id="daylily_bottom">
      <path class="cls-21" d="M1426,234c-2.34-18.36,28.48-25.36,28.48-25.36s32.61,3.86,35,22.22-10,33.95-27.48,34.81S1428.38,252.39,1426,234Z" transform="translate(0.05 0.88)"/>
      <path class="cls-22" d="M1436.62,211.69s-3.7,22,11.32,40.88c8.31,10.43,13.8,10,19.56-1,10.75-20.46,4.5-43.31,4.5-43.31" transform="translate(0.05 0.88)"/>
      <path class="cls-22" d="M1454.52,208.67a108.39,108.39,0,0,0,3.12,37.53" transform="translate(0.05 0.88)"/>
    </g>
    <g id="daylily_top_left">
      <path class="cls-21" d="M1440.22,155.64c16,9.28,2.91,38,2.91,38s-22.85,23.6-38.87,14.33-21-28.51-11-43S1424.2,146.37,1440.22,155.64Z" transform="translate(0.05 0.88)"/>
      <path class="cls-22" d="M1451.58,177.6s-15.28-16.3-39.38-15.78c-13.33.28-16.33,4.91-11.1,16.14,9.76,20.95,31.72,29.83,31.72,29.83" transform="translate(0.05 0.88)"/>
      <path class="cls-22" d="M1411.38,173.4a147.86,147.86,0,0,1,31.75,20.26" transform="translate(0.05 0.88)"/>
    </g>
    <g id="daylily_top_right">
      <path class="cls-21" d="M1502.69,204.46c-15.48,10.15-35.28-14.48-35.28-14.48s-10.82-31,4.65-41.15,34.88-5.92,43.34,9.44S1518.17,194.31,1502.69,204.46Z" transform="translate(0.05 0.88)"/>
      <path class="cls-22" d="M1480,204.75s21.42-6.33,31.78-28.1c5.73-12,3-16.79-9.43-17.16-23.1-.69-40.9,14.94-40.9,14.94" transform="translate(0.05 0.88)"/>
      <path class="cls-22" d="M1499.78,170.72A131.44,131.44,0,0,0,1467.41,190" transform="translate(0.05 0.88)"/>
    </g>
  </g>
  <g id="ovbg_icon">
    <g id="wing_left">
      <path class="cls-23" d="M1698.62,959c14.41-19.1,30.38-13.35,46.89-9.53V960.7S1713,951.5,1698.62,959Z" transform="translate(0.05 0.88)"/>
      <path class="cls-24" d="M1686.64,974.74c14.38-17.72,23-16.54,32.92-14.6,12.33,2.4,14.29,4.12,26,3.72v9.51a29.8,29.8,0,0,1-9.64,1.8,81.82,81.82,0,0,1-18.09-2.56C1710.56,970.36,1697.1,968.13,1686.64,974.74Z" transform="translate(0.05 0.88)"/>
    </g>
    <g id="wing_right">
      <path class="cls-25" d="M1834.37,960.47C1820,979.56,1804,973.82,1787.48,970V958.76S1820,968,1834.37,960.47Z" transform="translate(0.05 0.88)"/>
      <path class="cls-26" d="M1846.35,944.72c-14.38,17.72-23,16.53-32.92,14.6-12.33-2.4-14.29-4.12-26-3.72v-9.51a29.8,29.8,0,0,1,9.64-1.8,81.82,81.82,0,0,1,18.09,2.56C1822.43,949.09,1835.89,951.33,1846.35,944.72Z" transform="translate(0.05 0.88)"/>
    </g>
    <g id="gazebo_logo">
      <polygon class="cls-27" points="1753.32 967.62 1753.32 965.24 1751.87 965.24 1751.87 947.27 1752.62 947.27 1752.62 945.03 1748.04 945.03 1748.04 947.27 1748.86 947.27 1748.86 965.24 1748.74 965.24 1747.29 965.24 1747.29 967.62 1748.74 967.62 1748.86 967.62 1748.86 971.47 1748.74 971.47 1747.29 971.47 1747.29 973 1748.74 973 1751.87 973 1753.32 973 1753.32 971.47 1751.87 971.47 1751.87 967.62 1753.32 967.62"/>
      <polygon class="cls-27" points="1761.68 967.62 1761.68 965.24 1760.23 965.24 1760.23 947.27 1760.98 947.27 1760.98 945.03 1756.4 945.03 1756.4 947.27 1757.22 947.27 1757.22 965.24 1757.09 965.24 1755.65 965.24 1755.65 967.62 1757.09 967.62 1757.22 967.62 1757.22 971.47 1757.09 971.47 1755.65 971.47 1755.65 973 1757.09 973 1760.23 973 1761.68 973 1761.68 971.47 1760.23 971.47 1760.23 967.62 1761.68 967.62"/>
      <polygon class="cls-27" points="1777.48 967.61 1777.48 965.24 1776.04 965.24 1776.04 947.26 1776.79 947.26 1776.79 945.03 1772.21 945.03 1772.21 947.26 1773.03 947.26 1773.03 965.24 1772.9 965.24 1771.45 965.24 1771.45 967.61 1772.9 967.61 1773.03 967.61 1773.03 971.47 1772.9 971.47 1771.45 971.47 1771.45 973 1772.9 973 1776.04 973 1777.48 973 1777.48 971.47 1776.04 971.47 1776.04 967.61 1777.48 967.61"/>
      <polygon class="cls-27" points="1785.84 967.61 1785.84 965.24 1784.4 965.24 1784.4 947.26 1785.15 947.26 1785.15 945.03 1780.56 945.03 1780.56 947.26 1781.38 947.26 1781.38 965.24 1781.26 965.24 1779.81 965.24 1779.81 967.61 1781.26 967.61 1781.38 967.61 1781.38 971.47 1781.26 971.47 1779.81 971.47 1779.81 973 1781.26 973 1784.4 973 1785.84 973 1785.84 971.47 1784.4 971.47 1784.4 967.61 1785.84 967.61"/>
      <path class="cls-28" d="M1766.68,927.47A16.65,16.65,0,0,0,1750,944.12h2.55l14.1,0,14.1,0h2.55A16.66,16.66,0,0,0,1766.68,927.47Z" transform="translate(0.05 0.88)"/>
      <path class="cls-28" d="M1766.68,927.47c-6.5,0-13.41,9.84-13.41,16.68h26.81C1780.08,937.31,1773.17,927.47,1766.68,927.47Z" transform="translate(0.05 0.88)"/>
      <path class="cls-28" d="M1766.68,927.47c-5,0-8,9.84-8,16.67h16C1774.66,937.31,1771.71,927.47,1766.68,927.47Z" transform="translate(0.05 0.88)"/>
      <polygon class="cls-27" points="1767.18 926.1 1766.71 922.6 1766.71 922.6 1766.27 926.1 1765.82 926.1 1765.82 945.03 1767.63 945.03 1767.63 926.1 1767.18 926.1"/>
      <rect class="cls-27" x="1751.19" y="938.11" width="31.07" height="1.81"/>
      <rect class="cls-27" x="1754.69" y="932.91" width="24.08" height="1.81"/>
    </g>
    <text id="oshawa_bontanical_garden_text" class="cls-29" transform="translate(1705.24 996.17)">OSH<tspan class="cls-30" x="32.23" y="0">A</tspan><tspan class="cls-31" x="42.52" y="0">W</tspan><tspan x="56.81" y="0">A </tspan><tspan class="cls-32" x="72.17" y="0">V</tspan><tspan x="81.46" y="0">ALLEY</tspan><tspan class="cls-33"><tspan x="-18.22" y="17.42">B</tspan><tspan class="cls-34" x="-9.78" y="17.42">O</tspan><tspan class="cls-35" x="3" y="17.42">T</tspan><tspan class="cls-34" x="9.84" y="17.42">ANI</tspan><tspan class="cls-36" x="37.76" y="17.42">C</tspan><tspan class="cls-37" x="47.88" y="17.42">AL </tspan><tspan class="cls-38" x="70.17" y="17.42">G</tspan><tspan class="cls-34" x="82.14" y="17.42">ARDENS</tspan></tspan></text>
  </g>
  <g id="buildings_structure">
    <rect id="parking" class="cls-39" x="1191.22" y="915.1" width="334.06" height="118.72"/>
    <polygon id="childrens_arena_main" class="cls-40" points="1064.46 1037.58 1064.46 1008.26 1075.39 1008.26 1075.39 985.3 1064.46 985.3 1064.46 950.16 1047.31 950.16 1047.31 938.64 1027.79 938.64 1027.79 927.11 996.73 927.11 996.73 915.1 728.04 915.1 727.88 1037.58 1064.46 1037.58"/>
    <polygon id="fire_department" class="cls-41" points="644.63 942.37 644.63 903.27 404.58 903.27 404.58 942.37 460.94 942.37 460.94 956.17 427.05 956.17 427.05 1033.83 622.15 1033.83 622.15 956.17 588.27 956.17 588.27 942.37 644.63 942.37"/>
  </g>
  <g id="entry_points">
    <g id="gate_04">
      <rect class="cls-42" x="1745.05" y="71.88" width="8" height="34" rx="1.31"/>
      <rect class="cls-42" x="1798.05" y="71.88" width="8" height="34" rx="1.31"/>
      <path class="cls-42" d="M1787.23,67.75c-1.08-.2-2.17-.34-3.27-.46,0,.24,0,.47,0,.71a9,9,0,0,1-18,.09c-.81.14-1.61.29-2.37.44A79.52,79.52,0,0,0,1754,71V86c22-7,43,0,43,0V71A33.36,33.36,0,0,0,1787.23,67.75Z" transform="translate(0.05 0.88)"/>
      <path class="cls-42" d="M1775.06,60a8,8,0,1,0,8,8A8,8,0,0,0,1775.06,60Zm3.84,12.15a1.14,1.14,0,0,1-.33.07H1777a1,1,0,0,0-1,1v.6a1,1,0,1,1-1.91,0v-.6a1,1,0,0,0-1-1h-1.55a1,1,0,0,1-.79-.44,1,1,0,0,1-.1-.91l3.56-8.81a1,1,0,0,1,.88-.61h0a1,1,0,0,1,.88.62l3.46,8.82A1,1,0,0,1,1778.9,72.15Z" transform="translate(0.05 0.88)"/>
    </g>
    <g id="gate_03">
      <rect class="cls-42" x="1027.05" y="73.88" width="8" height="34" rx="1.31"/>
      <rect class="cls-42" x="1080.05" y="73.88" width="8" height="34" rx="1.31"/>
      <path class="cls-42" d="M1069.23,69.75c-1.08-.2-2.17-.34-3.27-.46,0,.24,0,.47,0,.71a9,9,0,0,1-18,.09c-.81.14-1.61.29-2.37.44A79.52,79.52,0,0,0,1036,73V88c22-7,43,0,43,0V73A33.36,33.36,0,0,0,1069.23,69.75Z" transform="translate(0.05 0.88)"/>
      <path class="cls-42" d="M1057.06,62a8,8,0,1,0,8,8A8,8,0,0,0,1057.06,62Zm3.84,12.15a1.14,1.14,0,0,1-.33.07H1059a1,1,0,0,0-1,1v.6a1,1,0,1,1-1.91,0v-.6a1,1,0,0,0-1-1h-1.55a1,1,0,0,1-.79-.44,1,1,0,0,1-.1-.91l3.56-8.81a1,1,0,0,1,.88-.61h0a1,1,0,0,1,.88.62l3.46,8.82A1,1,0,0,1,1060.9,74.15Z" transform="translate(0.05 0.88)"/>
    </g>
    <g id="gate_02">
      <rect class="cls-42" x="550.05" y="66.88" width="8" height="34" rx="1.31"/>
      <rect class="cls-42" x="603.05" y="66.88" width="8" height="34" rx="1.31"/>
      <path class="cls-42" d="M592.23,62.75c-1.08-.2-2.17-.34-3.27-.46,0,.24,0,.47,0,.71a9,9,0,0,1-18,.09c-.81.14-1.61.29-2.37.44A79.52,79.52,0,0,0,559,66V81c22-7,43,0,43,0V66A33.36,33.36,0,0,0,592.23,62.75Z" transform="translate(0.05 0.88)"/>
      <path class="cls-42" d="M580.06,55a8,8,0,1,0,8,8A8,8,0,0,0,580.06,55Zm3.84,12.15a1.14,1.14,0,0,1-.33.07H582a1,1,0,0,0-1,1v.6a1,1,0,1,1-1.91,0v-.6a1,1,0,0,0-1-1h-1.55a1,1,0,0,1-.79-.44,1,1,0,0,1-.1-.91l3.56-8.81a1,1,0,0,1,.88-.61h0a1,1,0,0,1,.88.62l3.46,8.82A1,1,0,0,1,583.9,67.15Z" transform="translate(0.05 0.88)"/>
    </g>
    <g id="gate_01">
      <rect class="cls-42" x="95.05" y="933.88" width="8" height="34" rx="1.31"/>
      <rect class="cls-42" x="148.05" y="933.88" width="8" height="34" rx="1.31"/>
      <path class="cls-42" d="M137.23,929.75c-1.08-.2-2.17-.34-3.27-.46,0,.24,0,.47,0,.71a9,9,0,0,1-18,.09c-.81.14-1.61.29-2.37.44A79.52,79.52,0,0,0,104,933v15c22-7,43,0,43,0V933A33.36,33.36,0,0,0,137.23,929.75Z" transform="translate(0.05 0.88)"/>
      <path class="cls-42" d="M125.06,922a8,8,0,1,0,8,8A8,8,0,0,0,125.06,922Zm3.84,12.15a1.14,1.14,0,0,1-.33.07H127a1,1,0,0,0-1,1v.6a1,1,0,1,1-1.91,0v-.6a1,1,0,0,0-1-1h-1.55a1,1,0,0,1-.79-.44,1,1,0,0,1-.1-.91l3.56-8.81a1,1,0,0,1,.88-.61h0a1,1,0,0,1,.88.62l3.46,8.82A1,1,0,0,1,128.9,934.15Z" transform="translate(0.05 0.88)"/>
    </g>
  </g>
  <g id="navigation_paths">
    <g id="from_memory_garden">
      <path id="memory_garden_to_daylily" class="cls-43" d="M320.85,339.22l125.43-.73c25.83.14,63.57,5.37,112.8,19.24,46.57,13.13,98.83,38.95,122.28,52.71,63.51,37.25,140.8,19.4,188.41-45.85,81.37,30.9,142.58-24.15,163.38-55.19,27.86,14.77,52.6,18.18,52.6,18.18,98,6.14,260-36.25,364.22-43.63a10,10,0,0,0,9.27-10v-2" transform="translate(0.05 0.88)"/>
      <path id="memory_garden_to_bridge" class="cls-43" d="M320.85,339.22l125.43-.73c25.83.14,63.57,5.37,112.8,19.24,46.57,13.13,98.83,38.95,122.28,52.71,63.51,37.25,140.8,19.4,188.41-45.85,81.37,30.9,142.58-24.15,163.38-55.19,27.86,14.77,52.6,18.18,52.6,18.18,105.1,6.59,278.91-43.13,381.47-44.65,51.91-.77,103.66-4.87,143.57-.58,40.88,4.39,74.64,36.16,145.1,49.11a16.74,16.74,0,0,1,13.42,19.85l-45.25,271.56" transform="translate(0.05 0.88)"/>
      <path id="memory_garden_to_waterfall_garden" class="cls-43" d="M320.85,339.22l125.43-.73c25.83.14,63.57,5.37,112.8,19.24,46.57,13.13,98.83,38.95,122.28,52.71,63.51,37.25,140.8,19.4,188.41-45.85,81.37,30.9,142.58-24.15,163.38-55.19,27.86,14.77,52.6,18.18,52.6,18.18,105.1,6.59,278.91-43.13,381.47-44.65,51.91-.77,103.66-4.87,143.57-.58,40.88,4.39,74.64,36.16,145.1,49.11a16.74,16.74,0,0,1,13.42,19.85c-13.23,63.9-33.39,233.53-45.25,271.56-21.75,69.72-246.25-10-344.69-34.79-49.8-12.52-125.79-18.57-167.48-20.26-103.22-4.17-302.39,77.41-378.32,98.32-4.09,1.13-6.67,5.19-6.67,9.43V703.5" transform="translate(0.05 0.88)"/>
      <path id="memory_garden_to_peony" class="cls-43" d="M320.85,339.22l125.43-.73c25.83.14,63.57,5.37,112.8,19.24,46.57,13.13,98.83,38.95,122.28,52.71,63.51,37.25,140.8,19.4,188.41-45.85,81.37,30.9,142.58-24.15,163.38-55.19,27.86,14.77,52.6,18.18,52.6,18.18,105.1,6.59,278.91-43.13,381.47-44.65,51.91-.77,103.66-4.87,143.57-.58,40.88,4.39,74.64,36.16,145.1,49.11a16.75,16.75,0,0,1,13.43,19.84c-13.24,63.9-33.4,233.54-45.26,271.57-20.66,66.23-229.41-11.58-347.36-34a14.94,14.94,0,0,0-17.62,14.77V871" transform="translate(0.05 0.88)"/>
      <path id="memory_garden_to_bike_path" class="cls-43" d="M320.85,339.22l125.43-.73c25.83.14,63.57,5.37,112.8,19.24,46.57,13.13,98.83,38.95,122.28,52.71,63.51,37.25,140.8,19.4,188.41-45.85,81.37,30.9,142.58-24.15,163.38-55.19,27.86,14.77,52.6,18.18,52.6,18.18,105.1,6.59,278.91-43.13,381.47-44.65,51.91-.77,103.66-4.87,143.57-.58,40.88,4.39,74.64,36.16,145.1,49.11a16.74,16.74,0,0,1,13.42,19.85l-45.66,287.33" transform="translate(0.05 0.88)"/>
    </g>
    <g id="from_daylily">
      <path id="daylily_to_memory_garden" class="cls-43" d="M1459.24,272v2a10,10,0,0,1-9.27,10c-104.25,7.38-266.27,49.77-364.22,43.63,0,0-24.74-3.41-52.6-18.18-20.8,31-82,86.09-163.38,55.19-47.61,65.25-124.9,83.1-188.41,45.85-23.45-13.76-75.71-39.58-122.28-52.71-49.23-13.87-87-19.1-112.8-19.24l-125.43.73" transform="translate(0.05 0.88)"/>
      <path id="daylily_to_bridge" class="cls-43" d="M1459.24,272v3.16a8,8,0,0,0,8.16,8s103.66-4.87,143.57-.59c40.83,4.39,74.56,36.1,144.85,49.07,9.15,1.69,15.07,10.7,13.67,19.9l-45.25,271.56" transform="translate(0.05 0.88)"/>
      <path id="daylily_to_waterfall_garden" class="cls-43" d="M1459.24,272v3.16a8,8,0,0,0,8.16,8s103.66-4.87,143.57-.59c40.88,4.39,74.63,36.17,145.09,49.12a16.73,16.73,0,0,1,13.43,19.84c-13.23,63.91-33.39,233.54-45.25,271.57-21.75,69.71-232.29-8.29-342-34.44-50.42-12-109.37-19.56-176.31-20.58-91-1.39-301,75.46-372.15,98.29a9.84,9.84,0,0,0-6.67,9.43v27.92" transform="translate(0.05 0.88)"/>
      <path id="daylily_to_peony" class="cls-43" d="M1459.24,272v3.16a8,8,0,0,0,8.16,8s103.66-4.87,143.57-.59c40.83,4.39,74.56,36.1,144.85,49.07,9.15,1.69,15.07,10.7,13.67,19.9-9.07,59.65-33.55,237.44-45.25,271.56C1701,691,1488.83,610.85,1378.89,589.68c-10.26-2-20,4.83-20,15.28l.19,266.07" transform="translate(0.05 0.88)"/>
      <path id="daylily_to_bike_path" class="cls-43" d="M1459.24,272v3.16a8,8,0,0,0,8.16,8s103.66-4.87,143.57-.59c40.83,4.39,74.56,36.1,144.85,49.07,9.15,1.69,15.07,10.7,13.67,19.9l-45.84,287.11" transform="translate(0.05 0.88)"/>
    </g>
    <g id="from_bridge">
      <path id="bridge_to_memory_garden" class="cls-43" d="M1724.06,622.87l45.25-271.56a16.74,16.74,0,0,0-13.42-19.85c-70.46-12.95-104.22-44.72-145.1-49.11-39.91-4.29-91.66-.19-143.57.58-102.56,1.52-276.37,51.24-381.47,44.65,0,0-24.74-3.41-52.6-18.18-20.8,31-82,86.09-163.38,55.19-47.61,65.25-124.9,83.1-188.41,45.85-23.45-13.76-75.71-39.58-122.28-52.71-49.23-13.87-87-19.1-112.8-19.24l-125.43.73" transform="translate(0.05 0.88)"/>
      <path id="bridge_to_daylily" class="cls-43" d="M1724.24,623.09l45.25-271.56c1.4-9.2-4.52-18.21-13.67-19.9-70.29-13-104-44.68-144.85-49.07-39.91-4.28-143.57.59-143.57.59a8,8,0,0,1-8.16-8V272" transform="translate(0.05 0.88)"/>
      <path id="bridge_to_waterfall_garden" class="cls-43" d="M1750.36,471.62c-10,62.88-20.38,129.67-26.12,151.47-18.6,70.62-254.58-18.33-365.39-39.48-60.91-11.63-126.55-16-169.58-13.9-102.59,5-292.92,80-355.52,96.65-4.1,1.09-6.67,5.19-6.67,9.43v27.92" transform="translate(0.05 0.88)"/>
      <path id="bridge_to_peony" class="cls-43" d="M1751.93,477.05c-9.07,59.64-15.12,111.92-26.82,146-23.27,67.86-236.41-12.24-346.34-33.41-10.26-2-20,4.83-20,15.28l.32,266.07" transform="translate(0.05 0.88)"/>
      <path id="bridge_to_bike_path" class="cls-43" d="M1755,442.47c-10.06,62.89-35.11,195.94-35.11,195.94" transform="translate(0.05 0.88)"/>
    </g>
    <g id="from_waterfall_garden">
      <path id="waterfall_garden_to_memory_garden" class="cls-43" d="M826.9,703.5V675.57c0-4.24,2.58-8.3,6.67-9.43,75.93-20.91,275.1-102.49,378.32-98.32,41.69,1.69,117.68,7.74,167.48,20.26,98.44,24.75,322.94,104.51,344.69,34.79,11.86-38,32-207.66,45.25-271.56a16.74,16.74,0,0,0-13.42-19.85c-70.46-12.95-104.22-44.72-145.1-49.11-39.91-4.29-91.66-.19-143.57.58-102.56,1.52-276.37,51.24-381.47,44.65,0,0-24.74-3.41-52.6-18.18-20.8,31-82,86.09-163.38,55.19-47.61,65.25-124.9,83.1-188.41,45.85-23.45-13.76-75.71-39.58-122.28-52.71-49.23-13.87-87-19.1-112.8-19.24l-125.43.73" transform="translate(0.05 0.88)"/>
      <path id="waterfall_garden_to_daylily" class="cls-43" d="M827.08,703.71V675.79a9.84,9.84,0,0,1,6.67-9.43c71.13-22.83,281.17-99.68,372.15-98.29,66.94,1,125.89,8.57,176.31,20.58,109.74,26.15,320.28,104.15,342,34.44,11.86-38,32-207.66,45.25-271.57a16.73,16.73,0,0,0-13.43-19.84C1685.6,318.73,1651.85,287,1611,282.56c-39.91-4.28-143.57.59-143.57.59a8,8,0,0,1-8.16-8V272" transform="translate(0.05 0.88)"/>
      <path id="waterfall_garden_to_bridge" class="cls-43" d="M827.08,703.71V675.79c0-4.24,2.57-8.34,6.67-9.43,62.6-16.63,252.93-91.67,355.52-96.65,43-2.08,108.67,2.27,169.58,13.9,110.81,21.15,346.79,110.1,365.39,39.48,5.74-21.8,16.07-88.59,26.12-151.47" transform="translate(0.05 0.88)"/>
      <path id="waterfall_garden_to_peony" class="cls-43" d="M827.08,703.71V675.79c0-4.24,2.55-8.4,6.67-9.43,66.06-16.63,255.48-96.23,366.24-98.27,26.32-.48,103.92,1.52,150.65,12.9,4.78,1.16,8.44,5,8.44,9.88V871" transform="translate(0.05 0.88)"/>
      <path id="waterfall_garden_to_bike_path" class="cls-43" d="M827.08,703.71V675.79a9.64,9.64,0,0,1,6.67-9.43c72.57-20.49,264.65-97.58,372.37-98,36.2-.16,96.7,5.14,146.34,13.93,112.35,19.86,199,70.41,333.17,64.59" transform="translate(0.05 0.88)"/>
    </g>
    <g id="from_peony">
      <path id="peony_to_memory_garden" class="cls-43" d="M1359.08,871V603.63a14.94,14.94,0,0,1,17.62-14.77c118,22.43,326.7,100.24,347.36,34,11.86-38,32-207.67,45.26-271.57a16.75,16.75,0,0,0-13.43-19.84c-70.46-12.95-104.22-44.72-145.1-49.11-39.91-4.29-91.66-.19-143.57.58-102.56,1.52-276.37,51.24-381.47,44.65,0,0-24.74-3.41-52.6-18.18-20.8,31-82,86.09-163.38,55.19-47.61,65.25-124.9,83.1-188.41,45.85-23.45-13.76-75.71-39.58-122.28-52.71-49.23-13.87-87-19.1-112.8-19.24l-125.43.73" transform="translate(0.05 0.88)"/>
      <path id="peony_to_daylily" class="cls-43" d="M1359.08,871,1358.89,605c0-10.45,9.74-17.26,20-15.28C1488.83,610.85,1701,691,1724.24,623.09c11.7-34.12,36.18-211.91,45.25-271.56,1.4-9.2-4.52-18.21-13.67-19.9-70.29-13-104-44.68-144.85-49.07-39.91-4.28-143.57.59-143.57.59a8,8,0,0,1-8.16-8V272" transform="translate(0.05 0.88)"/>
      <path id="peony_to_bridge" class="cls-43" d="M1359.08,871,1358.76,605c0-10.45,9.75-17.26,20-15.28,109.93,21.17,323.07,101.27,346.34,33.41,11.7-34.12,17.75-86.4,26.82-146" transform="translate(0.05 0.88)"/>
      <path id="peony_to_waterfall_garden" class="cls-43" d="M1359.08,871V590.87c0-4.92-3.66-8.72-8.44-9.88-46.73-11.38-124.33-13.38-150.65-12.9-110.76,2-300.18,81.64-366.24,98.27-4.12,1-6.67,5.19-6.67,9.43v27.92" transform="translate(0.05 0.88)"/>
      <path id="peony_to_bike_path" class="cls-43" d="M1359.08,871,1358.76,605c0-10.45,9.75-17.26,20-15.28,109.93,21.17,188.16,62.77,306.86,57.16" transform="translate(0.05 0.88)"/>
    </g>
    <g id="from_bike_path">
      <path id="bike_path_to_memory_garden" class="cls-43" d="M1723.65,638.64l45.66-287.33a16.74,16.74,0,0,0-13.42-19.85c-70.46-12.95-104.22-44.72-145.1-49.11-39.91-4.29-91.66-.19-143.57.58-102.56,1.52-276.37,51.24-381.47,44.65,0,0-24.74-3.41-52.6-18.18-20.8,31-82,86.09-163.38,55.19-47.61,65.25-124.9,83.1-188.41,45.85-23.45-13.76-75.71-39.58-122.28-52.71-49.23-13.87-87-19.1-112.8-19.24l-125.43.73" transform="translate(0.05 0.88)"/>
      <path id="bike_path_to_daylily" class="cls-43" d="M1723.65,638.64l45.84-287.11c1.4-9.2-4.52-18.21-13.67-19.9-70.29-13-104-44.68-144.85-49.07-39.91-4.28-143.57.59-143.57.59a8,8,0,0,1-8.16-8V272" transform="translate(0.05 0.88)"/>
      <path id="bike_path_to_bridge" class="cls-43" d="M1719.92,638.41s25-133,35.11-195.94" transform="translate(0.05 0.88)"/>
      <path id="bike_path_to_waterfall_garden" class="cls-43" d="M1685.63,646.84c-134.19,5.82-220.82-44.73-333.17-64.59-49.64-8.79-110.14-14.09-146.34-13.93-107.72.46-299.8,77.55-372.37,98a9.64,9.64,0,0,0-6.67,9.43v27.92" transform="translate(0.05 0.88)"/>
      <path id="bike_path_to_peony" class="cls-43" d="M1685.63,646.84c-118.7,5.61-196.93-36-306.86-57.16-10.26-2-20,4.83-20,15.28l.32,266.07" transform="translate(0.05 0.88)"/>
    </g>
  </g>
  <g id="gazebo">
    <circle class="cls-6" cx="1358.9" cy="687.65" r="33.41"/>
    <g id="gazebo_icon">
      <polygon class="cls-27" points="1345.77 702.47 1345.77 700.08 1344.31 700.08 1344.31 681.99 1345.07 681.99 1345.07 679.75 1340.46 679.75 1340.46 681.99 1341.28 681.99 1341.28 700.08 1341.16 700.08 1339.7 700.08 1339.7 702.47 1341.16 702.47 1341.28 702.47 1341.28 706.34 1341.16 706.34 1339.7 706.34 1339.7 707.89 1341.16 707.89 1344.31 707.89 1345.77 707.89 1345.77 706.34 1344.31 706.34 1344.31 702.47 1345.77 702.47"/>
      <polygon class="cls-27" points="1354.18 702.47 1354.18 700.08 1352.72 700.08 1352.72 681.99 1353.48 681.99 1353.48 679.75 1348.87 679.75 1348.87 681.99 1349.69 681.99 1349.69 700.08 1349.56 700.08 1348.11 700.08 1348.11 702.47 1349.56 702.47 1349.69 702.47 1349.69 706.34 1349.56 706.34 1348.11 706.34 1348.11 707.89 1349.56 707.89 1352.72 707.89 1354.18 707.89 1354.18 706.34 1352.72 706.34 1352.72 702.47 1354.18 702.47"/>
      <polygon class="cls-27" points="1370.08 702.47 1370.08 700.08 1368.63 700.08 1368.63 681.99 1369.38 681.99 1369.38 679.75 1364.77 679.75 1364.77 681.99 1365.6 681.99 1365.6 700.08 1365.47 700.08 1364.02 700.08 1364.02 702.47 1365.47 702.47 1365.6 702.47 1365.6 706.34 1365.47 706.34 1364.02 706.34 1364.02 707.89 1365.47 707.89 1368.63 707.89 1370.08 707.89 1370.08 706.34 1368.63 706.34 1368.63 702.47 1370.08 702.47"/>
      <polygon class="cls-27" points="1378.49 702.47 1378.49 700.08 1377.04 700.08 1377.04 681.99 1377.79 681.99 1377.79 679.75 1373.18 679.75 1373.18 681.99 1374.01 681.99 1374.01 700.08 1373.88 700.08 1372.42 700.08 1372.42 702.47 1373.88 702.47 1374.01 702.47 1374.01 706.34 1373.88 706.34 1372.42 706.34 1372.42 707.89 1373.88 707.89 1377.04 707.89 1378.49 707.89 1378.49 706.34 1377.04 706.34 1377.04 702.47 1378.49 702.47"/>
      <path class="cls-44" d="M1359.21,662.08a16.75,16.75,0,0,0-16.75,16.75H1345l14.19,0,14.19,0H1376A16.75,16.75,0,0,0,1359.21,662.08Z" transform="translate(0.05 0.88)"/>
      <path class="cls-44" d="M1359.21,662.08c-6.53,0-13.49,9.9-13.49,16.78h27C1372.7,672,1365.74,662.08,1359.21,662.08Z" transform="translate(0.05 0.88)"/>
      <path class="cls-44" d="M1359.21,662.08c-5.06,0-8,9.9-8,16.77h16.06C1367.24,672,1364.27,662.08,1359.21,662.08Z" transform="translate(0.05 0.88)"/>
      <polygon class="cls-27" points="1359.71 660.7 1359.25 657.17 1359.25 657.17 1358.8 660.7 1358.34 660.7 1358.34 679.75 1360.17 679.75 1360.17 660.7 1359.71 660.7"/>
      <rect class="cls-27" x="1343.62" y="672.77" width="31.26" height="1.83"/>
      <rect class="cls-27" x="1347.14" y="667.54" width="24.23" height="1.83"/>
    </g>
  </g>
  <g id="streets">
    <g id="street">
      <path class="cls-6" d="M1875,45v990H45V45H1875m45-45H0V1080H1920V0Z" transform="translate(0.05 0.88)"/>
    </g>
    <g id="street_names_text">
      <text id="arena_st" class="cls-45" transform="translate(915.07 1061.94)">Arena St</text>
      <text id="kaiser_cr" class="cls-45" transform="translate(912.12 32.16)">Kaiser Cr</text>
      <g id="adelaide_awe_w">
        <text class="cls-45" transform="translate(33.24 623.88) rotate(-90)">Adelaide Ave W</text>
      </g>
      <g id="bond_st_w">
        <text class="cls-45" transform="translate(1903.79 593.99) rotate(-90)">Bond St W</text>
      </g>
    </g>
  </g>
  <g id="icons">
    <g id="bike_path_icon">
      <g id="pin">
        <path class="cls-46" d="M1518.58,513.62a40.77,40.77,0,1,0-42.06,40.74V610.6l1.29,2.23,1.28-2.23V554.36A40.77,40.77,0,0,0,1518.58,513.62Z" transform="translate(0.05 0.88)"/>
        <circle class="cls-6" cx="1477.85" cy="514.51" r="38.76"/>
      </g>
      <g id="Bike">
        <path class="cls-47" d="M1465.87,519.27a8.64,8.64,0,1,0,8.64,8.63A8.63,8.63,0,0,0,1465.87,519.27Zm0,16.41a7.78,7.78,0,1,1,7.79-7.78A7.78,7.78,0,0,1,1465.87,535.68Z" transform="translate(0.05 0.88)"/>
        <circle class="cls-27" cx="1465.89" cy="529.18" r="1.04"/>
        <path class="cls-47" d="M1492.27,517.25a8.64,8.64,0,1,0,8.64,8.64A8.63,8.63,0,0,0,1492.27,517.25Zm0,16.42a7.78,7.78,0,1,1,7.78-7.78A7.78,7.78,0,0,1,1492.27,533.67Z" transform="translate(0.05 0.88)"/>
        <circle class="cls-27" cx="1492.32" cy="526.77" r="1.04"/>
        <polygon class="cls-47" points="1466.08 529.18 1478.8 528.24 1484.99 514.02 1471.84 515.02 1466.08 529.18"/>
        <line class="cls-47" x1="1478.8" y1="528.24" x2="1470.84" y2="513.01"/>
        <line class="cls-47" x1="1484.38" y1="511.36" x2="1492.35" y2="527.2"/>
        <path class="cls-48" d="M1484.37,510.6l6.1-.46a2.24,2.24,0,0,1,.73,0,1.72,1.72,0,0,1,1,.86,1,1,0,0,1,.24.55.9.9,0,0,1-.61.73,3.4,3.4,0,0,1-1.09.21" transform="translate(0.05 0.88)"/>
        <path class="cls-48" d="M1488.37,510.29l2-.15a2.24,2.24,0,0,1,.73,0,1.72,1.72,0,0,1,1,.86,1.06,1.06,0,0,1,.24.55.9.9,0,0,1-.61.73,3.41,3.41,0,0,1-1.1.21" transform="translate(0.05 0.88)"/>
        <circle cx="1478.8" cy="528.24" r="1.07"/>
        <circle class="cls-27" cx="1479.01" cy="492.78" r="4.64"/>
        <path class="cls-27" d="M1487.54,508.13l-5.39-2.15-3.7-7.28h0a1.37,1.37,0,0,0-.59-.58,2.76,2.76,0,0,0-.93-.79l-2.28-1.23a3,3,0,0,0-4,1.19L1465,507.67a.36.36,0,0,1,0,.09l-.09.14-.25.45a2.16,2.16,0,0,0,.88,2.94l.62.34.08.05,2.28,1.23.08,0,5.79,3.13a2.33,2.33,0,0,0,.33.14l2.46,11.74a1.23,1.23,0,0,0,1.45.95l1.16-.25a1.23,1.23,0,0,0,1-1.44l-2.91-13.86a2.09,2.09,0,0,0-.08-.23,2.12,2.12,0,0,0-1-1.31l-3.27-1.77,3.95-7.3,2.38,4.68h0a1.4,1.4,0,0,0,.54.54,1.24,1.24,0,0,0,.71.76l5.49,2.2h0a1.23,1.23,0,0,0,1.58-.71l.18-.48A1.28,1.28,0,0,0,1487.54,508.13Z" transform="translate(0.05 0.88)"/>
      </g>
      <line id="line1" class="cls-49" x1="1456.03" y1="540.44" x2="1501.6" y2="537.39"/>
      <line id="line2" class="cls-49" x1="1461.92" y1="543.04" x2="1495.71" y2="540.78"/>
      <line id="line3" class="cls-49" x1="1465.46" y1="545.63" x2="1492.96" y2="543.8"/>
    </g>
    <g id="compass">
      <g id="Compass-2" data-name="Compass">
        <path class="cls-27" d="M272.19,955.44l6-11.34-11.34,6,1,4.32Z" transform="translate(0.05 0.88)"/>
        <path class="cls-27" d="M245.92,955.44l4.31-1,1-4.32-11.33-6Z" transform="translate(0.05 0.88)"/>
        <path class="cls-27" d="M245.92,971l-6,11.33,11.33-6-1-4.32Z" transform="translate(0.05 0.88)"/>
        <path class="cls-27" d="M272.19,971l-4.31,1-1,4.32,11.34,6Z" transform="translate(0.05 0.88)"/>
        <path class="cls-27" d="M260.93,963.23l6.26,6.26,26.3-6.26L267.19,957Z" transform="translate(0.05 0.88)"/>
        <path class="cls-27" d="M265.32,955.1l-6.26-26.3-6.27,26.3,6.27,6.26Z" transform="translate(0.05 0.88)"/>
        <path class="cls-50" d="M257.18,963.23,250.92,957l-26.3,6.26,26.3,6.26Z" transform="translate(0.05 0.88)"/>
        <path class="cls-27" d="M252.79,971.37l6.27,26.3,6.26-26.3-6.26-6.27Z" transform="translate(0.05 0.88)"/>
      </g>
      <g id="north">
        <path class="cls-27" d="M215.39,958.19l4.87,6.11v-4.24a2,2,0,0,0-.26-1.2,1.4,1.4,0,0,0-1.17-.4v-.27h3.26v.27a2.52,2.52,0,0,0-.84.2.89.89,0,0,0-.33.42,2.81,2.81,0,0,0-.12,1v8.22h-.25l-6.67-8.22v6.27a1.38,1.38,0,0,0,.39,1.15,1.41,1.41,0,0,0,.89.3h.23v.27h-3.5v-.27a1.57,1.57,0,0,0,1.14-.33,1.59,1.59,0,0,0,.32-1.12v-7l-.21-.26a2.12,2.12,0,0,0-.56-.52,1.72,1.72,0,0,0-.69-.13v-.27Z" transform="translate(0.05 0.88)"/>
      </g>
      <g id="south">
        <path class="cls-27" d="M303.38,958.07l.08,3.29h-.3a3.34,3.34,0,0,0-1-2,2.62,2.62,0,0,0-1.79-.75,1.67,1.67,0,0,0-1.17.39,1.22,1.22,0,0,0-.44.92,1.06,1.06,0,0,0,.16.58,2.36,2.36,0,0,0,.67.67,16.06,16.06,0,0,0,1.58.86,7,7,0,0,1,2.33,1.6,2.72,2.72,0,0,1,.6,1.73,2.79,2.79,0,0,1-1,2.13,3.45,3.45,0,0,1-2.45.89,4.17,4.17,0,0,1-.88-.09,5.9,5.9,0,0,1-1-.36,1.47,1.47,0,0,0-.58-.14.72.72,0,0,0-.4.14,1.07,1.07,0,0,0-.34.45h-.27v-3.73h.27a4.31,4.31,0,0,0,1.24,2.4,2.85,2.85,0,0,0,2,.82,1.81,1.81,0,0,0,1.3-.44,1.32,1.32,0,0,0,.3-1.71,2,2,0,0,0-.56-.62,9,9,0,0,0-1.34-.77,11.75,11.75,0,0,1-1.94-1.13,3.38,3.38,0,0,1-.9-1,2.56,2.56,0,0,1-.32-1.26,2.67,2.67,0,0,1,.87-2,3,3,0,0,1,2.18-.83,3.59,3.59,0,0,1,.93.12,4.3,4.3,0,0,1,.83.32,2,2,0,0,0,.69.24.38.38,0,0,0,.3-.12,1.34,1.34,0,0,0,.2-.56Z" transform="translate(0.05 0.88)"/>
      </g>
      <g id="west">
        <path class="cls-27" d="M266.37,1001.47v.27a.84.84,0,0,0-.46.15,1.14,1.14,0,0,0-.34.4c0,.06-.18.43-.45,1.13l-3.1,8.14h-.28l-2.44-6.36-2.7,6.36h-.26l-3.25-8.06a8.51,8.51,0,0,0-.69-1.46.9.9,0,0,0-.66-.3v-.27H256v.27a1.25,1.25,0,0,0-.69.15.44.44,0,0,0-.17.36,4.58,4.58,0,0,0,.35,1.17l1.94,4.78,1.55-3.74-.41-1a6.77,6.77,0,0,0-.52-1.15,1.14,1.14,0,0,0-.41-.41,1.6,1.6,0,0,0-.7-.12v-.27h4.78v.27a2.45,2.45,0,0,0-.72.08.46.46,0,0,0-.24.17.44.44,0,0,0-.09.27,5.16,5.16,0,0,0,.33,1l1.8,4.67,1.6-4.23c.17-.44.28-.73.32-.89a1.86,1.86,0,0,0,.06-.45.58.58,0,0,0-.21-.47,1.34,1.34,0,0,0-.78-.18v-.27Z" transform="translate(0.05 0.88)"/>
      </g>
      <g id="east">
        <path class="cls-27" d="M258.33,916.42v4h.2a1.57,1.57,0,0,0,1.36-.59,3.65,3.65,0,0,0,.54-1.74h.27v5.16h-.27a3.84,3.84,0,0,0-.37-1.38,1.55,1.55,0,0,0-.65-.72,2.55,2.55,0,0,0-1.08-.19v2.78a4.39,4.39,0,0,0,.07,1,.62.62,0,0,0,.26.3,1.32,1.32,0,0,0,.61.11h.59a3.18,3.18,0,0,0,3.41-2.59h.27l-.44,3.14h-8.53v-.27h.33a1.36,1.36,0,0,0,.69-.15.68.68,0,0,0,.29-.35A3.14,3.14,0,0,0,256,924v-6.49a4.38,4.38,0,0,0,0-.82.64.64,0,0,0-.26-.39,1.25,1.25,0,0,0-.76-.21h-.33v-.26h8.26v2.91h-.28a3.6,3.6,0,0,0-.59-1.53,2.3,2.3,0,0,0-1.08-.69,6.21,6.21,0,0,0-1.53-.13Z" transform="translate(0.05 0.88)"/>
      </g>
    </g>
    <g id="arena_icon">
      <circle class="cls-51" cx="817.85" cy="972.46" r="21.4"/>
      <g id="player">
        <g>
          <path class="cls-6" d="M817.42,980.25l-.23.45a1.16,1.16,0,0,0,1.13,1.67,1.18,1.18,0,0,0,1-.65l.34-.68-2.16-.77Z" transform="translate(0.05 0.88)"/>
          <path class="cls-6" d="M809.28,979.45l-.57.4a1.17,1.17,0,1,0,1.34,1.91l.65-.45-1.41-1.84Z" transform="translate(0.05 0.88)"/>
          <path class="cls-6" d="M811.47,965.78h0l2.09-1-.13-.25a1.2,1.2,0,0,0-1.54-.6,1.17,1.17,0,0,0-.62.67,1.13,1.13,0,0,0,.06.92Z" transform="translate(0.05 0.88)"/>
          <path class="cls-6" d="M817.86,961.77c-2.29.2-2.07,2.3-1.8,3.39a.78.78,0,0,0,.82.59l1.12-.1a.58.58,0,0,0,.53-.63.58.58,0,0,1,.53-.63l1.63-.14c.26,0,.29-.28.32-.54C821.08,963.05,820.56,961.53,817.86,961.77Z" transform="translate(0.05 0.88)"/>
          <path class="cls-6" d="M819.3,965.15a1.34,1.34,0,0,1-1.23,1.27l-1.23.11a2.33,2.33,0,0,0,4.45-1.16,2.46,2.46,0,0,0-.1-.47,1.07,1.07,0,0,1-.44.12Z" transform="translate(0.05 0.88)"/>
          <path class="cls-6" d="M825.56,966.2l-.3-2.31a1.17,1.17,0,0,1,.38-1l2.16-1.9.13-.12a1,1,0,0,0,.3-.76,1,1,0,0,0-.4-.72,1.36,1.36,0,0,0-1.87.11l-2.12,1.88a1.13,1.13,0,0,0-.37,1.08l.67,3.65h0a1.33,1.33,0,0,0-.3.23l-.18.2,1.78,1.49h0l-.53.57-1.77-1.49-1.39,1.53a.75.75,0,0,1-.89.18,8.44,8.44,0,0,0-1-.41l-3.22-1.14a3,3,0,0,0-1.46-.15l-.17,0a.39.39,0,0,1-.4-.2l-.74-1.46-2.09,1,1,1.95a1.94,1.94,0,0,0,2,1l.56-.09-1.73,6.6a1.29,1.29,0,0,1-.54.77L809.92,979l1.4,1.84h0l3.69-2.58a1.88,1.88,0,0,0,.55-.64l.26-.54a.79.79,0,0,1,1-.36l1.15.57a.84.84,0,0,1,.4.45.78.78,0,0,1,0,.6l-.61,1.19,2.21.79.86-1.64a2.32,2.32,0,0,0-1.06-3.11l-1.82-.9a.79.79,0,0,1-.4-.46.8.8,0,0,1,.06-.61l1.65-3,1,.52a2.34,2.34,0,0,0,2.79-.49l1.6-1.75,1.54,8.27a.37.37,0,0,0,.43.31A.39.39,0,0,0,827,977l-1.21-9.37a1.16,1.16,0,0,0-.25-1.52" transform="translate(0.05 0.88)"/>
        </g>
      </g>
      <line id="line1-2" data-name="line1" class="cls-52" x1="806.71" y1="984.83" x2="829.09" y2="984.82"/>
      <line id="line2-2" data-name="line2" class="cls-52" x1="809.49" y1="986.25" x2="826.11" y2="986.29"/>
    </g>
    <g id="daylily_icon">
      <g id="pin-2" data-name="pin">
        <path class="cls-53" d="M1357.05,203.19A40.8,40.8,0,1,0,1315,244v56.29l1.28,2.23,1.28-2.23V244A40.79,40.79,0,0,0,1357.05,203.19Z" transform="translate(0.05 0.88)"/>
        <circle class="cls-6" cx="1316.3" cy="204.08" r="38.79"/>
      </g>
      <path id="daylily_outside" class="cls-27" d="M1339.67,187.33c-1.25-1.62-8.38.34-16.07,4.81a.68.68,0,0,1-.92-.25.67.67,0,0,1-.09-.34c.31-8.75-.22-15.18-2.23-15.48s-5,5.59-7,14a.67.67,0,0,1-.8.51.66.66,0,0,1-.34-.2c-6.1-6.43-11.18-10.15-12.78-8.95s.67,7,5.37,14.43a.68.68,0,0,1-.2.93.67.67,0,0,1-.39.1c-9-.39-15.93.59-16.18,2.57s6.2,4.39,14.92,6.49a.66.66,0,0,1,.48.82.6.6,0,0,1-.2.32c-6.56,5.87-11.48,10.91-10.23,12.5s8.39-.67,16-5.17a.67.67,0,0,1,.92.24.68.68,0,0,1,.09.37c-.36,8.72-.45,15.15,1.56,15.46s5.59-5.59,7.72-14.17a.67.67,0,0,1,.8-.51.66.66,0,0,1,.34.2c6,6.51,10.37,10.79,12,9.59s0-7.49-4.53-15a.67.67,0,0,1,.24-.92.6.6,0,0,1,.37-.09c8.89.42,15.74-.14,16-2.1s-6.15-4.83-14.84-7a.64.64,0,0,1-.28-1.15C1335.93,193.62,1340.9,188.92,1339.67,187.33Z" transform="translate(0.05 0.88)"/>
      <path id="daylily_inside" class="cls-6" d="M1327.15,196.69c-9,4.87-7.77,2.07-3.69-7.6-4.25,9.53-7.07,11.52-6.37,1.87-1,9.62-3.8,7.24-11.71.28,7.66,7.08,9,10.32,1.31,4.73,7.85,5.59,7.77,5.59-.42.61,8.11,5.06,4.33,5.2-5.9,6.18,10.18-.7,13.28.25,4.34,3.13,9.56-2.49,9.56-2.43.44,1.51,8.89-3.75,6.57-1.7,0,6.32,6.77-7.8,10.18-8.67,7.47.84,3.1-9.68,3.13-9.65,1.78.5,1.54-9.81,3.16-7,3.42,3.24,0-10.28.33-11.77,6.48-5.45-5.37-7.69-3.35-6.62,3.58.59-6.71-7.47-9-9.9.86-7.07-10.11-3.11-10.25-3.11-.5-.79-9.75-2.32-9.5-2.4.84-1-10.06-1.56-7-2.48,3.05-1.87C1321.84,201.78,1320.16,201.56,1327.15,196.69Z" transform="translate(0.05 0.88)"/>
    </g>
    <g id="water_feature_icon">
      <g id="pin-3" data-name="pin">
        <path class="cls-53" d="M804.68,665.61a40.8,40.8,0,1,0-42.08,40.77v56.29l1.28,2.23,1.28-2.23V706.38A40.79,40.79,0,0,0,804.68,665.61Z" transform="translate(0.05 0.88)"/>
        <circle class="cls-6" cx="763.93" cy="666.5" r="38.79"/>
      </g>
      <g id="water_drop">
        <g id="park_map" data-name="park map">
          <g id="water_feature_icon-2" data-name="water feature icon">
            <path id="droplet" class="cls-27" d="M764.5,634.49,748.29,666.9c-6.06,12.13,2.36,27,15.88,27.12h.63c13.52-.15,22-15,15.89-27.12Z" transform="translate(0.05 0.88)"/>
          </g>
        </g>
      </g>
      <g id="fountain">
        <ellipse class="cls-6" cx="764.53" cy="678.99" rx="13" ry="3.44"/>
        <ellipse class="cls-6" cx="764.53" cy="684.23" rx="7.9" ry="1.72"/>
        <ellipse class="cls-6" cx="764.53" cy="687.69" rx="5" ry="1.72"/>
        <g>
          <path class="cls-6" d="M764.49,676.17c-.31-3.2-1.5-9.54-5.89-12.62a1.87,1.87,0,0,1-1-2.28c.63-2.26,4.49-5.14,6.88-5.14,2.16,0,5.88,2.34,6.72,4.74a2.22,2.22,0,0,1-.77,2.68C766.07,666.63,764.84,673,764.49,676.17Z" transform="translate(0.05 0.88)"/>
          <path class="cls-27" d="M764.53,656.25c2.12,0,5.78,2.31,6.6,4.66a2.1,2.1,0,0,1-.71,2.53c-3.18,2.22-4.69,6.09-5.4,8.94a26.18,26.18,0,0,0-.52,2.69c-.11-.8-.27-1.72-.5-2.68-.69-2.86-2.17-6.73-5.35-9a1.74,1.74,0,0,1-.88-2.12c.62-2.22,4.41-5.06,6.76-5.06m0-.25c-3.31,0-9.64,5.47-6,7.65,6,4.2,6,14.44,6,14.46s0-10.26,6.07-14.46c3.35-2.68-2.72-7.65-6-7.65Zm0,22.11Z" transform="translate(0.05 0.88)"/>
        </g>
      </g>
    </g>
    <g id="bridge_icon">
      <g id="pin-4" data-name="pin">
        <path class="cls-53" d="M1789.59,385.44a40.8,40.8,0,1,0-42.08,40.77V482.5l1.28,2.23,1.28-2.23V426.21A40.79,40.79,0,0,0,1789.59,385.44Z" transform="translate(0.05 0.88)"/>
        <circle class="cls-6" cx="1748.84" cy="386.33" r="38.79"/>
      </g>
      <g id="bridge-2" data-name="bridge">
        <path class="cls-27" d="M1748.79,375.85c-10.22,0-19.93,3.11-26.28,7.27v14.95a1,1,0,0,0,1,1h9a1,1,0,0,0,1-1v-.7a15.17,15.17,0,1,1,30.34-.14v.84a1,1,0,0,0,1,1h9a1,1,0,0,0,1-1V383.12C1768.65,378.9,1758.93,375.85,1748.79,375.85Z" transform="translate(0.05 0.88)"/>
        <path class="cls-27" d="M1773.52,371.28a1.55,1.55,0,0,0-1.54,1.55V373a44.75,44.75,0,0,0-8.09-3.5v-1.7a1.55,1.55,0,0,0-3.1,0v.82a49.32,49.32,0,0,0-10.45-1.45V366a1.55,1.55,0,0,0-3.1,0v1.22a49.32,49.32,0,0,0-10.45,1.45v-.82a1.55,1.55,0,0,0-3.1,0v1.7a44.75,44.75,0,0,0-8.09,3.5v-.17a1.55,1.55,0,1,0-3.09,0v8.69c1-.58,2.08-1.13,3.09-1.61v-3.29a37.92,37.92,0,0,1,8.09-3.86v4.12c1.06-.3,2.06-.55,3.1-.78v-4.29a45.89,45.89,0,0,1,10.45-1.55v4.55c1,0,2.08,0,3.1,0v-4.55a46.14,46.14,0,0,1,10.45,1.55v4.29c1,.23,2,.48,3.1.78v-4.12a38.5,38.5,0,0,1,8.09,3.86v3.29c1.09.52,2.12,1.06,3.09,1.61v-8.69A1.55,1.55,0,0,0,1773.52,371.28Z" transform="translate(0.05 0.88)"/>
      </g>
      <path id="wave_1" class="cls-54" d="M1769.21,404c-.11,5.33-13.59,5.33-13.59,0,0,5.33-13.62,5.33-13.62,0,0,5.33-13.44,5.38-13.44,0" transform="translate(0.05 0.88)"/>
      <path id="wave_2" class="cls-54" d="M1764.79,410.44c-.09,4.19-10.7,4.19-10.7,0,0,4.19-10.72,4.19-10.72,0,0,4.19-10.58,4.23-10.58,0" transform="translate(0.05 0.88)"/>
    </g>
    <g id="peony_icon">
      <g id="pin-5" data-name="pin">
        <path class="cls-53" d="M1548.23,751a40.81,40.81,0,1,0-42.09,40.77V848l1.28,2.23,1.29-2.23V791.73A40.8,40.8,0,0,0,1548.23,751Z" transform="translate(0.05 0.88)"/>
        <circle class="cls-6" cx="1507.51" cy="751.79" r="38.79"/>
      </g>
      <g id="peony">
        <path class="cls-27" d="M1524.35,732.92l-.21,4.64a6.4,6.4,0,0,0,4.23,6.3l4.36,1.59a6.38,6.38,0,0,1,.78,11.69l-4.12,2.16a6.43,6.43,0,0,0-3.31,6.7l.81,4.58a6.42,6.42,0,0,1-9.76,6.52l-3.93-2.48a6.36,6.36,0,0,0-7.54.52l-3.58,3a6.39,6.39,0,0,1-10.51-5.18l.19-4.66a6.39,6.39,0,0,0-4.23-6.27l-4.36-1.4a6.41,6.41,0,0,1-.78-11.72l4.12-2.16a6.41,6.41,0,0,0,3.28-6.87l-.83-4.58a6.41,6.41,0,0,1,9.75-6.54l3.93,2.5a6.41,6.41,0,0,0,7.54-.51l3.64-3a6.41,6.41,0,0,1,10.53,5.17Z" transform="translate(0.05 0.88)"/>
        <path class="cls-6" d="M1524.08,748.12h0a5.86,5.86,0,0,0,.73,6.87h0a5.84,5.84,0,0,1-4.52,9.69h0a5.9,5.9,0,0,0-5.82,4h0a5.85,5.85,0,0,1-10.78.94h0a5.85,5.85,0,0,0-6.25-2.94h0a5.84,5.84,0,0,1-6.78-4.72,5.78,5.78,0,0,1,.75-4.06h0a5.84,5.84,0,0,0-.59-6.87h0a5.87,5.87,0,0,1,4.52-9.72h0a5.89,5.89,0,0,0,5.69-4h0a5.84,5.84,0,0,1,10.77-.92h0a5.84,5.84,0,0,0,6.25,2.94h0a5.84,5.84,0,0,1,6,8.73Z" transform="translate(0.05 0.88)"/>
        <path class="cls-55" d="M1519.88,749.84h0a4.31,4.31,0,0,0,.43,5.07h0a4.28,4.28,0,0,1-.38,6A4.33,4.33,0,0,1,1517,762h0a4.37,4.37,0,0,0-4.18,2.91h0a4.3,4.3,0,0,1-5.47,2.67,4.26,4.26,0,0,1-2.36-2h0a4.27,4.27,0,0,0-4.58-2.16h0a4.31,4.31,0,0,1-4.53-6.44h0a4.28,4.28,0,0,0-.43-5.06h0a4.31,4.31,0,0,1,3.34-7.14h0a4.25,4.25,0,0,0,4.15-2.91h0a4.31,4.31,0,0,1,7.84-.67h0a4.3,4.3,0,0,0,4.6,2.15h0a4.28,4.28,0,0,1,4.5,6.44Z" transform="translate(0.05 0.88)"/>
        <circle class="cls-55" cx="1508.1" cy="754.36" r="4.98"/>
      </g>
    </g>
    <g id="parking_icon">
      <circle class="cls-51" cx="1282.75" cy="973.6" r="21.4"/>
      <g id="P">
        <path class="cls-6" d="M1281.19,986.07h-6.83V959.79h10.88c3,0,5.21.76,6.78,2.3a10.12,10.12,0,0,1,0,13q-2.36,2.3-6.78,2.3h-4Zm0-14.22h2.27q3.76,0,3.76-3.28c0-2.18-1.25-3.28-3.76-3.28h-2.27Z" transform="translate(0.05 0.88)"/>
      </g>
    </g>
  </g>
  <g id="names">
    <text id="childrens_arena_text" class="cls-56" transform="translate(859.77 967.36)">Childrens<tspan x="0" y="28.8">Arena</tspan></text>
    <text id="accessible_parking_text" class="cls-56" transform="translate(1327.95 970.11)">Accessible<tspan x="0" y="28.8">Parking</tspan></text>
  </g>
  <g id="names_location">
    <g id="memory_garden_text">
      <rect class="cls-57" x="445.36" y="407.61" width="195" height="35" rx="4.29"/>
      <text id="memory_garden_text-2" data-name="memory_garden_text" class="cls-58" transform="translate(456.16 430.97)">Memory Garden</text>
    </g>
    <g id="oshawa_creek_text">
      <rect class="cls-59" x="859.44" y="488.76" width="175" height="35" rx="4.06"/>
      <text id="oshawa_creek_text-2" data-name="oshawa_creek_text" class="cls-60" transform="translate(868.65 513.12)">Oshawa Creek</text>
    </g>
    <g id="peony_garden-2" data-name="peony_garden">
      <rect class="cls-59" x="1380.41" y="869.13" width="175" height="35" rx="4.06"/>
      <text id="peony_garden_text" class="cls-60" transform="translate(1391.92 893.49)">Peony Garden</text>
    </g>
    <g id="main_entrance_text">
      <rect class="cls-59" x="1162.83" y="869.13" width="175" height="35" rx="4.06"/>
      <text id="main_entrance_text-2" data-name="main_entrance_text" class="cls-58" transform="translate(1173.34 893.49)">Main Entrance</text>
    </g>
    <g id="rotary_bridge_text">
      <rect class="cls-61" x="1532.71" y="364.91" width="165" height="35" rx="3.95"/>
      <text id="rotary_bridge_text-2" data-name="rotary_bridge_text" class="cls-58" transform="translate(1542.88 388.27)">Rotary Bridge</text>
    </g>
    <g id="daylily_text">
      <rect class="cls-62" x="1372.32" y="308.22" width="205" height="35" rx="4.4"/>
      <text id="daylily_collection_text" class="cls-58" transform="translate(1382.26 332.58)">Daylily Collection</text>
    </g>
    <g id="waterfall_garden_text">
      <rect class="cls-63" x="513.41" y="643.56" width="200" height="35" rx="4.35"/>
      <text id="waterfall_garden_text-2" data-name="waterfall_garden_text" class="cls-60" transform="translate(521.06 667.92)">Waterfall Garden</text>
    </g>
    <g id="bike_path_text">
      <rect class="cls-59" x="1225.5" y="487.78" width="197.84" height="54.28" rx="5.38"/>
      <text id="joseph_kolodzie_bike_path_text" class="cls-60" transform="translate(1238.76 510.35)">Joseph Kolodzie<tspan x="37.04" y="25.2">Bike Path</tspan></text>
    </g>
  </g>
</svg>
