<svg id="ovbg_map" data-name="ovbg map" xmlns="http://www.w3.org/2000/svg" viewBox="0 0 1920.05 1080.88">
  <defs>
    <style>
      .cls-1 {
        fill: #699366;
      }

      .cls-2 {
        fill: #537c4e;
      }

      .cls-3 {
        fill: #65997d;
      }

      .cls-32, .cls-4 {
        fill: #477043;
      }

      .cls-10, .cls-11, .cls-12, .cls-13, .cls-15, .cls-17, .cls-23, .cls-29, .cls-31, .cls-35, .cls-37, .cls-38, .cls-39, .cls-40, .cls-41, .cls-44, .cls-45, .cls-46, .cls-5, .cls-8, .cls-9 {
        fill: none;
      }

      .cls-5 {
        stroke: #9dd8d8;
        stroke-width: 75px;
      }

      .cls-10, .cls-11, .cls-15, .cls-23, .cls-31, .cls-35, .cls-36, .cls-37, .cls-38, .cls-39, .cls-40, .cls-43, .cls-44, .cls-5, .cls-8, .cls-9 {
        stroke-miterlimit: 10;
      }

      .cls-16, .cls-49, .cls-6 {
        fill: #f7f2db;
      }

      .cls-7 {
        fill: #707070;
      }

      .cls-10, .cls-11, .cls-12, .cls-13, .cls-26, .cls-27, .cls-28, .cls-35, .cls-43, .cls-44, .cls-45, .cls-46, .cls-48, .cls-50, .cls-51, .cls-52, .cls-8, .cls-9 {
        stroke: #f7f2db;
      }

      .cls-12, .cls-8 {
        stroke-width: 20px;
      }

      .cls-9 {
        stroke-width: 18.75px;
      }

      .cls-10, .cls-13 {
        stroke-width: 30px;
      }

      .cls-11 {
        stroke-width: 15px;
      }

      .cls-14 {
        fill: #9dd8d8;
      }

      .cls-15 {
        stroke: #2e3192;
      }

      .cls-15, .cls-39 {
        stroke-width: 0.76px;
      }

      .cls-16 {
        stroke: #e8e8e8;
        stroke-width: 1.91px;
      }

      .cls-17 {
        stroke: #699366;
        stroke-width: 4px;
      }

      .cls-17, .cls-26, .cls-27, .cls-28, .cls-35, .cls-38 {
        stroke-linecap: round;
      }

      .cls-18 {
        fill: #d1f3ff;
      }

      .cls-19 {
        fill: #39c5fb;
      }

      .cls-20 {
        fill: #006824;
      }

      .cls-21 {
        fill: #001c00;
      }

      .cls-22, .cls-25, .cls-36 {
        fill: #383838;
      }

      .cls-23, .cls-31, .cls-36, .cls-37, .cls-38, .cls-39, .cls-40, .cls-41 {
        stroke: #383838;
      }

      .cls-23 {
        stroke-width: 1.81px;
      }

      .cls-24, .cls-25, .cls-32, .cls-47, .cls-49 {
        isolation: isolate;
      }

      .cls-25 {
        font-size: 14.78px;
        font-family: FuturaPT-Demi, Futura PT;
        font-weight: 300;
      }

      .cls-26, .cls-27, .cls-28 {
        fill: #d1d1d1;
      }

      .cls-26, .cls-27, .cls-28, .cls-41 {
        stroke-linejoin: round;
      }

      .cls-26 {
        stroke-width: 5.02px;
      }

      .cls-27 {
        stroke-width: 4.84px;
      }

      .cls-28 {
        stroke-width: 5px;
      }

      .cls-30 {
        fill: #4c4947;
      }

      .cls-31 {
        stroke-width: 1.83px;
      }

      .cls-32, .cls-49 {
        font-size: 21px;
      }

      .cls-32, .cls-47 {
        font-family: Poppins-SemiBold, Poppins;
        font-weight: 600;
      }

      .cls-33 {
        fill: #c44343;
      }

      .cls-34 {
        fill: #606060;
      }

      .cls-35 {
        stroke-width: 0.49px;
      }

      .cls-37, .cls-38 {
        stroke-width: 1.1px;
      }

      .cls-41 {
        stroke-width: 0.78px;
      }

      .cls-42 {
        fill: #4d4d4d;
      }

      .cls-43 {
        fill: #5491d3;
      }

      .cls-43, .cls-44 {
        stroke-width: 2.11px;
      }

      .cls-45 {
        stroke-width: 10px;
      }

      .cls-46 {
        stroke-width: 8px;
      }

      .cls-47 {
        font-size: 24px;
      }

      .cls-48, .cls-50, .cls-51, .cls-52 {
        fill: #494949;
      }

      .cls-48 {
        stroke-width: 0.79px;
      }

      .cls-49 {
        font-family: Poppins-Medium, Poppins;
        font-weight: 500;
      }

      .cls-50 {
        stroke-width: 0.81px;
      }

      .cls-51 {
        stroke-width: 0.88px;
      }

      .cls-52 {
        stroke-width: 0.87px;
      }
    </style>
  </defs>
  <title>park_map</title>
  <rect id="background" class="cls-1" x="0.05" y="0.88" width="1920" height="1080"/>
  <g id="creek_bush" data-name="creek bush">
    <g id="creek_bush_6" data-name="creek bush 6">
      <path class="cls-2" d="M1198.05,383.55c.49-8.22,8.42-13.09,13.65-8.38l.07,6.89c2-4.27,4-8.66,7.12-11.4s7.6-3.35,10.68-.07a17.8,17.8,0,0,0,2.36,2.55c3.65,2.6,6.78-3.4,9.53-7.18,3.79-5.23,10-6.89,15.32-4s9.29,10,9.83,17.55c.57-7.57,2.26-15.53,6.74-19.84s12.32-2.64,14.4,4.64c1.55-3.89,5.2-5.88,8.46-4.61s5.82,5.69,5.92,10.22c1-4.23,5.37-6,8.11-3.19.43,8.93.42,17.86,0,26.71-.1,2-.28,4.09-1.31,5.4-2.44,3.14-7.55-.67-9.7,2.85-.79,1.31-.84,3.19-1.17,4.85-1.32,6.44-6.84,8.92-11.68,10.28-13.17,3.71-26.63,5.79-40.06,7.86l-54,8.32a109.57,109.57,0,0,1-17.34,1.74c-10.38-.06-12.58-7.61-10.84-19.81,1.37-9.63,1.76-18.8,2.75-28.37.84-8.15,2.59-13.35,9-15.75C1180,369.22,1198.59,374.1,1198.05,383.55Z" transform="translate(0 0)"/>
      <path class="cls-3" d="M1201.47,405.81a21.3,21.3,0,0,1,1.39-5.07c.92-1.93,2.92-3.84,2.73-6.34C1202.62,396,1201.15,401.63,1201.47,405.81Z" transform="translate(0 0)"/>
      <path class="cls-3" d="M1223.37,411a16,16,0,0,1,1-3.72c.67-1.42,2.14-2.82,2-4.65C1224.22,403.77,1223.14,407.88,1223.37,411Z" transform="translate(0 0)"/>
      <path class="cls-3" d="M1229.79,392.41a16,16,0,0,1,1-3.72c.67-1.42,2.14-2.81,2-4.65C1230.64,385.21,1229.56,389.35,1229.79,392.41Z" transform="translate(0 0)"/>
      <path class="cls-3" d="M1247.53,400.74a23.77,23.77,0,0,1,1.54-5.62c1-2.14,3.24-4.25,3-7C1248.81,389.88,1247.17,396.12,1247.53,400.74Z" transform="translate(0 0)"/>
      <path class="cls-3" d="M1260.56,407.21a23.59,23.59,0,0,1,1.6-5.58c1-2.12,3.29-4.19,3.1-7C1262,396.37,1260.25,402.58,1260.56,407.21Z" transform="translate(0 0)"/>
      <path class="cls-3" d="M1303.69,383a15.41,15.41,0,0,0,.29-3.52c-.11-1.52-.84-3.56-.21-4.87C1305.11,376.88,1304.75,380.77,1303.69,383Z" transform="translate(0 0)"/>
      <path class="cls-3" d="M1291.17,387.64a15.41,15.41,0,0,0,.29-3.52c-.11-1.53-.84-3.56-.21-4.88C1292.59,381.55,1292.24,385.44,1291.17,387.64Z" transform="translate(0 0)"/>
      <path class="cls-3" d="M1283.72,394.51A15.41,15.41,0,0,0,1284,391c-.11-1.53-.84-3.56-.21-4.88C1285.14,388.42,1284.78,392.31,1283.72,394.51Z" transform="translate(0 0)"/>
    </g>
    <g id="creek_bush_5" data-name="creek bush 5">
      <path class="cls-4" d="M1057.3,410.88c-.4-8.25,7-14,12.75-9.82l.81,6.87c1.51-4.47,3.08-9.08,5.9-12.13s7.24-4.17,10.68-1.22a17.84,17.84,0,0,0,2.61,2.3c3.94,2.2,6.42-4.11,8.76-8.19,3.22-5.62,9.3-7.94,14.88-5.67s10.38,9,11.74,16.46c-.25-7.62.58-15.74,4.59-20.52s12-4,14.91,3.1c1.13-4.05,4.57-6.43,8-5.51s6.43,5.05,7,9.56c.52-4.33,4.72-6.52,7.76-4.05a267.75,267.75,0,0,1,2.86,26.66c.11,2,.16,4.11-.72,5.53-2.11,3.39-7.63.13-9.4,3.88-.66,1.39-.49,3.27-.65,5-.62,6.57-5.88,9.64-10.57,11.51-12.78,5.11-26,8.62-39.23,12.13l-53.1,14.07a110.38,110.38,0,0,1-17.16,3.59c-10.39,1.06-13.4-6.24-13-18.61.33-9.75-.27-18.94-.31-28.6,0-8.22,1.15-13.59,7.3-16.68C1037.7,398.48,1056.84,401.36,1057.3,410.88Z" transform="translate(0 0)"/>
      <path class="cls-3" d="M1036.17,418.88a15.46,15.46,0,0,1,.59-3.64c.49-1.42,1.75-2.9,1.43-4.63C1036.24,411.94,1035.63,416,1036.17,418.88Z" transform="translate(0 0)"/>
      <path class="cls-3" d="M1053.37,429.66A14.49,14.49,0,0,1,1054,426c.49-1.41,1.75-2.9,1.43-4.62C1053.44,422.73,1052.83,426.77,1053.37,429.66Z" transform="translate(0 0)"/>
      <path class="cls-3" d="M1072.32,420a15.46,15.46,0,0,1,.59-3.64c.5-1.42,1.75-2.9,1.43-4.63C1072.39,413.06,1071.78,417.11,1072.32,420Z" transform="translate(0 0)"/>
      <path class="cls-3" d="M1085.15,405a14.56,14.56,0,0,1,.58-3.65c.5-1.41,1.75-2.89,1.43-4.62C1085.21,398.09,1084.61,402.14,1085.15,405Z" transform="translate(0 0)"/>
      <path class="cls-3" d="M1108.6,407.07a15.54,15.54,0,0,1,.59-3.65c.49-1.41,1.75-2.89,1.43-4.62C1108.67,400.13,1108.05,404.18,1108.6,407.07Z" transform="translate(0 0)"/>
      <path class="cls-3" d="M1141.29,391.52a15.46,15.46,0,0,1,.59-3.64c.5-1.41,1.75-2.89,1.43-4.62C1141.36,384.59,1140.75,388.64,1141.29,391.52Z" transform="translate(0 0)"/>
      <path class="cls-3" d="M1155.13,390.88a15.46,15.46,0,0,1,.59-3.64c.49-1.42,1.75-2.9,1.43-4.63C1155.2,384,1154.59,388,1155.13,390.88Z" transform="translate(0 0)"/>
    </g>
    <g id="creek_bush_4" data-name="creek bush 4">
      <path class="cls-2" d="M467.47,568.37c0-8.24,7.57-13.61,13.09-9.24l.51,6.86c1.68-4.38,3.45-8.9,6.37-11.83s7.37-3.84,10.66-.76a18.92,18.92,0,0,0,2.51,2.39c3.82,2.36,6.55-3.82,9.05-7.78,3.44-5.46,9.58-7.51,15-5s9.91,9.38,10.94,16.88c.08-7.59,1.25-15.64,5.44-20.23s12.13-3.43,14.67,3.71c1.3-4,4.82-6.21,8.15-5.15s6.17,5.3,6.57,9.81c.7-4.29,5-6.29,7.89-3.7,1,8.88,1.57,17.79,1.69,26.65,0,2,0,4.1-1,5.48-2.24,3.29-7.58-.19-9.49,3.47-.72,1.35-.63,3.23-.87,4.91-.89,6.51-6.24,9.34-11,11-12.91,4.55-26.2,7.49-39.47,10.42L464.85,618a108.89,108.89,0,0,1-17.2,2.86c-10.35.61-13-6.78-12.09-19.07.74-9.7.54-18.87.91-28.49.32-8.19,1.73-13.48,8-16.29C448.54,555.23,467.42,558.88,467.47,568.37Z" transform="translate(0 0)"/>
      <path class="cls-3" d="M472.35,590.36a21.16,21.16,0,0,1,1.06-5.15c.79-2,2.66-4,2.31-6.5C472.86,580.49,471.76,586.21,472.35,590.36Z" transform="translate(0 0)"/>
      <path class="cls-3" d="M494.54,594.09a15.24,15.24,0,0,1,.78-3.77c.57-1.46,2-3,1.69-4.77C494.92,586.88,494.1,591.05,494.54,594.09Z" transform="translate(0 0)"/>
      <path class="cls-3" d="M499.75,575.16a15.67,15.67,0,0,1,.77-3.78c.58-1.45,2-2.94,1.7-4.76C500.13,567.88,499.31,572.12,499.75,575.16Z" transform="translate(0 0)"/>
      <path class="cls-3" d="M518,582.33a24.18,24.18,0,0,1,1.18-5.7c.87-2.21,3-4.46,2.56-7.21C518.56,571.39,517.33,577.74,518,582.33Z" transform="translate(0 0)"/>
      <path class="cls-3" d="M531.41,588a23,23,0,0,1,1.23-5.68c.9-2.18,3-4.39,2.65-7.14C532.1,577,530.8,583.35,531.41,588Z" transform="translate(0 0)"/>
      <path class="cls-3" d="M572.88,561a15,15,0,0,0,.06-3.54c-.21-1.51-1.07-3.49-.52-4.85C573.9,554.81,573.8,558.71,572.88,561Z" transform="translate(0 0)"/>
      <path class="cls-3" d="M560.69,566.44a14.88,14.88,0,0,0,.06-3.53c-.21-1.52-1.07-3.5-.52-4.86C561.71,560.28,561.61,564.18,560.69,566.44Z" transform="translate(0 0)"/>
      <path class="cls-3" d="M553.7,573.78a15,15,0,0,0,0-3.54c-.2-1.51-1.06-3.49-.52-4.85C554.72,567.61,554.62,571.51,553.7,573.78Z" transform="translate(0 0)"/>
    </g>
    <g id="creek_bush_3" data-name="creek bush 3">
      <path class="cls-4" d="M333.73,576.82c.86-8.23,9-12.74,14.09-7.78l-.23,6.91c2.16-4.19,4.42-8.5,7.67-11.09s7.78-3,10.73.41a18.56,18.56,0,0,0,2.26,2.67c3.56,2.77,7-3.1,9.89-6.77,4.05-5.07,10.4-6.44,15.58-3.35s8.89,10.45,9.1,18c.91-7.57,3-15.47,7.66-19.59s12.49-2.08,14.26,5.33c1.73-3.83,5.5-5.66,8.71-4.24s5.6,6,5.5,10.52c1.17-4.2,5.66-5.73,8.29-2.82,0,9-.37,17.92-1.22,26.78-.19,2-.46,4.08-1.55,5.35-2.6,3-7.56-1-9.88,2.41-.86,1.28-1,3.16-1.4,4.81-1.61,6.4-7.27,8.63-12.19,9.78-13.4,3.11-27,4.57-40.61,6L325.77,626a110.22,110.22,0,0,1-17.51.94c-10.43-.53-12.3-8.2-10-20.36,1.8-9.59,2.6-18.76,4-28.32,1.21-8.14,3.2-13.26,9.75-15.38C316.24,561.61,334.72,567.36,333.73,576.82Z" transform="translate(0 0)"/>
      <path class="cls-3" d="M311.63,581.54a15,15,0,0,1,1.14-3.51c.7-1.32,2.16-2.6,2.11-4.35C312.75,574.7,311.54,578.61,311.63,581.54Z" transform="translate(0 0)"/>
      <path class="cls-3" d="M327,594.81a15,15,0,0,1,1.14-3.51c.7-1.32,2.17-2.6,2.11-4.35C328.11,588,326.9,591.88,327,594.81Z" transform="translate(0 0)"/>
      <path class="cls-3" d="M347.2,588.13a15,15,0,0,1,1.13-3.51c.7-1.32,2.17-2.6,2.11-4.35C348.31,581.29,347.1,585.2,347.2,588.13Z" transform="translate(0 0)"/>
      <path class="cls-3" d="M362.14,575.28a15,15,0,0,1,1.13-3.51c.71-1.33,2.17-2.6,2.12-4.36C363.26,568.44,362.05,572.34,362.14,575.28Z" transform="translate(0 0)"/>
      <path class="cls-3" d="M385.05,580.88a15,15,0,0,1,1.13-3.51c.7-1.32,2.17-2.6,2.11-4.35C386.13,574,384.92,577.88,385.05,580.88Z" transform="translate(0 0)"/>
      <path class="cls-3" d="M419.69,570.45a14.53,14.53,0,0,1,1.13-3.51c.7-1.32,2.17-2.6,2.11-4.36C420.8,563.61,419.59,567.51,419.69,570.45Z" transform="translate(0 0)"/>
      <path class="cls-3" d="M433.46,572a15,15,0,0,1,1.13-3.51c.7-1.32,2.17-2.6,2.11-4.35C434.57,565.11,433.36,569,433.46,572Z" transform="translate(0 0)"/>
    </g>
    <g id="creek_bush_2" data-name="creek bush 2">
      <path class="cls-2" d="M193.24,576c2.25-7.92,11-11,15.14-5.24L207,577.51c2.84-3.75,5.79-7.6,9.42-9.59s8.14-1.65,10.44,2.22a18.36,18.36,0,0,0,1.75,3c3,3.33,7.36-1.86,10.85-5,4.83-4.29,11.29-4.56,15.84-.66s6.91,11.77,5.82,19.26c2.19-7.27,5.55-14.68,10.85-17.93s12.6.08,13.06,7.64c2.35-3.46,6.35-4.62,9.26-2.68s4.46,6.8,3.58,11.26c1.87-3.93,6.52-4.67,8.61-1.37-1.5,8.81-3.43,17.52-5.78,26.07-.52,1.89-1.16,3.93-2.44,5-3.07,2.54-7.23-2.28-10.09.7-1.06,1.11-1.5,2.93-2.19,4.48-2.67,6-8.6,7.24-13.61,7.53-13.67.79-27.25-.08-40.82-1L177.05,623a110.73,110.73,0,0,1-17.31-2c-10.12-2.29-10.65-10.14-6.32-21.68,3.4-9.11,5.76-18,8.79-27.11,2.58-7.78,5.4-12.47,12.18-13.44C178.71,558.13,195.83,566.88,193.24,576Z" transform="translate(0 0)"/>
      <path class="cls-3" d="M191.82,598.49a20.87,20.87,0,0,1,2.45-4.65c1.3-1.69,3.67-3.12,4-5.6C195.05,589.15,192.4,594.34,191.82,598.49Z" transform="translate(0 0)"/>
      <path class="cls-3" d="M212.05,608.24a15.66,15.66,0,0,1,1.8-3.41c1-1.24,2.7-2.29,3-4.11C214.47,601.39,212.52,605.2,212.05,608.24Z" transform="translate(0 0)"/>
      <path class="cls-3" d="M222.36,591.5a15.62,15.62,0,0,1,1.79-3.41c1-1.24,2.7-2.29,3-4.11C224.73,584.65,222.79,588.46,222.36,591.5Z" transform="translate(0 0)"/>
      <path class="cls-3" d="M237.89,603.46a23,23,0,0,1,2.71-5.15c1.45-1.88,4.07-3.46,4.46-6.21C241.47,593.11,238.53,598.88,237.89,603.46Z" transform="translate(0 0)"/>
      <path class="cls-3" d="M249.22,612.59a23.15,23.15,0,0,1,2.76-5.11c1.47-1.85,4.11-3.39,4.53-6.13C252.91,602.29,249.91,608,249.22,612.59Z" transform="translate(0 0)"/>
      <path class="cls-3" d="M296.55,598.2a15.28,15.28,0,0,0,1-3.38c.22-1.51-.05-3.65.85-4.8C299.25,592.56,298.05,596.28,296.55,598.2Z" transform="translate(0 0)"/>
      <path class="cls-3" d="M283.33,600.06a15.44,15.44,0,0,0,1-3.38c.22-1.51-.05-3.65.85-4.8C286.05,594.42,284.84,598.14,283.33,600.06Z" transform="translate(0 0)"/>
      <path class="cls-3" d="M274.57,605.17a15.28,15.28,0,0,0,1-3.38c.23-1.52-.05-3.66.85-4.81C277.26,599.53,276.05,603.25,274.57,605.17Z" transform="translate(0 0)"/>
      <path class="cls-3" d="M302.65,609.88a15.47,15.47,0,0,1,1.72-3.27c.92-1.18,2.58-2.19,2.83-3.93C304.92,603.28,303.05,606.93,302.65,609.88Z" transform="translate(0 0)"/>
    </g>
    <g id="creek_bush_1" data-name="creek bush 1">
      <path class="cls-4" d="M63.41,543.12a22.06,22.06,0,0,1,4.39-5.94c1.83-1.54,4.32-2.3,6.47-1.27s3.37,3.36,4.35,5.69a45,45,0,0,1,3.43,16.71A27.27,27.27,0,0,1,97.41,551c3.08,7.47,2.46,16.69-1.56,23.26,1.73-4.74,5.61-8.7,10.11-8.6s8.85,5.52,7.56,10.45a24.36,24.36,0,0,1,15.39-12.87,9.62,9.62,0,0,1,6.29.19c4.24,1.89,5.94,9,3.09,12.92a7.68,7.68,0,0,1,5-6.43,12.59,12.59,0,0,1,7.93.29c3.3,1,6.65,2.89,8.49,6.24s1.52,8.43-1.38,10.35a14.46,14.46,0,0,1,6.77.89,6.89,6.89,0,0,1,4,5.94c0,2.64-2.54,5-4.61,3.81a13.55,13.55,0,0,1,9.29.9c2.67,4.66.43,11.22-3.49,14.21s-1.06,2.44-5.81,2.68c-9.57.48-27,1.69-36.6,2l-13.69.39c-7,.2-18.59.52-25.56-.12-7.64-.7-14.67.43-22.31-.34-8-.81-26-3.83-33.94-3.64,1-5.61,2.65-7.09,4.64-18.35,3.51-19.4-11.66-60,9.74-61.91C51.05,530.73,62.38,540.18,63.41,543.12Z" transform="translate(0 0)"/>
      <path class="cls-3" d="M65.72,559.24a26.17,26.17,0,0,1,2.26-7c1.48-2.66,4.69-5.33,4.41-8.73C67.65,545.88,65.24,553.57,65.72,559.24Z" transform="translate(0 0)"/>
      <path class="cls-3" d="M51.85,582.52a16.74,16.74,0,0,1,1.42-4.36c.93-1.67,2.94-3.35,2.76-5.47C53.05,574.11,51.55,579,51.85,582.52Z" transform="translate(0 0)"/>
      <path class="cls-3" d="M85.26,569.08a29.55,29.55,0,0,1,1.12-4.15c.62-1.63,1.82-3.42,1.91-5.33C86.62,561.29,85.42,565.88,85.26,569.08Z" transform="translate(0 0)"/>
      <path class="cls-3" d="M92.65,587.7a16.68,16.68,0,0,1,1.48-4.56c1-1.75,3.07-3.5,2.89-5.72C93.91,578.88,92.33,584,92.65,587.7Z" transform="translate(0 0)"/>
      <path class="cls-3" d="M77.17,604.63a18.46,18.46,0,0,0,.5-4.86c-.15-2.1-1.27-4.86-.25-6.7C79.5,596.18,78.88,601.55,77.17,604.63Z" transform="translate(0 0)"/>
      <path class="cls-3" d="M111.76,595.37a26.06,26.06,0,0,1,2.26-7c1.48-2.66,4.69-5.33,4.41-8.73C113.69,582,111.28,589.7,111.76,595.37Z" transform="translate(0 0)"/>
      <path class="cls-3" d="M103.79,611.2a12.34,12.34,0,0,0,.34-3.37c-.11-1.45-.91-3.37-.2-4.64C105.41,605.36,105,609.08,103.79,611.2Z" transform="translate(0 0)"/>
      <path class="cls-3" d="M111.76,595.37a26.06,26.06,0,0,1,2.26-7c1.48-2.66,4.69-5.33,4.41-8.73C113.69,582,111.28,589.7,111.76,595.37Z" transform="translate(0 0)"/>
      <path class="cls-3" d="M111.76,595.37a26.06,26.06,0,0,1,2.26-7c1.48-2.66,4.69-5.33,4.41-8.73C113.69,582,111.28,589.7,111.76,595.37Z" transform="translate(0 0)"/>
      <path class="cls-3" d="M63.3,602a14.2,14.2,0,0,0,.39-3.84c-.13-1.66-1-3.85-.23-5.31C65.15,595.37,64.67,599.61,63.3,602Z" transform="translate(0 0)"/>
      <path class="cls-3" d="M140.18,594.47a26.55,26.55,0,0,1,2.27-7c1.47-2.66,4.69-5.33,4.41-8.73C142.11,581.06,139.7,588.8,140.18,594.47Z" transform="translate(0 0)"/>
    </g>
  </g>
  <path id="creek" class="cls-5" d="M2.3,643.55s115,7.06,180.53,6.76C259,650,404.58,642.8,578,612.17,705,589.73,1142.86,411.54,1447,429.58c98.16,8.59,162.7,29.91,304.16,48.35,70.4,9.17,106.76-21,166.69-23" transform="translate(0 0)"/>
  <g id="peony_garden" data-name="peony garden">
    <path class="cls-6" d="M1178.26,819.06a179.83,179.83,0,0,1,32.45-100.38,2,2,0,0,0-.33-2.67l-10-8.51a2,2,0,0,0-2.82.22l-.12.16c-21.54,31.19-34.31,70.46-34.72,111.13a2,2,0,0,0,2,2h11.56A2,2,0,0,0,1178.26,819.06Z" transform="translate(0 0)"/>
    <path class="cls-6" d="M1341.05,639.47V626.16a2,2,0,0,0-2-2h-.22a195.88,195.88,0,0,0-126.35,64.66,2,2,0,0,0,.17,2.82l0,.05,10.28,8.59a2,2,0,0,0,2.75-.19c28.86-31.53,68.72-53.74,113.52-58.64A2,2,0,0,0,1341.05,639.47Z" transform="translate(0 0)"/>
    <path class="cls-6" d="M1202.54,821h13.24a2,2,0,0,0,2-2,140.41,140.41,0,0,1,23.27-74.66,2,2,0,0,0-.37-2.63l-11.29-9.6a2,2,0,0,0-2.82.18,1.88,1.88,0,0,0-.18.24c-16,24.47-25.46,55.12-25.85,86.45a2,2,0,0,0,2,2Z" transform="translate(0 0)"/>
    <path class="cls-6" d="M1312.12,687.28a62.38,62.38,0,0,1,2.83-16.82,2,2,0,0,0-2.48-2.56,158.52,158.52,0,0,0-71,45.19,2,2,0,0,0,.15,2.82l.06.06,11.51,9.62a2,2,0,0,0,2.79-.22c14.29-16.26,35.63-31.67,54.57-36.18A2,2,0,0,0,1312.12,687.28Z" transform="translate(0 0)"/>
    <path class="cls-6" d="M1256.75,758.5c-10,17.26-15.82,39.24-16.17,60.51a2,2,0,0,0,2,2h13.47a2,2,0,0,0,2-2c.33-17.23,4.92-35.43,12.73-49.56a2,2,0,0,0-.45-2.5l-10.6-9a2,2,0,0,0-2.81.31A1.46,1.46,0,0,0,1256.75,758.5Z" transform="translate(0 0)"/>
    <path class="cls-6" d="M1325.31,720.47a48.39,48.39,0,0,1-8-11.5,2,2,0,0,0-2.53-.94,119.8,119.8,0,0,0-43.09,30.26,2,2,0,0,0,.15,2.82l.06.06,10.54,8.81a2,2,0,0,0,2.75-.18,101.13,101.13,0,0,1,39.44-26.09,2,2,0,0,0,1.09-2.61A1.85,1.85,0,0,0,1325.31,720.47Z" transform="translate(0 0)"/>
    <path class="cls-6" d="M1280.21,821h14.19a2,2,0,0,0,2-1.94c1.16-26.79,18.9-50.16,43.22-58.3a2,2,0,0,0,1.43-1.91V743.13a2,2,0,0,0-2.54-1.93c-34.06,9-59.35,41.12-60.26,77.8A2,2,0,0,0,1280.21,821Z" transform="translate(0 0)"/>
    <path class="cls-6" d="M1162.87,860.05H1337.8a2.34,2.34,0,0,0,2-2.57v-17a2.34,2.34,0,0,0-2-2.57H1162.87a2.34,2.34,0,0,0-2,2.57v17A2.34,2.34,0,0,0,1162.87,860.05Z" transform="translate(0 0)"/>
    <path class="cls-6" d="M1540.29,819.06a179.75,179.75,0,0,0-32.45-100.38,2,2,0,0,1,.34-2.67l10-8.51a2,2,0,0,1,2.82.21l.13.17c21.54,31.19,34.3,70.46,34.71,111.13a2,2,0,0,1-2,2h-11.56A2,2,0,0,1,1540.29,819.06Z" transform="translate(0 0)"/>
    <path class="cls-6" d="M1377.55,639.47V626.16a2,2,0,0,1,2-2h.22a195.88,195.88,0,0,1,126.35,64.66,2,2,0,0,1-.17,2.82l0,.05-10.28,8.59a2,2,0,0,1-2.75-.19c-28.86-31.53-68.71-53.74-113.52-58.64A2,2,0,0,1,1377.55,639.47Z" transform="translate(0 0)"/>
    <path class="cls-6" d="M1516.05,821h-13.23a2,2,0,0,1-2-2,140.3,140.3,0,0,0-23.24-74.69,2,2,0,0,1,.37-2.63l11.29-9.6a2,2,0,0,1,2.82.18,1.88,1.88,0,0,1,.18.24c16,24.47,25.46,55.12,25.85,86.45a2,2,0,0,1-1.95,2Z" transform="translate(0 0)"/>
    <path class="cls-6" d="M1406.43,687.28a62.38,62.38,0,0,0-2.83-16.82,2,2,0,0,1,1.23-2.55,2,2,0,0,1,1.22,0,158.52,158.52,0,0,1,71,45.19,2,2,0,0,1-.15,2.82l-.06.06-11.51,9.62a2,2,0,0,1-2.78-.22c-14.3-16.26-35.64-31.67-54.57-36.18A2,2,0,0,1,1406.43,687.28Z" transform="translate(0 0)"/>
    <path class="cls-6" d="M1461.81,758.5c10,17.26,15.82,39.24,16.17,60.51a2,2,0,0,1-2,2h-13.51a2,2,0,0,1-2-2c-.33-17.23-4.92-35.43-12.73-49.56a2,2,0,0,1,.45-2.5l10.6-9a2,2,0,0,1,2.82.26A3,3,0,0,1,1461.81,758.5Z" transform="translate(0 0)"/>
    <path class="cls-6" d="M1393.24,720.47a47.7,47.7,0,0,0,8-11.5,2,2,0,0,1,2.53-.94,119.8,119.8,0,0,1,43.09,30.26,2,2,0,0,1-.15,2.82l-.06.06L1436.11,750a2,2,0,0,1-2.75-.18,101.13,101.13,0,0,0-39.44-26.09,2,2,0,0,1-1.09-2.61A1.85,1.85,0,0,1,1393.24,720.47Z" transform="translate(0 0)"/>
    <path class="cls-6" d="M1438.34,821h-14.19a2,2,0,0,1-2-1.94c-1.17-26.79-18.9-50.16-43.22-58.3a2,2,0,0,1-1.39-1.89V743.13a2,2,0,0,1,2.54-1.93c34.06,9,59.36,41.12,60.26,77.8a2,2,0,0,1-2,2Z" transform="translate(0 0)"/>
    <path class="cls-6" d="M1380.45,860.05h174.93a2.17,2.17,0,0,0,2-2.29V840.25a2.16,2.16,0,0,0-2-2.3H1380.45a2.18,2.18,0,0,0-2,2.3v17.51A2.17,2.17,0,0,0,1380.45,860.05Z" transform="translate(0 0)"/>
    <path class="cls-6" d="M1547.44,682.35l-10,8.26a2,2,0,0,0-.38,2.66c22.25,33,39.14,80.22,41.12,125.79a2,2,0,0,0,2,1.91h12.72a2,2,0,0,0,2-2v-.07c-2-49.54-21.15-101.42-44.48-136.19a2,2,0,0,0-2.78-.52A1.56,1.56,0,0,0,1547.44,682.35Z" transform="translate(0 0)"/>
    <path class="cls-7" d="M1396.77,687.4a38,38,0,0,0-28.92-36.88l1.27-63.71h-17.9L1350,650.52a38,38,0,0,0,0,73.77l1.27,191.81h17.9l-1.27-191.81A38,38,0,0,0,1396.77,687.4Z" transform="translate(0 0)"/>
  </g>
  <g id="paths">
    <g id="path_south_of_creek" data-name="path south of creek">
      <path id="path_left_of_water_feature" data-name="path left of water feature" class="cls-8" d="M355.2,749.66S399.27,864,565.58,833.88C656.19,817.47,708.8,698.39,708.8,698.39" transform="translate(0 0)"/>
      <path id="water_feature_bridge" data-name="water feature bridge" class="cls-8" d="M630.86,802.07s64.39,44.06,140,44.06c56,0,106.8-11.4,160.94-37.47,76.22-36.7,108-109.4,108-109.4" transform="translate(0 0)"/>
      <path id="parking_to_bike_right" data-name="parking to bike right" class="cls-8" d="M1191.22,922.59h-94.5a2,2,0,0,1-2-2V791.47s39.71-158.59,189.2-218.59" transform="translate(0 0)"/>
      <path id="parking_to_bike_left" data-name="parking to bike left" class="cls-8" d="M943.58,631.5s121.74,48,151.14,160" transform="translate(0 0)"/>
      <g id="arena_st_to_bike" data-name="arena st to bike">
        <path id="going_left" data-name="going left" class="cls-9" d="M1636.38,1078.63c-.88-23.25,25.94-121,3.92-308.47-4.47-25.19-40.35-117.82-92.72-137.89" transform="translate(0 0)"/>
        <path id="going_right" data-name="going right" class="cls-9" d="M1640.3,770.16s-18.36-103.52,91.91-134.82" transform="translate(0 0)"/>
      </g>
    </g>
    <g id="bridge">
      <line class="cls-10" x1="1774.15" y1="324.09" x2="1723.69" y2="639.52"/>
      <path class="cls-11" d="M1735.62,561.32c-9.24,79.13-61.44,87.29-61.44,87.29" transform="translate(0 0)"/>
      <path class="cls-11" d="M1756.31,621.77s-26.16,7.46-23.69-38" transform="translate(0 0)"/>
      <path class="cls-11" d="M1820.76,307.22c-12.06,2.3-48.34,26-56,75.35" transform="translate(0 0)"/>
      <path class="cls-11" d="M1714,323s64.53,14.82,52.94,46.52" transform="translate(0 0)"/>
    </g>
    <g id="path_north_of_creek" data-name="path north of creek">
      <path id="memory_garden_connection_bottom" data-name="memory garden connection bottom" class="cls-12" d="M870.05,365.69c-35.44,55.1-117.06,88.57-188.41,45.85-130.29-74.49-236.18-72-236.18-72" transform="translate(0 0)"/>
      <path id="memory_garden_connection_top" data-name="memory garden connection top" class="cls-12" d="M689.16,148.54c-2.63,35.88-22.48,61.14-45.68,69.61-39.19,14.29-90.56-22-130.3-33-41-11.4-102.54-32.73-146,8.73" transform="translate(0 0)"/>
      <path id="memory_garden_circle_path" data-name="memory garden circle path" class="cls-12" d="M445.41,339.58c0,96.56-76.78,174.84-173.34,174.84S95.74,436.14,95.74,339.58a174.84,174.84,0,0,1,349.67,0Z" transform="translate(0 0)"/>
      <path id="kids_garden_2" data-name="kids garden 2" class="cls-12" d="M856.38,178.62s-10,.54-26.25,66c-18.45,74.57,10.41,110.84,41.19,121.55,94.87,33,150.18-37.76,165.91-61.17" transform="translate(0 0)"/>
      <path id="kids_garden_1" data-name="kids garden 1" class="cls-12" d="M1107.91,328.1s16.74-88.51-29.9-101.5c-35-9.74-65-43.72-75.83-59.9" transform="translate(0 0)"/>
      <path id="daylilly_circle" data-name="daylilly circle" class="cls-12" d="M1286.46,307.24s-1.74-54.36,29.39-105.36c16.14-26.45,53.37-71.62,109.53-78.59,62.31-7.74,96.63-1.54,129.51,20.42,72.4,48.38,56.66,114.18,84.59,133" transform="translate(0 0)"/>
      <path id="kaiser_entry_2" data-name="kaiser entry 2" class="cls-12" d="M886.47,194.78s149.36-12.42,167.8-76.76C1067.69,71.2,1062.7.88,1062.7.88" transform="translate(0 0)"/>
      <path id="kaiser_entry_1_to_3" data-name="kaiser entry 1 to 3" class="cls-12" d="M583.65.88s-13.41,151,34.79,147.39c70.72-4.34,158.52,6.52,232.73,28.21,87.55,34.19,127.71,130.68,232.39,151.4,90.15,5.74,182.61-20.62,309.51-37.24,129.35-16.93,175.47,1.48,296.92-22,41.83-8.09,65.74-51.85,71.62-71.78,14.17-48.08,16.27-196,16.27-196" transform="translate(0 0)"/>
      <path id="bridge_connection_top" data-name="bridge connection top" class="cls-12" d="M1571.05,281.63c97.76-1.86,135.69,62.7,197.44,44.14,58-17.43,59.77-29.68,149.28-40.87,0,0-140.49,0-157.43-83-11.44,40.74,6.77,137.88,6.52,167.65" transform="translate(0 0)"/>
    </g>
    <path id="bike_path" data-name="bike path" class="cls-13" d="M2.3,1040.8s54.64,2.46,105.21-53c52.46-57.56,111-254.18,280-237.53C557.59,767,872.42,655.13,968.22,623.15c153.18-50.7,207.23-60.8,315.68-50.25,56.93,5.54,80.36,13.68,105.66,18,74.74,12.89,231.93,78.6,323.42,51.54,80.12-23.7,110.6-87.14,204.56-100.32" transform="translate(0 0)"/>
  </g>
  <g id="water_feature" data-name="water feature">
    <path class="cls-6" d="M943.2,739.57c-3.73,4.42-8.32,14.55-13.15,18.49-5,4.11-10.91,6.42-12.21,12.13a63.07,63.07,0,0,1-5,14.24c-1.89,4.11-16.31,12.44-19.56,14-6.54,3-14.35,3.37-21.84,3.62-13.54.46-37.26,0-47.85-7-5.6-3.72-13.27-1.94-28.6,7.38-15.59,9.48-45.49,11.29-54.2-.14-4.87-6.41-1.65-19.89,3.27-25,4.5-4.73,17.28-20.68,44.65-18.21,8.55.77,17.8.53,22.28-13.07.5-1.53-.12-6.17,5.68-12,13-13,39.81-20,59.5-22,12.62-1.28,18.55-1.23,28.71-7.6,3-1.9,16.31-2.45,20-1.57,10.8,2.59,9,4.49,13.94,9.58C944.46,718.28,947.05,735,943.2,739.57Z" transform="translate(0 0)"/>
    <path class="cls-14" d="M935.76,740.21c1.19,11.84-12.85,14.8-19.1,23.19-9.12,12.25-2.78,18.1-19.25,27.88-21,12.49-42.47,8-65,2.19-26.87-6.94-33,7.2-58.21,12.62-19.79,4.26-41.86-5.15-27.12-27.65,3.79-5.79,10.41-8.7,16.49-11.62,9.9-4.75,35.55-1.22,41.47-5.59,11.86-8.77,7-24.76,28-33.16,19.72-7.88,46.45-11.07,67-14.73,10-1.79,20.84-8.83,31.17.19C942.26,723.18,934.46,727.3,935.76,740.21Z" transform="translate(0 0)"/>
    <path class="cls-15" d="M836.59,757.31c.12-2.22,3.53-3.15,6.25-3.37s6.11-.7,6.88-2.84" transform="translate(0 0)"/>
    <path class="cls-15" d="M850.64,778.66a7.67,7.67,0,0,1,6.41-3.78c1.68-.09,3.37.28,5,.13s3.47-1.11,3.44-2.48" transform="translate(0 0)"/>
    <path class="cls-15" d="M887.39,762.74c3.74.89,6.59-4.18,10.42-3.24" transform="translate(0 0)"/>
    <path class="cls-15" d="M896.4,735c1.71-3.34,5.59-5.89,10-6.55" transform="translate(0 0)"/>
    <path class="cls-15" d="M761.3,791c1.21-1.94,2.23-2.86,4.51-2.26a11,11,0,0,0,1.38.42c2,.28,3-2,3.11-3.62" transform="translate(0 0)"/>
    <path class="cls-15" d="M796.77,778.88c.77-1.59,1.62-2.23,2.65-2.21a4.83,4.83,0,0,1,2.25,1,3.53,3.53,0,0,0,2.54.74c1.32-.1,2.34-1.09,2.26-3" transform="translate(0 0)"/>
  </g>
  <g id="daylily_garden" data-name="daylily garden">
    <g id="daylily_bottom" data-name="daylily bottom">
      <path class="cls-16" d="M1426.05,234.88c-2.34-18.36,28.48-25.36,28.48-25.36s32.61,3.86,35,22.22-10,33.95-27.48,34.81S1428.43,253.27,1426.05,234.88Z" transform="translate(0 0)"/>
      <path class="cls-17" d="M1436.67,212.57s-3.7,22,11.32,40.88c8.31,10.43,13.8,10,19.56-1,10.75-20.46,4.5-43.31,4.5-43.31" transform="translate(0 0)"/>
      <path class="cls-17" d="M1454.57,209.55a108.37,108.37,0,0,0,3.12,37.53" transform="translate(0 0)"/>
    </g>
    <g id="daylily_top_left" data-name="daylily top left">
      <path class="cls-16" d="M1440.27,156.52c16,9.28,2.91,38,2.91,38s-22.85,23.6-38.87,14.33-21-28.51-11-43S1424.25,147.25,1440.27,156.52Z" transform="translate(0 0)"/>
      <path class="cls-17" d="M1451.63,178.48s-15.28-16.3-39.38-15.78c-13.33.28-16.33,4.91-11.1,16.14,9.76,20.95,31.72,29.83,31.72,29.83" transform="translate(0 0)"/>
      <path class="cls-17" d="M1411.43,174.28a147.92,147.92,0,0,1,31.75,20.26" transform="translate(0 0)"/>
    </g>
    <g id="daylily_top_right" data-name="daylily top right">
      <path class="cls-16" d="M1502.74,205.34c-15.48,10.15-35.28-14.48-35.28-14.48s-10.82-31,4.65-41.15,34.88-5.92,43.34,9.44S1518.22,195.19,1502.74,205.34Z" transform="translate(0 0)"/>
      <path class="cls-17" d="M1480.05,205.63s21.42-6.33,31.78-28.1c5.73-12,3-16.79-9.43-17.16-23.1-.69-40.9,14.94-40.9,14.94" transform="translate(0 0)"/>
      <path class="cls-17" d="M1499.83,171.6a131.44,131.44,0,0,0-32.37,19.28" transform="translate(0 0)"/>
    </g>
  </g>
  <g id="ovbg_icon" data-name="ovbg icon">
    <g id="wing_left" data-name="wing left">
      <path class="cls-18" d="M1698.67,959.88c14.41-19.1,30.38-13.35,46.89-9.53v11.23S1713.05,952.38,1698.67,959.88Z" transform="translate(0 0)"/>
      <path class="cls-19" d="M1686.69,975.62c14.38-17.72,23-16.54,32.92-14.6,12.33,2.4,14.29,4.12,26,3.72v9.51a29.65,29.65,0,0,1-9.64,1.8,81.87,81.87,0,0,1-18.09-2.56C1710.61,971.24,1697.15,969,1686.69,975.62Z" transform="translate(0 0)"/>
    </g>
    <g id="wing_right" data-name="wing right">
      <path class="cls-20" d="M1834.42,961.35c-14.37,19.09-30.37,13.35-46.89,9.53V959.64S1820.05,968.88,1834.42,961.35Z" transform="translate(0 0)"/>
      <path class="cls-21" d="M1846.4,945.6c-14.38,17.72-23,16.53-32.92,14.6-12.33-2.4-14.29-4.12-26-3.72V947a29.65,29.65,0,0,1,9.64-1.8,81.87,81.87,0,0,1,18.09,2.56C1822.48,950,1835.94,952.21,1846.4,945.6Z" transform="translate(0 0)"/>
    </g>
    <g id="gazebo_logo" data-name="gazebo logo">
      <polygon class="cls-22" points="1753.32 967.63 1753.32 965.25 1751.87 965.25 1751.87 947.27 1752.62 947.27 1752.62 945.03 1748.04 945.03 1748.04 947.27 1748.86 947.27 1748.86 965.25 1748.74 965.25 1747.29 965.25 1747.29 967.63 1748.74 967.63 1748.86 967.63 1748.86 971.48 1748.74 971.48 1747.29 971.48 1747.29 973 1748.74 973 1751.87 973 1753.32 973 1753.32 971.48 1751.87 971.48 1751.87 967.63 1753.32 967.63"/>
      <polygon class="cls-22" points="1761.68 967.63 1761.68 965.25 1760.23 965.25 1760.23 947.27 1760.98 947.27 1760.98 945.03 1756.4 945.03 1756.4 947.27 1757.22 947.27 1757.22 965.25 1757.09 965.25 1755.65 965.25 1755.65 967.63 1757.09 967.63 1757.22 967.63 1757.22 971.48 1757.09 971.48 1755.65 971.48 1755.65 973 1757.09 973 1760.23 973 1761.68 973 1761.68 971.48 1760.23 971.48 1760.23 967.63 1761.68 967.63"/>
      <polygon class="cls-22" points="1777.48 967.62 1777.48 965.25 1776.04 965.25 1776.04 947.26 1776.79 947.26 1776.79 945.03 1772.21 945.03 1772.21 947.26 1773.03 947.26 1773.03 965.25 1772.9 965.25 1771.45 965.25 1771.45 967.62 1772.9 967.62 1773.03 967.62 1773.03 971.48 1772.9 971.48 1771.45 971.48 1771.45 973 1772.9 973 1776.04 973 1777.48 973 1777.48 971.48 1776.04 971.48 1776.04 967.62 1777.48 967.62"/>
      <polygon class="cls-22" points="1785.84 967.62 1785.84 965.25 1784.4 965.25 1784.4 947.26 1785.15 947.26 1785.15 945.03 1780.56 945.03 1780.56 947.26 1781.38 947.26 1781.38 965.25 1781.26 965.25 1779.81 965.25 1779.81 967.62 1781.26 967.62 1781.38 967.62 1781.38 971.48 1781.26 971.48 1779.81 971.48 1779.81 973 1781.26 973 1784.4 973 1785.84 973 1785.84 971.48 1784.4 971.48 1784.4 967.62 1785.84 967.62"/>
      <path class="cls-23" d="M1766.73,928.35A16.64,16.64,0,0,0,1750.05,945v0h33.3A16.66,16.66,0,0,0,1766.73,928.35Z" transform="translate(0 0)"/>
      <path class="cls-23" d="M1766.73,928.35c-6.5,0-13.41,9.84-13.41,16.68h26.81C1780.13,938.19,1773.22,928.35,1766.73,928.35Z" transform="translate(0 0)"/>
      <path class="cls-23" d="M1766.73,928.35c-5,0-8,9.84-8,16.67h16C1774.71,938.19,1771.76,928.35,1766.73,928.35Z" transform="translate(0 0)"/>
      <polygon class="cls-22" points="1767.18 926.11 1766.71 922.61 1766.71 922.61 1766.27 926.11 1765.82 926.11 1765.82 945.03 1767.63 945.03 1767.63 926.11 1767.18 926.11"/>
      <rect class="cls-22" x="1751.19" y="938.11" width="31.07" height="1.81"/>
      <rect class="cls-22" x="1754.69" y="932.91" width="24.08" height="1.81"/>
    </g>
    <g id="oshawa_bontanical_garden_text" data-name="oshawa bontanical garden text" class="cls-24">
      <text class="cls-25" transform="translate(1707.7 995.89)">OSH</text>
      <text class="cls-25" transform="translate(1738.13 995.89)">A</text>
      <text class="cls-25" transform="translate(1747.5 995.89)">W</text>
      <text class="cls-25" transform="translate(1760.27 995.89)">A</text>
      <text class="cls-25" transform="translate(1770.42 995.89)"> </text>
      <text class="cls-25" transform="translate(1774.13 995.89)">V</text>
      <text class="cls-25" transform="translate(1782.65 995.89)">ALL</text>
      <text class="cls-25" transform="translate(1808.97 995.89)">E</text>
      <text class="cls-25" transform="translate(1817.39 995.89)">Y</text>
      <text class="cls-25" transform="translate(1690.27 1013.31)">B</text>
      <text class="cls-25" transform="translate(1699.39 1013.31)">O</text>
      <text class="cls-25" transform="translate(1710.31 1013.31)">T</text>
      <text class="cls-25" transform="translate(1717.65 1013.31)">ANI</text>
      <text class="cls-25" transform="translate(1743.28 1013.31)">C</text>
      <text class="cls-25" transform="translate(1753.02 1013.31)">AL GARDENS</text>
    </g>
  </g>
  <g id="buildings_structure" data-name="buildings structure">
    <rect id="parking" class="cls-26" x="1191.22" y="915.1" width="334.06" height="118.72"/>
    <polygon id="childrens_arena_main" data-name="childrens arena main" class="cls-27" points="1064.46 1037.59 1064.46 1008.26 1075.39 1008.26 1075.39 985.3 1064.46 985.3 1064.46 950.16 1047.31 950.16 1047.31 938.64 1027.79 938.64 1027.79 927.12 996.73 927.12 996.73 915.11 728.04 915.11 727.88 1037.59 1064.46 1037.59"/>
    <polygon id="fire_department" data-name="fire department" class="cls-28" points="644.63 942.38 644.63 903.27 404.58 903.27 404.58 942.38 460.94 942.38 460.94 956.17 427.05 956.17 427.05 1033.84 622.15 1033.84 622.15 956.17 588.27 956.17 588.27 942.38 644.63 942.38"/>
  </g>
  <g id="navigation_paths" data-name="navigation paths">
    <path id="bike_path_animate" data-name="bike path animate" class="cls-13" d="M2.3,1040.8s54.64,2.46,105.21-53c52.46-57.56,111-254.18,280-237.53C557.59,767,872.42,655.13,968.22,623.15c153.18-50.7,207.23-60.8,315.68-50.25,56.93,5.54,80.36,13.68,105.66,18,74.74,12.89,231.93,78.6,323.42,51.54,80.12-23.7,110.6-87.14,204.56-100.32" transform="translate(0 0)"/>
    <g id="from_memory_garden" data-name="from memory garden">
      <path id="memory_garden_to_daylily" data-name="memory garden to daylily" class="cls-29" d="M320.9,340.1l125.43-.73c25.83.14,63.57,5.37,112.8,19.24,46.57,13.13,98.83,38.95,122.28,52.71,63.51,37.25,140.8,19.4,188.41-45.85,81.37,30.9,142.58-24.15,163.38-55.19,27.86,14.77,52.6,18.18,52.6,18.18,98,6.14,260-36.25,364.22-43.63a10,10,0,0,0,9.27-10v-2" transform="translate(0 0)"/>
      <path id="memory_garden_to_bridge" data-name="memory garden to bridge" class="cls-29" d="M320.9,340.1l125.43-.73c25.83.14,63.57,5.37,112.8,19.24,46.57,13.13,98.83,38.95,122.28,52.71,63.51,37.25,140.8,19.4,188.41-45.85,81.37,30.9,142.58-24.15,163.38-55.19,27.86,14.77,52.6,18.18,52.6,18.18,105.1,6.59,278.91-43.13,381.47-44.65,51.91-.77,103.66-4.87,143.57-.58,40.88,4.39,74.64,36.16,145.1,49.11a16.74,16.74,0,0,1,13.5,19.45c0,.13,0,.27-.08.4l-45.25,271.56" transform="translate(0 0)"/>
      <path id="memory_garden_to_waterfall_garden" data-name="memory garden to waterfall garden" class="cls-29" d="M320.9,340.1l125.43-.73c25.83.14,63.57,5.37,112.8,19.24,46.57,13.13,98.83,38.95,122.28,52.71,63.51,37.25,140.8,19.4,188.41-45.85,81.37,30.9,142.58-24.15,163.38-55.19,27.86,14.77,52.6,18.18,52.6,18.18,105.1,6.59,278.91-43.13,381.47-44.65,51.91-.77,103.66-4.87,143.57-.58,40.88,4.39,74.64,36.16,145.1,49.11a16.74,16.74,0,0,1,13.5,19.45c0,.13,0,.27-.08.4-13.23,63.9-33.39,233.53-45.25,271.56-21.75,69.72-246.25-10-344.69-34.79-49.8-12.52-125.79-18.57-167.48-20.26-103.22-4.17-302.39,77.41-378.32,98.32-4.09,1.13-6.67,5.19-6.67,9.43v27.93" transform="translate(0 0)"/>
      <path id="memory_garden_to_peony" data-name="memory garden to peony" class="cls-29" d="M320.9,340.1l125.43-.73c25.83.14,63.57,5.37,112.8,19.24,46.57,13.13,98.83,38.95,122.28,52.71,63.51,37.25,140.8,19.4,188.41-45.85,81.37,30.9,142.58-24.15,163.38-55.19,27.86,14.77,52.6,18.18,52.6,18.18,105.1,6.59,278.91-43.13,381.47-44.65,51.91-.77,103.66-4.87,143.57-.58,40.88,4.39,74.64,36.16,145.1,49.11a16.75,16.75,0,0,1,13.5,19.46c0,.13,0,.25-.07.38-13.24,63.9-33.4,233.54-45.26,271.57-20.66,66.23-229.41-11.58-347.36-34a14.94,14.94,0,0,0-17.38,12,15.88,15.88,0,0,0-.24,2.75V871.88" transform="translate(0 0)"/>
      <path id="memory_garden_to_bike_path" data-name="memory garden to bike path" class="cls-29" d="M320.9,340.1l125.43-.73c25.83.14,63.57,5.37,112.8,19.24,46.57,13.13,98.83,38.95,122.28,52.71,63.51,37.25,140.8,19.4,188.41-45.85,81.37,30.9,142.58-24.15,163.38-55.19,27.86,14.77,52.6,18.18,52.6,18.18,105.1,6.59,278.91-43.13,381.47-44.65,51.91-.77,103.66-4.87,143.57-.58,40.88,4.39,74.64,36.16,145.1,49.11a16.74,16.74,0,0,1,13.5,19.45c0,.13,0,.27-.08.4L1723.7,639.52" transform="translate(0 0)"/>
    </g>
    <g id="from_daylily" data-name="from daylily">
      <path id="daylily_to_memory_garden" data-name="daylily to memory garden" class="cls-29" d="M1459.29,272.88v2a10,10,0,0,1-9.27,10c-104.25,7.38-266.27,49.77-364.22,43.63,0,0-24.74-3.41-52.6-18.18-20.8,31-82,86.09-163.38,55.19-47.61,65.25-124.9,83.1-188.41,45.85C658,397.61,605.7,371.79,559.13,358.66c-49.23-13.87-87-19.1-112.8-19.24l-125.43.73" transform="translate(0 0)"/>
      <path id="daylily_to_bridge" data-name="daylily to bridge" class="cls-29" d="M1459.29,272.88V276a8,8,0,0,0,8,8h.16s103.66-4.87,143.57-.59c40.83,4.39,74.56,36.1,144.85,49.07,9.15,1.69,15.07,10.7,13.67,19.9L1724.29,624" transform="translate(0 0)"/>
      <path id="daylily_to_waterfall_garden" data-name="daylily to waterfall garden" class="cls-29" d="M1459.29,272.88V276a8,8,0,0,0,8,8h.16s103.66-4.87,143.57-.59c40.88,4.39,74.63,36.17,145.09,49.12A16.73,16.73,0,0,1,1769.62,352c0,.14,0,.28-.08.42C1756.31,416.32,1736.15,586,1724.29,624c-21.75,69.71-232.29-8.29-342-34.44C1331.87,577.54,1272.92,570,1206,569c-91-1.39-301,75.46-372.15,98.29a9.84,9.84,0,0,0-6.67,9.43V704.6" transform="translate(0 0)"/>
      <path id="daylily_to_peony" data-name="daylily to peony" class="cls-29" d="M1459.29,272.88V276a8,8,0,0,0,8,8h.16s103.66-4.87,143.57-.59c40.83,4.39,74.56,36.1,144.85,49.07,9.15,1.69,15.07,10.7,13.67,19.9-9.07,59.65-33.55,237.44-45.25,271.56-23.24,67.9-235.41-12.25-345.35-33.42-10.26-2-20,4.83-20,15.28l.19,266.07" transform="translate(0 0)"/>
      <path id="daylily_to_bike_path" data-name="daylily to bike path" class="cls-29" d="M1459.29,272.88V276a8,8,0,0,0,8,8h.16s103.66-4.87,143.57-.59c40.83,4.39,74.56,36.1,144.85,49.07,9.15,1.69,15.07,10.7,13.67,19.9L1723.7,639.53" transform="translate(0 0)"/>
    </g>
    <g id="from_bridge" data-name="from bridge">
      <path id="bridge_to_memory_garden" data-name="bridge to memory garden" class="cls-29" d="M1724.11,623.75l45.25-271.56a16.73,16.73,0,0,0-13-19.77l-.4-.08c-70.46-12.95-104.22-44.72-145.1-49.11-39.91-4.29-91.66-.19-143.57.58-102.56,1.52-276.37,51.24-381.47,44.65,0,0-24.74-3.41-52.6-18.18-20.8,31-82,86.09-163.38,55.19-47.61,65.25-124.9,83.1-188.41,45.85C658,397.56,605.7,371.74,559.13,358.61c-49.23-13.87-87-19.1-112.8-19.24l-125.43.73" transform="translate(0 0)"/>
      <path id="bridge_to_daylily" data-name="bridge to daylily" class="cls-29" d="M1724.29,624l45.25-271.56c1.4-9.2-4.52-18.21-13.67-19.9-70.29-13-104-44.68-144.85-49.07-39.91-4.28-143.57.59-143.57.59a8,8,0,0,1-8.16-7.84v-3.31" transform="translate(0 0)"/>
      <path id="bridge_to_waterfall_garden" data-name="bridge to waterfall garden" class="cls-29" d="M1750.41,472.5c-10,62.88-20.38,129.67-26.12,151.47-18.6,70.62-254.58-18.33-365.39-39.48-60.91-11.63-126.55-16-169.58-13.9-102.59,5-292.92,80-355.52,96.65-4.1,1.09-6.67,5.19-6.67,9.43v27.92" transform="translate(0 0)"/>
      <path id="bridge_to_peony" data-name="bridge to peony" class="cls-29" d="M1752,477.93c-9.07,59.64-15.12,111.92-26.82,146-23.27,67.86-236.41-12.24-346.34-33.41-10.26-2-20,4.83-20,15.28l.32,266.07" transform="translate(0 0)"/>
      <path id="bridge_to_bike_path" data-name="bridge to bike path" class="cls-29" d="M1755.05,443.35c-10.06,62.89-35.11,195.94-35.11,195.94" transform="translate(0 0)"/>
    </g>
    <g id="from_waterfall_garden" data-name="from waterfall garden">
      <path id="waterfall_garden_to_memory_garden" data-name="waterfall garden to memory garden" class="cls-29" d="M827,704.38V676.45c0-4.24,2.58-8.3,6.67-9.43,75.93-20.91,275.1-102.49,378.32-98.32,41.69,1.69,117.68,7.74,167.48,20.26,98.44,24.75,322.94,104.51,344.69,34.79,11.86-38,32-207.66,45.25-271.56a16.73,16.73,0,0,0-13-19.77l-.4-.08c-70.46-12.95-104.22-44.72-145.1-49.11-39.91-4.29-91.66-.19-143.57.58-102.56,1.52-276.37,51.24-381.47,44.65,0,0-24.74-3.41-52.6-18.18-20.8,31-82,86.09-163.38,55.19-47.61,65.25-124.9,83.1-188.41,45.85C658,397.56,605.7,371.74,559.13,358.61c-49.23-13.87-87-19.1-112.8-19.24l-125.43.73" transform="translate(0 0)"/>
      <path id="waterfall_garden_to_daylily" data-name="waterfall garden to daylily" class="cls-29" d="M827.13,704.59V676.67a9.84,9.84,0,0,1,6.67-9.43C904.93,644.41,1115,567.56,1206,569c66.94,1,125.89,8.57,176.31,20.58,109.74,26.15,320.28,104.15,342,34.44,11.86-38,32-207.66,45.25-271.57a16.73,16.73,0,0,0-13-19.76l-.42-.08c-70.43-12.95-104.18-44.68-145-49.12-39.91-4.28-143.57.59-143.57.59a8,8,0,0,1-8.16-7.84v-3.31" transform="translate(0 0)"/>
      <path id="waterfall_garden_to_bridge" data-name="waterfall garden to bridge" class="cls-29" d="M827.13,704.59V676.67c0-4.24,2.57-8.34,6.67-9.43,62.6-16.63,252.93-91.67,355.52-96.65,43-2.08,108.67,2.27,169.58,13.9,110.81,21.15,346.79,110.1,365.39,39.48,5.74-21.8,16.07-88.59,26.12-151.47" transform="translate(0 0)"/>
      <path id="waterfall_garden_to_peony" data-name="waterfall garden to peony" class="cls-29" d="M827.13,704.59V676.67c0-4.24,2.55-8.4,6.67-9.43C899.86,650.61,1089.28,571,1200,569c26.32-.48,103.92,1.52,150.65,12.9,4.78,1.16,8.44,5,8.44,9.88V871.88" transform="translate(0 0)"/>
      <path id="waterfall_garden_to_bike_path" data-name="waterfall garden to bike path" class="cls-29" d="M827.13,704.59V676.67a9.65,9.65,0,0,1,6.67-9.43c72.57-20.49,264.65-97.58,372.37-98,36.2-.16,96.7,5.14,146.34,13.93,112.35,19.86,199,70.41,333.17,64.59" transform="translate(0 0)"/>
    </g>
    <g id="from_peony" data-name="from peony">
      <path id="peony_to_memory_garden" data-name="peony to memory garden" class="cls-29" d="M1359.13,871.88V604.51a14.94,14.94,0,0,1,14.87-15,14.13,14.13,0,0,1,2.75.24c118,22.43,326.7,100.24,347.36,34,11.86-38,32-207.67,45.26-271.57a16.76,16.76,0,0,0-13-19.77l-.38-.07c-70.46-12.95-104.22-44.72-145.1-49.11-39.91-4.29-91.66-.19-143.57.58-102.56,1.52-276.37,51.24-381.47,44.65,0,0-24.74-3.41-52.6-18.18-20.8,31-82,86.09-163.38,55.19-47.61,65.25-124.9,83.1-188.41,45.85C658,397.55,605.7,371.73,559.13,358.6c-49.23-13.87-87-19.1-112.8-19.24l-125.43.73" transform="translate(0 0)"/>
      <path id="peony_to_daylily" data-name="peony to daylily" class="cls-29" d="M1359.13,871.88l-.19-266c0-10.45,9.74-17.26,20-15.28,109.94,21.13,322.11,101.28,345.35,33.37,11.7-34.12,36.18-211.91,45.25-271.56,1.4-9.2-4.52-18.21-13.67-19.9-70.29-13-104-44.68-144.85-49.07-39.91-4.28-143.57.59-143.57.59a8,8,0,0,1-8.16-7.84v-3.31" transform="translate(0 0)"/>
      <path id="peony_to_bridge" data-name="peony to bridge" class="cls-29" d="M1359.13,871.88l-.32-266c0-10.45,9.75-17.26,20-15.28,109.93,21.17,323.07,101.27,346.34,33.41,11.7-34.12,17.75-86.4,26.82-146" transform="translate(0 0)"/>
      <path id="peony_to_waterfall_garden" data-name="peony to waterfall garden" class="cls-29" d="M1359.13,871.88V591.75c0-4.92-3.66-8.72-8.44-9.88C1304,570.49,1226.36,568.49,1200,569c-110.76,2-300.18,81.64-366.24,98.27-4.12,1-6.67,5.19-6.67,9.43v27.92" transform="translate(0 0)"/>
      <path id="peony_to_bike_path" data-name="peony to bike path" class="cls-29" d="M1359.13,871.88l-.32-266c0-10.45,9.75-17.26,20-15.28,109.93,21.17,188.16,62.77,306.86,57.16" transform="translate(0 0)"/>
    </g>
    <g id="from_bike_path" data-name="from bike path">
      <path id="bike_path_to_memory_garden" data-name="bike path to memory garden" class="cls-29" d="M1723.7,639.52l45.66-287.33a16.73,16.73,0,0,0-13-19.77l-.4-.08c-70.46-12.95-104.22-44.72-145.1-49.11-39.91-4.29-91.66-.19-143.57.58-102.56,1.52-276.37,51.24-381.47,44.65,0,0-24.74-3.41-52.6-18.18-20.8,31-82,86.09-163.38,55.19-47.61,65.25-124.9,83.1-188.41,45.85C658,397.56,605.7,371.74,559.13,358.61c-49.23-13.87-87-19.1-112.8-19.24l-125.43.73" transform="translate(0 0)"/>
      <path id="bike_path_to_daylily" data-name="bike path to daylily" class="cls-29" d="M1723.7,639.52l45.84-287.11c1.4-9.2-4.52-18.21-13.67-19.9-70.29-13-104-44.68-144.85-49.07-39.91-4.28-143.57.59-143.57.59a8,8,0,0,1-8.16-7.84v-3.31" transform="translate(0 0)"/>
      <path id="bike_path_to_bridge" data-name="bike path to bridge" class="cls-29" d="M1720,639.29s25-133,35.11-195.94" transform="translate(0 0)"/>
      <path id="bike_path_to_waterfall_garden" data-name="bike path to waterfall garden" class="cls-29" d="M1685.68,647.72c-134.19,5.82-220.82-44.73-333.17-64.59-49.64-8.79-110.14-14.09-146.34-13.93-107.72.46-299.8,77.55-372.37,98a9.65,9.65,0,0,0-6.67,9.43v27.92" transform="translate(0 0)"/>
      <path id="bike_path_to_peony" data-name="bike path to peony" class="cls-29" d="M1685.68,647.72c-118.7,5.61-196.93-36-306.86-57.16-10.26-2-20,4.83-20,15.28l.32,266.07" transform="translate(0 0)"/>
    </g>
  </g>
  <g id="entry_points" data-name="entry points">
    <g id="gate_04" data-name="gate 04">
      <rect class="cls-30" x="1745.05" y="71.88" width="8" height="34" rx="1.31"/>
      <rect class="cls-30" x="1798.05" y="71.88" width="8" height="34" rx="1.31"/>
      <path class="cls-30" d="M1787.28,68.63c-1.08-.2-2.17-.34-3.27-.46v.71a9,9,0,0,1-18,.09c-.81.14-1.61.29-2.37.44a79.36,79.36,0,0,0-9.59,2.47v15c22-7,43,0,43,0v-15A33.36,33.36,0,0,0,1787.28,68.63Z" transform="translate(0 0)"/>
      <path class="cls-30" d="M1775.11,60.88a8,8,0,1,0,8,8A8,8,0,0,0,1775.11,60.88ZM1779,73a1.3,1.3,0,0,1-.33.07h-1.57a1,1,0,0,0-1,1v.6a1,1,0,1,1-1.91,0v-.6a1,1,0,0,0-1-1h-1.55a1,1,0,0,1-.79-.44,1,1,0,0,1-.1-.91l3.56-8.81a1,1,0,0,1,.88-.61h0a1,1,0,0,1,.88.62l3.46,8.82A1,1,0,0,1,1779,73Z" transform="translate(0 0)"/>
    </g>
    <g id="gate_03" data-name="gate 03">
      <rect class="cls-30" x="1027.05" y="73.88" width="8" height="34" rx="1.31"/>
      <rect class="cls-30" x="1080.05" y="73.88" width="8" height="34" rx="1.31"/>
      <path class="cls-30" d="M1069.28,70.63c-1.08-.2-2.17-.34-3.27-.46v.71a9,9,0,0,1-18,.09c-.81.14-1.61.29-2.37.44a79.36,79.36,0,0,0-9.59,2.47v15c22-7,43,0,43,0v-15A33.36,33.36,0,0,0,1069.28,70.63Z" transform="translate(0 0)"/>
      <path class="cls-30" d="M1057.11,62.88a8,8,0,1,0,8,8A8,8,0,0,0,1057.11,62.88ZM1061,75a1.3,1.3,0,0,1-.33.07h-1.57a1,1,0,0,0-1,1v.6a1,1,0,1,1-1.91,0v-.6a1,1,0,0,0-1-1h-1.55a1,1,0,0,1-.79-.44,1,1,0,0,1-.1-.91l3.56-8.81a1,1,0,0,1,.88-.61h0a1,1,0,0,1,.88.62l3.46,8.82A1,1,0,0,1,1061,75Z" transform="translate(0 0)"/>
    </g>
    <g id="gate_02" data-name="gate 02">
      <rect class="cls-30" x="550.05" y="66.88" width="8" height="34" rx="1.31"/>
      <rect class="cls-30" x="603.05" y="66.88" width="8" height="34" rx="1.31"/>
      <path class="cls-30" d="M592.28,63.63c-1.08-.2-2.17-.34-3.27-.46v.71A9,9,0,0,1,571,64h0c-.81.14-1.61.29-2.37.44a79.36,79.36,0,0,0-9.59,2.47v15c22-7,43,0,43,0v-15A33.36,33.36,0,0,0,592.28,63.63Z" transform="translate(0 0)"/>
      <path class="cls-30" d="M580.11,55.88a8,8,0,1,0,8,8A8,8,0,0,0,580.11,55.88ZM584,68a1.3,1.3,0,0,1-.33.07h-1.57a1,1,0,0,0-1,1v.6a1,1,0,1,1-1.91,0v-.6a1,1,0,0,0-1-1h-1.55a1,1,0,0,1-.79-.44,1,1,0,0,1-.1-.91l3.56-8.81a1,1,0,0,1,.88-.61h0A1,1,0,0,1,581,58l3.46,8.82A1,1,0,0,1,584,68Z" transform="translate(0 0)"/>
    </g>
    <g id="gate_01" data-name="gate 01">
      <rect class="cls-30" x="95.05" y="933.88" width="8" height="34" rx="1.31"/>
      <rect class="cls-30" x="148.05" y="933.88" width="8" height="34" rx="1.31"/>
      <path class="cls-30" d="M137.28,930.63c-1.08-.2-2.17-.34-3.27-.46v.71a9,9,0,0,1-18,.09h0c-.81.14-1.61.29-2.37.44a79.36,79.36,0,0,0-9.59,2.47v15c22-7,43,0,43,0v-15A33.36,33.36,0,0,0,137.28,930.63Z" transform="translate(0 0)"/>
      <path class="cls-30" d="M125.11,922.88a8,8,0,1,0,8,8A8,8,0,0,0,125.11,922.88ZM129,935a1.3,1.3,0,0,1-.33.07h-1.57a1,1,0,0,0-1,1v.6a1,1,0,1,1-1.91,0v-.6a1,1,0,0,0-1-1h-1.55a1,1,0,0,1-.79-.44,1,1,0,0,1-.1-.91l3.56-8.81a1,1,0,0,1,.88-.61h0a1,1,0,0,1,.88.62l3.46,8.82A1,1,0,0,1,129,935Z" transform="translate(0 0)"/>
    </g>
  </g>
  <g id="gazebo">
    <circle class="cls-6" cx="1358.9" cy="687.65" r="33.41"/>
    <g id="gazebo_icon" data-name="gazebo icon">
      <polygon class="cls-22" points="1345.77 702.48 1345.77 700.09 1344.31 700.09 1344.31 682 1345.07 682 1345.07 679.75 1340.46 679.75 1340.46 682 1341.28 682 1341.28 700.09 1341.16 700.09 1339.7 700.09 1339.7 702.48 1341.16 702.48 1341.28 702.48 1341.28 706.35 1341.16 706.35 1339.7 706.35 1339.7 707.89 1341.16 707.89 1344.31 707.89 1345.77 707.89 1345.77 706.35 1344.31 706.35 1344.31 702.48 1345.77 702.48"/>
      <polygon class="cls-22" points="1354.18 702.48 1354.18 700.09 1352.72 700.09 1352.72 682 1353.48 682 1353.48 679.75 1348.87 679.75 1348.87 682 1349.69 682 1349.69 700.09 1349.56 700.09 1348.11 700.09 1348.11 702.48 1349.56 702.48 1349.69 702.48 1349.69 706.35 1349.56 706.35 1348.11 706.35 1348.11 707.89 1349.56 707.89 1352.72 707.89 1354.18 707.89 1354.18 706.35 1352.72 706.35 1352.72 702.48 1354.18 702.48"/>
      <polygon class="cls-22" points="1370.08 702.48 1370.08 700.09 1368.63 700.09 1368.63 682 1369.38 682 1369.38 679.75 1364.77 679.75 1364.77 682 1365.6 682 1365.6 700.09 1365.47 700.09 1364.02 700.09 1364.02 702.48 1365.47 702.48 1365.6 702.48 1365.6 706.35 1365.47 706.35 1364.02 706.35 1364.02 707.89 1365.47 707.89 1368.63 707.89 1370.08 707.89 1370.08 706.35 1368.63 706.35 1368.63 702.48 1370.08 702.48"/>
      <polygon class="cls-22" points="1378.49 702.48 1378.49 700.09 1377.04 700.09 1377.04 682 1377.79 682 1377.79 679.75 1373.18 679.75 1373.18 682 1374.01 682 1374.01 700.09 1373.88 700.09 1372.42 700.09 1372.42 702.48 1373.88 702.48 1374.01 702.48 1374.01 706.35 1373.88 706.35 1372.42 706.35 1372.42 707.89 1373.88 707.89 1377.04 707.89 1378.49 707.89 1378.49 706.35 1377.04 706.35 1377.04 702.48 1378.49 702.48"/>
      <path class="cls-31" d="M1359.26,663a16.75,16.75,0,0,0-16.75,16.75h33.54A16.75,16.75,0,0,0,1359.3,663Z" transform="translate(0 0)"/>
      <path class="cls-31" d="M1359.26,663c-6.53,0-13.49,9.9-13.49,16.78h27C1372.75,672.88,1365.79,663,1359.26,663Z" transform="translate(0 0)"/>
      <path class="cls-31" d="M1359.26,663c-5.06,0-8,9.9-8,16.77h16.06C1367.29,672.88,1364.32,663,1359.26,663Z" transform="translate(0 0)"/>
      <polygon class="cls-22" points="1359.71 660.71 1359.25 657.17 1359.25 657.17 1358.8 660.71 1358.34 660.71 1358.34 679.75 1360.17 679.75 1360.17 660.71 1359.71 660.71"/>
      <rect class="cls-22" x="1343.62" y="672.77" width="31.26" height="1.83"/>
      <rect class="cls-22" x="1347.14" y="667.54" width="24.23" height="1.83"/>
    </g>
  </g>
  <g id="streets">
    <g id="street">
      <path class="cls-6" d="M1875.05,45.88v990H45.05v-990h1830m45-45H.05v1080h1920Z" transform="translate(0 0)"/>
    </g>
    <g id="street_names_text" data-name="street names text">
      <text id="arena_st" data-name="arena st" class="cls-32" transform="translate(915.07 1061.94)">Arena St</text>
      <text id="kaiser_cr" data-name="kaiser cr" class="cls-32" transform="translate(912.12 32.16)">Kaiser Cr</text>
      <g id="adelaide_awe_w" data-name="adelaide awe w">
        <text class="cls-32" transform="translate(33.24 623.89) rotate(-90)">Adelaide Ave W</text>
      </g>
      <g id="bond_st_w" data-name="bond st w">
        <text class="cls-32" transform="translate(1903.79 593.99) rotate(-90)">Bond St W</text>
      </g>
    </g>
  </g>
  <g id="icons">
    <g id="compass">
      <g id="Compass-2">
        <path class="cls-22" d="M272.24,956.32l6-11.34-11.34,6,1,4.32Z" transform="translate(0 0)"/>
        <path class="cls-22" d="M246,956.32l4.31-1,1-4.32L240,945Z" transform="translate(0 0)"/>
        <path class="cls-22" d="M246,971.88l-6,11.33,11.33-6-1-4.32Z" transform="translate(0 0)"/>
        <path class="cls-22" d="M272.24,971.88l-4.31,1-1,4.32,11.34,6Z" transform="translate(0 0)"/>
        <path class="cls-22" d="M261,964.11l6.26,6.26,26.3-6.26-26.3-6.23Z" transform="translate(0 0)"/>
        <path class="cls-22" d="M265.37,956l-6.26-26.3L252.84,956l6.27,6.26Z" transform="translate(0 0)"/>
        <path class="cls-33" d="M257.23,964.11,251,957.88l-26.3,6.26L251,970.4Z" transform="translate(0 0)"/>
        <path class="cls-22" d="M252.84,972.25l6.27,26.3,6.26-26.3L259.11,966Z" transform="translate(0 0)"/>
      </g>
      <g id="north">
        <path class="cls-22" d="M215.44,959.07l4.87,6.11v-4.24a2,2,0,0,0-.26-1.2,1.38,1.38,0,0,0-1.17-.4v-.27h3.26v.27a2.71,2.71,0,0,0-.84.2.86.86,0,0,0-.33.42,2.81,2.81,0,0,0-.12,1v8.22h-.25L213.93,961v6.27a1.4,1.4,0,0,0,.39,1.15,1.43,1.43,0,0,0,.89.3h.23V969h-3.5v-.27a1.21,1.21,0,0,0,1.46-1.45v-7l-.21-.26a2,2,0,0,0-.56-.52,1.8,1.8,0,0,0-.69-.13v-.27Z" transform="translate(0 0)"/>
      </g>
      <g id="south">
        <path class="cls-22" d="M303.43,959l.08,3.29h-.3a3.34,3.34,0,0,0-1-2,2.62,2.62,0,0,0-1.79-.75,1.71,1.71,0,0,0-1.17.39,1.25,1.25,0,0,0-.44.92,1.08,1.08,0,0,0,.16.58,2.38,2.38,0,0,0,.67.67,16.1,16.1,0,0,0,1.58.86,6.93,6.93,0,0,1,2.33,1.6,2.72,2.72,0,0,1,.6,1.73,2.79,2.79,0,0,1-1,2.13,3.41,3.41,0,0,1-2.45.89,4.31,4.31,0,0,1-.88-.09,6,6,0,0,1-1-.36,1.45,1.45,0,0,0-.58-.14.74.74,0,0,0-.4.14,1.08,1.08,0,0,0-.34.45h-.27v-3.73h.27a4.36,4.36,0,0,0,1.24,2.4,2.82,2.82,0,0,0,2,.82,1.82,1.82,0,0,0,1.3-.44,1.33,1.33,0,0,0,.3-1.71,2,2,0,0,0-.56-.62,9.32,9.32,0,0,0-1.34-.77,11.41,11.41,0,0,1-1.94-1.13,3.44,3.44,0,0,1-.9-1,2.7,2.7,0,0,1,.55-3.26,3,3,0,0,1,2.18-.83,3.65,3.65,0,0,1,.93.12,4,4,0,0,1,.83.32,2.1,2.1,0,0,0,.69.24.39.39,0,0,0,.3-.12,1.26,1.26,0,0,0,.2-.56Z" transform="translate(0 0)"/>
      </g>
      <g id="west">
        <path class="cls-22" d="M266.42,1002.35v.27a.87.87,0,0,0-.46.15,1.19,1.19,0,0,0-.34.4c0,.06-.18.43-.45,1.13l-3.1,8.14h-.28l-2.44-6.36-2.7,6.36h-.26l-3.25-8.06a7.8,7.8,0,0,0-.69-1.46.89.89,0,0,0-.66-.3v-.27h4.26v.27a1.19,1.19,0,0,0-.69.15.46.46,0,0,0-.17.36,4.38,4.38,0,0,0,.35,1.17l1.94,4.78,1.55-3.74-.41-1a7,7,0,0,0-.52-1.15,1.15,1.15,0,0,0-.41-.41,1.67,1.67,0,0,0-.7-.12v-.27h4.78v.27a2.49,2.49,0,0,0-.72.08.46.46,0,0,0-.24.17.44.44,0,0,0-.09.27,5.86,5.86,0,0,0,.33,1l1.8,4.67,1.6-4.23c.17-.44.28-.73.32-.89a1.74,1.74,0,0,0,.06-.45.58.58,0,0,0-.21-.47,1.34,1.34,0,0,0-.78-.18v-.27Z" transform="translate(0 0)"/>
      </g>
      <g id="east">
        <path class="cls-22" d="M258.38,917.3v4h.2a1.59,1.59,0,0,0,1.36-.59,3.7,3.7,0,0,0,.54-1.74h.27v5.16h-.27a3.87,3.87,0,0,0-.37-1.38,1.52,1.52,0,0,0-.65-.72,2.49,2.49,0,0,0-1.08-.19v2.78a4.81,4.81,0,0,0,.07,1,.59.59,0,0,0,.26.3,1.41,1.41,0,0,0,.61.11h.59a3.18,3.18,0,0,0,3.41-2.59h.27l-.44,3.14h-8.53v-.27H255a1.37,1.37,0,0,0,.69-.15.67.67,0,0,0,.29-.35,2.94,2.94,0,0,0,.12-.93v-6.49a3.75,3.75,0,0,0,0-.82.62.62,0,0,0-.26-.39A1.27,1.27,0,0,0,255,917h-.33v-.26H263v2.91h-.28a3.68,3.68,0,0,0-.59-1.53,2.26,2.26,0,0,0-1.08-.69,6.05,6.05,0,0,0-1.53-.13Z" transform="translate(0 0)"/>
      </g>
    </g>
    <g id="arena_icon" data-name="arena icon">
      <circle class="cls-34" cx="817.85" cy="972.46" r="21.4"/>
      <g id="player">
        <g>
          <path class="cls-6" d="M817.47,981.13l-.23.45a1.16,1.16,0,0,0,.53,1.55,1,1,0,0,0,.6.12,1.18,1.18,0,0,0,1-.65l.34-.68-2.16-.77Z" transform="translate(0 0)"/>
          <path class="cls-6" d="M809.33,980.33l-.57.4a1.17,1.17,0,0,0,1.19,2l.15-.1.65-.45-1.41-1.84Z" transform="translate(0 0)"/>
          <path class="cls-6" d="M811.52,966.66h0l2.09-1-.13-.25a1.2,1.2,0,0,0-1.54-.6,1.17,1.17,0,0,0-.62.67,1.14,1.14,0,0,0,.06.92Z" transform="translate(0 0)"/>
          <path class="cls-6" d="M817.91,962.65c-2.29.2-2.07,2.3-1.8,3.39a.78.78,0,0,0,.82.59l1.12-.1a.58.58,0,0,0,.53-.63h0a.58.58,0,0,1,.53-.63h0l1.63-.14c.26,0,.29-.28.32-.54C821.13,963.93,820.61,962.41,817.91,962.65Z" transform="translate(0 0)"/>
          <path class="cls-6" d="M819.35,966a1.34,1.34,0,0,1-1.23,1.27l-1.23.11a2.33,2.33,0,0,0,4.45-1.16,2.46,2.46,0,0,0-.1-.47,1.16,1.16,0,0,1-.44.12Z" transform="translate(0 0)"/>
          <path class="cls-6" d="M825.61,967.08l-.3-2.31a1.17,1.17,0,0,1,.38-1l2.16-1.9.13-.12a1,1,0,0,0,.3-.76,1,1,0,0,0-.4-.72,1.36,1.36,0,0,0-1.87.11l-2.12,1.88a1.13,1.13,0,0,0-.37,1.08l.67,3.65h0a1.33,1.33,0,0,0-.3.23l-.18.2,1.78,1.49h0l-.53.57L823.19,968l-1.39,1.53a.75.75,0,0,1-.89.18,8.74,8.74,0,0,0-1-.41l-3.22-1.14a3,3,0,0,0-1.46-.15h-.17a.41.41,0,0,1-.4-.2l-.74-1.46-2.09,1,1,1.95a2,2,0,0,0,2,1l.56-.09-1.73,6.6a1.29,1.29,0,0,1-.54.77L810,979.88l1.4,1.84h0l3.69-2.58a1.88,1.88,0,0,0,.55-.64l.26-.54a.78.78,0,0,1,1-.36l1.15.57a.88.88,0,0,1,.4.45.78.78,0,0,1,0,.6l-.61,1.19,2.21.79.86-1.64a2.32,2.32,0,0,0-1-3.11h0l-1.82-.9a.79.79,0,0,1-.4-.46.81.81,0,0,1,.06-.61l1.65-3,1,.52a2.35,2.35,0,0,0,2.79-.49l1.6-1.75,1.54,8.27a.37.37,0,0,0,.42.31h0a.39.39,0,0,0,.39-.39s0-.05,0-.07l-1.21-9.37a1.16,1.16,0,0,0-.25-1.52" transform="translate(0 0)"/>
        </g>
      </g>
      <line id="line1" class="cls-35" x1="806.71" y1="984.83" x2="829.09" y2="984.82"/>
      <line id="line2" class="cls-35" x1="809.49" y1="986.25" x2="826.11" y2="986.29"/>
    </g>
    <g id="parking_icon" data-name="parking icon">
      <circle class="cls-34" cx="1282.75" cy="973.6" r="21.4"/>
      <g id="P">
        <path class="cls-6" d="M1281.24,987h-6.83V960.67h10.88c3,0,5.21.76,6.78,2.3a10.12,10.12,0,0,1,0,13q-2.35,2.29-6.78,2.3h-4Zm0-14.22h2.27q3.77,0,3.76-3.28c0-2.18-1.25-3.28-3.76-3.28h-2.27Z" transform="translate(0 0)"/>
      </g>
    </g>
    <g id="bike_path_icon" data-name="bike path icon">
      <g id="pin">
        <path class="cls-36" d="M1518.63,514.5a40.77,40.77,0,1,0-42.06,40.74v56.24l1.29,2.23,1.28-2.23V555.24A40.78,40.78,0,0,0,1518.63,514.5Z" transform="translate(0 0)"/>
        <circle class="cls-6" cx="1477.85" cy="514.51" r="38.76"/>
      </g>
      <g id="Bike">
        <path class="cls-37" d="M1465.92,520.15a8.64,8.64,0,1,0,8.64,8.64h0a8.63,8.63,0,0,0-8.63-8.63Zm0,16.41a7.78,7.78,0,1,1,7.79-7.78,7.78,7.78,0,0,1-7.79,7.78Z" transform="translate(0 0)"/>
        <circle class="cls-22" cx="1465.89" cy="529.18" r="1.04"/>
        <path class="cls-37" d="M1492.32,518.13a8.64,8.64,0,1,0,8.64,8.64,8.64,8.64,0,0,0-8.64-8.64Zm0,16.42a7.78,7.78,0,1,1,7.78-7.78,7.78,7.78,0,0,1-7.78,7.78Z" transform="translate(0 0)"/>
        <circle class="cls-22" cx="1492.32" cy="526.77" r="1.04"/>
        <polygon class="cls-37" points="1466.08 529.18 1478.8 528.25 1484.99 514.02 1471.84 515.02 1466.08 529.18"/>
        <line class="cls-37" x1="1478.8" y1="528.24" x2="1470.84" y2="513.01"/>
        <line class="cls-37" x1="1484.38" y1="511.36" x2="1492.35" y2="527.2"/>
        <path class="cls-38" d="M1484.42,511.48l6.1-.46a2.24,2.24,0,0,1,.73,0,1.73,1.73,0,0,1,1,.86,1,1,0,0,1,.24.55.9.9,0,0,1-.61.73,3.4,3.4,0,0,1-1.09.21" transform="translate(0 0)"/>
        <path class="cls-38" d="M1488.42,511.17l2-.15a2.24,2.24,0,0,1,.73,0,1.73,1.73,0,0,1,1,.86,1.14,1.14,0,0,1,.24.55.9.9,0,0,1-.61.73,3.41,3.41,0,0,1-1.1.21" transform="translate(0 0)"/>
        <circle cx="1478.8" cy="528.24" r="1.07"/>
        <circle class="cls-22" cx="1479.01" cy="492.78" r="4.64"/>
        <path class="cls-22" d="M1487.59,509l-5.39-2.15-3.7-7.28h0a1.38,1.38,0,0,0-.59-.58,2.73,2.73,0,0,0-.93-.79L1474.7,497a3,3,0,0,0-4,1.19l-5.65,10.38v.09l-.09.14-.25.45a2.16,2.16,0,0,0,.86,2.93h0l.62.34.08,0,2.28,1.23h.08l5.79,3.13a2.33,2.33,0,0,0,.33.14l2.46,11.74a1.23,1.23,0,0,0,1.45,1l1.16-.25a1.23,1.23,0,0,0,1-1.42v0l-2.91-13.86a3,3,0,0,0-1.08-1.54l-3.27-1.77,4-7.3,2.38,4.68h0a1.4,1.4,0,0,0,.54.54,1.22,1.22,0,0,0,.71.76l5.49,2.2h0a1.23,1.23,0,0,0,1.58-.71l.18-.48A1.28,1.28,0,0,0,1487.59,509Z" transform="translate(0 0)"/>
      </g>
      <line id="line1-2" class="cls-39" x1="1456.03" y1="540.44" x2="1501.6" y2="537.39"/>
      <line id="line2-2" class="cls-39" x1="1461.92" y1="543.04" x2="1495.71" y2="540.78"/>
      <line id="line3" class="cls-39" x1="1465.46" y1="545.63" x2="1492.96" y2="543.8"/>
    </g>
    <g id="peony_icon" data-name="peony icon">
      <g id="pin-2">
        <path class="cls-36" d="M1548.28,751.88a40.81,40.81,0,1,0-42.09,40.77v56.23l1.28,2.23,1.29-2.23V792.61A40.8,40.8,0,0,0,1548.28,751.88Z" transform="translate(0 0)"/>
        <circle class="cls-6" cx="1507.51" cy="751.79" r="38.79"/>
      </g>
      <g id="peony">
        <path class="cls-22" d="M1524.4,733.8l-.21,4.64a6.4,6.4,0,0,0,4.23,6.3l4.36,1.59a6.38,6.38,0,0,1,.78,11.69l-4.12,2.16a6.44,6.44,0,0,0-3.31,6.7l.81,4.58a6.42,6.42,0,0,1-9.76,6.52l-3.93-2.48a6.36,6.36,0,0,0-7.54.52l-3.58,3a6.39,6.39,0,0,1-10.51-5.18l.19-4.66a6.39,6.39,0,0,0-4.23-6.27l-4.36-1.4a6.41,6.41,0,0,1-.78-11.72l4.12-2.16a6.42,6.42,0,0,0,3.28-6.87l-.83-4.58a6.41,6.41,0,0,1,9.75-6.54l3.93,2.5a6.41,6.41,0,0,0,7.54-.51l3.64-3a6.41,6.41,0,0,1,10.53,5.17Z" transform="translate(0 0)"/>
        <path class="cls-6" d="M1524.13,749h0a5.85,5.85,0,0,0,.73,6.87h0a5.84,5.84,0,0,1-4.52,9.69h0a5.9,5.9,0,0,0-5.82,4h0a5.85,5.85,0,0,1-10.78.94h0a5.84,5.84,0,0,0-6.25-2.94h0a5.84,5.84,0,0,1-6.78-4.72h0a5.77,5.77,0,0,1,.75-4.06h0a5.84,5.84,0,0,0-.59-6.87h0a5.87,5.87,0,0,1,4.52-9.72h0a5.88,5.88,0,0,0,5.69-4h0a5.84,5.84,0,0,1,10.77-.92h0a5.84,5.84,0,0,0,6.25,2.94h0a5.84,5.84,0,0,1,6,8.73Z" transform="translate(0 0)"/>
        <path class="cls-40" d="M1519.93,750.72h0a4.31,4.31,0,0,0,.43,5.07h0a4.27,4.27,0,0,1-.38,6,4.33,4.33,0,0,1-2.93,1.09h0a4.37,4.37,0,0,0-4.18,2.91h0a4.3,4.3,0,0,1-5.46,2.67h0a4.27,4.27,0,0,1-2.36-2h0a4.27,4.27,0,0,0-4.58-2.16h0a4.31,4.31,0,0,1-4.53-6.44h0a4.28,4.28,0,0,0-.43-5.06h0a4.31,4.31,0,0,1,3.34-7.14h0a4.25,4.25,0,0,0,4.15-2.91h0a4.31,4.31,0,0,1,7.84-.67h0a4.3,4.3,0,0,0,4.6,2.15h0a4.28,4.28,0,0,1,4.5,6.44Z" transform="translate(0 0)"/>
        <circle class="cls-40" cx="1508.1" cy="754.36" r="4.98"/>
      </g>
    </g>
    <g id="water_feature_icon" data-name="water feature icon">
      <g id="pin-3">
        <path class="cls-36" d="M804.73,666.49a40.8,40.8,0,1,0-42.08,40.77v56.29l1.28,2.23,1.28-2.23V707.26A40.8,40.8,0,0,0,804.73,666.49Z" transform="translate(0 0)"/>
        <circle class="cls-6" cx="763.93" cy="666.5" r="38.79"/>
      </g>
      <g id="water_drop" data-name="water drop">
        <g id="park_map" data-name="park map">
          <g id="water_feature_icon-2" data-name="water feature icon-2">
            <path id="droplet" class="cls-22" d="M764.55,635.37l-16.21,32.41c-6.06,12.13,2.36,27,15.88,27.12h.63c13.52-.15,22-15,15.89-27.12Z" transform="translate(0 0)"/>
          </g>
        </g>
      </g>
      <g id="fountain">
        <ellipse class="cls-6" cx="764.53" cy="678.99" rx="13" ry="3.44"/>
        <ellipse class="cls-6" cx="764.53" cy="684.23" rx="7.9" ry="1.72"/>
        <ellipse class="cls-6" cx="764.53" cy="687.69" rx="5" ry="1.72"/>
        <g>
          <path class="cls-6" d="M764.54,677.05c-.31-3.2-1.5-9.54-5.89-12.62a1.88,1.88,0,0,1-1-2.28c.63-2.26,4.49-5.14,6.88-5.14,2.16,0,5.88,2.34,6.72,4.74a2.21,2.21,0,0,1-.77,2.68C766.12,667.51,764.89,673.88,764.54,677.05Z" transform="translate(0 0)"/>
          <path class="cls-22" d="M764.58,657.13c2.12,0,5.78,2.31,6.6,4.66a2.09,2.09,0,0,1-.71,2.53c-3.18,2.22-4.69,6.09-5.4,8.94a27.17,27.17,0,0,0-.52,2.69c-.11-.8-.27-1.72-.5-2.68-.69-2.86-2.17-6.73-5.35-9a1.75,1.75,0,0,1-.88-2.12c.62-2.22,4.41-5.06,6.76-5.06m0-.25c-3.31,0-9.64,5.47-6,7.65,6,4.2,6,14.44,6,14.46s0-10.26,6.07-14.46c3.35-2.68-2.72-7.65-6-7.65Z" transform="translate(0 0)"/>
        </g>
      </g>
    </g>
    <g id="bridge_icon" data-name="bridge icon">
      <g id="pin-4">
        <path class="cls-36" d="M1789.64,386.32a40.8,40.8,0,1,0-42.08,40.77v56.29l1.28,2.23,1.28-2.23V427.09A40.8,40.8,0,0,0,1789.64,386.32Z" transform="translate(0 0)"/>
        <circle class="cls-6" cx="1748.84" cy="386.33" r="38.79"/>
      </g>
      <g id="bridge-2">
        <path class="cls-22" d="M1748.84,376.73c-10.22,0-19.93,3.11-26.28,7.27V399a1,1,0,0,0,1,1h9a1,1,0,0,0,1-1v-.7a15.17,15.17,0,1,1,30.34-.14h0V399a1,1,0,0,0,1,1h9a1,1,0,0,0,1-1V384C1768.7,379.78,1759,376.73,1748.84,376.73Z" transform="translate(0 0)"/>
        <path class="cls-22" d="M1773.57,372.16a1.56,1.56,0,0,0-1.54,1.55v.17a44.63,44.63,0,0,0-8.09-3.5v-1.7a1.55,1.55,0,0,0-3.1,0v.82a49.09,49.09,0,0,0-10.45-1.45v-1.17a1.55,1.55,0,0,0-3.1,0v1.22a49.09,49.09,0,0,0-10.45,1.45v-.82a1.55,1.55,0,0,0-3.1,0v1.7a44.94,44.94,0,0,0-8.09,3.5v-.17a1.55,1.55,0,0,0-3.09-.25,1,1,0,0,0,0,.25v8.69c1-.58,2.08-1.13,3.09-1.61v-3.29a37.8,37.8,0,0,1,8.09-3.86v4.12c1.06-.3,2.06-.55,3.1-.78v-4.29a45.59,45.59,0,0,1,10.45-1.55v4.55h3.1v-4.55a45.59,45.59,0,0,1,10.45,1.55V377c1,.23,2,.48,3.1.78v-4.12a38.51,38.51,0,0,1,8.09,3.86v3.29c1.09.52,2.12,1.06,3.09,1.61v-8.69a1.55,1.55,0,0,0-1.5-1.6Z" transform="translate(0 0)"/>
      </g>
      <path id="wave_1" data-name="wave 1" class="cls-41" d="M1769.26,404.88c-.11,5.33-13.59,5.33-13.59,0,0,5.33-13.62,5.33-13.62,0,0,5.33-13.44,5.38-13.44,0" transform="translate(0 0)"/>
      <path id="wave_2" data-name="wave 2" class="cls-41" d="M1764.84,411.32c-.09,4.19-10.7,4.19-10.7,0,0,4.19-10.72,4.19-10.72,0,0,4.19-10.58,4.23-10.58,0" transform="translate(0 0)"/>
    </g>
    <g id="daylily_icon" data-name="daylily icon">
      <g id="pin-5">
        <path class="cls-36" d="M1357.1,204.07a40.8,40.8,0,1,0-42,40.81v56.29l1.28,2.23,1.28-2.23V244.88A40.79,40.79,0,0,0,1357.1,204.07Z" transform="translate(0 0)"/>
        <circle class="cls-6" cx="1316.3" cy="204.08" r="38.79"/>
      </g>
      <path id="daylily_outside" data-name="daylily outside" class="cls-22" d="M1339.72,188.21c-1.25-1.62-8.38.34-16.07,4.81a.68.68,0,0,1-.92-.25.67.67,0,0,1-.09-.34c.31-8.75-.22-15.18-2.23-15.48s-5,5.59-7,14a.67.67,0,0,1-.8.51h0a.66.66,0,0,1-.34-.2c-6.1-6.43-11.18-10.15-12.78-8.95s.67,7,5.37,14.43a.66.66,0,0,1-.59,1c-9-.39-15.93.59-16.18,2.57s6.2,4.39,14.92,6.49a.67.67,0,0,1,.49.8v0a.57.57,0,0,1-.2.32c-6.56,5.87-11.48,10.91-10.23,12.5s8.39-.67,16-5.17a.67.67,0,0,1,.92.24h0a.68.68,0,0,1,.09.37c-.36,8.72-.45,15.15,1.56,15.46s5.59-5.59,7.72-14.17a.67.67,0,0,1,.8-.51h0a.66.66,0,0,1,.34.2c6,6.51,10.37,10.79,12,9.59s0-7.49-4.53-15a.67.67,0,0,1,.24-.92h0a.6.6,0,0,1,.37-.09c8.89.42,15.74-.14,16-2.1s-6.15-4.83-14.84-7a.64.64,0,0,1-.28-1.15C1336,194.5,1341,189.8,1339.72,188.21Z" transform="translate(0 0)"/>
      <path id="daylily_inside" data-name="daylily inside" class="cls-6" d="M1327.2,197.57c-9,4.87-7.77,2.07-3.69-7.6-4.25,9.53-7.07,11.52-6.37,1.87-1,9.62-3.8,7.24-11.71.28,7.66,7.08,9,10.32,1.31,4.73,7.85,5.59,7.77,5.59-.42.61,8.11,5.06,4.33,5.2-5.9,6.18,10.18-.7,13.28.25,4.34,3.13,9.56-2.49,9.56-2.43.44,1.51,8.89-3.75,6.57-1.7,0,6.32,6.77-7.8,10.18-8.67,7.47.84,3.1-9.68,3.13-9.65,1.78.5,1.54-9.81,3.16-7,3.42,3.24,0-10.28.33-11.77,6.48-5.45-5.37-7.69-3.35-6.62,3.58.59-6.71-7.47-9-9.9.86-7.07-10.11-3.11-10.25-3.11-.5-.79-9.75-2.32-9.5-2.4.84-1-10.06-1.56-7-2.48,3-1.87C1321.89,202.66,1320.21,202.44,1327.2,197.57Z" transform="translate(0 0)"/>
    </g>
  </g>
  <g id="memory_garden_circle" data-name="memory garden circle">
    <g id="trees_around_memory_garden" data-name="trees around memory garden">
      <path class="cls-42" d="M153.05,256.52c-1.33,3.87-1.76,8.3-.4,12.13a4,4,0,0,0,3.18,3.08,10.91,10.91,0,0,0,3.48.72c3.42,0,6.18-3.11,8.44-6.06,4-5.25,5.7-13.17-1.34-16.33C161.3,247.79,155,250.88,153.05,256.52Z" transform="translate(0 0)"/>
      <path class="cls-2" d="M157.3,254.4c-.16,2.76.36,4.9,2.34,6.44a7.07,7.07,0,0,0,4.29,1.45,13.24,13.24,0,0,0,5.23-.55c.39-.11.49.13,1-.21a2,2,0,0,0,.5-.59c2.31-3.64,2.55-8.42,2.56-12.89,0-2.27-.46-4.37-2.12-5.58a6,6,0,0,0-4.07-1c-3.27.47-5.13,3.23-6.72,4.87C158.26,248.43,157.38,253.16,157.3,254.4Z" transform="translate(0 0)"/>
      <path class="cls-42" d="M184.05,228.17c-1.32,3.87-1.76,8.31-.39,12.13a4,4,0,0,0,3.18,3.09,11.42,11.42,0,0,0,3.47.72c3.42,0,6.19-3.11,8.45-6.07,4-5.25,5.69-13.16-1.34-16.32C192.36,219.44,186.05,222.5,184.05,228.17Z" transform="translate(0 0)"/>
      <path class="cls-2" d="M188.36,226.06c-.16,2.75.35,4.89,2.34,6.43a6.94,6.94,0,0,0,4.29,1.45,13.23,13.23,0,0,0,5.23-.54c.38-.11.48.12,1-.22a2,2,0,0,0,.5-.59c2.3-3.64,2.55-8.42,2.56-12.89,0-2.27-.46-4.36-2.12-5.57a5.94,5.94,0,0,0-4.07-1c-3.28.48-5.13,3.24-6.73,4.87C189.31,220.08,188.43,224.81,188.36,226.06Z" transform="translate(0 0)"/>
      <path class="cls-42" d="M225.64,210.88c-1.33,3.87-1.77,8.31-.4,12.13a5.16,5.16,0,0,0,1.37,2.23,5.3,5.3,0,0,0,1.81.86,11.24,11.24,0,0,0,3.48.71c3.41,0,6.18-3.11,8.44-6.06,4-5.25,5.7-13.17-1.34-16.33C233.93,202.17,227.58,205.23,225.64,210.88Z" transform="translate(0 0)"/>
      <path class="cls-2" d="M229.93,208.78c-.16,2.76.35,4.9,2.34,6.44a7.07,7.07,0,0,0,4.29,1.45,13.42,13.42,0,0,0,5.23-.54c.38-.11.49.12,1-.22a2,2,0,0,0,.5-.59c2.3-3.64,2.55-8.42,2.56-12.89,0-2.27-.46-4.37-2.12-5.58a6,6,0,0,0-4.07-1c-3.28.48-5.13,3.23-6.73,4.87C230.88,202.81,230.05,207.54,229.93,208.78Z" transform="translate(0 0)"/>
      <path class="cls-42" d="M134.42,301.33c-1.33,3.87-1.76,8.3-.39,12.12a4,4,0,0,0,3.17,3.09,11.55,11.55,0,0,0,3.48.72c3.42,0,6.18-3.11,8.44-6.07,4-5.25,5.7-13.16-1.34-16.32C142.71,292.59,136.36,295.66,134.42,301.33Z" transform="translate(0 0)"/>
      <path class="cls-2" d="M138.71,299.21c-.16,2.75.36,4.89,2.35,6.43a7,7,0,0,0,4.28,1.45,13,13,0,0,0,5.23-.54c.39-.11.49.12,1-.22a1.86,1.86,0,0,0,.49-.59c2.31-3.63,2.55-8.41,2.56-12.89,0-2.26-.46-4.36-2.12-5.57a5.91,5.91,0,0,0-4.06-1c-3.28.47-5.14,3.23-6.73,4.86C139.67,293.24,138.79,298,138.71,299.21Z" transform="translate(0 0)"/>
      <path class="cls-42" d="M129.39,346.29c-1.33,3.87-1.77,8.3-.4,12.12a4,4,0,0,0,3.18,3.09,11.42,11.42,0,0,0,3.47.72c3.42,0,6.19-3.11,8.45-6.07,4-5.25,5.7-13.16-1.34-16.32C137.68,337.55,131.33,340.62,129.39,346.29Z" transform="translate(0 0)"/>
      <path class="cls-2" d="M133.68,344.17c-.16,2.75.35,4.89,2.34,6.43a6.94,6.94,0,0,0,4.29,1.45,13,13,0,0,0,5.23-.54c.38-.11.49.12,1-.22a1.77,1.77,0,0,0,.5-.59c2.3-3.63,2.55-8.41,2.56-12.89,0-2.26-.46-4.36-2.12-5.57a5.89,5.89,0,0,0-4.07-1c-3.28.47-5.13,3.23-6.73,4.86C134.63,338.2,133.75,342.93,133.68,344.17Z" transform="translate(0 0)"/>
      <path class="cls-42" d="M138.56,389.64c-1.33,3.87-1.77,8.31-.4,12.13a4.07,4.07,0,0,0,3.18,3.09,11.55,11.55,0,0,0,3.48.72c3.41,0,6.18-3.11,8.44-6.07,4-5.25,5.7-13.16-1.34-16.32C146.85,380.88,140.5,384,138.56,389.64Z" transform="translate(0 0)"/>
      <path class="cls-2" d="M142.85,387.53c-.16,2.75.36,4.89,2.34,6.43a6.94,6.94,0,0,0,4.29,1.45,13,13,0,0,0,5.23-.54c.39-.11.49.12,1-.22a1.9,1.9,0,0,0,.5-.59c2.31-3.64,2.55-8.41,2.56-12.89,0-2.27-.46-4.36-2.12-5.57a5.94,5.94,0,0,0-4.07-1c-3.27.48-5.13,3.24-6.72,4.87C143.81,381.55,142.93,386.28,142.85,387.53Z" transform="translate(0 0)"/>
      <path class="cls-42" d="M161.05,427.44c-1.33,3.87-1.76,8.3-.4,12.12a4,4,0,0,0,3.18,3.09,11.55,11.55,0,0,0,3.48.72c3.42,0,6.18-3.11,8.44-6.07,4-5.25,5.7-13.16-1.34-16.32C169.32,418.7,163,421.77,161.05,427.44Z" transform="translate(0 0)"/>
      <path class="cls-2" d="M165.32,425.32c-.16,2.75.36,4.89,2.34,6.43A6.94,6.94,0,0,0,172,433.2a13,13,0,0,0,5.23-.54c.39-.11.49.12,1-.22a1.77,1.77,0,0,0,.5-.59c2.31-3.64,2.55-8.41,2.56-12.89,0-2.26-.46-4.36-2.12-5.57a5.89,5.89,0,0,0-4.07-1c-3.27.47-5.13,3.23-6.72,4.86C166.28,419.35,165.4,424.08,165.32,425.32Z" transform="translate(0 0)"/>
      <path class="cls-42" d="M198.53,454.76c-1.33,3.87-1.77,8.3-.4,12.13a4,4,0,0,0,3.18,3.08,11.55,11.55,0,0,0,3.48.72c3.41,0,6.18-3.11,8.44-6.07,4-5.25,5.7-13.16-1.34-16.32C206.82,446,200.47,449.09,198.53,454.76Z" transform="translate(0 0)"/>
      <path class="cls-2" d="M202.82,452.64c-.16,2.75.36,4.89,2.34,6.43a6.94,6.94,0,0,0,4.29,1.45,13,13,0,0,0,5.23-.54c.39-.11.49.12,1-.22a1.77,1.77,0,0,0,.5-.59c2.31-3.63,2.55-8.41,2.56-12.89,0-2.26-.46-4.36-2.12-5.57a5.89,5.89,0,0,0-4.07-1c-3.27.47-5.13,3.23-6.72,4.86C203.78,446.67,202.9,451.4,202.82,452.64Z" transform="translate(0 0)"/>
      <path class="cls-42" d="M238.42,467.6c-1.33,3.87-1.76,8.3-.39,12.13a4,4,0,0,0,3.17,3.08,11.19,11.19,0,0,0,3.48.72c3.42,0,6.18-3.11,8.44-6.07,4-5.24,5.7-13.16-1.34-16.32C246.71,458.88,240.37,461.93,238.42,467.6Z" transform="translate(0 0)"/>
      <path class="cls-2" d="M242.71,465.48c-.16,2.76.36,4.9,2.35,6.44a7,7,0,0,0,4.28,1.45,13.24,13.24,0,0,0,5.23-.55c.39-.11.49.13,1-.21a2.3,2.3,0,0,0,.49-.59c2.31-3.64,2.55-8.42,2.56-12.9,0-2.26-.46-4.36-2.12-5.57a5.86,5.86,0,0,0-4.06-1c-3.28.47-5.14,3.23-6.73,4.87C243.67,459.51,242.79,464.24,242.71,465.48Z" transform="translate(0 0)"/>
    </g>
    <g id="memory_garden" data-name="memory garden">
      <path id="memory_garden_path" data-name="memory garden path" class="cls-6" d="M445.5,332l-127.26.67a43.29,43.29,0,1,0-.32,14.73l127.41-1.16Z" transform="translate(0 0)"/>
      <g id="memory_gazebo_icon" data-name="memory gazebo icon">
        <circle class="cls-7" cx="275.29" cy="339.28" r="40.68"/>
        <polygon class="cls-6" points="261.07 356.19 261.07 353.44 259.39 353.44 259.39 332.57 260.26 332.57 260.26 329.99 254.95 329.99 254.95 332.57 255.9 332.57 255.9 353.44 254.07 353.44 254.07 356.19 255.9 356.19 255.9 360.65 255.75 360.65 254.07 360.65 254.07 362.44 261.07 362.44 261.07 360.65 259.39 360.65 259.39 356.19 261.07 356.19"/>
        <polygon class="cls-6" points="270.77 356.19 270.77 353.44 269.09 353.44 269.09 332.57 269.96 332.57 269.96 329.99 264.64 329.99 264.64 332.57 265.6 332.57 265.6 353.44 263.77 353.44 263.77 356.19 265.6 356.19 265.6 360.65 263.77 360.65 263.77 362.44 270.77 362.44 270.77 360.65 269.09 360.65 269.09 356.19 270.77 356.19"/>
        <polygon class="cls-6" points="286.8 356.19 286.8 353.44 285.13 353.44 285.13 332.57 286 332.57 286 329.99 280.68 329.99 280.68 332.57 281.63 332.57 281.63 353.44 279.81 353.44 279.81 356.19 281.63 356.19 281.63 360.65 279.81 360.65 279.81 362.44 286.8 362.44 286.8 360.65 285.13 360.65 285.13 356.19 286.8 356.19"/>
        <polygon class="cls-6" points="296.5 356.19 296.5 353.44 294.82 353.44 294.82 332.57 295.69 332.57 295.69 329.99 290.38 329.99 290.38 332.57 291.33 332.57 291.33 353.44 289.5 353.44 289.5 356.19 291.33 356.19 291.33 360.65 289.5 360.65 289.5 362.44 296.5 362.44 296.5 360.65 294.82 360.65 294.82 356.19 296.5 356.19"/>
        <path class="cls-43" d="M275.32,310.62a19.32,19.32,0,0,0-19.27,19.32h38.68a19.32,19.32,0,0,0-19.32-19.32Z" transform="translate(0 0)"/>
        <path class="cls-44" d="M275.32,310.62c-7.53,0-15.55,11.42-15.55,19.36h31.11C290.88,322,282.86,310.62,275.32,310.62Z" transform="translate(0 0)"/>
        <path class="cls-44" d="M275.32,310.62c-5.83,0-9.26,11.42-9.26,19.34h18.53C284.59,322,281.16,310.62,275.32,310.62Z" transform="translate(0 0)"/>
      </g>
    </g>
    <path class="cls-45" d="M395,216.72c-84.07,56.93-84.07,188.82,0,246.48" transform="translate(0 0)"/>
    <path class="cls-46" d="M345.31,274.8c42,28.46,42,94.41,0,123.24" transform="translate(0 0)"/>
    <path class="cls-46" d="M367.18,241.55c61.08,45.05,61.08,149.42,0,195" transform="translate(0 0)"/>
  </g>
  <g id="names">
    <g id="childrens_arena_text" data-name="childrens arena text" class="cls-24">
      <text class="cls-47" transform="translate(859.77 967.36)">Childrens</text>
      <text class="cls-47" transform="translate(859.77 996.16)">Arena</text>
    </g>
    <g id="accessible_parking_text" data-name="accessible parking text" class="cls-24">
      <text class="cls-47" transform="translate(1327.95 970.11)">Accessible</text>
      <text class="cls-47" transform="translate(1327.95 998.91)">Parking</text>
    </g>
  </g>
  <g id="names_location" data-name="names location">
    <g id="memory_garden_text" data-name="memory garden text">
      <rect class="cls-48" x="445.36" y="407.61" width="195" height="35" rx="4.29"/>
      <text id="memory_garden_text-2" data-name="memory garden text-2" class="cls-49" transform="translate(456.16 430.97)">Memory Garden</text>
    </g>
    <g id="oshawa_creek_text" data-name="oshawa creek text">
      <rect class="cls-50" x="859.44" y="488.76" width="175" height="35" rx="4.06"/>
      <text id="oshawa_creek_text-2" data-name="oshawa creek text-2" class="cls-49" transform="translate(868.65 513.12)">Oshawa Creek</text>
    </g>
    <g id="peony_garden-2" data-name="peony garden-2">
      <rect class="cls-50" x="1380.41" y="869.13" width="175" height="35" rx="4.06"/>
      <text id="peony_garden_text" data-name="peony garden text" class="cls-49" transform="translate(1391.92 893.49)">Peony Garden</text>
    </g>
    <g id="main_entrance_text" data-name="main entrance text">
      <rect class="cls-50" x="1162.83" y="869.13" width="175" height="35" rx="4.06"/>
      <text id="main_entrance_text-2" data-name="main entrance text-2" class="cls-49" transform="translate(1173.34 893.49)">Main Entrance</text>
    </g>
    <g id="rotary_bridge_text" data-name="rotary bridge text">
      <rect class="cls-48" x="1532.71" y="364.91" width="165" height="35" rx="3.95"/>
      <text id="rotary_bridge_text-2" data-name="rotary bridge text-2" class="cls-49" transform="translate(1542.88 388.27)">Rotary Bridge</text>
    </g>
    <g id="daylily_text" data-name="daylily text">
      <rect class="cls-51" x="1372.32" y="308.22" width="205" height="35" rx="4.4"/>
      <text id="daylily_collection_text" data-name="daylily collection text" class="cls-49" transform="translate(1382.26 332.58)">Daylily Collection</text>
    </g>
    <g id="waterfall_garden_text" data-name="waterfall garden text">
      <rect class="cls-52" x="513.41" y="643.56" width="200" height="35" rx="4.35"/>
      <text id="waterfall_garden_text-2" data-name="waterfall garden text-2" class="cls-49" transform="translate(521.06 667.92)">Waterfall Garden</text>
    </g>
    <g id="bike_path_text" data-name="bike path text">
      <rect class="cls-50" x="1225.5" y="487.78" width="197.84" height="54.28" rx="5.38"/>
      <g id="joseph_kolodzie_bike_path_text" data-name="joseph kolodzie bike path text" class="cls-24">
        <text class="cls-49" transform="translate(1238.76 510.35)">Joseph Kolodzie</text>
        <text class="cls-49" transform="translate(1275.8 535.55)">Bike Path</text>
      </g>
    </g>
  </g>
</svg>
