<?xml-stylesheet type="text/css" href="../css/zoom.css" ?>

<svg id="svgMap" data-name="park map v6" xmlns="http://www.w3.org/2000/svg" viewBox="0 0 1924.75 1080.88">
  <title>park_map</title>
  <rect id="backgound" x="4.75" y="0.88" width="1920" height="1080" fill="#699366"/>
  <g id="creek_bush" data-name="creek bush">
    <g id="creek_bush_6" data-name="creek bush 6">
      <path d="M1202.74,383.55c.49-8.22,8.42-13.09,13.65-8.38l.07,6.89c2-4.27,4-8.66,7.12-11.4s7.6-3.35,10.68-.07a17.8,17.8,0,0,0,2.36,2.55c3.65,2.6,6.78-3.4,9.53-7.18,3.79-5.23,10-6.89,15.32-4s9.29,10,9.83,17.55c.57-7.57,2.26-15.53,6.74-19.84s12.32-2.64,14.4,4.64c1.55-3.89,5.2-5.88,8.46-4.61s5.82,5.69,5.92,10.22c1-4.23,5.37-6,8.11-3.19.43,8.93.42,17.86,0,26.71-.1,2-.28,4.09-1.31,5.4-2.44,3.14-7.55-.67-9.7,2.85-.79,1.31-.84,3.19-1.17,4.85-1.32,6.44-6.84,8.92-11.68,10.28-13.17,3.71-26.63,5.79-40.06,7.86L1197,433a109.57,109.57,0,0,1-17.34,1.74c-10.38-.06-12.58-7.61-10.84-19.81,1.37-9.63,1.76-18.8,2.75-28.37.84-8.15,2.59-13.35,9-15.75C1184.67,369.22,1203.28,374.1,1202.74,383.55Z" transform="translate(0.01 0)" fill="#537c4e"/>
      <path d="M1206.16,405.81a21.3,21.3,0,0,1,1.39-5.07c.92-1.93,2.92-3.84,2.73-6.34C1207.31,396,1205.84,401.63,1206.16,405.81Z" transform="translate(0.01 0)" fill="#65997d"/>
      <path d="M1228.06,411a16,16,0,0,1,1-3.72c.67-1.42,2.14-2.82,2-4.65C1228.91,403.77,1227.83,407.88,1228.06,411Z" transform="translate(0.01 0)" fill="#65997d"/>
      <path d="M1234.48,392.41a16,16,0,0,1,1-3.72c.67-1.42,2.14-2.81,2-4.65C1235.33,385.21,1234.25,389.35,1234.48,392.41Z" transform="translate(0.01 0)" fill="#65997d"/>
      <path d="M1252.22,400.74a23.77,23.77,0,0,1,1.54-5.62c1-2.14,3.24-4.25,3-7C1253.5,389.88,1251.86,396.12,1252.22,400.74Z" transform="translate(0.01 0)" fill="#65997d"/>
      <path d="M1265.25,407.21a23.59,23.59,0,0,1,1.6-5.58c1-2.12,3.29-4.19,3.1-7C1266.65,396.37,1264.94,402.58,1265.25,407.21Z" transform="translate(0.01 0)" fill="#65997d"/>
      <path d="M1308.38,383a15.41,15.41,0,0,0,.29-3.52c-.11-1.52-.84-3.56-.21-4.87C1309.8,376.88,1309.44,380.77,1308.38,383Z" transform="translate(0.01 0)" fill="#65997d"/>
      <path d="M1295.86,387.64a15.41,15.41,0,0,0,.29-3.52c-.11-1.53-.84-3.56-.21-4.88C1297.28,381.55,1296.93,385.44,1295.86,387.64Z" transform="translate(0.01 0)" fill="#65997d"/>
      <path d="M1288.41,394.51a15.41,15.41,0,0,0,.29-3.52c-.11-1.53-.84-3.56-.21-4.88C1289.83,388.42,1289.47,392.31,1288.41,394.51Z" transform="translate(0.01 0)" fill="#65997d"/>
    </g>
    <g id="creek_bush_5" data-name="creek bush 5">
      <path d="M1062,410.88c-.4-8.25,7-14,12.75-9.82l.81,6.87c1.51-4.47,3.08-9.08,5.9-12.13s7.24-4.17,10.68-1.22a17.84,17.84,0,0,0,2.61,2.3c3.94,2.2,6.42-4.11,8.76-8.19,3.22-5.62,9.3-7.94,14.88-5.67s10.38,9,11.74,16.46c-.25-7.62.58-15.74,4.59-20.52s12-4,14.91,3.1c1.13-4.05,4.57-6.43,8-5.51s6.43,5.05,7,9.56c.52-4.33,4.72-6.52,7.76-4.05a267.75,267.75,0,0,1,2.86,26.66c.11,2,.16,4.11-.72,5.53-2.11,3.39-7.63.13-9.4,3.88-.66,1.39-.49,3.27-.65,5-.62,6.57-5.88,9.64-10.57,11.51-12.78,5.11-26,8.62-39.23,12.13l-53.1,14.07a110.38,110.38,0,0,1-17.16,3.59c-10.39,1.06-13.4-6.24-13-18.61.33-9.75-.27-18.94-.31-28.6,0-8.22,1.15-13.59,7.3-16.68C1042.39,398.48,1061.53,401.36,1062,410.88Z" transform="translate(0.01 0)" fill="#477043"/>
      <path d="M1040.86,418.88a15.46,15.46,0,0,1,.59-3.64c.49-1.42,1.75-2.9,1.43-4.63C1040.93,411.94,1040.32,416,1040.86,418.88Z" transform="translate(0.01 0)" fill="#65997d"/>
      <path d="M1058.06,429.66a14.49,14.49,0,0,1,.59-3.64c.49-1.41,1.75-2.9,1.43-4.62C1058.13,422.73,1057.52,426.77,1058.06,429.66Z" transform="translate(0.01 0)" fill="#65997d"/>
      <path d="M1077,420a15.46,15.46,0,0,1,.59-3.64c.5-1.42,1.75-2.9,1.43-4.63C1077.08,413.06,1076.47,417.11,1077,420Z" transform="translate(0.01 0)" fill="#65997d"/>
      <path d="M1089.84,405a14.56,14.56,0,0,1,.58-3.65c.5-1.41,1.75-2.89,1.43-4.62C1089.9,398.09,1089.3,402.14,1089.84,405Z" transform="translate(0.01 0)" fill="#65997d"/>
      <path d="M1113.29,407.07a15.54,15.54,0,0,1,.59-3.65c.49-1.41,1.75-2.89,1.43-4.62C1113.36,400.13,1112.74,404.18,1113.29,407.07Z" transform="translate(0.01 0)" fill="#65997d"/>
      <path d="M1146,391.52a15.46,15.46,0,0,1,.59-3.64c.5-1.41,1.75-2.89,1.43-4.62C1146.05,384.59,1145.44,388.64,1146,391.52Z" transform="translate(0.01 0)" fill="#65997d"/>
      <path d="M1159.82,390.88a15.46,15.46,0,0,1,.59-3.64c.49-1.42,1.75-2.9,1.43-4.63C1159.89,384,1159.28,388,1159.82,390.88Z" transform="translate(0.01 0)" fill="#65997d"/>
    </g>
    <g id="creek_bush_4" data-name="creek bush 4">
      <path d="M472.16,568.37c0-8.24,7.57-13.61,13.09-9.24l.51,6.86c1.68-4.38,3.45-8.9,6.37-11.83s7.37-3.84,10.66-.76a18.92,18.92,0,0,0,2.51,2.39c3.82,2.36,6.55-3.82,9.05-7.78,3.44-5.46,9.58-7.51,15-5s9.91,9.38,10.94,16.88c.08-7.59,1.25-15.64,5.44-20.23s12.13-3.43,14.67,3.71c1.3-4,4.82-6.21,8.15-5.15s6.17,5.3,6.57,9.81c.7-4.29,5-6.29,7.89-3.7,1,8.88,1.57,17.79,1.69,26.65,0,2,0,4.1-1,5.48-2.24,3.29-7.58-.19-9.49,3.47-.72,1.35-.63,3.23-.87,4.91-.89,6.51-6.24,9.34-11,11-12.91,4.55-26.2,7.49-39.47,10.42L469.54,618a108.89,108.89,0,0,1-17.2,2.86c-10.35.61-13-6.78-12.09-19.07.74-9.7.54-18.87.91-28.49.32-8.19,1.73-13.48,8-16.29C453.23,555.23,472.11,558.88,472.16,568.37Z" transform="translate(0.01 0)" fill="#537c4e"/>
      <path d="M477,590.36a21.16,21.16,0,0,1,1.06-5.15c.79-2,2.66-4,2.31-6.5C477.55,580.49,476.45,586.21,477,590.36Z" transform="translate(0.01 0)" fill="#65997d"/>
      <path d="M499.23,594.09a15.24,15.24,0,0,1,.78-3.77c.57-1.46,2-3,1.69-4.77C499.61,586.88,498.79,591.05,499.23,594.09Z" transform="translate(0.01 0)" fill="#65997d"/>
      <path d="M504.44,575.16a15.67,15.67,0,0,1,.77-3.78c.58-1.45,2-2.94,1.7-4.76C504.82,567.88,504,572.12,504.44,575.16Z" transform="translate(0.01 0)" fill="#65997d"/>
      <path d="M522.67,582.33a24.18,24.18,0,0,1,1.18-5.7c.87-2.21,2.95-4.46,2.56-7.21C523.25,571.39,522,577.74,522.67,582.33Z" transform="translate(0.01 0)" fill="#65997d"/>
      <path d="M536.1,588a23,23,0,0,1,1.23-5.68c.9-2.18,3-4.39,2.65-7.14C536.79,577,535.49,583.35,536.1,588Z" transform="translate(0.01 0)" fill="#65997d"/>
      <path d="M577.57,561a15,15,0,0,0,.06-3.54c-.21-1.51-1.07-3.49-.52-4.85C578.59,554.81,578.49,558.71,577.57,561Z" transform="translate(0.01 0)" fill="#65997d"/>
      <path d="M565.38,566.44a14.88,14.88,0,0,0,.06-3.53c-.21-1.52-1.07-3.5-.52-4.86C566.4,560.28,566.3,564.18,565.38,566.44Z" transform="translate(0.01 0)" fill="#65997d"/>
      <path d="M558.39,573.78a15,15,0,0,0,.05-3.54c-.2-1.51-1.06-3.49-.52-4.85C559.41,567.61,559.31,571.51,558.39,573.78Z" transform="translate(0.01 0)" fill="#65997d"/>
    </g>
    <g id="creek_bush_3" data-name="creek bush 3">
      <path d="M338.42,576.82c.86-8.23,9.05-12.74,14.09-7.78l-.23,6.91c2.16-4.19,4.42-8.5,7.67-11.09s7.78-3,10.73.41a18.56,18.56,0,0,0,2.26,2.67c3.56,2.77,7-3.1,9.89-6.77,4.05-5.07,10.4-6.44,15.58-3.35s8.89,10.45,9.1,18c.91-7.57,3-15.47,7.66-19.59s12.49-2.08,14.26,5.33c1.73-3.83,5.5-5.66,8.71-4.24s5.6,6,5.5,10.52c1.17-4.2,5.66-5.73,8.29-2.82,0,9-.37,17.92-1.22,26.78-.19,2-.46,4.08-1.55,5.35-2.6,3-7.56-1-9.88,2.41-.86,1.28-1,3.16-1.4,4.81-1.61,6.4-7.27,8.63-12.19,9.78-13.4,3.11-27,4.57-40.61,6L330.46,626A110.22,110.22,0,0,1,313,627c-10.43-.53-12.3-8.2-10-20.36,1.8-9.59,2.6-18.76,4-28.32,1.21-8.14,3.2-13.26,9.75-15.38C320.93,561.61,339.41,567.36,338.42,576.82Z" transform="translate(0.01 0)" fill="#477043"/>
      <path d="M316.32,581.54a15,15,0,0,1,1.14-3.51c.7-1.32,2.16-2.6,2.11-4.35C317.44,574.7,316.23,578.61,316.32,581.54Z" transform="translate(0.01 0)" fill="#65997d"/>
      <path d="M331.68,594.81a15,15,0,0,1,1.14-3.51c.7-1.32,2.17-2.6,2.11-4.35C332.8,588,331.59,591.88,331.68,594.81Z" transform="translate(0.01 0)" fill="#65997d"/>
      <path d="M351.89,588.13a15,15,0,0,1,1.13-3.51c.7-1.32,2.17-2.6,2.11-4.35C353,581.29,351.79,585.2,351.89,588.13Z" transform="translate(0.01 0)" fill="#65997d"/>
      <path d="M366.83,575.28a15,15,0,0,1,1.13-3.51c.71-1.33,2.17-2.6,2.12-4.36C368,568.44,366.74,572.34,366.83,575.28Z" transform="translate(0.01 0)" fill="#65997d"/>
      <path d="M389.74,580.88a15,15,0,0,1,1.13-3.51c.7-1.32,2.17-2.6,2.11-4.35C390.82,574,389.61,577.88,389.74,580.88Z" transform="translate(0.01 0)" fill="#65997d"/>
      <path d="M424.38,570.45a14.53,14.53,0,0,1,1.13-3.51c.7-1.32,2.17-2.6,2.11-4.36C425.49,563.61,424.28,567.51,424.38,570.45Z" transform="translate(0.01 0)" fill="#65997d"/>
      <path d="M438.15,572a15,15,0,0,1,1.13-3.51c.7-1.32,2.17-2.6,2.11-4.35C439.26,565.11,438.05,569,438.15,572Z" transform="translate(0.01 0)" fill="#65997d"/>
    </g>
    <g id="creek_bush_2" data-name="creek bush 2">
      <path d="M197.93,576c2.25-7.92,11-11,15.14-5.24l-1.42,6.74c2.84-3.75,5.79-7.6,9.42-9.59s8.14-1.65,10.44,2.22a18.36,18.36,0,0,0,1.75,3c3,3.33,7.36-1.86,10.85-5,4.83-4.29,11.29-4.56,15.84-.66s6.91,11.77,5.82,19.26c2.19-7.27,5.55-14.68,10.85-17.93s12.6.08,13.06,7.64c2.35-3.46,6.35-4.62,9.26-2.68s4.46,6.8,3.58,11.26c1.87-3.93,6.52-4.67,8.61-1.37-1.5,8.81-3.43,17.52-5.78,26.07-.52,1.89-1.16,3.93-2.44,5-3.07,2.54-7.23-2.28-10.09.7-1.06,1.11-1.5,2.93-2.19,4.48-2.67,6-8.6,7.24-13.61,7.53-13.67.79-27.25-.08-40.82-1L181.74,623a110.73,110.73,0,0,1-17.31-2c-10.12-2.29-10.65-10.14-6.32-21.68,3.4-9.11,5.76-18,8.79-27.11,2.58-7.78,5.4-12.47,12.18-13.44C183.4,558.13,200.52,566.88,197.93,576Z" transform="translate(0.01 0)" fill="#537c4e"/>
      <path d="M196.51,598.49a20.87,20.87,0,0,1,2.45-4.65c1.3-1.69,3.67-3.12,4-5.6C199.74,589.15,197.09,594.34,196.51,598.49Z" transform="translate(0.01 0)" fill="#65997d"/>
      <path d="M216.74,608.24a15.66,15.66,0,0,1,1.8-3.41c1-1.24,2.7-2.29,3-4.11C219.16,601.39,217.21,605.2,216.74,608.24Z" transform="translate(0.01 0)" fill="#65997d"/>
      <path d="M227.05,591.5a15.62,15.62,0,0,1,1.79-3.41c1-1.24,2.7-2.29,3-4.11C229.42,584.65,227.48,588.46,227.05,591.5Z" transform="translate(0.01 0)" fill="#65997d"/>
      <path d="M242.58,603.46a23,23,0,0,1,2.71-5.15c1.45-1.88,4.07-3.46,4.46-6.21C246.16,593.11,243.22,598.88,242.58,603.46Z" transform="translate(0.01 0)" fill="#65997d"/>
      <path d="M253.91,612.59a23.15,23.15,0,0,1,2.76-5.11c1.47-1.85,4.11-3.39,4.53-6.13C257.6,602.29,254.6,608,253.91,612.59Z" transform="translate(0.01 0)" fill="#65997d"/>
      <path d="M301.24,598.2a15.28,15.28,0,0,0,1-3.38c.22-1.51-.05-3.65.85-4.8C303.94,592.56,302.74,596.28,301.24,598.2Z" transform="translate(0.01 0)" fill="#65997d"/>
      <path d="M288,600.06a15.44,15.44,0,0,0,1-3.38c.22-1.51,0-3.65.85-4.8C290.74,594.42,289.53,598.14,288,600.06Z" transform="translate(0.01 0)" fill="#65997d"/>
      <path d="M279.26,605.17a15.28,15.28,0,0,0,1-3.38c.23-1.52-.05-3.66.85-4.81C282,599.53,280.74,603.25,279.26,605.17Z" transform="translate(0.01 0)" fill="#65997d"/>
      <path d="M307.34,609.88a15.47,15.47,0,0,1,1.72-3.27c.92-1.18,2.58-2.19,2.83-3.93C309.61,603.28,307.74,606.93,307.34,609.88Z" transform="translate(0.01 0)" fill="#65997d"/>
    </g>
    <g id="creek_bush_1" data-name="creek bush 1">
      <path d="M66.9,536.32a21.86,21.86,0,0,1,4.39-5.93c1.83-1.54,4.33-2.31,6.47-1.27s3.38,3.36,4.35,5.69a44.8,44.8,0,0,1,3.42,16.71,27.24,27.24,0,0,1,15.36-7.36c3.08,7.46,2.46,16.69-1.56,23.25,1.74-4.73,5.62-8.69,10.12-8.59s8.85,5.52,7.55,10.45a24.38,24.38,0,0,1,15.39-12.87,9.56,9.56,0,0,1,6.29.19c4.24,1.88,5.95,9,3.09,12.92a7.68,7.68,0,0,1,5-6.43,12.59,12.59,0,0,1,7.93.29c3.3,1,6.65,2.88,8.49,6.24s1.52,8.43-1.38,10.35a14.46,14.46,0,0,1,6.77.89,6.89,6.89,0,0,1,4,5.94c0,2.64-2.54,5-4.61,3.81a13.55,13.55,0,0,1,9.29.9c2.67,4.66.43,11.21-3.48,14.21s-1.06,2.44-5.82,2.68c-9.57.48-27,1.69-36.6,2l-13.69.39c-7,.19-18.59.52-25.56-.12-7.64-.7-14.67.43-22.3-.35-8-.81-26-3.83-33.95-3.63,1-5.61,2.65-7.1,4.65-18.35,3.5-19.4-11.67-60,9.73-61.92C54.49,523.94,65.87,533.38,66.9,536.32Z" transform="translate(0.01 0)" fill="#477043"/>
      <path d="M69.21,552.45a26.9,26.9,0,0,1,2.26-7c1.48-2.66,4.7-5.34,4.42-8.73C71.14,539,68.74,546.78,69.21,552.45Z" transform="translate(0.01 0)" fill="#65997d"/>
      <path d="M55.34,575.72a17,17,0,0,1,1.4-4.35c.93-1.67,2.94-3.35,2.77-5.47C56.55,567.32,55,572.17,55.34,575.72Z" transform="translate(0.01 0)" fill="#65997d"/>
      <path d="M88.74,562.29a29.55,29.55,0,0,1,1.12-4.15c.63-1.63,1.82-3.42,1.91-5.33C90.11,554.5,88.91,559.1,88.74,562.29Z" transform="translate(0.01 0)" fill="#65997d"/>
      <path d="M96.14,580.88a17.32,17.32,0,0,1,1.48-4.55c1-1.75,3.07-3.5,2.89-5.72C97.4,572.12,95.82,577.19,96.14,580.88Z" transform="translate(0.01 0)" fill="#65997d"/>
      <path d="M80.66,597.88a18.51,18.51,0,0,0,.5-4.86c-.15-2.1-1.26-4.86-.25-6.71C83,589.39,82.37,594.76,80.66,597.88Z" transform="translate(0.01 0)" fill="#65997d"/>
      <path d="M115.25,588.58a26.17,26.17,0,0,1,2.26-7c1.48-2.66,4.7-5.34,4.42-8.73C117.18,575.17,114.74,582.88,115.25,588.58Z" transform="translate(0.01 0)" fill="#65997d"/>
      <path d="M107.28,604.41a12.34,12.34,0,0,0,.34-3.37c-.11-1.45-.91-3.37-.19-4.64C108.91,598.57,108.48,602.28,107.28,604.41Z" transform="translate(0.01 0)" fill="#65997d"/>
      <path d="M115.25,588.58a26.17,26.17,0,0,1,2.26-7c1.48-2.66,4.7-5.34,4.42-8.73C117.18,575.17,114.74,582.88,115.25,588.58Z" transform="translate(0.01 0)" fill="#65997d"/>
      <path d="M115.25,588.58a26.17,26.17,0,0,1,2.26-7c1.48-2.66,4.7-5.34,4.42-8.73C117.18,575.17,114.74,582.88,115.25,588.58Z" transform="translate(0.01 0)" fill="#65997d"/>
      <path d="M66.8,595.25a14.68,14.68,0,0,0,.38-3.85c-.13-1.65-1-3.84-.22-5.3C68.65,588.58,68.16,592.82,66.8,595.25Z" transform="translate(0.01 0)" fill="#65997d"/>
      <path d="M143.67,587.68a26.55,26.55,0,0,1,2.27-7c1.47-2.66,4.69-5.34,4.41-8.73C145.6,574.26,143.19,582,143.67,587.68Z" transform="translate(0.01 0)" fill="#65997d"/>
    </g>
  </g>
  <path id="creek" d="M4.74,633.45s117.2,14.95,182.78,16.86c76.22,2.21,221.75-7.51,395.22-38.14,127-22.44,564.84-200.63,868.93-182.59,98.16,8.59,162.7,29.91,304.16,48.35,70.4,9.17,106.76-21,166.69-23" transform="translate(0.01 0)" fill="none" stroke="#9dd8d8" stroke-miterlimit="10" stroke-width="75"/>
  <g id="peony_garden" data-name="peony garden">
    <path d="M1183,819.06a179.83,179.83,0,0,1,32.45-100.38,2,2,0,0,0-.33-2.67l-10-8.51a2,2,0,0,0-2.82.22l-.12.16c-21.54,31.19-34.31,70.46-34.72,111.13a2,2,0,0,0,2,2H1181A2,2,0,0,0,1183,819.06Z" transform="translate(0.01 0)" fill="#f7f2db"/>
    <path d="M1345.74,639.47V626.16a2,2,0,0,0-2-2h-.22a195.88,195.88,0,0,0-126.35,64.66,2,2,0,0,0,.17,2.82l.05.05,10.28,8.59a2,2,0,0,0,2.75-.19c28.86-31.53,68.72-53.74,113.52-58.64A2,2,0,0,0,1345.74,639.47Z" transform="translate(0.01 0)" fill="#f7f2db"/>
    <path d="M1207.23,821h13.24a2,2,0,0,0,2-2,140.41,140.41,0,0,1,23.27-74.66,2,2,0,0,0-.37-2.63l-11.29-9.6a2,2,0,0,0-2.82.18,1.88,1.88,0,0,0-.18.24c-16,24.47-25.46,55.12-25.85,86.45a2,2,0,0,0,2,2Z" transform="translate(0.01 0)" fill="#f7f2db"/>
    <path d="M1316.81,687.28a62.38,62.38,0,0,1,2.83-16.82,2,2,0,0,0-2.48-2.56,158.52,158.52,0,0,0-71,45.19,2,2,0,0,0,.15,2.82l.06.06,11.51,9.62a2,2,0,0,0,2.79-.22c14.29-16.26,35.63-31.67,54.57-36.18A2,2,0,0,0,1316.81,687.28Z" transform="translate(0.01 0)" fill="#f7f2db"/>
    <path d="M1261.44,758.5c-10,17.26-15.82,39.24-16.17,60.51a2,2,0,0,0,2,2h13.47a2,2,0,0,0,2-2c.33-17.23,4.92-35.43,12.73-49.56a2,2,0,0,0-.45-2.5l-10.6-9a2,2,0,0,0-2.81.31A1.46,1.46,0,0,0,1261.44,758.5Z" transform="translate(0.01 0)" fill="#f7f2db"/>
    <path d="M1330,720.47a48.39,48.39,0,0,1-8-11.5,2,2,0,0,0-2.53-.94,119.8,119.8,0,0,0-43.09,30.26,2,2,0,0,0,.15,2.82l.06.06,10.54,8.81a2,2,0,0,0,2.75-.18,101.13,101.13,0,0,1,39.44-26.09,2,2,0,0,0,1.09-2.61A1.85,1.85,0,0,0,1330,720.47Z" transform="translate(0.01 0)" fill="#f7f2db"/>
    <path d="M1284.9,821h14.19a2,2,0,0,0,2-1.94c1.16-26.79,18.9-50.16,43.22-58.3a2,2,0,0,0,1.43-1.91V743.13a2,2,0,0,0-2.54-1.93c-34.06,9-59.35,41.12-60.26,77.8A2,2,0,0,0,1284.9,821Z" transform="translate(0.01 0)" fill="#f7f2db"/>
    <path d="M1167.56,860.05h174.93a2.34,2.34,0,0,0,2-2.57v-17a2.34,2.34,0,0,0-2-2.57H1167.56a2.34,2.34,0,0,0-2,2.57v17A2.34,2.34,0,0,0,1167.56,860.05Z" transform="translate(0.01 0)" fill="#f7f2db"/>
    <path d="M1545,819.06a179.75,179.75,0,0,0-32.45-100.38,2,2,0,0,1,.34-2.67l10-8.51a2,2,0,0,1,2.82.21l.13.17c21.54,31.19,34.3,70.46,34.71,111.13a2,2,0,0,1-2,2H1547A2,2,0,0,1,1545,819.06Z" transform="translate(0.01 0)" fill="#f7f2db"/>
    <path d="M1382.24,639.47V626.16a2,2,0,0,1,2-2h.22a195.88,195.88,0,0,1,126.35,64.66,2,2,0,0,1-.17,2.82l-.05.05-10.28,8.59a2,2,0,0,1-2.75-.19c-28.86-31.53-68.71-53.74-113.52-58.64A2,2,0,0,1,1382.24,639.47Z" transform="translate(0.01 0)" fill="#f7f2db"/>
    <path d="M1520.74,821h-13.23a2,2,0,0,1-2-2,140.3,140.3,0,0,0-23.24-74.69,2,2,0,0,1,.37-2.63l11.29-9.6a2,2,0,0,1,2.82.18,1.88,1.88,0,0,1,.18.24c16,24.47,25.46,55.12,25.85,86.45a2,2,0,0,1-2,2Z" transform="translate(0.01 0)" fill="#f7f2db"/>
    <path d="M1411.12,687.28a62.38,62.38,0,0,0-2.83-16.82,2,2,0,0,1,1.23-2.55,2,2,0,0,1,1.22,0,158.52,158.52,0,0,1,71,45.19,2,2,0,0,1-.15,2.82l-.06.06L1470,725.57a2,2,0,0,1-2.78-.22c-14.3-16.26-35.64-31.67-54.57-36.18A2,2,0,0,1,1411.12,687.28Z" transform="translate(0.01 0)" fill="#f7f2db"/>
    <path d="M1466.5,758.5c10,17.26,15.82,39.24,16.17,60.51a2,2,0,0,1-2,2h-13.51a2,2,0,0,1-2-2c-.33-17.23-4.92-35.43-12.73-49.56a2,2,0,0,1,.45-2.5l10.6-9a2,2,0,0,1,2.82.26A3,3,0,0,1,1466.5,758.5Z" transform="translate(0.01 0)" fill="#f7f2db"/>
    <path d="M1397.93,720.47a47.7,47.7,0,0,0,8-11.5,2,2,0,0,1,2.53-.94,119.8,119.8,0,0,1,43.09,30.26,2,2,0,0,1-.15,2.82l-.06.06L1440.8,750a2,2,0,0,1-2.75-.18,101.13,101.13,0,0,0-39.44-26.09,2,2,0,0,1-1.09-2.61A1.85,1.85,0,0,1,1397.93,720.47Z" transform="translate(0.01 0)" fill="#f7f2db"/>
    <path d="M1443,821h-14.19a2,2,0,0,1-2-1.94c-1.17-26.79-18.9-50.16-43.22-58.3a2,2,0,0,1-1.39-1.89V743.13a2,2,0,0,1,2.54-1.93c34.06,9,59.36,41.12,60.26,77.8a2,2,0,0,1-2,2Z" transform="translate(0.01 0)" fill="#f7f2db"/>
    <path d="M1385.14,860.05h174.93a2.17,2.17,0,0,0,2-2.29V840.25a2.16,2.16,0,0,0-2-2.3H1385.14a2.18,2.18,0,0,0-2,2.3v17.51A2.17,2.17,0,0,0,1385.14,860.05Z" transform="translate(0.01 0)" fill="#f7f2db"/>
    <path d="M1552.13,682.35l-10,8.26a2,2,0,0,0-.38,2.66c22.25,33,39.14,80.22,41.12,125.79a2,2,0,0,0,2,1.91h12.72a2,2,0,0,0,2-2v-.07c-2-49.54-21.15-101.42-44.48-136.19a2,2,0,0,0-2.78-.52A1.56,1.56,0,0,0,1552.13,682.35Z" transform="translate(0.01 0)" fill="#f7f2db"/>
    <path d="M1401.46,687.4a38,38,0,0,0-28.92-36.88l1.27-63.71h-17.9l-1.27,63.71a38,38,0,0,0,0,73.77l1.27,191.81h17.9l-1.27-191.81A38,38,0,0,0,1401.46,687.4Z" transform="translate(0.01 0)" fill="#707070"/>
  </g>
  <g id="paths">
    <g id="path_south_of_creek" data-name="path south of creek">
      <path id="path_left_of_water_feature" data-name="path left of water feature" d="M359.89,749.66S404,864,570.27,833.88c90.61-16.41,143.22-135.49,143.22-135.49" transform="translate(0.01 0)" fill="none" stroke="#f7f2db" stroke-miterlimit="10" stroke-width="20"/>
      <path id="water_feature_bridge" data-name="water feature bridge" d="M635.55,802.07s64.39,44.06,140,44.06c56,0,106.8-11.4,160.94-37.47,76.22-36.7,108-109.4,108-109.4" transform="translate(0.01 0)" fill="none" stroke="#f7f2db" stroke-miterlimit="10" stroke-width="20"/>
      <path id="parking_to_bike_right" data-name="parking to bike right" d="M1195.91,922.59h-94.5a2,2,0,0,1-2-2V791.47s39.71-158.59,189.2-218.59" transform="translate(0.01 0)" fill="none" stroke="#f7f2db" stroke-miterlimit="10" stroke-width="20"/>
      <path id="parking_to_bike_left" data-name="parking to bike left" d="M948.27,631.5s121.74,48,151.14,160" transform="translate(0.01 0)" fill="none" stroke="#f7f2db" stroke-miterlimit="10" stroke-width="20"/>
      <g id="arena_st_to_bike" data-name="arena st to bike">
        <path id="going_left" data-name="going left" d="M1641.07,1078.63c-.88-23.25,25.94-121,3.92-308.47-4.47-25.19-40.35-117.82-92.72-137.89" transform="translate(0.01 0)" fill="none" stroke="#f7f2db" stroke-miterlimit="10" stroke-width="18.75"/>
        <path id="going_right" data-name="going right" d="M1645,770.16s-18.36-103.52,91.91-134.82" transform="translate(0.01 0)" fill="none" stroke="#f7f2db" stroke-miterlimit="10" stroke-width="18.75"/>
      </g>
    </g>
    <g id="bridge">
      <line x1="1778.86" y1="324.09" x2="1728.4" y2="639.52" fill="none" stroke="#f7f2db" stroke-miterlimit="10" stroke-width="30"/>
      <path d="M1740.31,561.32c-9.24,79.13-61.44,87.29-61.44,87.29" transform="translate(0.01 0)" fill="none" stroke="#f7f2db" stroke-miterlimit="10" stroke-width="15"/>
      <path d="M1761,621.77s-26.16,7.46-23.69-38" transform="translate(0.01 0)" fill="none" stroke="#f7f2db" stroke-miterlimit="10" stroke-width="15"/>
      <path d="M1825.45,307.22c-12.06,2.3-48.34,26-56,75.35" transform="translate(0.01 0)" fill="none" stroke="#f7f2db" stroke-miterlimit="10" stroke-width="15"/>
      <path d="M1718.64,323s64.53,14.82,52.94,46.52" transform="translate(0.01 0)" fill="none" stroke="#f7f2db" stroke-miterlimit="10" stroke-width="15"/>
    </g>
    <g id="path_north_of_creek" data-name="path north of creek">
      <path id="memory_garden_connection_bottom" data-name="memory garden connection bottom" d="M874.74,365.69c-35.44,55.1-117.06,88.57-188.41,45.85-130.29-74.49-236.18-72-236.18-72" transform="translate(0.01 0)" fill="none" stroke="#f7f2db" stroke-width="20"/>
      <path id="memory_garden_connection_top" data-name="memory garden connection top" d="M693.85,148.54c-2.63,35.88-22.48,61.14-45.68,69.61-39.19,14.29-90.56-22-130.3-33-41.05-11.4-102.54-32.73-146,8.73" transform="translate(0.01 0)" fill="none" stroke="#f7f2db" stroke-width="20"/>
      <path id="memory_garden_circle_psth" data-name="memory garden circle psth" d="M450.1,339.58c0,96.56-76.78,174.84-173.34,174.84S100.43,436.14,100.43,339.58a174.84,174.84,0,0,1,349.67,0Z" transform="translate(0.01 0)" fill="none" stroke="#f7f2db" stroke-width="20"/>
      <path id="kids_garden_2" data-name="kids garden 2" d="M861.07,178.62s-10.05.54-26.25,66C816.37,319.19,845.23,355.46,876,366.17c94.87,33,150.18-37.76,165.91-61.17" transform="translate(0.01 0)" fill="none" stroke="#f7f2db" stroke-width="20"/>
      <path id="kids_garden_1" data-name="kids garden 1" d="M1112.6,328.1s16.74-88.51-29.9-101.5c-35-9.74-65-43.72-75.83-59.9" transform="translate(0.01 0)" fill="none" stroke="#f7f2db" stroke-width="20"/>
      <path id="daylilly_circle" data-name="daylilly circle" d="M1291.15,307.24s-1.74-54.36,29.39-105.36c16.14-26.45,53.37-71.62,109.53-78.59,62.31-7.74,96.63-1.54,129.51,20.42,72.4,48.38,56.66,114.18,84.59,133" transform="translate(0.01 0)" fill="none" stroke="#f7f2db" stroke-width="20"/>
      <path id="kaiser_entry_2" data-name="kaiser entry 2" d="M891.16,194.78S1040.52,182.36,1059,118C1072.38,71.2,1067.39.88,1067.39.88" transform="translate(0.01 0)" fill="none" stroke="#f7f2db" stroke-width="20"/>
      <path id="kaiser_entry_1_to_3" data-name="kaiser entry 1 to 3" d="M588.34.88s-13.41,151,34.79,147.39c70.72-4.34,158.52,6.52,232.73,28.21,87.55,34.19,127.71,130.68,232.39,151.4,90.15,5.74,182.61-20.62,309.51-37.24,129.35-16.93,175.47,1.48,296.92-22,41.83-8.09,65.74-51.85,71.62-71.78,14.17-48.08,16.27-196,16.27-196" transform="translate(0.01 0)" fill="none" stroke="#f7f2db" stroke-width="20"/>
      <path id="bridge_connection_top" data-name="bridge connection top" d="M1575.74,281.63c97.76-1.86,135.69,62.7,197.44,44.14,58-17.43,59.77-29.68,149.28-40.87,0,0-140.49,0-157.43-83-11.44,40.74,6.77,137.88,6.52,167.65" transform="translate(0.01 0)" fill="none" stroke="#f7f2db" stroke-width="20"/>
    </g>
    <path id="bike_path" data-name="bike path" d="M7,1040.8s54.64,2.46,105.21-53c52.46-57.56,111-254.18,280-237.53C562.28,767,877.11,655.13,972.91,623.15c153.18-50.7,207.23-60.8,315.68-50.25,56.93,5.54,80.36,13.68,105.66,18,74.74,12.89,231.93,78.6,323.42,51.54,80.12-23.7,110.6-87.14,204.56-100.32" transform="translate(0.01 0)" fill="none" stroke="#f7f2db" stroke-width="30"/>
  </g>
  <g id="water_feature" data-name="water feature">
    <path d="M947.89,739.57c-3.73,4.42-8.32,14.55-13.15,18.49-5,4.11-10.91,6.42-12.21,12.13a63.07,63.07,0,0,1-5,14.24c-1.89,4.11-16.31,12.44-19.56,14-6.54,3-14.35,3.37-21.84,3.62-13.54.46-37.26,0-47.85-7-5.6-3.72-13.27-1.94-28.6,7.38-15.59,9.48-45.49,11.29-54.2-.14-4.87-6.41-1.65-19.89,3.27-25,4.5-4.73,17.28-20.68,44.65-18.21,8.55.77,17.8.53,22.28-13.07.5-1.53-.12-6.17,5.68-12,13-13,39.81-20,59.5-22,12.62-1.28,18.55-1.23,28.71-7.6,3-1.9,16.31-2.45,20-1.57,10.8,2.59,9,4.49,13.94,9.58C949.15,718.28,951.74,735,947.89,739.57Z" transform="translate(0.01 0)" fill="#f7f2db"/>
    <path d="M940.45,740.21c1.19,11.84-12.85,14.8-19.1,23.19-9.12,12.25-2.78,18.1-19.25,27.88-21,12.49-42.47,8-65,2.19-26.87-6.94-33,7.2-58.21,12.62-19.79,4.26-41.86-5.15-27.12-27.65,3.79-5.79,10.41-8.7,16.49-11.62,9.9-4.75,35.55-1.22,41.47-5.59,11.86-8.77,7-24.76,28-33.16,19.72-7.88,46.45-11.07,67-14.73,10-1.79,20.84-8.83,31.17.19C947,723.18,939.15,727.3,940.45,740.21Z" transform="translate(0.01 0)" fill="#9dd8d8"/>
    <path d="M841.28,757.31c.12-2.22,3.53-3.15,6.25-3.37s6.11-.7,6.88-2.84" transform="translate(0.01 0)" fill="none" stroke="#2e3192" stroke-miterlimit="10" stroke-width="0.76"/>
    <path d="M855.33,778.66a7.67,7.67,0,0,1,6.41-3.78c1.68-.09,3.37.28,5,.13s3.47-1.11,3.44-2.48" transform="translate(0.01 0)" fill="none" stroke="#2e3192" stroke-miterlimit="10" stroke-width="0.76"/>
    <path d="M892.08,762.74c3.74.89,6.59-4.18,10.42-3.24" transform="translate(0.01 0)" fill="none" stroke="#2e3192" stroke-miterlimit="10" stroke-width="0.76"/>
    <path d="M901.09,735c1.71-3.34,5.59-5.89,10-6.55" transform="translate(0.01 0)" fill="none" stroke="#2e3192" stroke-miterlimit="10" stroke-width="0.76"/>
    <path d="M766,791c1.21-1.94,2.23-2.86,4.51-2.26a11,11,0,0,0,1.38.42c2,.28,3-2,3.11-3.62" transform="translate(0.01 0)" fill="none" stroke="#2e3192" stroke-miterlimit="10" stroke-width="0.76"/>
    <path d="M801.46,778.88c.77-1.59,1.62-2.23,2.65-2.21a4.83,4.83,0,0,1,2.25,1,3.53,3.53,0,0,0,2.54.74c1.32-.1,2.34-1.09,2.26-3" transform="translate(0.01 0)" fill="none" stroke="#2e3192" stroke-miterlimit="10" stroke-width="0.76"/>
  </g>
  <g id="memory_garden_circle" data-name="memory garden circle">
    <g id="trees_around_memoryGarden" data-name="trees around memoryGarden">
      <path d="M157.74,256.52c-1.33,3.87-1.76,8.3-.4,12.13a4,4,0,0,0,3.18,3.08,10.91,10.91,0,0,0,3.48.72c3.42,0,6.18-3.11,8.44-6.06,4-5.25,5.7-13.17-1.34-16.33C166,247.79,159.64,250.88,157.74,256.52Z" transform="translate(0.01 0)" fill="#4d4d4d"/>
      <path d="M162,254.4c-.16,2.76.36,4.9,2.34,6.44a7.07,7.07,0,0,0,4.29,1.45,13.24,13.24,0,0,0,5.23-.55c.39-.11.49.13,1-.21a2,2,0,0,0,.5-.59c2.31-3.64,2.55-8.42,2.56-12.89,0-2.27-.46-4.37-2.12-5.58a6,6,0,0,0-4.07-1c-3.27.47-5.13,3.23-6.72,4.87C163,248.43,162.07,253.16,162,254.4Z" transform="translate(0.01 0)" fill="#537c4e"/>
      <path d="M188.74,228.17c-1.32,3.87-1.76,8.31-.39,12.13a4,4,0,0,0,3.18,3.09,11.42,11.42,0,0,0,3.47.72c3.42,0,6.19-3.11,8.45-6.07,4-5.25,5.69-13.16-1.34-16.32C197.05,219.44,190.74,222.5,188.74,228.17Z" transform="translate(0.01 0)" fill="#4d4d4d"/>
      <path d="M193.05,226.06c-.16,2.75.35,4.89,2.34,6.43a6.94,6.94,0,0,0,4.29,1.45,13.23,13.23,0,0,0,5.23-.54c.38-.11.48.12,1-.22a2,2,0,0,0,.5-.59c2.3-3.64,2.55-8.42,2.56-12.89,0-2.27-.46-4.36-2.12-5.57a5.94,5.94,0,0,0-4.07-1c-3.28.48-5.13,3.24-6.73,4.87C194,220.08,193.12,224.81,193.05,226.06Z" transform="translate(0.01 0)" fill="#537c4e"/>
      <path d="M230.33,210.88c-1.33,3.87-1.77,8.31-.4,12.13a5.16,5.16,0,0,0,1.37,2.23,5.3,5.3,0,0,0,1.81.86,11.24,11.24,0,0,0,3.48.71c3.41,0,6.18-3.11,8.44-6.06,4-5.25,5.7-13.17-1.34-16.33C238.62,202.17,232.27,205.23,230.33,210.88Z" transform="translate(0.01 0)" fill="#4d4d4d"/>
      <path d="M234.62,208.78c-.16,2.76.35,4.9,2.34,6.44a7.07,7.07,0,0,0,4.29,1.45,13.42,13.42,0,0,0,5.23-.54c.38-.11.49.12,1-.22a2,2,0,0,0,.5-.59c2.3-3.64,2.55-8.42,2.56-12.89,0-2.27-.46-4.37-2.12-5.58a6,6,0,0,0-4.07-1c-3.28.48-5.13,3.23-6.73,4.87C235.57,202.81,234.74,207.54,234.62,208.78Z" transform="translate(0.01 0)" fill="#537c4e"/>
      <path d="M139.11,301.33c-1.33,3.87-1.76,8.3-.39,12.12a4,4,0,0,0,3.17,3.09,11.55,11.55,0,0,0,3.48.72c3.42,0,6.18-3.11,8.44-6.07,4-5.25,5.7-13.16-1.34-16.32C147.4,292.59,141.05,295.66,139.11,301.33Z" transform="translate(0.01 0)" fill="#4d4d4d"/>
      <path d="M143.4,299.21c-.16,2.75.36,4.89,2.35,6.43a7,7,0,0,0,4.28,1.45,13,13,0,0,0,5.23-.54c.39-.11.49.12,1-.22a1.86,1.86,0,0,0,.49-.59c2.31-3.63,2.55-8.41,2.56-12.89,0-2.26-.46-4.36-2.12-5.57a5.91,5.91,0,0,0-4.06-1c-3.28.47-5.14,3.23-6.73,4.86C144.36,293.24,143.48,298,143.4,299.21Z" transform="translate(0.01 0)" fill="#537c4e"/>
      <path d="M134.08,346.29c-1.33,3.87-1.77,8.3-.4,12.12a4,4,0,0,0,3.18,3.09,11.42,11.42,0,0,0,3.47.72c3.42,0,6.19-3.11,8.45-6.07,4-5.25,5.7-13.16-1.34-16.32C142.37,337.55,136,340.62,134.08,346.29Z" transform="translate(0.01 0)" fill="#4d4d4d"/>
      <path d="M138.37,344.17c-.16,2.75.35,4.89,2.34,6.43a6.94,6.94,0,0,0,4.29,1.45,13,13,0,0,0,5.23-.54c.38-.11.49.12,1-.22a1.77,1.77,0,0,0,.5-.59c2.3-3.63,2.55-8.41,2.56-12.89,0-2.26-.46-4.36-2.12-5.57a5.89,5.89,0,0,0-4.07-1c-3.28.47-5.13,3.23-6.73,4.86C139.32,338.2,138.44,342.93,138.37,344.17Z" transform="translate(0.01 0)" fill="#537c4e"/>
      <path d="M143.25,389.64c-1.33,3.87-1.77,8.31-.4,12.13a4.07,4.07,0,0,0,3.18,3.09,11.55,11.55,0,0,0,3.48.72c3.41,0,6.18-3.11,8.44-6.07,4-5.25,5.7-13.16-1.34-16.32C151.54,380.88,145.19,384,143.25,389.64Z" transform="translate(0.01 0)" fill="#4d4d4d"/>
      <path d="M147.54,387.53c-.16,2.75.36,4.89,2.34,6.43a6.94,6.94,0,0,0,4.29,1.45,13,13,0,0,0,5.23-.54c.39-.11.49.12,1-.22a1.9,1.9,0,0,0,.5-.59c2.31-3.64,2.55-8.41,2.56-12.89,0-2.27-.46-4.36-2.12-5.57a5.94,5.94,0,0,0-4.07-1c-3.27.48-5.13,3.24-6.72,4.87C148.5,381.55,147.62,386.28,147.54,387.53Z" transform="translate(0.01 0)" fill="#537c4e"/>
      <path d="M165.74,427.44c-1.33,3.87-1.76,8.3-.4,12.12a4,4,0,0,0,3.18,3.09,11.55,11.55,0,0,0,3.48.72c3.42,0,6.18-3.11,8.44-6.07,4-5.25,5.7-13.16-1.34-16.32C174,418.7,167.66,421.77,165.74,427.44Z" transform="translate(0.01 0)" fill="#4d4d4d"/>
      <path d="M170,425.32c-.16,2.75.36,4.89,2.34,6.43a6.94,6.94,0,0,0,4.29,1.45,13,13,0,0,0,5.23-.54c.39-.11.49.12,1-.22a1.77,1.77,0,0,0,.5-.59c2.31-3.64,2.55-8.41,2.56-12.89,0-2.26-.46-4.36-2.12-5.57a5.89,5.89,0,0,0-4.07-1c-3.27.47-5.13,3.23-6.72,4.86C171,419.35,170.09,424.08,170,425.32Z" transform="translate(0.01 0)" fill="#537c4e"/>
      <path d="M203.22,454.76c-1.33,3.87-1.77,8.3-.4,12.13A4,4,0,0,0,206,470a11.55,11.55,0,0,0,3.48.72c3.41,0,6.18-3.11,8.44-6.07,4-5.25,5.7-13.16-1.34-16.32C211.51,446,205.16,449.09,203.22,454.76Z" transform="translate(0.01 0)" fill="#4d4d4d"/>
      <path d="M207.51,452.64c-.16,2.75.36,4.89,2.34,6.43a6.94,6.94,0,0,0,4.29,1.45,13,13,0,0,0,5.23-.54c.39-.11.49.12,1-.22a1.77,1.77,0,0,0,.5-.59c2.31-3.63,2.55-8.41,2.56-12.89,0-2.26-.46-4.36-2.12-5.57a5.89,5.89,0,0,0-4.07-1c-3.27.47-5.13,3.23-6.72,4.86C208.47,446.67,207.59,451.4,207.51,452.64Z" transform="translate(0.01 0)" fill="#537c4e"/>
      <path d="M243.11,467.6c-1.33,3.87-1.76,8.3-.39,12.13a4,4,0,0,0,3.17,3.08,11.19,11.19,0,0,0,3.48.72c3.42,0,6.18-3.11,8.44-6.07,4-5.24,5.7-13.16-1.34-16.32C251.4,458.88,245.06,461.93,243.11,467.6Z" transform="translate(0.01 0)" fill="#4d4d4d"/>
      <path d="M247.4,465.48c-.16,2.76.36,4.9,2.35,6.44a7,7,0,0,0,4.28,1.45,13.24,13.24,0,0,0,5.23-.55c.39-.11.49.13,1-.21a2.3,2.3,0,0,0,.49-.59c2.31-3.64,2.55-8.42,2.56-12.9,0-2.26-.46-4.36-2.12-5.57a5.86,5.86,0,0,0-4.06-1c-3.28.47-5.14,3.23-6.73,4.87C248.36,459.51,247.48,464.24,247.4,465.48Z" transform="translate(0.01 0)" fill="#537c4e"/>
    </g>
    <g id="memory_garden" data-name="memory garden">
      <path id="memory_garden_path" data-name="memory garden path" d="M450.19,332l-127.26.67a43.29,43.29,0,1,0-.32,14.73L450,346.19Z" transform="translate(0.01 0)" fill="#f7f2db"/>
      <circle cx="279.99" cy="339.28" r="40.68" fill="#707070"/>
      <g id="memory_gazebo_icon" data-name="memory gazebo icon">
        <polygon points="265.77 356.19 265.77 353.44 264.1 353.44 264.1 332.57 264.96 332.57 264.96 329.99 259.64 329.99 259.64 332.57 260.61 332.57 260.61 353.44 258.77 353.44 258.77 356.19 260.61 356.19 260.61 360.65 260.45 360.65 258.77 360.65 258.77 362.44 265.77 362.44 265.77 360.65 264.1 360.65 264.1 356.19 265.77 356.19" fill="#f7f2db"/>
        <polygon points="275.48 356.19 275.48 353.44 273.8 353.44 273.8 332.57 274.67 332.57 274.67 329.99 269.35 329.99 269.35 332.57 270.3 332.57 270.3 353.44 268.48 353.44 268.48 356.19 270.3 356.19 270.3 360.65 268.48 360.65 268.48 362.44 275.48 362.44 275.48 360.65 273.8 360.65 273.8 356.19 275.48 356.19" fill="#f7f2db"/>
        <polygon points="291.5 356.19 291.5 353.44 289.82 353.44 289.82 332.57 290.69 332.57 290.69 329.99 285.38 329.99 285.38 332.57 286.33 332.57 286.33 353.44 284.5 353.44 284.5 356.19 286.33 356.19 286.33 360.65 284.5 360.65 284.5 362.44 291.5 362.44 291.5 360.65 289.82 360.65 289.82 356.19 291.5 356.19" fill="#f7f2db"/>
        <polygon points="301.2 356.19 301.2 353.44 299.52 353.44 299.52 332.57 300.39 332.57 300.39 329.99 295.07 329.99 295.07 332.57 296.04 332.57 296.04 353.44 294.2 353.44 294.2 356.19 296.04 356.19 296.04 360.65 294.2 360.65 294.2 362.44 301.2 362.44 301.2 360.65 299.52 360.65 299.52 356.19 301.2 356.19" fill="#f7f2db"/>
        <path d="M280,310.62a19.32,19.32,0,0,0-19.27,19.32h38.68a19.32,19.32,0,0,0-19.32-19.32Z" transform="translate(0.01 0)" fill="#5491d3" stroke="#f7f2db" stroke-miterlimit="10" stroke-width="2.11"/>
        <path d="M280,310.62c-7.53,0-15.55,11.42-15.55,19.36h31.11C295.57,322,287.55,310.62,280,310.62Z" transform="translate(0.01 0)" fill="none" stroke="#f7f2db" stroke-miterlimit="10" stroke-width="2.11"/>
        <path d="M280,310.62c-5.83,0-9.26,11.42-9.26,19.34h18.53C289.28,322,285.85,310.62,280,310.62Z" transform="translate(0.01 0)" fill="none" stroke="#f7f2db" stroke-miterlimit="10" stroke-width="2.11"/>
      </g>
    </g>
    <path d="M399.65,216.72c-84.07,56.93-84.07,188.82,0,246.48" transform="translate(0.01 0)" fill="none" stroke="#f7f2db" stroke-width="10"/>
    <path d="M350,274.8c42,28.46,42,94.41,0,123.24" transform="translate(0.01 0)" fill="none" stroke="#f7f2db" stroke-width="8"/>
    <path d="M371.87,241.55c61.08,45.05,61.08,149.42,0,195" transform="translate(0.01 0)" fill="none" stroke="#f7f2db" stroke-width="8"/>
  </g>
  <g id="daylily_garden" data-name="daylily garden">
    <g id="daylily_bottom" data-name="daylily bottom">
      <path d="M1430.74,234.88c-2.34-18.36,28.48-25.36,28.48-25.36s32.61,3.86,35,22.22-10,33.95-27.48,34.81S1433.12,253.27,1430.74,234.88Z" transform="translate(0.01 0)" fill="#f7f2db" stroke="#e8e8e8" stroke-width="1.91"/>
      <path d="M1441.36,212.57s-3.7,22,11.32,40.88c8.31,10.43,13.8,10,19.56-1,10.75-20.46,4.5-43.31,4.5-43.31" transform="translate(0.01 0)" fill="none" stroke="#699366" stroke-linecap="round" stroke-width="4"/>
      <path d="M1459.26,209.55a108.37,108.37,0,0,0,3.12,37.53" transform="translate(0.01 0)" fill="none" stroke="#699366" stroke-linecap="round" stroke-width="4"/>
    </g>
    <g id="daylily_top_left" data-name="daylily top left">
      <path d="M1445,156.52c16,9.28,2.91,38,2.91,38S1425,218.12,1409,208.85s-21-28.51-11-43S1428.94,147.25,1445,156.52Z" transform="translate(0.01 0)" fill="#f7f2db" stroke="#e8e8e8" stroke-width="1.91"/>
      <path d="M1456.32,178.48s-15.28-16.3-39.38-15.78c-13.33.28-16.33,4.91-11.1,16.14,9.76,20.95,31.72,29.83,31.72,29.83" transform="translate(0.01 0)" fill="none" stroke="#699366" stroke-linecap="round" stroke-width="4"/>
      <path d="M1416.12,174.28a147.92,147.92,0,0,1,31.75,20.26" transform="translate(0.01 0)" fill="none" stroke="#699366" stroke-linecap="round" stroke-width="4"/>
    </g>
    <g id="daylily_top_right" data-name="daylily top right">
      <path d="M1507.43,205.34c-15.48,10.15-35.28-14.48-35.28-14.48s-10.82-31,4.65-41.15,34.88-5.92,43.34,9.44S1522.91,195.19,1507.43,205.34Z" transform="translate(0.01 0)" fill="#f7f2db" stroke="#e8e8e8" stroke-width="1.91"/>
      <path d="M1484.74,205.63s21.42-6.33,31.78-28.1c5.73-12,3-16.79-9.43-17.16-23.1-.69-40.9,14.94-40.9,14.94" transform="translate(0.01 0)" fill="none" stroke="#699366" stroke-linecap="round" stroke-width="4"/>
      <path d="M1504.52,171.6a131.44,131.44,0,0,0-32.37,19.28" transform="translate(0.01 0)" fill="none" stroke="#699366" stroke-linecap="round" stroke-width="4"/>
    </g>
  </g>
  <g id="ovbg_icon" data-name="ovbg icon">
    <g id="wing_left" data-name="wing left">
      <path d="M1703.36,959.88c14.41-19.1,30.38-13.35,46.89-9.53v11.23S1717.74,952.38,1703.36,959.88Z" transform="translate(0.01 0)" fill="#d1f3ff"/>
      <path d="M1691.38,975.62c14.38-17.72,23-16.54,32.92-14.6,12.33,2.4,14.29,4.12,26,3.72v9.51a29.65,29.65,0,0,1-9.64,1.8,81.87,81.87,0,0,1-18.09-2.56C1715.3,971.24,1701.84,969,1691.38,975.62Z" transform="translate(0.01 0)" fill="#39c5fb"/>
    </g>
    <g id="wing_right" data-name="wing right">
      <path d="M1839.11,961.35c-14.37,19.09-30.37,13.35-46.89,9.53V959.64S1824.74,968.88,1839.11,961.35Z" transform="translate(0.01 0)" fill="#006824"/>
      <path d="M1851.09,945.6c-14.38,17.72-23,16.53-32.92,14.6-12.33-2.4-14.29-4.12-26-3.72V947a29.65,29.65,0,0,1,9.64-1.8,81.87,81.87,0,0,1,18.09,2.56C1827.17,950,1840.63,952.21,1851.09,945.6Z" transform="translate(0.01 0)" fill="#001c00"/>
    </g>
    <g id="gazebo_logo" data-name="gazebo logo">
      <polygon points="1758.03 967.63 1758.03 965.25 1756.58 965.25 1756.58 947.27 1757.33 947.27 1757.33 945.03 1752.74 945.03 1752.74 947.27 1753.57 947.27 1753.57 965.25 1753.43 965.25 1751.99 965.25 1751.99 967.63 1753.43 967.63 1753.57 967.63 1753.57 971.48 1753.43 971.48 1751.99 971.48 1751.99 973 1753.43 973 1756.58 973 1758.03 973 1758.03 971.48 1756.58 971.48 1756.58 967.63 1758.03 967.63" fill="#383838"/>
      <polygon points="1766.38 967.63 1766.38 965.25 1764.93 965.25 1764.93 947.27 1765.68 947.27 1765.68 945.03 1761.11 945.03 1761.11 947.27 1761.92 947.27 1761.92 965.25 1761.8 965.25 1760.35 965.25 1760.35 967.63 1761.8 967.63 1761.92 967.63 1761.92 971.48 1761.8 971.48 1760.35 971.48 1760.35 973 1761.8 973 1764.93 973 1766.38 973 1766.38 971.48 1764.93 971.48 1764.93 967.63 1766.38 967.63" fill="#383838"/>
      <polygon points="1782.18 967.62 1782.18 965.25 1780.74 965.25 1780.74 947.26 1781.49 947.26 1781.49 945.03 1776.9 945.03 1776.9 947.26 1777.72 947.26 1777.72 965.25 1777.61 965.25 1776.15 965.25 1776.15 967.62 1777.61 967.62 1777.72 967.62 1777.72 971.48 1777.61 971.48 1776.15 971.48 1776.15 973 1777.61 973 1780.74 973 1782.18 973 1782.18 971.48 1780.74 971.48 1780.74 967.62 1782.18 967.62" fill="#383838"/>
      <polygon points="1790.55 967.62 1790.55 965.25 1789.1 965.25 1789.1 947.26 1789.85 947.26 1789.85 945.03 1785.27 945.03 1785.27 947.26 1786.09 947.26 1786.09 965.25 1785.95 965.25 1784.52 965.25 1784.52 967.62 1785.95 967.62 1786.09 967.62 1786.09 971.48 1785.95 971.48 1784.52 971.48 1784.52 973 1785.95 973 1789.1 973 1790.55 973 1790.55 971.48 1789.1 971.48 1789.1 967.62 1790.55 967.62" fill="#383838"/>
      <path d="M1771.42,928.35A16.64,16.64,0,0,0,1754.74,945v0H1788A16.66,16.66,0,0,0,1771.42,928.35Z" transform="translate(0.01 0)" fill="none" stroke="#383838" stroke-miterlimit="10" stroke-width="1.81"/>
      <path d="M1771.42,928.35c-6.5,0-13.41,9.84-13.41,16.68h26.81C1784.82,938.19,1777.91,928.35,1771.42,928.35Z" transform="translate(0.01 0)" fill="none" stroke="#383838" stroke-miterlimit="10" stroke-width="1.81"/>
      <path d="M1771.42,928.35c-5,0-8,9.84-8,16.67h16C1779.4,938.19,1776.45,928.35,1771.42,928.35Z" transform="translate(0.01 0)" fill="none" stroke="#383838" stroke-miterlimit="10" stroke-width="1.81"/>
      <polygon points="1771.88 926.11 1771.4 922.61 1771.4 922.61 1770.97 926.11 1770.52 926.11 1770.52 945.03 1772.34 945.03 1772.34 926.11 1771.88 926.11" fill="#383838"/>
      <rect x="1755.9" y="938.11" width="31.07" height="1.81" fill="#383838"/>
      <rect x="1759.39" y="932.91" width="24.08" height="1.81" fill="#383838"/>
    </g>
    <g id="OSHAWA_VALLEY_BOTANICAL_GARDENS" data-name="OSHAWA VALLEY BOTANICAL GARDENS" style="isolation: isolate">
      <text transform="translate(1709.94 996.17)" font-size="14.78" fill="#383838" font-family="FuturaPT-Demi, Futura PT" font-weight="300" style="isolation: isolate">OSH</text>
      <text transform="translate(1742.17 996.17)" font-size="14.78" fill="#383838" font-family="FuturaPT-Demi, Futura PT" font-weight="300" style="isolation: isolate">A</text>
      <text transform="translate(1752.46 996.17)" font-size="14.78" fill="#383838" font-family="FuturaPT-Demi, Futura PT" font-weight="300" style="isolation: isolate">W</text>
      <text transform="translate(1766.75 996.17)" font-size="14.78" fill="#383838" font-family="FuturaPT-Demi, Futura PT" font-weight="300" style="isolation: isolate">A </text>
      <text transform="translate(1782.11 996.17)" font-size="14.78" fill="#383838" font-family="FuturaPT-Demi, Futura PT" font-weight="300" style="isolation: isolate">V</text>
      <text transform="translate(1791.4 996.17)" font-size="14.78" fill="#383838" font-family="FuturaPT-Demi, Futura PT" font-weight="300" style="isolation: isolate">ALLEY</text>
      <text transform="translate(1691.72 1013.59)" font-size="14.78" fill="#383838" font-family="FuturaPT-Demi, Futura PT" font-weight="300" style="isolation: isolate">B</text>
      <text transform="translate(1700.16 1013.59)" font-size="14.78" fill="#383838" font-family="FuturaPT-Demi, Futura PT" font-weight="300" style="isolation: isolate">O</text>
      <text transform="translate(1712.94 1013.59)" font-size="14.78" fill="#383838" font-family="FuturaPT-Demi, Futura PT" font-weight="300" style="isolation: isolate">T</text>
      <text transform="translate(1719.78 1013.59)" font-size="14.78" fill="#383838" font-family="FuturaPT-Demi, Futura PT" font-weight="300" style="isolation: isolate">ANI</text>
      <text transform="translate(1747.7 1013.59)" font-size="14.78" fill="#383838" font-family="FuturaPT-Demi, Futura PT" font-weight="300" style="isolation: isolate">C</text>
      <text transform="translate(1757.82 1013.59)" font-size="14.78" fill="#383838" font-family="FuturaPT-Demi, Futura PT" font-weight="300" style="isolation: isolate">AL </text>
      <text transform="translate(1780.11 1013.59)" font-size="14.78" fill="#383838" font-family="FuturaPT-Demi, Futura PT" font-weight="300" style="isolation: isolate">G</text>
      <text transform="translate(1792.08 1013.59)" font-size="14.78" fill="#383838" font-family="FuturaPT-Demi, Futura PT" font-weight="300" style="isolation: isolate">ARDENS</text>
    </g>
  </g>
  <g id="buildings_structure" data-name="buildings structure">
    <rect id="parking" x="1195.92" y="915.1" width="334.06" height="118.72" stroke-width="5.02" stroke="#f7f2db" stroke-linecap="round" stroke-linejoin="round" fill="#d1d1d1"/>
    <polygon id="childrens_arena_main" data-name="childrens arena main" points="1069.16 1037.59 1069.16 1008.26 1080.1 1008.26 1080.1 985.3 1069.16 985.3 1069.16 950.16 1052.01 950.16 1052.01 938.64 1032.48 938.64 1032.48 927.12 1001.43 927.12 1001.43 915.11 732.75 915.11 732.59 1037.59 1069.16 1037.59" fill="#d1d1d1" stroke="#f7f2db" stroke-linecap="round" stroke-linejoin="round" stroke-width="4.84"/>
    <polygon id="fire_department" data-name="fire department" points="649.34 942.38 649.34 903.27 409.27 903.27 409.27 942.38 465.63 942.38 465.63 956.17 431.75 956.17 431.75 1033.84 626.86 1033.84 626.86 956.17 592.98 956.17 592.98 942.38 649.34 942.38" fill="#d1d1d1" stroke="#f7f2db" stroke-linecap="round" stroke-linejoin="round" stroke-width="5"/>
  </g>
  <g id="entry_points" data-name="entry points">
    <g id="gate">
      <rect x="1803.63" y="67.79" width="8.18" height="34.5" rx="1" fill="#4c4947"/>
      <path d="M1780.32,74.34c7,0,12.11-8,6.65-15.37a.84.84,0,0,0-.23-.23c-7.35-5.46-15.37-.34-15.37,6.65A9,9,0,0,0,1780.32,74.34Zm-4.4-6.21,3.56-8.8a.94.94,0,0,1,.88-.61h0a1,1,0,0,1,.88.62l3.46,8.82a1,1,0,0,1-.55,1.25.8.8,0,0,1-.34.07h-1.55a1,1,0,0,0-1,1v.61a1,1,0,0,1-1.25.66,1,1,0,0,1-.66-.66v-.61a1,1,0,0,0-1-1h-1.55A1,1,0,0,1,1776,69a1,1,0,0,1-.09-.91Z" transform="translate(0.01 0)" fill="#4c4947"/>
      <path d="M1791.17,65.22v.17a10.86,10.86,0,0,1-21.68.93l-1.17-.91a69.82,69.82,0,0,0-7.68,1.86l-1,.3a1,1,0,0,0-.72,1v15l1.18-.34a68.85,68.85,0,0,1,40.45,0l1.16.34v-15a1,1,0,0,0-.71-1l-1-.3A68.12,68.12,0,0,0,1791.17,65.22Z" transform="translate(0.01 0)" fill="#4c4947"/>
      <rect x="1748.85" y="67.79" width="8.18" height="34.5" rx="1" fill="#4c4947"/>
    </g>
    <g id="gate-2">
      <rect x="1090.7" y="67.91" width="8.18" height="34.5" rx="1" fill="#4c4947"/>
      <path d="M1067.39,74.46c7,0,12.11-8,6.66-15.37a1,1,0,0,0-.24-.23c-7.34-5.46-15.37-.34-15.37,6.65A9,9,0,0,0,1067.39,74.46Zm-4.39-6.2,3.56-8.81a.94.94,0,0,1,.88-.61h0a1,1,0,0,1,.89.62l3.46,8.82a1,1,0,0,1-.56,1.25.75.75,0,0,1-.33.07h-1.55a1,1,0,0,0-1,1v.61a1,1,0,0,1-1.25.66,1,1,0,0,1-.66-.66V70.6a1,1,0,0,0-1-1h-1.56a1,1,0,0,1-.79-.44A1,1,0,0,1,1063,68.26Z" transform="translate(0.01 0)" fill="#4c4947"/>
      <path d="M1078.24,65.34v.17a10.85,10.85,0,0,1-21.67.93l-1.17-.9a67.75,67.75,0,0,0-7.69,1.85l-1,.31a1,1,0,0,0-.71,1v15l1.17-.34a69,69,0,0,1,40.46,0l1.15.34v-15a1,1,0,0,0-.71-1l-1-.31A68.12,68.12,0,0,0,1078.24,65.34Z" transform="translate(0.01 0)" fill="#4c4947"/>
      <rect x="1035.93" y="67.91" width="8.18" height="34.5" rx="1" fill="#4c4947"/>
    </g>
    <g id="gate-3">
      <rect x="609.94" y="67.88" width="8.18" height="34.5" rx="1" fill="#4c4947"/>
      <path d="M586.63,74.43c7,0,12.11-8,6.65-15.37a1.31,1.31,0,0,0-.23-.24c-7.35-5.45-15.37-.33-15.37,6.66A9,9,0,0,0,586.63,74.43Zm-4.4-6.21,3.56-8.81a1,1,0,0,1,.88-.61h0a1,1,0,0,1,.88.63L591,68.25a1,1,0,0,1-.55,1.25,1,1,0,0,1-.34.07h-1.55a1,1,0,0,0-1,1v.61a1,1,0,0,1-1.25.66,1,1,0,0,1-.66-.66v-.61a1,1,0,0,0-1-1h-1.55a1,1,0,0,1-.79-.44A1,1,0,0,1,582.23,68.22Z" transform="translate(0.01 0)" fill="#4c4947"/>
      <path d="M597.48,65.31v.17a10.86,10.86,0,0,1-21.68.93l-1.17-.91A67.63,67.63,0,0,0,567,67.36l-1,.3a1,1,0,0,0-.72,1v15l1.18-.34a68.85,68.85,0,0,1,40.45,0l1.16.34v-15a1,1,0,0,0-.71-1l-1-.3A68.12,68.12,0,0,0,597.48,65.31Z" transform="translate(0.01 0)" fill="#4c4947"/>
      <rect x="555.16" y="67.88" width="8.18" height="34.5" rx="1" fill="#4c4947"/>
    </g>
    <g id="gate-4">
      <rect x="153.31" y="933.41" width="8.18" height="34.5" rx="1" fill="#4c4947"/>
      <path d="M130,940c7,0,12.11-8,6.65-15.37a1.31,1.31,0,0,0-.23-.24c-7.35-5.45-15.37-.33-15.37,6.66A9,9,0,0,0,130,940Zm-4.4-6.21,3.56-8.81a1,1,0,0,1,.88-.61h0a1,1,0,0,1,.88.62l3.46,8.82a1,1,0,0,1-.55,1.26,1.28,1.28,0,0,1-.34.07h-1.55a1,1,0,0,0-1,1v.6a1,1,0,1,1-1.91,0v-.6a1,1,0,0,0-1-1h-1.55a1,1,0,0,1-.79-.44A1,1,0,0,1,125.6,933.75Z" transform="translate(0.01 0)" fill="#4c4947"/>
      <path d="M140.85,930.88v.17a10.86,10.86,0,0,1-21.68.93l-1.17-.91a67.63,67.63,0,0,0-7.68,1.86l-1,.3a1,1,0,0,0-.72,1v15l1.18-.35a69,69,0,0,1,40.45,0l1.16.35v-15a1,1,0,0,0-.71-1l-1-.3A66.52,66.52,0,0,0,140.85,930.88Z" transform="translate(0.01 0)" fill="#4c4947"/>
      <rect x="98.53" y="933.41" width="8.18" height="34.5" rx="1" fill="#4c4947"/>
    </g>
  </g>
  <g id="navigation_paths" data-name="navigation paths">
    <g id="from_water_feature" data-name="from water feature">
      <path id="water_feature_to_peony" data-name="water feature to peony" d="M831.82,704.59V676.67c0-4.24,2.55-8.4,6.67-9.43C904.55,650.61,1094,571,1204.73,569c26.32-.48,103.92,1.52,150.65,12.9,4.78,1.16,8.44,5,8.44,9.88V871.88" transform="translate(0.01 0)" fill="none"/>
      <path id="water_feature_to_bridge" data-name="water feature to bridge" d="M831.82,704.59V676.67c0-4.24,2.57-8.34,6.67-9.43,62.6-16.63,252.93-91.67,355.52-96.65,43-2.08,108.67,2.27,169.58,13.9C1474.4,605.64,1710.38,694.59,1729,624c5.74-21.8,16.07-88.59,26.12-151.47" transform="translate(0.01 0)" fill="none"/>
      <path id="water_feature_to_memory_garden" data-name="water feature to memory garden" d="M831.64,704.38V676.45c0-4.24,2.58-8.3,6.67-9.43,75.93-20.91,275.1-102.49,378.32-98.32,41.69,1.69,117.68,7.74,167.48,20.26,98.44,24.75,322.94,104.51,344.69,34.79,11.86-38,32-207.66,45.25-271.56a16.73,16.73,0,0,0-13-19.77l-.4-.08c-70.46-12.95-104.22-44.72-145.1-49.11-39.91-4.29-91.66-.19-143.57.58-102.56,1.52-276.37,51.24-381.47,44.65,0,0-24.74-3.41-52.6-18.18-20.8,31-82,86.09-163.38,55.19-47.61,65.25-124.9,83.1-188.41,45.85-23.45-13.76-75.71-39.58-122.28-52.71-49.23-13.87-87-19.1-112.8-19.24l-125.43.73" transform="translate(0.01 0)" fill="none"/>
      <path id="water_feature_to_bike_path" data-name="water feature to bike path" d="M831.82,704.59V676.67a9.65,9.65,0,0,1,6.67-9.43c72.57-20.49,264.65-97.58,372.37-98,36.2-.16,96.7,5.14,146.34,13.93,112.35,19.86,199,70.41,333.17,64.59" transform="translate(0.01 0)" fill="none"/>
      <path id="water_feature_to_daylily" data-name="water feature to daylily" d="M831.82,704.59V676.67a9.84,9.84,0,0,1,6.67-9.43c71.13-22.83,281.17-99.68,372.15-98.29,66.94,1,125.89,8.57,176.31,20.58,109.74,26.15,320.28,104.15,342,34.44,11.86-38,32-207.66,45.25-271.57a16.73,16.73,0,0,0-13-19.76l-.42-.08c-70.43-12.95-104.18-44.68-145-49.12-39.91-4.28-143.57.59-143.57.59a8,8,0,0,1-8.16-7.84v-3.31" transform="translate(0.01 0)" fill="none"/>
    </g>
    <g id="from_peony" data-name="from peony">
      <path id="peony_to_daylily" data-name="peony to daylily" d="M1363.82,871.88l-.19-266c0-10.45,9.74-17.26,20-15.28C1493.57,611.73,1705.74,691.88,1729,624c11.7-34.12,36.18-211.91,45.25-271.56,1.4-9.2-4.52-18.21-13.67-19.9-70.29-13-104-44.68-144.85-49.07-39.91-4.28-143.57.59-143.57.59a8,8,0,0,1-8.16-7.84v-3.31" transform="translate(0.01 0)" fill="none"/>
      <path id="peony_to_bridge" data-name="peony to bridge" d="M1363.82,871.88l-.32-266c0-10.45,9.75-17.26,20-15.28,109.93,21.17,323.07,101.27,346.34,33.41,11.7-34.12,17.75-86.4,26.82-146" transform="translate(0.01 0)" fill="none"/>
      <path id="peony_to_bike_path" data-name="peony to bike path" d="M1363.82,871.88l-.32-266c0-10.45,9.75-17.26,20-15.28,109.93,21.17,188.16,62.77,306.86,57.16" transform="translate(0.01 0)" fill="none"/>
      <path id="peony_to_memory_garden" data-name="peony to memory garden" d="M1363.82,871.88V604.51a14.94,14.94,0,0,1,14.87-15,14.13,14.13,0,0,1,2.75.24c118,22.43,326.7,100.24,347.36,34,11.86-38,32-207.67,45.26-271.57a16.76,16.76,0,0,0-13-19.77l-.38-.07c-70.46-12.95-104.22-44.72-145.1-49.11-39.91-4.29-91.66-.19-143.57.58-102.56,1.52-276.37,51.24-381.47,44.65,0,0-24.74-3.41-52.6-18.18-20.8,31-82,86.09-163.38,55.19-47.61,65.25-124.9,83.1-188.41,45.85-23.45-13.76-75.71-39.58-122.28-52.71-49.23-13.87-87-19.1-112.8-19.24l-125.43.73" transform="translate(0.01 0)" fill="none"/>
    </g>
    <g id="from_bike_path" data-name="from bike path">
      <path id="bike_path_to_daylily" data-name="bike path to daylily" d="M1728.39,639.52l45.84-287.11c1.4-9.2-4.52-18.21-13.67-19.9-70.29-13-104-44.68-144.85-49.07-39.91-4.28-143.57.59-143.57.59a8,8,0,0,1-8.16-7.84v-3.31" transform="translate(0.01 0)" fill="none"/>
      <path id="bike_path_to_peony" data-name="bike path to peony" d="M1690.37,647.72c-118.7,5.61-196.93-36-306.86-57.16-10.26-2-20,4.83-20,15.28l.32,266.07" transform="translate(0.01 0)" fill="none"/>
      <path id="bike_path_to_bridge" data-name="bike path to bridge" d="M1724.66,639.29s25-133,35.11-195.94" transform="translate(0.01 0)" fill="none"/>
      <path id="bike_path_to_memory_garden" data-name="bike path to memory garden" d="M1728.39,639.52l45.66-287.33a16.73,16.73,0,0,0-13-19.77l-.4-.08c-70.46-12.95-104.22-44.72-145.1-49.11-39.91-4.29-91.66-.19-143.57.58-102.56,1.52-276.37,51.24-381.47,44.65,0,0-24.74-3.41-52.6-18.18-20.8,31-82,86.09-163.38,55.19-47.61,65.25-124.9,83.1-188.41,45.85-23.45-13.76-75.71-39.58-122.28-52.71-49.23-13.87-87-19.1-112.8-19.24l-125.43.73" transform="translate(0.01 0)" fill="none"/>
    </g>
    <g id="from_bridge" data-name="from bridge">
      <path id="bridge_to_daylily" data-name="bridge to daylily" d="M1729,624l45.25-271.56c1.4-9.2-4.52-18.21-13.67-19.9-70.29-13-104-44.68-144.85-49.07-39.91-4.28-143.57.59-143.57.59a8,8,0,0,1-8.16-7.84v-3.31" transform="translate(0.01 0)" fill="none"/>
      <path id="bridge_to_bike_path" data-name="bridge to bike path" d="M1759.74,443.35c-10.06,62.89-35.11,195.94-35.11,195.94" transform="translate(0.01 0)" fill="none"/>
      <path id="bridge_to_peony" data-name="bridge to peony" d="M1756.67,477.93c-9.07,59.64-15.12,111.92-26.82,146-23.27,67.86-236.41-12.24-346.34-33.41-10.26-2-20,4.83-20,15.28l.32,266.07" transform="translate(0.01 0)" fill="none"/>
      <path id="bridge_to_memory_garden" data-name="bridge to memory garden" d="M1728.8,623.75l45.25-271.56a16.73,16.73,0,0,0-13-19.77l-.4-.08c-70.46-12.95-104.22-44.72-145.1-49.11-39.91-4.29-91.66-.19-143.57.58-102.56,1.52-276.37,51.24-381.47,44.65,0,0-24.74-3.41-52.6-18.18-20.8,31-82,86.09-163.38,55.19-47.61,65.25-124.9,83.1-188.41,45.85-23.45-13.76-75.71-39.58-122.28-52.71-49.23-13.87-87-19.1-112.8-19.24l-125.43.73" transform="translate(0.01 0)" fill="none"/>
    </g>
    <g id="from_daylily" data-name="from daylily">
      <path id="daylily_to_peony" data-name="daylily to peony" d="M1464,272.88V276a8,8,0,0,0,8,8h.16s103.66-4.87,143.57-.59c40.83,4.39,74.56,36.1,144.85,49.07,9.15,1.69,15.07,10.7,13.67,19.9-9.07,59.65-33.55,237.44-45.25,271.56-23.24,67.9-235.41-12.25-345.35-33.42-10.26-2-20,4.83-20,15.28l.19,266.07" transform="translate(0.01 0)" fill="none"/>
      <path id="daylily_to_bridge" data-name="daylily to bridge" d="M1464,272.88V276a8,8,0,0,0,8,8h.16s103.66-4.87,143.57-.59c40.83,4.39,74.56,36.1,144.85,49.07,9.15,1.69,15.07,10.7,13.67,19.9L1729,624" transform="translate(0.01 0)" fill="none"/>
      <path id="daylily_to_memory_garden" data-name="daylily to memory garden" d="M1464,272.88v2a10,10,0,0,1-9.27,10c-104.25,7.38-266.27,49.77-364.22,43.63,0,0-24.74-3.41-52.6-18.18-20.8,31-82,86.09-163.38,55.19-47.61,65.25-124.9,83.1-188.41,45.85-23.45-13.76-75.71-39.58-122.28-52.71-49.23-13.87-87-19.1-112.8-19.24l-125.43.73" transform="translate(0.01 0)" fill="none"/>
      <path id="daylily_to_bike_path" data-name="daylily to bike path" d="M1464,272.88V276a8,8,0,0,0,8,8h.16s103.66-4.87,143.57-.59c40.83,4.39,74.56,36.1,144.85,49.07,9.15,1.69,15.07,10.7,13.67,19.9l-45.84,287.11" transform="translate(0.01 0)" fill="none"/>
    </g>
    <g id="from_memory_garden" data-name="from memory garden">
      <path id="memory_garden_to_peony" data-name="memory garden to peony" d="M325.59,340.1,451,339.37c25.83.14,63.57,5.37,112.8,19.24,46.57,13.13,98.83,38.95,122.28,52.71,63.51,37.25,140.8,19.4,188.41-45.85,81.37,30.9,142.58-24.15,163.38-55.19,27.86,14.77,52.6,18.18,52.6,18.18,105.1,6.59,278.91-43.13,381.47-44.65,51.91-.77,103.66-4.87,143.57-.58,40.88,4.39,74.64,36.16,145.1,49.11a16.75,16.75,0,0,1,13.5,19.46c0,.13,0,.25-.07.38-13.24,63.9-33.4,233.54-45.26,271.57-20.66,66.23-229.41-11.58-347.36-34a14.94,14.94,0,0,0-17.38,12,15.88,15.88,0,0,0-.24,2.75V871.88" transform="translate(0.01 0)" fill="none"/>
      <path id="memory_garden_to_bridge" data-name="memory garden to bridge" d="M325.59,340.1,451,339.37c25.83.14,63.57,5.37,112.8,19.24,46.57,13.13,98.83,38.95,122.28,52.71,63.51,37.25,140.8,19.4,188.41-45.85,81.37,30.9,142.58-24.15,163.38-55.19,27.86,14.77,52.6,18.18,52.6,18.18,105.1,6.59,278.91-43.13,381.47-44.65,51.91-.77,103.66-4.87,143.57-.58,40.88,4.39,74.64,36.16,145.1,49.11a16.74,16.74,0,0,1,13.5,19.45c0,.13-.05.27-.08.4L1728.8,623.75" transform="translate(0.01 0)" fill="none"/>
      <path id="memory_garden_to_daylily" data-name="memory garden to daylily" d="M325.59,340.1,451,339.37c25.83.14,63.57,5.37,112.8,19.24,46.57,13.13,98.83,38.95,122.28,52.71,63.51,37.25,140.8,19.4,188.41-45.85,81.37,30.9,142.58-24.15,163.38-55.19,27.86,14.77,52.6,18.18,52.6,18.18,98,6.14,260-36.25,364.22-43.63a10,10,0,0,0,9.27-10v-2" transform="translate(0.01 0)" fill="none"/>
      <path id="memory_garden_to_bike_path" data-name="memory garden to bike path" d="M325.59,340.1,451,339.37c25.83.14,63.57,5.37,112.8,19.24,46.57,13.13,98.83,38.95,122.28,52.71,63.51,37.25,140.8,19.4,188.41-45.85,81.37,30.9,142.58-24.15,163.38-55.19,27.86,14.77,52.6,18.18,52.6,18.18,105.1,6.59,278.91-43.13,381.47-44.65,51.91-.77,103.66-4.87,143.57-.58,40.88,4.39,74.64,36.16,145.1,49.11a16.74,16.74,0,0,1,13.5,19.45c0,.13-.05.27-.08.4l-45.66,287.33" transform="translate(0.01 0)" fill="none"/>
    </g>
  </g>
  <g id="gazebo">
    <circle cx="1363.61" cy="687.65" r="33.41" fill="#f7f2db"/>
    <g id="gazebo_icon" data-name="gazebo icon">
      <polygon points="1350.47 702.48 1350.47 700.09 1349.02 700.09 1349.02 682 1349.78 682 1349.78 679.75 1345.15 679.75 1345.15 682 1345.98 682 1345.98 700.09 1345.86 700.09 1344.4 700.09 1344.4 702.48 1345.86 702.48 1345.98 702.48 1345.98 706.35 1345.86 706.35 1344.4 706.35 1344.4 707.89 1345.86 707.89 1349.02 707.89 1350.47 707.89 1350.47 706.35 1349.02 706.35 1349.02 702.48 1350.47 702.48" fill="#383838"/>
      <polygon points="1358.88 702.48 1358.88 700.09 1357.42 700.09 1357.42 682 1358.17 682 1358.17 679.75 1353.57 679.75 1353.57 682 1354.39 682 1354.39 700.09 1354.27 700.09 1352.82 700.09 1352.82 702.48 1354.27 702.48 1354.39 702.48 1354.39 706.35 1354.27 706.35 1352.82 706.35 1352.82 707.89 1354.27 707.89 1357.42 707.89 1358.88 707.89 1358.88 706.35 1357.42 706.35 1357.42 702.48 1358.88 702.48" fill="#383838"/>
      <polygon points="1374.79 702.48 1374.79 700.09 1373.34 700.09 1373.34 682 1374.09 682 1374.09 679.75 1369.47 679.75 1369.47 682 1370.31 682 1370.31 700.09 1370.17 700.09 1368.71 700.09 1368.71 702.48 1370.17 702.48 1370.31 702.48 1370.31 706.35 1370.17 706.35 1368.71 706.35 1368.71 707.89 1370.17 707.89 1373.34 707.89 1374.79 707.89 1374.79 706.35 1373.34 706.35 1373.34 702.48 1374.79 702.48" fill="#383838"/>
      <polygon points="1383.19 702.48 1383.19 700.09 1381.73 700.09 1381.73 682 1382.49 682 1382.49 679.75 1377.88 679.75 1377.88 682 1378.7 682 1378.7 700.09 1378.59 700.09 1377.13 700.09 1377.13 702.48 1378.59 702.48 1378.7 702.48 1378.7 706.35 1378.59 706.35 1377.13 706.35 1377.13 707.89 1378.59 707.89 1381.73 707.89 1383.19 707.89 1383.19 706.35 1381.73 706.35 1381.73 702.48 1383.19 702.48" fill="#383838"/>
      <path d="M1364,663a16.75,16.75,0,0,0-16.75,16.75h33.54A16.75,16.75,0,0,0,1364,663Z" transform="translate(0.01 0)" fill="none" stroke="#383838" stroke-miterlimit="10" stroke-width="1.83"/>
      <path d="M1364,663c-6.53,0-13.49,9.9-13.49,16.78h27C1377.44,672.88,1370.48,663,1364,663Z" transform="translate(0.01 0)" fill="none" stroke="#383838" stroke-miterlimit="10" stroke-width="1.83"/>
      <path d="M1364,663c-5.06,0-8,9.9-8,16.77H1372C1372,672.88,1369,663,1364,663Z" transform="translate(0.01 0)" fill="none" stroke="#383838" stroke-miterlimit="10" stroke-width="1.83"/>
      <polygon points="1364.41 660.71 1363.95 657.17 1363.95 657.17 1363.51 660.71 1363.05 660.71 1363.05 679.75 1364.88 679.75 1364.88 660.71 1364.41 660.71" fill="#383838"/>
      <rect x="1348.32" y="672.77" width="31.26" height="1.83" fill="#383838"/>
      <rect x="1351.85" y="667.54" width="24.23" height="1.83" fill="#383838"/>
    </g>
  </g>
  <g id="streets">
    <g id="streets-2">
      <path d="M1879.74,45.88v990H49.74v-990h1830m45-45H4.74v1080h1920Z" transform="translate(0.01 0)" fill="#f7f2db"/>
    </g>
    <g id="street_names_text" data-name="street names text">
      <g style="isolation: isolate">
        <text transform="translate(908.62 1061.94)" font-size="21" fill="#477043" font-family="Lato-Bold, Lato" font-weight="700" style="isolation: isolate">AREN</text>
        <text transform="translate(972.01 1061.94)" font-size="21" fill="#477043" font-family="Lato-Bold, Lato" font-weight="700" style="isolation: isolate">A</text>
        <text transform="translate(987.8 1061.94)" font-size="21" fill="#477043" font-family="Lato-Bold, Lato" font-weight="700" style="isolation: isolate"><tspan xml:space="preserve"> S</tspan></text>
        <text transform="translate(1007.43 1061.94)" font-size="21" fill="#477043" font-family="Lato-Bold, Lato" font-weight="700" style="isolation: isolate">T</text>
      </g>
      <text transform="translate(904.57 32.16)" font-size="21" fill="#477043" font-family="Lato-Bold, Lato" font-weight="700" style="isolation: isolate">KAISER CR</text>
      <g style="isolation: isolate">
        <text transform="translate(37.93 639.48) rotate(-90)" font-size="21" fill="#477043" font-family="Lato-Bold, Lato" font-weight="700" style="isolation: isolate">ADELAIDE</text>
        <text transform="translate(37.93 523.44) rotate(-90)" font-size="21" fill="#477043" font-family="Lato-Bold, Lato" font-weight="700" style="isolation: isolate"> </text>
        <text transform="translate(37.93 517.73) rotate(-90)" font-size="21" fill="#477043" font-family="Lato-Bold, Lato" font-weight="700" style="isolation: isolate">A</text>
        <text transform="translate(37.93 502.5) rotate(-90)" font-size="21" fill="#477043" font-family="Lato-Bold, Lato" font-weight="700" style="isolation: isolate">VE W</text>
      </g>
      <g style="isolation: isolate">
        <text transform="translate(1908.5 607.64) rotate(-90)" font-size="21" fill="#477043" font-family="Lato-Bold, Lato" font-weight="700" style="isolation: isolate">BOND S</text>
        <text transform="translate(1908.5 518.23) rotate(-90)" font-size="21" fill="#477043" font-family="Lato-Bold, Lato" font-weight="700" style="isolation: isolate">T</text>
        <text transform="translate(1908.5 504.51) rotate(-90)" font-size="21" fill="#477043" font-family="Lato-Bold, Lato" font-weight="700" style="isolation: isolate"><tspan xml:space="preserve"> W</tspan></text>
      </g>
    </g>
  </g>
  <g id="icons">
    <g id="bike_path_icon" data-name="bike path icon">
      <g id="pin">
        <path d="M1523.32,514.5a40.77,40.77,0,1,0-42.06,40.74v56.24l1.29,2.23,1.28-2.23V555.24A40.78,40.78,0,0,0,1523.32,514.5Z" transform="translate(0.01 0)" fill="#383838" stroke="#383838" stroke-miterlimit="10"/>
        <circle cx="1482.56" cy="514.51" r="38.76" fill="#f7f2db"/>
      </g>
      <g id="Bike">
        <path d="M1470.61,520.15a8.64,8.64,0,1,0,8.64,8.64h0a8.63,8.63,0,0,0-8.63-8.63Zm0,16.41a7.78,7.78,0,1,1,7.79-7.78,7.78,7.78,0,0,1-7.79,7.78Z" transform="translate(0.01 0)" fill="none" stroke="#383838" stroke-miterlimit="10" stroke-width="1.1"/>
        <circle cx="1470.6" cy="529.18" r="1.04" fill="#383838"/>
        <path d="M1497,518.13a8.64,8.64,0,1,0,8.64,8.64,8.64,8.64,0,0,0-8.64-8.64Zm0,16.42a7.78,7.78,0,1,1,7.78-7.78,7.78,7.78,0,0,1-7.78,7.78Z" transform="translate(0.01 0)" fill="none" stroke="#383838" stroke-miterlimit="10" stroke-width="1.1"/>
        <circle cx="1497.03" cy="526.77" r="1.04" fill="#383838"/>
        <polygon points="1470.78 529.18 1483.51 528.25 1489.69 514.02 1476.55 515.02 1470.78 529.18" fill="none" stroke="#383838" stroke-miterlimit="10" stroke-width="1.1"/>
        <line x1="1483.51" y1="528.24" x2="1475.54" y2="513.01" fill="none" stroke="#383838" stroke-miterlimit="10" stroke-width="1.1"/>
        <line x1="1489.09" y1="511.36" x2="1497.06" y2="527.2" fill="none" stroke="#383838" stroke-miterlimit="10" stroke-width="1.1"/>
        <path d="M1489.11,511.48l6.1-.46a2.24,2.24,0,0,1,.73,0,1.73,1.73,0,0,1,1,.86,1,1,0,0,1,.24.55.9.9,0,0,1-.61.73,3.4,3.4,0,0,1-1.09.21" transform="translate(0.01 0)" fill="none" stroke="#383838" stroke-linecap="round" stroke-miterlimit="10" stroke-width="1.1"/>
        <path d="M1493.11,511.17l2-.15a2.24,2.24,0,0,1,.73,0,1.73,1.73,0,0,1,1,.86,1.14,1.14,0,0,1,.24.55.9.9,0,0,1-.61.73,3.41,3.41,0,0,1-1.1.21" transform="translate(0.01 0)" fill="none" stroke="#383838" stroke-linecap="round" stroke-miterlimit="10" stroke-width="1.1"/>
        <circle cx="1483.51" cy="528.24" r="1.07"/>
        <circle cx="1483.72" cy="492.78" r="4.64" fill="#383838"/>
        <path d="M1492.28,509l-5.39-2.15-3.7-7.28h0a1.38,1.38,0,0,0-.59-.58,2.73,2.73,0,0,0-.93-.79l-2.28-1.23a3,3,0,0,0-4,1.19l-5.65,10.38v.09l-.09.14-.25.45a2.16,2.16,0,0,0,.86,2.93h0l.62.34.08,0,2.28,1.23h.08l5.79,3.13a2.33,2.33,0,0,0,.33.14l2.46,11.74a1.23,1.23,0,0,0,1.45,1l1.16-.25a1.23,1.23,0,0,0,1-1.42v0l-2.91-13.86a3,3,0,0,0-1.08-1.54l-3.27-1.77,4-7.3,2.38,4.68h0a1.4,1.4,0,0,0,.54.54,1.22,1.22,0,0,0,.71.76l5.49,2.2h0a1.23,1.23,0,0,0,1.58-.71l.18-.48A1.28,1.28,0,0,0,1492.28,509Z" transform="translate(0.01 0)" fill="#383838"/>
      </g>
      <line id="line1" x1="1460.74" y1="540.44" x2="1506.3" y2="537.39" fill="none" stroke="#383838" stroke-miterlimit="10" stroke-width="0.76"/>
      <line id="line2" x1="1466.63" y1="543.04" x2="1500.41" y2="540.78" fill="none" stroke="#383838" stroke-miterlimit="10" stroke-width="0.76"/>
      <line id="line3" x1="1470.17" y1="545.63" x2="1497.67" y2="543.8" fill="none" stroke="#383838" stroke-miterlimit="10" stroke-width="0.76"/>
    </g>
    <g id="daylily_icon" data-name="daylily icon">
      <g id="pin-2">
        <path d="M1361.79,204.07a40.8,40.8,0,1,0-42,40.81v56.29l1.28,2.23,1.28-2.23V244.88A40.79,40.79,0,0,0,1361.79,204.07Z" transform="translate(0.01 0)" fill="#383838" stroke="#383838" stroke-miterlimit="10"/>
        <circle cx="1321" cy="204.08" r="38.79" fill="#f7f2db"/>
      </g>
      <path id="daylily_outside" data-name="daylily outside" d="M1344.41,188.21c-1.25-1.62-8.38.34-16.07,4.81a.68.68,0,0,1-.92-.25.67.67,0,0,1-.09-.34c.31-8.75-.22-15.18-2.23-15.48s-5,5.59-7,14a.67.67,0,0,1-.8.51h0a.66.66,0,0,1-.34-.2c-6.1-6.43-11.18-10.15-12.78-8.95s.67,7,5.37,14.43a.66.66,0,0,1-.59,1c-9-.39-15.93.59-16.18,2.57s6.2,4.39,14.92,6.49a.67.67,0,0,1,.49.8v0a.57.57,0,0,1-.2.32c-6.56,5.87-11.48,10.91-10.23,12.5s8.39-.67,16-5.17a.67.67,0,0,1,.92.24h0a.68.68,0,0,1,.09.37c-.36,8.72-.45,15.15,1.56,15.46s5.59-5.59,7.72-14.17a.67.67,0,0,1,.8-.51h0a.66.66,0,0,1,.34.2c6,6.51,10.37,10.79,12,9.59s0-7.49-4.53-15a.67.67,0,0,1,.24-.92h0a.6.6,0,0,1,.37-.09c8.89.42,15.74-.14,16-2.1s-6.15-4.83-14.84-7a.64.64,0,0,1-.28-1.15C1340.67,194.5,1345.64,189.8,1344.41,188.21Z" transform="translate(0.01 0)" fill="#383838"/>
      <path id="daylily_inside" data-name="daylily inside" d="M1331.89,197.57c-9,4.87-7.77,2.07-3.69-7.6-4.25,9.53-7.07,11.52-6.37,1.87-1,9.62-3.8,7.24-11.71.28,7.66,7.08,9,10.32,1.31,4.73,7.85,5.59,7.77,5.59-.42.61,8.11,5.06,4.33,5.2-5.9,6.18,10.18-.7,13.28.25,4.34,3.13,9.56-2.49,9.56-2.43.44,1.51,8.89-3.75,6.57-1.7,0,6.32,6.77-7.8,10.18-8.67,7.47.84,3.1-9.68,3.13-9.65,1.78.5,1.54-9.81,3.16-7,3.42,3.24,0-10.28.33-11.77,6.48-5.45-5.37-7.69-3.35-6.62,3.58.59-6.71-7.47-9-9.9.86-7.07-10.11-3.11-10.25-3.11-.5-.79-9.75-2.32-9.5-2.4.84-1-10.06-1.56-7-2.48,3-1.87C1326.58,202.66,1324.9,202.44,1331.89,197.57Z" transform="translate(0.01 0)" fill="#f7f2db"/>
    </g>
    <g id="water_feature_icon" data-name="water feature icon">
      <g id="pin-3">
        <path d="M809.42,666.49a40.8,40.8,0,1,0-42.08,40.77v56.29l1.28,2.23,1.28-2.23V707.26A40.8,40.8,0,0,0,809.42,666.49Z" transform="translate(0.01 0)" fill="#383838" stroke="#383838" stroke-miterlimit="10"/>
        <circle cx="768.64" cy="666.5" r="38.79" fill="#f7f2db"/>
      </g>
      <g id="water_drop" data-name="water drop">
        <g id="park_map" data-name="park map">
          <g id="water_feature_icon-2" data-name="water feature icon-2">
            <path id="droplet" d="M769.24,635.37,753,667.78c-6.06,12.13,2.36,27,15.88,27.12h.63c13.52-.15,22-15,15.89-27.12Z" transform="translate(0.01 0)" fill="#383838"/>
          </g>
        </g>
      </g>
      <g id="fountain">
        <ellipse cx="769.24" cy="678.99" rx="13" ry="3.44" fill="#f7f2db"/>
        <ellipse cx="769.24" cy="684.23" rx="7.9" ry="1.72" fill="#f7f2db"/>
        <ellipse cx="769.24" cy="687.69" rx="5" ry="1.72" fill="#f7f2db"/>
        <g>
          <path d="M769.23,677.05c-.31-3.2-1.5-9.55-5.89-12.62a1.88,1.88,0,0,1-1-2.28c.63-2.26,4.49-5.14,6.88-5.14,2.16,0,5.88,2.34,6.72,4.74a2.21,2.21,0,0,1-.77,2.68C770.81,667.51,769.58,673.88,769.23,677.05Z" transform="translate(0.01 0)" fill="#f7f2db"/>
          <path d="M769.27,657.13c2.12,0,5.78,2.31,6.6,4.66a2.09,2.09,0,0,1-.71,2.53c-3.18,2.22-4.69,6.09-5.4,8.94-.24,1-.4,1.89-.52,2.69-.11-.8-.27-1.72-.5-2.68-.69-2.86-2.17-6.73-5.35-9a1.75,1.75,0,0,1-.88-2.12c.62-2.22,4.41-5.06,6.76-5.06m0-.25c-3.31,0-9.64,5.47-6,7.65,6,4.2,6,14.44,6,14.46s0-10.26,6.07-14.46c3.35-2.68-2.72-7.65-6-7.65Z" transform="translate(0.01 0)" fill="#383838"/>
        </g>
      </g>
    </g>
    <g id="bridge_icon" data-name="bridge icon">
      <g id="pin-4">
        <path d="M1794.33,386.32a40.8,40.8,0,1,0-42.08,40.77v56.29l1.28,2.23,1.28-2.23V427.09A40.8,40.8,0,0,0,1794.33,386.32Z" transform="translate(0.01 0)" fill="#383838" stroke="#383838" stroke-miterlimit="10"/>
        <circle cx="1753.54" cy="386.33" r="38.79" fill="#f7f2db"/>
      </g>
      <g id="bridge-2">
        <path d="M1753.53,376.73c-10.22,0-19.93,3.11-26.28,7.27V399a1,1,0,0,0,1,1h9a1,1,0,0,0,1-1v-.7a15.17,15.17,0,1,1,30.34-.14h0V399a1,1,0,0,0,1,1h9a1,1,0,0,0,1-1V384C1773.39,379.78,1763.67,376.73,1753.53,376.73Z" transform="translate(0.01 0)" fill="#383838"/>
        <path d="M1778.26,372.16a1.56,1.56,0,0,0-1.54,1.55v.17a44.63,44.63,0,0,0-8.09-3.5v-1.7a1.55,1.55,0,0,0-3.1,0v.82a49.09,49.09,0,0,0-10.45-1.45v-1.17a1.55,1.55,0,0,0-3.1,0v1.22a49.09,49.09,0,0,0-10.45,1.45v-.82a1.55,1.55,0,0,0-3.1,0v1.7a44.94,44.94,0,0,0-8.09,3.5v-.17a1.55,1.55,0,1,0-3.09-.25,1,1,0,0,0,0,.25v8.69c1-.58,2.08-1.13,3.09-1.61v-3.29a37.8,37.8,0,0,1,8.09-3.86v4.12c1.06-.3,2.06-.55,3.1-.78v-4.29a45.59,45.59,0,0,1,10.45-1.55v4.55h3.1v-4.55a45.59,45.59,0,0,1,10.45,1.55V377c1,.23,2,.48,3.1.78v-4.12a38.51,38.51,0,0,1,8.09,3.86v3.29c1.09.52,2.12,1.06,3.09,1.61v-8.69a1.55,1.55,0,0,0-1.5-1.6Z" transform="translate(0.01 0)" fill="#383838"/>
      </g>
      <path id="wave_1" data-name="wave 1" d="M1774,404.88c-.11,5.33-13.59,5.33-13.59,0,0,5.33-13.62,5.33-13.62,0,0,5.33-13.44,5.38-13.44,0" transform="translate(0.01 0)" fill="none" stroke="#383838" stroke-linejoin="round" stroke-width="0.78"/>
      <path id="wave_2" data-name="wave 2" d="M1769.53,411.32c-.09,4.19-10.7,4.19-10.7,0,0,4.19-10.72,4.19-10.72,0,0,4.19-10.58,4.23-10.58,0" transform="translate(0.01 0)" fill="none" stroke="#383838" stroke-linejoin="round" stroke-width="0.78"/>
    </g>
    <g id="peony_icon" data-name="peony icon">
      <g id="pin-5">
        <path d="M1553,751.88a40.81,40.81,0,1,0-42.09,40.77v56.23l1.28,2.23,1.29-2.23V792.61A40.8,40.8,0,0,0,1553,751.88Z" transform="translate(0.01 0)" fill="#383838" stroke="#383838" stroke-miterlimit="10"/>
        <circle cx="1512.22" cy="751.79" r="38.79" fill="#f7f2db"/>
      </g>
      <g id="peony">
        <path d="M1529.09,733.8l-.21,4.64a6.4,6.4,0,0,0,4.23,6.3l4.36,1.59a6.38,6.38,0,0,1,.78,11.69l-4.12,2.16a6.44,6.44,0,0,0-3.31,6.7l.81,4.58a6.42,6.42,0,0,1-9.76,6.52l-3.93-2.48a6.36,6.36,0,0,0-7.54.52l-3.58,3a6.39,6.39,0,0,1-10.51-5.18l.19-4.66a6.39,6.39,0,0,0-4.23-6.27l-4.36-1.4a6.41,6.41,0,0,1-.78-11.72l4.12-2.16a6.42,6.42,0,0,0,3.28-6.87l-.83-4.58a6.41,6.41,0,0,1,9.75-6.54l3.93,2.5a6.41,6.41,0,0,0,7.54-.51l3.64-3a6.41,6.41,0,0,1,10.53,5.17Z" transform="translate(0.01 0)" fill="#383838"/>
        <path d="M1528.82,749h0a5.85,5.85,0,0,0,.73,6.87h0a5.84,5.84,0,0,1-4.52,9.69h0a5.9,5.9,0,0,0-5.82,4h0a5.85,5.85,0,0,1-10.78.94h0a5.84,5.84,0,0,0-6.25-2.94h0a5.84,5.84,0,0,1-6.78-4.72h0a5.77,5.77,0,0,1,.75-4.06h0a5.84,5.84,0,0,0-.59-6.87h0a5.87,5.87,0,0,1,4.52-9.72h0a5.88,5.88,0,0,0,5.69-4h0a5.84,5.84,0,0,1,10.77-.92h0a5.84,5.84,0,0,0,6.25,2.94h0a5.84,5.84,0,0,1,6,8.73Z" transform="translate(0.01 0)" fill="#f7f2db"/>
        <path d="M1524.62,750.72h0a4.31,4.31,0,0,0,.43,5.07h0a4.27,4.27,0,0,1-.38,6,4.33,4.33,0,0,1-2.93,1.09h0a4.37,4.37,0,0,0-4.18,2.91h0a4.3,4.3,0,0,1-5.46,2.67h0a4.27,4.27,0,0,1-2.36-2h0a4.27,4.27,0,0,0-4.58-2.16h0a4.31,4.31,0,0,1-4.53-6.44h0a4.28,4.28,0,0,0-.43-5.06h0a4.31,4.31,0,0,1,3.34-7.14h0a4.25,4.25,0,0,0,4.15-2.91h0a4.31,4.31,0,0,1,7.84-.67h0a4.3,4.3,0,0,0,4.6,2.15h0a4.28,4.28,0,0,1,4.5,6.44Z" transform="translate(0.01 0)" fill="none" stroke="#383838" stroke-miterlimit="10"/>
        <circle cx="1512.81" cy="754.36" r="4.98" fill="none" stroke="#383838" stroke-miterlimit="10"/>
      </g>
    </g>
    <g id="parking_icon" data-name="parking icon">
      <circle cx="1287.44" cy="973.6" r="21.4" fill="#606060"/>
      <g id="P">
        <path d="M1285.93,987h-6.83V960.67H1290c3,0,5.21.76,6.78,2.3a10.12,10.12,0,0,1,0,13q-2.35,2.29-6.78,2.3h-4Zm0-14.22h2.27q3.77,0,3.76-3.28c0-2.18-1.25-3.28-3.76-3.28h-2.27Z" transform="translate(0.01 0)" fill="#f7f2db"/>
      </g>
    </g>
    <g id="arena_icon" data-name="arena icon">
      <circle cx="811.56" cy="974.46" r="21.4" fill="#606060"/>
      <g id="player">
        <g>
          <path d="M811.16,983.13l-.23.45a1.16,1.16,0,0,0,.53,1.55,1,1,0,0,0,.6.12,1.18,1.18,0,0,0,1-.65l.34-.68-2.16-.77Z" transform="translate(0.01 0)" fill="#f7f2db"/>
          <path d="M803,982.33l-.57.4a1.17,1.17,0,0,0,1.19,2,.78.78,0,0,0,.15-.1l.65-.45L803,982.35Z" transform="translate(0.01 0)" fill="#f7f2db"/>
          <path d="M805.21,968.66h0l2.09-1-.13-.25a1.2,1.2,0,0,0-1.54-.6,1.17,1.17,0,0,0-.62.67,1.14,1.14,0,0,0,.06.92Z" transform="translate(0.01 0)" fill="#f7f2db"/>
          <path d="M811.6,964.65c-2.29.2-2.07,2.3-1.8,3.39a.78.78,0,0,0,.82.59l1.12-.1a.58.58,0,0,0,.53-.63h0a.58.58,0,0,1,.53-.63h0l1.63-.14c.26,0,.29-.28.32-.54C814.82,965.93,814.3,964.41,811.6,964.65Z" transform="translate(0.01 0)" fill="#f7f2db"/>
          <path d="M813,968a1.34,1.34,0,0,1-1.23,1.27l-1.23.11a2.33,2.33,0,0,0,4.45-1.16,2.46,2.46,0,0,0-.1-.47,1.16,1.16,0,0,1-.44.12Z" transform="translate(0.01 0)" fill="#f7f2db"/>
          <path d="M819.3,969.08l-.3-2.31a1.17,1.17,0,0,1,.38-1l2.16-1.9.13-.12a1,1,0,0,0,.3-.76,1,1,0,0,0-.4-.72,1.36,1.36,0,0,0-1.87.11l-2.12,1.88a1.13,1.13,0,0,0-.37,1.08l.67,3.65h0a1.33,1.33,0,0,0-.3.23l-.18.2,1.78,1.49h0l-.53.57L816.88,970l-1.39,1.53a.75.75,0,0,1-.89.18,8.74,8.74,0,0,0-1-.41l-3.22-1.14a3,3,0,0,0-1.46-.15h-.17a.41.41,0,0,1-.4-.2l-.74-1.46-2.09,1,1,1.95a2,2,0,0,0,2,1l.56-.09-1.73,6.6a1.29,1.29,0,0,1-.54.77l-3.15,2.31,1.4,1.84h0l3.69-2.58a1.88,1.88,0,0,0,.55-.64l.26-.54a.78.78,0,0,1,1-.36l1.15.57a.88.88,0,0,1,.4.45.78.78,0,0,1,0,.6l-.61,1.19,2.21.79.86-1.64a2.32,2.32,0,0,0-1.05-3.11h0l-1.82-.9a.79.79,0,0,1-.4-.46.81.81,0,0,1,.06-.61l1.65-3,1,.52a2.35,2.35,0,0,0,2.79-.49l1.6-1.75,1.54,8.27a.37.37,0,0,0,.42.31h0a.39.39,0,0,0,.39-.39s0-.05,0-.07l-1.21-9.37a1.16,1.16,0,0,0-.25-1.52" transform="translate(0.01 0)" fill="#f7f2db"/>
        </g>
      </g>
      <line id="line1-2" x1="800.42" y1="986.83" x2="822.8" y2="986.82" fill="none" stroke="#f7f2db" stroke-linecap="round" stroke-miterlimit="10" stroke-width="0.49"/>
      <line id="line2-2" x1="803.2" y1="988.25" x2="819.82" y2="988.29" fill="none" stroke="#f7f2db" stroke-linecap="round" stroke-miterlimit="10" stroke-width="0.49"/>
    </g>
    <g id="compass">
      <g id="Compass-2">
        <path d="M276.93,956.32l6-11.34-11.34,6,1,4.32Z" transform="translate(0.01 0)" fill="#383838"/>
        <path d="M250.66,956.32l4.31-1,1-4.32-11.33-6Z" transform="translate(0.01 0)" fill="#383838"/>
        <path d="M250.66,971.88l-6,11.33,11.33-6-1-4.32Z" transform="translate(0.01 0)" fill="#383838"/>
        <path d="M276.93,971.88l-4.31,1-1,4.32,11.34,6Z" transform="translate(0.01 0)" fill="#383838"/>
        <path d="M265.67,964.11l6.26,6.26,26.3-6.26-26.3-6.23Z" transform="translate(0.01 0)" fill="#383838"/>
        <path d="M270.06,956l-6.26-26.3L257.53,956l6.27,6.26Z" transform="translate(0.01 0)" fill="#383838"/>
        <path d="M261.92,964.11l-6.26-6.23-26.3,6.26,26.3,6.26Z" transform="translate(0.01 0)" fill="#c44343"/>
        <path d="M257.53,972.25l6.27,26.3,6.26-26.3L263.8,966Z" transform="translate(0.01 0)" fill="#383838"/>
      </g>
      <g id="north">
        <path d="M220.13,959.07l4.87,6.11v-4.24a2,2,0,0,0-.26-1.2,1.38,1.38,0,0,0-1.17-.4v-.27h3.26v.27a2.71,2.71,0,0,0-.84.2.86.86,0,0,0-.33.42,2.81,2.81,0,0,0-.12,1v8.22h-.25L218.62,961v6.27a1.4,1.4,0,0,0,.39,1.15,1.43,1.43,0,0,0,.89.3h.23V969h-3.5v-.27a1.21,1.21,0,0,0,1.46-1.45v-7l-.21-.26a2,2,0,0,0-.56-.52,1.8,1.8,0,0,0-.69-.13v-.27Z" transform="translate(0.01 0)" fill="#383838"/>
      </g>
      <g id="south">
        <path d="M308.12,959l.08,3.29h-.3a3.34,3.34,0,0,0-1-2,2.62,2.62,0,0,0-1.79-.75,1.71,1.71,0,0,0-1.17.39,1.25,1.25,0,0,0-.44.92,1.08,1.08,0,0,0,.16.58,2.38,2.38,0,0,0,.67.67,16.1,16.1,0,0,0,1.58.86,6.93,6.93,0,0,1,2.33,1.6,2.72,2.72,0,0,1,.6,1.73,2.79,2.79,0,0,1-1,2.13,3.41,3.41,0,0,1-2.45.89,4.31,4.31,0,0,1-.88-.09,6,6,0,0,1-1-.36,1.45,1.45,0,0,0-.58-.14.74.74,0,0,0-.4.14,1.08,1.08,0,0,0-.34.45h-.27v-3.73h.27a4.36,4.36,0,0,0,1.24,2.4,2.82,2.82,0,0,0,2,.82,1.82,1.82,0,0,0,1.3-.44,1.33,1.33,0,0,0,.3-1.71,2,2,0,0,0-.56-.62,9.32,9.32,0,0,0-1.34-.77,11.41,11.41,0,0,1-1.94-1.13,3.44,3.44,0,0,1-.9-1,2.7,2.7,0,0,1,.55-3.26A3,3,0,0,1,305,959a3.65,3.65,0,0,1,.93.12,4,4,0,0,1,.83.32,2.1,2.1,0,0,0,.69.24.39.39,0,0,0,.3-.12,1.26,1.26,0,0,0,.2-.56Z" transform="translate(0.01 0)" fill="#383838"/>
      </g>
      <g id="west">
        <path d="M271.11,1002.35v.27a.87.87,0,0,0-.46.15,1.19,1.19,0,0,0-.34.4c0,.06-.18.43-.45,1.13l-3.1,8.14h-.28l-2.44-6.36-2.7,6.36h-.26l-3.25-8.06a7.8,7.8,0,0,0-.69-1.46.89.89,0,0,0-.66-.3v-.27h4.26v.27a1.19,1.19,0,0,0-.69.15.46.46,0,0,0-.17.36,4.38,4.38,0,0,0,.35,1.17l1.94,4.78,1.55-3.74-.41-1a7,7,0,0,0-.52-1.15,1.15,1.15,0,0,0-.41-.41,1.67,1.67,0,0,0-.7-.12v-.27h4.78v.27a2.49,2.49,0,0,0-.72.08.46.46,0,0,0-.24.17.44.44,0,0,0-.09.27,5.86,5.86,0,0,0,.33,1l1.8,4.67,1.6-4.23c.17-.44.28-.73.32-.89a1.74,1.74,0,0,0,.06-.45.58.58,0,0,0-.21-.47,1.34,1.34,0,0,0-.78-.18v-.27Z" transform="translate(0.01 0)" fill="#383838"/>
      </g>
      <g id="east">
        <path d="M263.07,917.3v4h.2a1.59,1.59,0,0,0,1.36-.59,3.7,3.7,0,0,0,.54-1.74h.27v5.16h-.27a3.87,3.87,0,0,0-.37-1.38,1.52,1.52,0,0,0-.65-.72,2.49,2.49,0,0,0-1.08-.19v2.78a4.81,4.81,0,0,0,.07,1,.59.59,0,0,0,.26.3,1.41,1.41,0,0,0,.61.11h.59a3.18,3.18,0,0,0,3.41-2.59h.27l-.44,3.14h-8.53v-.27h.33a1.37,1.37,0,0,0,.69-.15.67.67,0,0,0,.29-.35,2.94,2.94,0,0,0,.12-.93v-6.49a3.75,3.75,0,0,0,0-.82.62.62,0,0,0-.26-.39,1.27,1.27,0,0,0-.76-.21h-.33v-.26h8.26v2.91h-.28a3.68,3.68,0,0,0-.59-1.53,2.26,2.26,0,0,0-1.08-.69,6.05,6.05,0,0,0-1.53-.13Z" transform="translate(0.01 0)" fill="#383838"/>
      </g>
    </g>
  </g>
  <g id="names">
    <g id="parking_text" data-name="parking text" style="isolation: isolate">
      <text transform="translate(1321.04 967.08)" font-size="24" fill="#383838" font-family="Arial-BoldMT, Arial" font-weight="700" style="isolation: isolate">Accessible</text>
      <text transform="translate(1321.04 995.88)" font-size="24" fill="#383838" font-family="Arial-BoldMT, Arial" font-weight="700" style="isolation: isolate">Parking</text>
    </g>
    <g id="childrens_arena_text" data-name="childrens arena text" style="isolation: isolate">
      <text transform="translate(842.57 967.16)" font-size="24" fill="#383838" font-family="Arial-BoldMT, Arial" font-weight="700" style="isolation: isolate">Childrens </text>
      <text transform="translate(842.57 995.96)" font-size="24" fill="#383838" font-family="Arial-BoldMT, Arial" font-weight="700" style="isolation: isolate">Arena</text>
    </g>
  </g>
  <g id="names_ALTERNATIVE" data-name="names ALTERNATIVE">
    <g id="memory_garden_text" data-name="memory garden text">
      <rect x="450.06" y="407.61" width="195" height="35" rx="4.29" fill="#494949" stroke="#f7f2db" stroke-width="0.79"/>
      <text transform="translate(460.86 430.97)" font-size="21" fill="#f7f2db" font-family="ArialMT, Arial" style="isolation: isolate">Memory Garden</text>
    </g>
    <g id="oshawa_creek_text" data-name="oshawa creek text">
      <rect x="864.15" y="488.76" width="175" height="35" rx="4.06" fill="#494949" stroke="#f7f2db" stroke-width="0.81"/>
      <text transform="translate(873.36 513.12)" font-size="21" fill="#f7f2db" font-family="ArialMT, Arial" style="isolation: isolate">Oshawa Creek</text>
    </g>
    <g id="peony_garden-2" data-name="peony garden-2">
      <rect x="1385.12" y="869.13" width="175" height="35" rx="4.06" fill="#494949" stroke="#f7f2db" stroke-width="0.81"/>
      <text transform="translate(1396.62 893.49)" font-size="21" fill="#f7f2db" font-family="ArialMT, Arial" style="isolation: isolate">Peony Garden</text>
    </g>
    <g id="peony_garden-3" data-name="peony garden-3">
      <rect x="1167.54" y="869.13" width="175" height="35" rx="4.06" fill="#494949" stroke="#f7f2db" stroke-width="0.81"/>
      <text transform="translate(1178.05 893.49)" font-size="21" fill="#f7f2db" font-family="ArialMT, Arial" style="isolation: isolate">Main Entrance</text>
    </g>
    <g id="rotary_bridge_text" data-name="rotary bridge text">
      <rect x="1537.41" y="364.91" width="165" height="35" rx="3.95" fill="#494949" stroke="#f7f2db" stroke-width="0.79"/>
      <text transform="translate(1547.59 388.27)" font-size="21" fill="#f7f2db" font-family="ArialMT, Arial" style="isolation: isolate">Rotary Bridge</text>
    </g>
    <g id="daylily_text" data-name="daylily text">
      <rect x="1377.02" y="308.22" width="205" height="35" rx="4.4" fill="#494949" stroke="#f7f2db" stroke-width="0.88"/>
      <text transform="translate(1386.97 332.58)" font-size="21" fill="#f7f2db" font-family="ArialMT, Arial" style="isolation: isolate">Daylily Collection</text>
    </g>
    <g id="waterfall_garden_text" data-name="waterfall garden text">
      <rect x="518.12" y="643.56" width="200" height="35" rx="4.35" fill="#494949" stroke="#f7f2db" stroke-width="0.87"/>
      <text transform="translate(525.77 667.92)" font-size="21" fill="#f7f2db" font-family="ArialMT, Arial" style="isolation: isolate">Waterfall Garden</text>
    </g>
    <g id="bike_path_text" data-name="bike path text">
      <rect x="1230.19" y="487.78" width="197.84" height="54.28" rx="5.38" fill="#494949" stroke="#f7f2db" stroke-width="0.81"/>
      <g style="isolation: isolate">
        <text transform="translate(1243.47 510.35)" font-size="21" fill="#f7f2db" font-family="ArialMT, Arial" style="isolation: isolate">Joseph Kolodzie</text>
        <text transform="translate(1280.51 535.55)" font-size="21" fill="#f7f2db" font-family="ArialMT, Arial" style="isolation: isolate">Bike Path</text>
      </g>
    </g>
  </g>
</svg>
