<svg id="park_map_v3" xmlns="http://www.w3.org/2000/svg" viewBox="0 0 1921.13 1081">
  <defs>
    <style>
      .cls-1 {
        fill: #91bc8f;
      }

      .cls-1, .cls-11, .cls-12, .cls-13, .cls-14, .cls-31, .cls-32, .cls-33, .cls-34, .cls-35, .cls-36, .cls-38, .cls-39 {
        stroke: #f7f2db;
      }

      .cls-2 {
        fill: #537c4e;
      }

      .cls-3 {
        fill: #65997d;
      }

      .cls-4, .cls-40, .cls-45, .cls-46, .cls-49 {
        fill: #477043;
      }

      .cls-12, .cls-13, .cls-14, .cls-16, .cls-21, .cls-31, .cls-32, .cls-33, .cls-34, .cls-35, .cls-36, .cls-37, .cls-5, .cls-54, .cls-55, .cls-56, .cls-58, .cls-59, .cls-60, .cls-9 {
        fill: none;
      }

      .cls-5 {
        stroke: #9dd8d8;
        stroke-width: 75px;
      }

      .cls-11, .cls-12, .cls-16, .cls-21, .cls-31, .cls-32, .cls-33, .cls-34, .cls-5, .cls-52, .cls-53, .cls-54, .cls-55, .cls-56, .cls-57, .cls-59, .cls-60, .cls-62, .cls-63, .cls-9 {
        stroke-miterlimit: 10;
      }

      .cls-6, .cls-62, .cls-63 {
        fill: #f7f2db;
      }

      .cls-7 {
        fill: #707070;
      }

      .cls-8 {
        fill: #9dd8d8;
      }

      .cls-9 {
        stroke: #2e3192;
        stroke-width: 0.76px;
      }

      .cls-10 {
        fill: #4d4d4d;
      }

      .cls-11 {
        fill: #5491d3;
      }

      .cls-11, .cls-12 {
        stroke-width: 2.11px;
      }

      .cls-13 {
        stroke-width: 10px;
      }

      .cls-14 {
        stroke-width: 8px;
      }

      .cls-15, .cls-22, .cls-52, .cls-57 {
        fill: #383838;
      }

      .cls-16, .cls-21, .cls-52, .cls-53, .cls-54, .cls-55, .cls-56, .cls-57, .cls-58, .cls-62, .cls-63 {
        stroke: #383838;
      }

      .cls-16 {
        stroke-width: 1.83px;
      }

      .cls-17 {
        fill: #d1f3ff;
      }

      .cls-18 {
        fill: #39c5fb;
      }

      .cls-19 {
        fill: #006824;
      }

      .cls-20 {
        fill: #001c00;
      }

      .cls-21 {
        stroke-width: 1.35px;
      }

      .cls-22 {
        font-size: 11.61px;
        font-family: FuturaPT-Medium, Futura PT;
        font-weight: 500;
      }

      .cls-22, .cls-27 {
        letter-spacing: 0.08em;
      }

      .cls-23 {
        letter-spacing: 0.04em;
      }

      .cls-24 {
        letter-spacing: 0.03em;
      }

      .cls-25 {
        letter-spacing: 0.03em;
      }

      .cls-26 {
        letter-spacing: 0.04em;
      }

      .cls-28 {
        letter-spacing: 0.04em;
      }

      .cls-29 {
        letter-spacing: 0.06em;
      }

      .cls-30 {
        letter-spacing: 0.06em;
      }

      .cls-31 {
        stroke-width: 20px;
      }

      .cls-32, .cls-35 {
        stroke-width: 18.75px;
      }

      .cls-33, .cls-36 {
        stroke-width: 30px;
      }

      .cls-34 {
        stroke-width: 15px;
      }

      .cls-38, .cls-39 {
        fill: #d1d1d1;
      }

      .cls-38, .cls-39, .cls-55 {
        stroke-linecap: round;
      }

      .cls-38, .cls-39, .cls-58 {
        stroke-linejoin: round;
      }

      .cls-38 {
        stroke-width: 5.02px;
      }

      .cls-39 {
        stroke-width: 5px;
      }

      .cls-40, .cls-45, .cls-46, .cls-49, .cls-62 {
        font-size: 21px;
      }

      .cls-40, .cls-45, .cls-46, .cls-49, .cls-62, .cls-63 {
        font-family: Futura-Bold, Futura;
        font-weight: 700;
      }

      .cls-40 {
        letter-spacing: 0.04em;
      }

      .cls-41 {
        letter-spacing: 0.03em;
      }

      .cls-42 {
        letter-spacing: 0.02em;
      }

      .cls-43 {
        letter-spacing: 0.03em;
      }

      .cls-44, .cls-49 {
        letter-spacing: 0.03em;
      }

      .cls-45 {
        letter-spacing: -0.01em;
      }

      .cls-46 {
        letter-spacing: 0.02em;
      }

      .cls-47 {
        letter-spacing: -0.01em;
      }

      .cls-48 {
        letter-spacing: 0em;
      }

      .cls-50 {
        letter-spacing: 0.03em;
      }

      .cls-51 {
        fill: #7f736a;
      }

      .cls-53 {
        fill: #fff;
      }

      .cls-53, .cls-54, .cls-55 {
        stroke-width: 1.1px;
      }

      .cls-56 {
        stroke-width: 0.76px;
      }

      .cls-57 {
        stroke-width: 1px;
      }

      .cls-58 {
        stroke-width: 0.78px;
      }

      .cls-59, .cls-60 {
        stroke: #000;
      }

      .cls-59 {
        stroke-width: 1.51px;
      }

      .cls-60 {
        stroke-width: 1.37px;
      }

      .cls-61 {
        fill: #c44343;
      }

      .cls-62, .cls-63 {
        stroke-width: 0.25px;
      }

      .cls-63 {
        font-size: 24px;
      }
    </style>
  </defs>
  <title>park_map_v3_4</title>
  <rect id="backgound" class="cls-1" x="0.63" y="0.5" width="1920" height="1080"/>
  <g id="creek_bush">
    <g id="creek_bush_6">
      <path class="cls-2" d="M1412,353.39c2.34-7.89,11.18-10.83,15.2-5.05l-1.5,6.72c2.88-3.71,5.88-7.52,9.53-9.47s8.16-1.54,10.41,2.36a18.6,18.6,0,0,0,1.72,3c3,3.37,7.38-1.76,10.91-4.82,4.88-4.23,11.35-4.42,15.84-.46s6.77,11.85,5.58,19.33c2.28-7.25,5.73-14.61,11.08-17.79s12.59.23,13,7.8c2.4-3.44,6.41-4.55,9.29-2.57s4.37,6.86,3.45,11.3c1.91-3.9,6.57-4.58,8.62-1.26-1.61,8.79-3.65,17.48-6.11,26-.54,1.88-1.2,3.91-2.5,5-3.1,2.5-7.2-2.37-10.09.57-1.08,1.09-1.55,2.92-2.25,4.45-2.75,6-8.69,7.14-13.71,7.36-13.67.62-27.24-.42-40.8-1.46l-54.45-4.17a111.62,111.62,0,0,1-17.29-2.25c-10.09-2.42-10.51-10.27-6-21.76,3.52-9.07,6-17.9,9.13-27,2.68-7.74,5.56-12.4,12.35-13.28C1397.73,335.33,1414.73,344.32,1412,353.39Z" transform="translate(0 0.53)"/>
      <path class="cls-3" d="M1410.33,375.86a20.93,20.93,0,0,1,2.51-4.63c1.33-1.67,3.71-3.07,4.1-5.55C1413.68,366.56,1411,371.72,1410.33,375.86Z" transform="translate(0 0.53)"/>
      <path class="cls-3" d="M1430.48,385.86a15.91,15.91,0,0,1,1.84-3.39c1-1.23,2.73-2.26,3-4.07C1432.94,379,1431,382.82,1430.48,385.86Z" transform="translate(0 0.53)"/>
      <path class="cls-3" d="M1441,369.25a15.07,15.07,0,0,1,1.84-3.39c1-1.23,2.72-2.26,3-4.07C1443.42,362.43,1441.42,366.21,1441,369.25Z" transform="translate(0 0.53)"/>
      <path class="cls-3" d="M1456.33,381.4a23.88,23.88,0,0,1,2.78-5.12c1.47-1.86,4.12-3.41,4.54-6.15C1460.05,371.09,1457,376.81,1456.33,381.4Z" transform="translate(0 0.53)"/>
      <path class="cls-3" d="M1467.55,390.66a23.21,23.21,0,0,1,2.83-5.07c1.49-1.83,4.15-3.33,4.6-6.07C1471.37,380.42,1468.3,386.08,1467.55,390.66Z" transform="translate(0 0.53)"/>
      <path class="cls-3" d="M1515.06,376.87a15.59,15.59,0,0,0,1.08-3.37c.24-1.51,0-3.65.91-4.79C1517.83,371.26,1516.6,375,1515.06,376.87Z" transform="translate(0 0.53)"/>
      <path class="cls-3" d="M1501.81,378.56a15.51,15.51,0,0,0,1.08-3.36c.24-1.51,0-3.66.91-4.8C1504.57,373,1503.35,376.66,1501.81,378.56Z" transform="translate(0 0.53)"/>
      <path class="cls-3" d="M1493,383.56a14.9,14.9,0,0,0,1.08-3.37c.24-1.51,0-3.65.91-4.79C1495.76,378,1494.53,381.66,1493,383.56Z" transform="translate(0 0.53)"/>
    </g>
    <g id="creek_bush_5">
      <path class="cls-4" d="M1270.31,363.64c.19-8.27,8-13.43,13.42-8.89l.32,6.9c1.81-4.35,3.71-8.83,6.74-11.68s7.52-3.64,10.74-.45A18.53,18.53,0,0,0,1304,352c3.77,2.48,6.7-3.65,9.32-7.55,3.62-5.38,9.84-7.26,15.25-4.6s9.71,9.69,10.53,17.25c.3-7.61,1.7-15.66,6.05-20.14s12.28-3.09,14.65,4.15c1.41-4,5-6.09,8.34-4.93s6,5.5,6.33,10c.82-4.28,5.17-6.17,8-3.49a267,267,0,0,1,1,26.79c0,2-.13,4.11-1.12,5.47-2.34,3.23-7.62-.41-9.65,3.2-.75,1.34-.72,3.23-1,4.91-1.08,6.51-6.54,9.19-11.36,10.73-13.1,4.19-26.56,6.75-40,9.3l-54,10.27a110.59,110.59,0,0,1-17.37,2.37c-10.43.31-12.92-7.19-11.63-19.49,1-9.71,1.08-18.91,1.72-28.56.55-8.2,2.11-13.47,8.47-16.11C1251.64,349.9,1270.52,354.14,1270.31,363.64Z" transform="translate(0 0.53)"/>
      <path class="cls-3" d="M1248.67,370.14a14.71,14.71,0,0,1,.84-3.59c.59-1.38,2-2.76,1.75-4.51C1249.22,363.23,1248.33,367.22,1248.67,370.14Z" transform="translate(0 0.53)"/>
      <path class="cls-3" d="M1265.05,382.12a15.19,15.19,0,0,1,.85-3.59c.59-1.38,1.95-2.77,1.75-4.51C1265.61,375.21,1264.72,379.2,1265.05,382.12Z" transform="translate(0 0.53)"/>
      <path class="cls-3" d="M1284.65,373.83a14.5,14.5,0,0,1,.84-3.59c.59-1.38,2-2.77,1.75-4.52C1285.21,366.91,1284.31,370.91,1284.65,373.83Z" transform="translate(0 0.53)"/>
      <path class="cls-3" d="M1298.5,359.8a15.19,15.19,0,0,1,.84-3.59c.6-1.37,2-2.76,1.76-4.51C1299.06,352.89,1298.17,356.88,1298.5,359.8Z" transform="translate(0 0.53)"/>
      <path class="cls-3" d="M1321.75,363.5a14.72,14.72,0,0,1,.85-3.59c.59-1.37,2-2.76,1.75-4.51C1322.31,356.59,1321.42,360.58,1321.75,363.5Z" transform="translate(0 0.53)"/>
      <path class="cls-3" d="M1355.46,350.32a15.19,15.19,0,0,1,.85-3.59c.59-1.37,2-2.76,1.75-4.51C1356,343.41,1355.13,347.4,1355.46,350.32Z" transform="translate(0 0.53)"/>
      <path class="cls-3" d="M1369.31,350.7a14.72,14.72,0,0,1,.85-3.59c.59-1.38,1.95-2.76,1.75-4.51C1369.87,343.79,1369,347.78,1369.31,350.7Z" transform="translate(0 0.53)"/>
    </g>
    <g id="creek_bush_4">
      <path class="cls-2" d="M472.62,573.32c.36-8.23,8.21-13.23,13.51-8.6l.18,6.88c1.9-4.3,3.88-8.73,6.94-11.51s7.54-3.48,10.68-.25a18,18,0,0,0,2.4,2.51c3.7,2.54,6.72-3.51,9.41-7.34,3.7-5.29,9.92-7,15.25-4.3s9.45,9.84,10.12,17.39c.45-7.58,2-15.57,6.41-20s12.27-2.85,14.47,4.4c1.49-3.91,5.11-6,8.39-4.75s5.91,5.59,6.09,10.12c.9-4.25,5.26-6,8-3.32.58,8.92.72,17.85.41,26.71-.07,2-.21,4.08-1.21,5.42-2.4,3.18-7.57-.55-9.66,3-.77,1.32-.78,3.2-1.09,4.87-1.21,6.46-6.69,9-11.5,10.47-13.11,3.93-26.53,6.22-39.93,8.52l-53.84,9.21a110.78,110.78,0,0,1-17.31,2c-10.37.11-12.7-7.41-11.16-19.64,1.2-9.64,1.45-18.81,2.28-28.41.7-8.16,2.37-13.38,8.74-15.89C454.35,559.29,473,563.86,472.62,573.32Z" transform="translate(0 0.53)"/>
      <path class="cls-3" d="M476.44,595.52a21,21,0,0,1,1.3-5.09c.88-1.95,2.86-3.89,2.63-6.39C477.43,585.68,476,591.35,476.44,595.52Z" transform="translate(0 0.53)"/>
      <path class="cls-3" d="M498.42,600.31a15.35,15.35,0,0,1,1-3.73c.64-1.43,2.09-2.85,1.92-4.68C499.15,593.1,498.13,597.26,498.42,600.31Z" transform="translate(0 0.53)"/>
      <path class="cls-3" d="M504.53,581.65a15.35,15.35,0,0,1,1-3.73c.65-1.43,2.09-2.85,1.92-4.68C505.26,574.44,504.24,578.6,504.53,581.65Z" transform="translate(0 0.53)"/>
      <path class="cls-3" d="M522.4,589.69a23.93,23.93,0,0,1,1.45-5.64c1-2.16,3.17-4.31,2.91-7.07C523.5,578.8,522,585.07,522.4,589.69Z" transform="translate(0 0.53)"/>
      <path class="cls-3" d="M535.54,596a23.6,23.6,0,0,1,1.51-5.61c1-2.14,3.21-4.24,3-7C536.75,585.08,535.15,591.32,535.54,596Z" transform="translate(0 0.53)"/>
      <path class="cls-3" d="M578.26,571a15.42,15.42,0,0,0,.23-3.53c-.14-1.52-.9-3.54-.29-4.87C579.58,564.89,579.29,568.78,578.26,571Z" transform="translate(0 0.53)"/>
      <path class="cls-3" d="M565.83,575.87a16,16,0,0,0,.22-3.53c-.13-1.52-.9-3.54-.29-4.87C567.14,569.76,566.85,573.65,565.83,575.87Z" transform="translate(0 0.53)"/>
      <path class="cls-3" d="M558.49,582.86a15.3,15.3,0,0,0,.22-3.52c-.13-1.53-.89-3.55-.28-4.88C559.8,576.75,559.51,580.65,558.49,582.86Z" transform="translate(0 0.53)"/>
    </g>
    <g id="creek_bush_3">
      <path class="cls-4" d="M338.63,575.34c1.25-8.17,9.65-12.29,14.45-7.09l-.57,6.89c2.36-4.08,4.82-8.28,8.19-10.71s7.93-2.64,10.71.93a18.74,18.74,0,0,0,2.12,2.77c3.42,2.94,7.11-2.76,10.21-6.28,4.28-4.87,10.7-5.94,15.72-2.61s8.38,10.87,8.22,18.47c1.28-7.51,3.71-15.31,8.59-19.19s12.58-1.48,14,6c1.92-3.75,5.76-5.39,8.91-3.82s5.3,6.23,5,10.78c1.37-4.14,5.92-5.46,8.41-2.43-.39,9-1.23,17.89-2.5,26.69-.29,2-.66,4.06-1.81,5.28-2.74,2.9-7.51-1.39-10,1.93-.92,1.23-1.14,3.11-1.63,4.74C434.74,614,429,616,424,616.86c-13.53,2.47-27.21,3.28-40.85,4.08l-54.84,3.23a110.33,110.33,0,0,1-17.53.11c-10.39-1-11.9-8.79-9-20.83,2.26-9.49,3.5-18.61,5.38-28.09,1.6-8.07,3.84-13.09,10.48-14.89C321.88,559.31,340.07,565.94,338.63,575.34Z" transform="translate(0 0.53)"/>
      <path class="cls-3" d="M316.33,579a14.49,14.49,0,0,1,1.3-3.45c.76-1.29,2.29-2.49,2.32-4.25C317.77,572.22,316.37,576.06,316.33,579Z" transform="translate(0 0.53)"/>
      <path class="cls-3" d="M331,593a14.49,14.49,0,0,1,1.3-3.45c.76-1.29,2.29-2.49,2.32-4.25C332.48,586.21,331.08,590.05,331,593Z" transform="translate(0 0.53)"/>
      <path class="cls-3" d="M351.53,587.29a15,15,0,0,1,1.31-3.45c.76-1.29,2.28-2.49,2.31-4.25C353,580.51,351.58,584.35,351.53,587.29Z" transform="translate(0 0.53)"/>
      <path class="cls-3" d="M367.08,575.17a14.49,14.49,0,0,1,1.3-3.45c.76-1.29,2.29-2.49,2.32-4.25C368.52,568.39,367.12,572.23,367.08,575.17Z" transform="translate(0 0.53)"/>
      <path class="cls-3" d="M389.66,581.83a14.93,14.93,0,0,1,1.3-3.45c.77-1.29,2.29-2.49,2.32-4.25C391.11,575.05,389.71,578.9,389.66,581.83Z" transform="translate(0 0.53)"/>
      <path class="cls-3" d="M424.79,573.11a14.93,14.93,0,0,1,1.3-3.45c.77-1.29,2.29-2.5,2.32-4.25C426.23,566.32,424.83,570.17,424.79,573.11Z" transform="translate(0 0.53)"/>
      <path class="cls-3" d="M438.47,575.27a15.4,15.4,0,0,1,1.3-3.45c.77-1.29,2.29-2.5,2.32-4.25C439.92,568.48,438.52,572.33,438.47,575.27Z" transform="translate(0 0.53)"/>
    </g>
    <g id="creek_bush_2">
      <path class="cls-2" d="M198.34,567.79c2.63-7.81,11.56-10.43,15.37-4.51L212,569.94c3-3.6,6.15-7.3,9.87-9.12s8.21-1.25,10.32,2.72a18.26,18.26,0,0,0,1.61,3.08c2.85,3.47,7.43-1.5,11.08-4.44,5-4,11.49-4,15.84.11s6.35,12.08,4.89,19.51c2.54-7.15,6.25-14.39,11.7-17.38s12.58.68,12.68,8.26c2.52-3.35,6.57-4.32,9.38-2.24s4.12,7,3,11.42c2.05-3.83,6.73-4.35,8.66-1-1.92,8.73-4.27,17.34-7,25.77-.61,1.86-1.34,3.87-2.67,4.87-3.19,2.39-7.12-2.63-10.11.21-1.12,1-1.65,2.86-2.41,4.37-3,5.87-8.93,6.82-14,6.87-13.68.13-27.21-1.4-40.72-2.92L179.87,614a109.86,109.86,0,0,1-17.2-2.86c-10-2.77-10.14-10.64-5.27-22,3.84-8.93,6.62-17.67,10.09-26.66,2.94-7.64,6-12.2,12.81-12.84C184.68,549.23,201.36,558.81,198.34,567.79Z" transform="translate(0 0.53)"/>
      <path class="cls-3" d="M195.84,590.18a20.8,20.8,0,0,1,2.67-4.53c1.38-1.63,3.82-2.94,4.29-5.41C199.52,581,196.62,586.06,195.84,590.18Z" transform="translate(0 0.53)"/>
      <path class="cls-3" d="M215.62,600.89a15.71,15.71,0,0,1,2-3.32c1-1.19,2.8-2.16,3.15-4C218.32,594.16,216.2,597.87,215.62,600.89Z" transform="translate(0 0.53)"/>
      <path class="cls-3" d="M226.68,584.66a15.29,15.29,0,0,1,2-3.32c1-1.19,2.8-2.16,3.14-4C229.38,577.94,227.25,581.65,226.68,584.66Z" transform="translate(0 0.53)"/>
      <path class="cls-3" d="M241.61,597.35a23.8,23.8,0,0,1,3-5c1.54-1.8,4.24-3.26,4.76-6C245.7,587.19,242.48,592.79,241.61,597.35Z" transform="translate(0 0.53)"/>
      <path class="cls-3" d="M252.5,607a23.29,23.29,0,0,1,3-5c1.56-1.77,4.27-3.18,4.82-5.9C256.68,596.91,253.41,602.46,252.5,607Z" transform="translate(0 0.53)"/>
      <path class="cls-3" d="M300.47,594.91a15.27,15.27,0,0,0,1.19-3.32c.3-1.5.13-3.65,1.08-4.76C303.43,589.41,302.07,593.07,300.47,594.91Z" transform="translate(0 0.53)"/>
      <path class="cls-3" d="M287.17,596.14a15.9,15.9,0,0,0,1.19-3.33c.3-1.5.12-3.65,1.08-4.76C290.13,590.64,288.77,594.29,287.17,596.14Z" transform="translate(0 0.53)"/>
      <path class="cls-3" d="M278.17,600.82a15.38,15.38,0,0,0,1.2-3.33c.29-1.5.12-3.65,1.08-4.76C281.13,595.31,279.77,599,278.17,600.82Z" transform="translate(0 0.53)"/>
      <path class="cls-3" d="M306,606.83a15,15,0,0,1,1.87-3.18c1-1.14,2.69-2.06,3-3.79C308.59,600.39,306.55,603.94,306,606.83Z" transform="translate(0 0.53)"/>
    </g>
    <g id="creek_bush_1">
      <path class="cls-4" d="M71.23,514.2a22.06,22.06,0,0,1,5-5.45c2-1.35,4.54-1.85,6.57-.6s3,3.69,3.74,6.1a45.14,45.14,0,0,1,1.7,17,27.13,27.13,0,0,1,16-5.74c2.3,7.74.74,16.85-3.93,23,2.21-4.53,6.47-8.08,10.94-7.52s8.24,6.4,6.45,11.17a24.37,24.37,0,0,1,16.62-11.23,9.66,9.66,0,0,1,6.24.83c4,2.31,5,9.58,1.76,13.18A7.67,7.67,0,0,1,148,549a12.54,12.54,0,0,1,7.86,1.1c3.18,1.35,6.32,3.55,7.81,7.07s.65,8.54-2.43,10.16a14.45,14.45,0,0,1,6.64,1.57,6.9,6.9,0,0,1,3.39,6.33c-.26,2.62-3,4.7-5,3.31a13.5,13.5,0,0,1,9.15,1.85c2.18,4.91-.72,11.2-4.92,13.78s-1.31,2.32-6.06,2.07c-9.57-.5-27-1.08-36.61-1.79l-13.66-1c-7-.51-18.54-1.38-25.41-2.73-7.53-1.47-14.64-1.07-22.15-2.62-7.84-1.62-25.46-6.47-33.4-7.09,1.56-5.48,3.37-6.79,6.5-17.78,5.47-18.94-5.47-60.84,16-60.59C60.15,500.62,70.51,511.18,71.23,514.2Z" transform="translate(0 0.53)"/>
      <path class="cls-3" d="M71.88,530.48a26.55,26.55,0,0,1,3-6.69c1.74-2.5,5.21-4.83,5.28-8.23C75.17,517.34,72,524.79,71.88,530.48Z" transform="translate(0 0.53)"/>
      <path class="cls-3" d="M55.7,552.22A16.7,16.7,0,0,1,57.56,548c1.09-1.57,3.27-3,3.31-5.16C57.76,544,55.77,548.65,55.7,552.22Z" transform="translate(0 0.53)"/>
      <path class="cls-3" d="M90.31,542.27a29.78,29.78,0,0,1,1.54-4c.79-1.57,2.16-3.22,2.44-5.11C92.46,534.66,90.79,539.11,90.31,542.27Z" transform="translate(0 0.53)"/>
      <path class="cls-3" d="M95.75,561.54a17.32,17.32,0,0,1,1.94-4.38c1.14-1.64,3.42-3.16,3.46-5.39C97.91,552.93,95.82,557.81,95.75,561.54Z" transform="translate(0 0.53)"/>
      <path class="cls-3" d="M78.63,576.81a18.73,18.73,0,0,0,1-4.79c.07-2.1-.76-5,.44-6.69C81.81,568.64,80.64,573.92,78.63,576.81Z" transform="translate(0 0.53)"/>
      <path class="cls-3" d="M114,571.13a26.55,26.55,0,0,1,3-6.69c1.74-2.5,5.22-4.83,5.29-8.23C117.27,558,114.08,565.44,114,571.13Z" transform="translate(0 0.53)"/>
      <path class="cls-3" d="M104.44,586.06a12.82,12.82,0,0,0,.68-3.31c0-1.46-.56-3.45.28-4.64C106.65,580.42,105.85,584.07,104.44,586.06Z" transform="translate(0 0.53)"/>
      <path class="cls-3" d="M114,571.13a26.55,26.55,0,0,1,3-6.69c1.74-2.5,5.22-4.83,5.29-8.23C117.27,558,114.08,565.44,114,571.13Z" transform="translate(0 0.53)"/>
      <path class="cls-3" d="M114,571.13a26.55,26.55,0,0,1,3-6.69c1.74-2.5,5.22-4.83,5.29-8.23C117.27,558,114.08,565.44,114,571.13Z" transform="translate(0 0.53)"/>
      <path class="cls-3" d="M65.1,572.81a14.78,14.78,0,0,0,.78-3.78c0-1.67-.65-3.94.31-5.3C67.62,566.37,66.71,570.54,65.1,572.81Z" transform="translate(0 0.53)"/>
      <path class="cls-3" d="M142.35,573.14a26.55,26.55,0,0,1,3-6.69c1.74-2.5,5.21-4.83,5.28-8.24C145.64,560,142.45,567.45,142.35,573.14Z" transform="translate(0 0.53)"/>
    </g>
  </g>
  <path id="creek" class="cls-5" d="M3,590.86s84.14,3.72,133.48,29.07c65.14,33.47,224.05,45.62,426.13,14.7,127.53-19.52,580.2-224,884.29-205.93,98.16,8.59,162.7,29.91,304.16,48.35,70.4,9.17,106.76-21,166.69-23" transform="translate(0 0.53)"/>
  <g id="peony_garden">
    <path class="cls-6" d="M1178.44,847.57a179.62,179.62,0,0,1,32.45-100.38,2,2,0,0,0-.34-2.67l-10-8.51a2,2,0,0,0-3,.37c-21.54,31.2-34.3,70.47-34.71,111.14a2,2,0,0,0,2,2h11.56A2,2,0,0,0,1178.44,847.57Z" transform="translate(0 0.53)"/>
    <path class="cls-6" d="M1341.17,668V654.66a2,2,0,0,0-2.2-2,195.88,195.88,0,0,0-126.35,64.65,2,2,0,0,0,.21,2.87l10.28,8.59a2,2,0,0,0,2.75-.19c28.87-31.52,68.72-53.74,113.53-58.64A2,2,0,0,0,1341.17,668Z" transform="translate(0 0.53)"/>
    <path class="cls-6" d="M1202.71,849.54H1216a2,2,0,0,0,2-2,140.47,140.47,0,0,1,23.24-74.7,2,2,0,0,0-.36-2.62l-11.29-9.6a2,2,0,0,0-3,.41c-16,24.48-25.47,55.13-25.86,86.46A2,2,0,0,0,1202.71,849.54Z" transform="translate(0 0.53)"/>
    <path class="cls-6" d="M1312.3,715.79a62.3,62.3,0,0,1,2.82-16.82,2,2,0,0,0-2.48-2.56,158.54,158.54,0,0,0-71,45.19,2,2,0,0,0,.21,2.88l11.5,9.62a2,2,0,0,0,2.79-.23c14.29-16.25,35.64-31.67,54.57-36.17A2,2,0,0,0,1312.3,715.79Z" transform="translate(0 0.53)"/>
    <path class="cls-6" d="M1256.92,787c-10,17.27-15.82,39.24-16.17,60.52a2,2,0,0,0,2,2h13.5a2,2,0,0,0,2-2c.32-17.24,4.92-35.43,12.72-49.56a2,2,0,0,0-.44-2.5l-10.6-9A2,2,0,0,0,1256.92,787Z" transform="translate(0 0.53)"/>
    <path class="cls-6" d="M1325.48,749a48.15,48.15,0,0,1-8-11.49,2,2,0,0,0-2.53-.94,119.7,119.7,0,0,0-43.08,30.26,2,2,0,0,0,.21,2.88l10.54,8.81a2,2,0,0,0,2.75-.18,101,101,0,0,1,39.44-26.1A2,2,0,0,0,1325.48,749Z" transform="translate(0 0.53)"/>
    <path class="cls-6" d="M1280.38,849.54h14.19a2,2,0,0,0,2-1.94c1.17-26.79,18.9-50.16,43.22-58.3a2,2,0,0,0,1.38-1.9V771.63a2,2,0,0,0-2.53-1.93c-34.06,9-59.36,41.13-60.26,77.81A2,2,0,0,0,1280.38,849.54Z" transform="translate(0 0.53)"/>
    <rect class="cls-6" x="1160.84" y="862.92" width="178.93" height="17.2" rx="2"/>
    <path class="cls-6" d="M1540.46,847.57A179.62,179.62,0,0,0,1508,747.19a2,2,0,0,1,.34-2.67l10-8.51a2,2,0,0,1,2.94.37c21.54,31.2,34.3,70.47,34.71,111.14a2,2,0,0,1-2,2h-11.56A2,2,0,0,1,1540.46,847.57Z" transform="translate(0 0.53)"/>
    <path class="cls-6" d="M1377.73,668V654.66a2,2,0,0,1,2.2-2,195.88,195.88,0,0,1,126.35,64.65,2,2,0,0,1-.21,2.87l-10.28,8.59a2,2,0,0,1-2.75-.19c-28.87-31.52-68.72-53.74-113.53-58.64A2,2,0,0,1,1377.73,668Z" transform="translate(0 0.53)"/>
    <path class="cls-6" d="M1516.19,849.54H1503a2,2,0,0,1-2-2,140.47,140.47,0,0,0-23.24-74.7,2,2,0,0,1,.36-2.62l11.3-9.6a2,2,0,0,1,3,.41c16,24.48,25.47,55.13,25.86,86.46A2,2,0,0,1,1516.19,849.54Z" transform="translate(0 0.53)"/>
    <path class="cls-6" d="M1406.6,715.79a62.3,62.3,0,0,0-2.82-16.82,2,2,0,0,1,2.48-2.56,158.54,158.54,0,0,1,71,45.19,2,2,0,0,1-.2,2.88l-11.51,9.62a2,2,0,0,1-2.79-.23c-14.29-16.25-35.64-31.67-54.57-36.17A2,2,0,0,1,1406.6,715.79Z" transform="translate(0 0.53)"/>
    <path class="cls-6" d="M1462,787c10,17.27,15.82,39.24,16.17,60.52a2,2,0,0,1-2,2h-13.5a2,2,0,0,1-2-2c-.32-17.24-4.92-35.43-12.72-49.56a2,2,0,0,1,.44-2.5l10.6-9A2,2,0,0,1,1462,787Z" transform="translate(0 0.53)"/>
    <path class="cls-6" d="M1393.42,749a48.15,48.15,0,0,0,8-11.49,2,2,0,0,1,2.53-.94,119.7,119.7,0,0,1,43.08,30.26,2,2,0,0,1-.21,2.88l-10.54,8.81a2,2,0,0,1-2.75-.18,101,101,0,0,0-39.44-26.1A2,2,0,0,1,1393.42,749Z" transform="translate(0 0.53)"/>
    <path class="cls-6" d="M1438.52,849.54h-14.19a2,2,0,0,1-2-1.94c-1.17-26.79-18.9-50.16-43.22-58.3a2,2,0,0,1-1.38-1.9V771.63a2,2,0,0,1,2.53-1.93c34.06,9,59.36,41.13,60.26,77.81A2,2,0,0,1,1438.52,849.54Z" transform="translate(0 0.53)"/>
    <rect class="cls-6" x="1378.42" y="861.92" width="178.93" height="19.27" rx="2"/>
    <path class="cls-6" d="M1547.61,710.85l-10,8.27a2,2,0,0,0-.39,2.65c22.25,33,39.14,80.23,41.12,125.79a2,2,0,0,0,2,1.92l12.72,0a2,2,0,0,0,2-2.08c-2-49.53-21.15-101.42-44.49-136.18A2,2,0,0,0,1547.61,710.85Z" transform="translate(0 0.53)"/>
    <path class="cls-7" d="M1396.94,715.91A38,38,0,0,0,1368,679V584.92h-17.9V679a38,38,0,0,0,0,73.76V914.22H1368V752.79A37.94,37.94,0,0,0,1396.94,715.91Z" transform="translate(0 0.53)"/>
  </g>
  <g id="water_feature">
    <path class="cls-6" d="M943.15,738.69c-3.73,4.42-8.32,14.55-13.15,18.49-5,4.11-10.91,6.42-12.21,12.13a62.67,62.67,0,0,1-5,14.24c-1.89,4.11-16.31,12.44-19.56,14-6.54,3-14.35,3.37-21.84,3.62-13.54.46-37.26,0-47.85-7-5.6-3.72-13.27-1.94-28.6,7.38-15.59,9.48-45.49,11.29-54.2-.14-4.87-6.41-1.65-19.89,3.27-25,4.5-4.73,17.28-20.68,44.65-18.21,8.55.77,17.8.53,22.28-13.07.5-1.53-.12-6.17,5.68-12,13-13,39.81-20,59.5-22,12.62-1.28,18.55-1.23,28.71-7.6,3-1.9,16.31-2.45,20-1.57,10.8,2.59,9,4.49,13.94,9.58C944.41,717.4,947,734.08,943.15,738.69Z" transform="translate(0 0.53)"/>
    <path class="cls-8" d="M935.71,739.33c1.19,11.84-12.85,14.8-19.1,23.19-9.12,12.25-2.78,18.1-19.25,27.88-21,12.49-42.47,8-65,2.19-26.87-6.94-33,7.2-58.21,12.62-19.79,4.26-41.86-5.15-27.12-27.65,3.79-5.79,10.41-8.7,16.49-11.62,9.9-4.75,35.55-1.22,41.47-5.59,11.86-8.77,7-24.76,28-33.16,19.72-7.88,46.45-11.07,67-14.73,10-1.79,20.84-8.83,31.17.19C942.21,722.3,934.41,726.42,935.71,739.33Z" transform="translate(0 0.53)"/>
    <path class="cls-9" d="M836.54,756.43c.12-2.22,3.53-3.15,6.25-3.37s6.11-.7,6.88-2.84" transform="translate(0 0.53)"/>
    <path class="cls-9" d="M850.59,777.78A7.68,7.68,0,0,1,857,774c1.68-.09,3.37.28,5,.13s3.47-1.11,3.44-2.48" transform="translate(0 0.53)"/>
    <path class="cls-9" d="M887.34,761.86c3.74.89,6.59-4.18,10.42-3.24" transform="translate(0 0.53)"/>
    <path class="cls-9" d="M896.35,734.08c1.71-3.34,5.59-5.89,10-6.55" transform="translate(0 0.53)"/>
    <path class="cls-9" d="M761.25,790.07c1.21-1.94,2.23-2.86,4.51-2.26a11.51,11.51,0,0,0,1.38.42c2,.28,3-2,3.11-3.62" transform="translate(0 0.53)"/>
    <path class="cls-9" d="M796.72,778c.77-1.59,1.62-2.23,2.65-2.21a4.76,4.76,0,0,1,2.25,1,3.52,3.52,0,0,0,2.54.74c1.32-.1,2.34-1.09,2.26-3.05" transform="translate(0 0.53)"/>
  </g>
  <g id="daylily_garden">
    <path class="cls-6" d="M1452.84,141.18l-14.43,1.13a4,4,0,0,0-3.44,2.61l-4.27,11.68a4,4,0,0,0,.13,3.06l8.22,17.61a4,4,0,0,0,3.93,2.3l11.16-.87a4,4,0,0,0,3.53-2.89l5.37-18.67a4,4,0,0,0-.35-3l-6-10.87A4,4,0,0,0,1452.84,141.18Z" transform="translate(0 0.53)"/>
    <path class="cls-6" d="M1455,188.74l-11.56.9a4,4,0,0,0-3.3,2.29l-5,10.64a4,4,0,0,0,.31,4l6.61,9.73a4,4,0,0,0,3.62,1.74l11.56-.91a4,4,0,0,0,3.3-2.28l5-10.64a4,4,0,0,0-.31-3.95l-6.61-9.73A4,4,0,0,0,1455,188.74Z" transform="translate(0 0.53)"/>
    <path class="cls-6" d="M1448.08,265.57l14.43-1.13a4,4,0,0,0,3.44-2.62l4.27-11.67a4,4,0,0,0-.13-3.07l-8.21-17.61a4,4,0,0,0-3.94-2.3l-11.16.88a4,4,0,0,0-3.53,2.88l-5.37,18.68a4.05,4.05,0,0,0,.35,3l6,10.86A4,4,0,0,0,1448.08,265.57Z" transform="translate(0 0.53)"/>
    <path class="cls-6" d="M1503,236.66l6.24-13.06a4,4,0,0,0-.54-4.29l-8-9.54a4,4,0,0,0-2.72-1.41l-19.36-1.7a4,4,0,0,0-4,2.27L1469.84,219a4,4,0,0,0,.73,4.5l13.49,14a4,4,0,0,0,2.81,1.22l12.44.21A4,4,0,0,0,1503,236.66Z" transform="translate(0 0.53)"/>
    <path class="cls-6" d="M1397.59,170.72l-6.23,13.06a4,4,0,0,0,.54,4.29l8,9.53a4,4,0,0,0,2.72,1.42l19.35,1.69a4,4,0,0,0,4-2.26l4.82-10.09a4,4,0,0,0-.73-4.5l-13.49-14a4,4,0,0,0-2.81-1.22l-12.43-.21A4,4,0,0,0,1397.59,170.72Z" transform="translate(0 0.53)"/>
    <path class="cls-6" d="M1505.05,173.5l-8.23-11.91a4,4,0,0,0-4-1.66l-12.24,2.17a4,4,0,0,0-2.59,1.65l-11.1,15.95a4,4,0,0,0,0,4.56l6.36,9.2a4,4,0,0,0,4.27,1.61l18.84-4.74a3.94,3.94,0,0,0,2.46-1.83l6.37-10.68A4,4,0,0,0,1505.05,173.5Z" transform="translate(0 0.53)"/>
    <path class="cls-6" d="M1395.39,232.08l8.23,11.91a4,4,0,0,0,4,1.67l12.24-2.17a4,4,0,0,0,2.58-1.66l11.11-16a4,4,0,0,0,0-4.55l-6.35-9.21a4,4,0,0,0-4.27-1.61l-18.85,4.74a4,4,0,0,0-2.46,1.83l-6.36,10.68A4,4,0,0,0,1395.39,232.08Z" transform="translate(0 0.53)"/>
  </g>
  <g id="memory_garden_circle">
    <g id="trees_around_memoryGarden">
      <path class="cls-10" d="M153,255.64c-1.33,3.87-1.76,8.3-.4,12.13a4,4,0,0,0,3.18,3.08,11.08,11.08,0,0,0,3.48.72c3.42,0,6.18-3.11,8.44-6.06,4-5.25,5.7-13.17-1.34-16.33C161.25,246.91,154.9,250,153,255.64Z" transform="translate(0 0.53)"/>
      <path class="cls-2" d="M157.25,253.52c-.16,2.76.36,4.9,2.34,6.44a7.11,7.11,0,0,0,4.29,1.45,13.31,13.31,0,0,0,5.23-.55c.39-.11.49.13,1-.21a2,2,0,0,0,.5-.59c2.31-3.64,2.55-8.42,2.56-12.89,0-2.27-.46-4.37-2.12-5.58a6,6,0,0,0-4.07-1c-3.27.47-5.13,3.23-6.72,4.87C158.21,247.55,157.33,252.28,157.25,253.52Z" transform="translate(0 0.53)"/>
      <path class="cls-10" d="M184,227.29c-1.32,3.87-1.76,8.31-.39,12.13a4,4,0,0,0,3.18,3.09,11.31,11.31,0,0,0,3.47.72c3.42,0,6.19-3.11,8.45-6.07,4-5.25,5.69-13.16-1.34-16.32C192.31,218.56,186,221.62,184,227.29Z" transform="translate(0 0.53)"/>
      <path class="cls-2" d="M188.31,225.18c-.16,2.75.35,4.89,2.34,6.43a7,7,0,0,0,4.29,1.45,13.28,13.28,0,0,0,5.23-.54c.38-.11.48.12,1-.22a2.06,2.06,0,0,0,.5-.59c2.3-3.64,2.55-8.42,2.56-12.89,0-2.27-.46-4.36-2.12-5.57a5.92,5.92,0,0,0-4.07-1c-3.28.48-5.13,3.24-6.73,4.87C189.26,219.2,188.38,223.93,188.31,225.18Z" transform="translate(0 0.53)"/>
      <path class="cls-10" d="M225.59,210c-1.33,3.87-1.77,8.31-.4,12.13a5.13,5.13,0,0,0,1.37,2.23,5.39,5.39,0,0,0,1.81.86,11.36,11.36,0,0,0,3.48.71c3.41,0,6.18-3.11,8.44-6.06,4-5.25,5.7-13.17-1.34-16.33C233.88,201.29,227.53,204.35,225.59,210Z" transform="translate(0 0.53)"/>
      <path class="cls-2" d="M229.88,207.9c-.16,2.76.35,4.9,2.34,6.44a7.11,7.11,0,0,0,4.29,1.45,13.47,13.47,0,0,0,5.23-.54c.38-.11.49.12,1-.22a2,2,0,0,0,.5-.59c2.3-3.64,2.55-8.42,2.56-12.89,0-2.27-.46-4.37-2.12-5.58a6,6,0,0,0-4.07-1c-3.28.48-5.13,3.23-6.73,4.87C230.83,201.93,230,206.66,229.88,207.9Z" transform="translate(0 0.53)"/>
      <path class="cls-10" d="M134.37,300.45c-1.33,3.87-1.76,8.3-.39,12.12a5,5,0,0,0,1.36,2.24,5.18,5.18,0,0,0,1.81.85,11.43,11.43,0,0,0,3.48.72c3.42,0,6.18-3.11,8.44-6.07,4-5.25,5.7-13.16-1.34-16.32C142.66,291.71,136.31,294.78,134.37,300.45Z" transform="translate(0 0.53)"/>
      <path class="cls-2" d="M138.66,298.33c-.16,2.75.36,4.89,2.35,6.43a7,7,0,0,0,4.28,1.45,13.08,13.08,0,0,0,5.23-.54c.39-.11.49.12,1-.22a1.91,1.91,0,0,0,.49-.59c2.31-3.63,2.55-8.41,2.56-12.89,0-2.26-.46-4.36-2.12-5.57a5.9,5.9,0,0,0-4.06-1c-3.28.47-5.14,3.23-6.73,4.86C139.62,292.36,138.74,297.09,138.66,298.33Z" transform="translate(0 0.53)"/>
      <path class="cls-10" d="M129.34,345.41c-1.33,3.87-1.77,8.3-.4,12.12a5.11,5.11,0,0,0,1.37,2.24,5.18,5.18,0,0,0,1.81.85,11.37,11.37,0,0,0,3.47.72c3.42,0,6.19-3.11,8.45-6.07,4-5.25,5.7-13.16-1.34-16.32C137.63,336.67,131.28,339.74,129.34,345.41Z" transform="translate(0 0.53)"/>
      <path class="cls-2" d="M133.63,343.29c-.16,2.75.35,4.89,2.34,6.43a7,7,0,0,0,4.29,1.45,13.1,13.1,0,0,0,5.23-.54c.38-.11.49.12,1-.22a1.81,1.81,0,0,0,.5-.59c2.3-3.63,2.55-8.41,2.56-12.89,0-2.26-.46-4.36-2.12-5.57a5.91,5.91,0,0,0-4.07-1c-3.28.47-5.13,3.23-6.73,4.86C134.58,337.32,133.7,342.05,133.63,343.29Z" transform="translate(0 0.53)"/>
      <path class="cls-10" d="M138.51,388.76c-1.33,3.87-1.77,8.31-.4,12.13a4.07,4.07,0,0,0,3.18,3.09,11.37,11.37,0,0,0,3.48.72c3.41,0,6.18-3.11,8.44-6.07,4-5.25,5.7-13.16-1.34-16.32C146.8,380,140.45,383.09,138.51,388.76Z" transform="translate(0 0.53)"/>
      <path class="cls-2" d="M142.8,386.65c-.16,2.75.36,4.89,2.34,6.43a7,7,0,0,0,4.29,1.45,13.1,13.1,0,0,0,5.23-.54c.39-.11.49.12,1-.22a1.92,1.92,0,0,0,.5-.59c2.31-3.64,2.55-8.41,2.56-12.89,0-2.27-.46-4.36-2.12-5.57a5.92,5.92,0,0,0-4.07-1c-3.27.48-5.13,3.24-6.72,4.87C143.76,380.67,142.88,385.4,142.8,386.65Z" transform="translate(0 0.53)"/>
      <path class="cls-10" d="M161,426.56c-1.33,3.87-1.76,8.3-.4,12.12a5.11,5.11,0,0,0,1.37,2.24,5.18,5.18,0,0,0,1.81.85,11.37,11.37,0,0,0,3.48.72c3.42,0,6.18-3.11,8.44-6.07,4-5.25,5.7-13.16-1.34-16.32C169.27,417.82,162.92,420.89,161,426.56Z" transform="translate(0 0.53)"/>
      <path class="cls-2" d="M165.27,424.44c-.16,2.75.36,4.89,2.34,6.43a7,7,0,0,0,4.29,1.45,13.1,13.1,0,0,0,5.23-.54c.39-.11.49.12,1-.22a1.81,1.81,0,0,0,.5-.59c2.31-3.64,2.55-8.41,2.56-12.89,0-2.26-.46-4.36-2.12-5.57a5.91,5.91,0,0,0-4.07-1c-3.27.47-5.13,3.23-6.72,4.86C166.23,418.47,165.35,423.2,165.27,424.44Z" transform="translate(0 0.53)"/>
      <path class="cls-10" d="M198.48,453.88c-1.33,3.87-1.77,8.3-.4,12.13a4,4,0,0,0,3.18,3.08,11.37,11.37,0,0,0,3.48.72c3.41,0,6.18-3.11,8.44-6.07,4-5.25,5.7-13.16-1.34-16.32C206.77,445.14,200.42,448.21,198.48,453.88Z" transform="translate(0 0.53)"/>
      <path class="cls-2" d="M202.77,451.76c-.16,2.75.36,4.89,2.34,6.43a7,7,0,0,0,4.29,1.45,13.1,13.1,0,0,0,5.23-.54c.39-.11.49.12,1-.22a1.81,1.81,0,0,0,.5-.59c2.31-3.63,2.55-8.41,2.56-12.89,0-2.26-.46-4.36-2.12-5.57a5.91,5.91,0,0,0-4.07-1c-3.27.47-5.13,3.23-6.72,4.86C203.73,445.79,202.85,450.52,202.77,451.76Z" transform="translate(0 0.53)"/>
      <path class="cls-10" d="M238.37,466.72c-1.33,3.87-1.76,8.3-.39,12.13a5,5,0,0,0,1.36,2.23,5.18,5.18,0,0,0,1.81.85,11.14,11.14,0,0,0,3.48.72c3.42,0,6.18-3.11,8.44-6.07,4-5.24,5.7-13.16-1.34-16.32C246.66,458,240.32,461.05,238.37,466.72Z" transform="translate(0 0.53)"/>
      <path class="cls-2" d="M242.66,464.6c-.16,2.76.36,4.9,2.35,6.44a7.08,7.08,0,0,0,4.28,1.45,13.29,13.29,0,0,0,5.23-.55c.39-.11.49.13,1-.21a2.17,2.17,0,0,0,.49-.59c2.31-3.64,2.55-8.42,2.56-12.9,0-2.26-.46-4.36-2.12-5.57a5.88,5.88,0,0,0-4.06-1c-3.28.47-5.14,3.23-6.73,4.87C243.62,458.63,242.74,463.36,242.66,464.6Z" transform="translate(0 0.53)"/>
    </g>
    <g id="memory_garden">
      <path id="memory_garden_path" class="cls-6" d="M445.45,331.07l-127.26.67a43.29,43.29,0,1,0-.32,14.73l127.41-1.16Z" transform="translate(0 0.53)"/>
      <circle class="cls-7" cx="275.24" cy="338.92" r="40.68"/>
      <g id="memory_gazebo_icon">
        <polygon class="cls-6" points="261.02 355.82 261.02 353.07 259.35 353.07 259.35 332.21 260.22 332.21 260.22 329.62 254.9 329.62 254.9 332.21 255.85 332.21 255.85 353.07 254.03 353.07 254.03 355.82 255.85 355.82 255.85 360.29 255.7 360.29 254.03 360.29 254.03 362.08 261.02 362.08 261.02 360.29 259.35 360.29 259.35 355.82 261.02 355.82"/>
        <polygon class="cls-6" points="270.72 355.82 270.72 353.07 269.04 353.07 269.04 332.21 269.91 332.21 269.91 329.62 264.6 329.62 264.6 332.21 265.55 332.21 265.55 353.07 263.72 353.07 263.72 355.82 265.55 355.82 265.55 360.29 263.72 360.29 263.72 362.08 270.72 362.08 270.72 360.29 269.04 360.29 269.04 355.82 270.72 355.82"/>
        <polygon class="cls-6" points="286.76 355.82 286.76 353.07 285.08 353.07 285.08 332.21 285.95 332.21 285.95 329.62 280.63 329.62 280.63 332.21 281.58 332.21 281.58 353.07 279.76 353.07 279.76 355.82 281.58 355.82 281.58 360.29 279.76 360.29 279.76 362.08 286.76 362.08 286.76 360.29 285.08 360.29 285.08 355.82 286.76 355.82"/>
        <polygon class="cls-6" points="296.45 355.82 296.45 353.07 294.78 353.07 294.78 332.21 295.65 332.21 295.65 329.62 290.33 329.62 290.33 332.21 291.28 332.21 291.28 353.07 289.46 353.07 289.46 355.82 291.28 355.82 291.28 360.29 289.46 360.29 289.46 362.08 296.45 362.08 296.45 360.29 294.78 360.29 294.78 355.82 296.45 355.82"/>
        <path class="cls-11" d="M275.27,309.74A19.32,19.32,0,0,0,256,329.06h3l16.36,0,16.37,0h2.95A19.32,19.32,0,0,0,275.27,309.74Z" transform="translate(0 0.53)"/>
        <path class="cls-12" d="M275.27,309.74c-7.53,0-15.55,11.42-15.55,19.36h31.11C290.83,321.16,282.81,309.74,275.27,309.74Z" transform="translate(0 0.53)"/>
        <path class="cls-12" d="M275.27,309.74c-5.83,0-9.26,11.42-9.26,19.34l9.26,0,9.27,0C284.54,321.16,281.11,309.74,275.27,309.74Z" transform="translate(0 0.53)"/>
      </g>
    </g>
    <path class="cls-13" d="M394.91,215.84c-84.07,56.93-84.07,188.82,0,246.48" transform="translate(0 0.53)"/>
    <path class="cls-14" d="M345.26,273.92c42,28.46,42,94.41,0,123.24" transform="translate(0 0.53)"/>
    <path class="cls-14" d="M367.13,240.67c61.08,45.05,61.08,149.42,0,195" transform="translate(0 0.53)"/>
  </g>
  <g id="gazebo">
    <circle class="cls-6" cx="1359.08" cy="716.68" r="33.41"/>
    <g id="gazebo_icon">
      <polygon class="cls-15" points="1345.95 731.49 1345.95 729.1 1344.49 729.1 1344.49 711.02 1345.24 711.02 1345.24 708.77 1340.63 708.77 1340.63 711.02 1341.46 711.02 1341.46 729.1 1341.33 729.1 1339.88 729.1 1339.88 731.49 1341.33 731.49 1341.46 731.49 1341.46 735.37 1341.33 735.37 1339.88 735.37 1339.88 736.92 1341.33 736.92 1344.49 736.92 1345.95 736.92 1345.95 735.37 1344.49 735.37 1344.49 731.49 1345.95 731.49"/>
      <polygon class="cls-15" points="1354.35 731.49 1354.35 729.1 1352.9 729.1 1352.9 711.02 1353.65 711.02 1353.65 708.77 1349.04 708.77 1349.04 711.02 1349.87 711.02 1349.87 729.1 1349.74 729.1 1348.29 729.1 1348.29 731.49 1349.74 731.49 1349.87 731.49 1349.87 735.37 1349.74 735.37 1348.29 735.37 1348.29 736.92 1349.74 736.92 1352.9 736.92 1354.35 736.92 1354.35 735.37 1352.9 735.37 1352.9 731.49 1354.35 731.49"/>
      <polygon class="cls-15" points="1370.26 731.49 1370.26 729.1 1368.81 729.1 1368.81 711.02 1369.56 711.02 1369.56 708.77 1364.95 708.77 1364.95 711.02 1365.78 711.02 1365.78 729.1 1365.65 729.1 1364.19 729.1 1364.19 731.49 1365.65 731.49 1365.78 731.49 1365.78 735.37 1365.65 735.37 1364.19 735.37 1364.19 736.92 1365.65 736.92 1368.81 736.92 1370.26 736.92 1370.26 735.37 1368.81 735.37 1368.81 731.49 1370.26 731.49"/>
      <polygon class="cls-15" points="1378.67 731.49 1378.67 729.1 1377.21 729.1 1377.21 711.02 1377.97 711.02 1377.97 708.77 1373.36 708.77 1373.36 711.02 1374.18 711.02 1374.18 729.1 1374.06 729.1 1372.6 729.1 1372.6 731.49 1374.06 731.49 1374.18 731.49 1374.18 735.37 1374.06 735.37 1372.6 735.37 1372.6 736.92 1374.06 736.92 1377.21 736.92 1378.67 736.92 1378.67 735.37 1377.21 735.37 1377.21 731.49 1378.67 731.49"/>
      <path class="cls-16" d="M1359.43,691.47a16.75,16.75,0,0,0-16.75,16.75h2.57l14.18,0,14.19,0h2.56A16.75,16.75,0,0,0,1359.43,691.47Z" transform="translate(0 0.53)"/>
      <path class="cls-16" d="M1359.43,691.47c-6.53,0-13.48,9.9-13.48,16.78h27C1372.92,701.37,1366,691.47,1359.43,691.47Z" transform="translate(0 0.53)"/>
      <path class="cls-16" d="M1359.43,691.47c-5.06,0-8,9.9-8,16.76l8,0,8,0C1367.47,701.37,1364.49,691.47,1359.43,691.47Z" transform="translate(0 0.53)"/>
      <polygon class="cls-15" points="1359.89 689.72 1359.43 686.2 1359.43 686.2 1358.98 689.72 1358.52 689.72 1358.52 708.77 1360.35 708.77 1360.35 689.72 1359.89 689.72"/>
      <rect class="cls-15" x="1343.8" y="701.8" width="31.26" height="1.83"/>
      <rect class="cls-15" x="1347.32" y="696.57" width="24.23" height="1.83"/>
    </g>
  </g>
  <g id="ovbg_icon">
    <g id="wing_left">
      <path class="cls-17" d="M1715.16,973.78c10.73-14.21,22.62-9.94,34.91-7.1v8.37S1725.84,968.2,1715.16,973.78Z" transform="translate(0 0.53)"/>
      <path class="cls-18" d="M1706.25,985.5c10.7-13.19,17.09-12.31,24.5-10.86,9.18,1.78,10.64,3.06,19.32,2.76v7.08a22.06,22.06,0,0,1-7.18,1.34,61.11,61.11,0,0,1-13.46-1.9C1724.05,982.25,1714,980.58,1706.25,985.5Z" transform="translate(0 0.53)"/>
    </g>
    <g id="wing_right">
      <path class="cls-19" d="M1816.21,974.88c-10.73,14.21-22.62,9.94-34.91,7.1V973.6S1805.53,980.46,1816.21,974.88Z" transform="translate(0 0.53)"/>
      <path class="cls-20" d="M1825.12,963.16c-10.7,13.19-17.09,12.3-24.51,10.86-9.17-1.78-10.63-3.06-19.31-2.76v-7.08a22.06,22.06,0,0,1,7.18-1.34,61.11,61.11,0,0,1,13.46,1.9C1807.32,966.41,1817.34,968.08,1825.12,963.16Z" transform="translate(0 0.53)"/>
    </g>
    <g id="gazebo_logo">
      <polygon class="cls-15" points="1755.84 980.07 1755.84 978.3 1754.77 978.3 1754.77 964.92 1755.33 964.92 1755.33 963.26 1751.91 963.26 1751.91 964.92 1752.53 964.92 1752.53 978.3 1752.43 978.3 1751.36 978.3 1751.36 980.07 1752.43 980.07 1752.53 980.07 1752.53 982.93 1752.43 982.93 1751.36 982.93 1751.36 984.08 1752.43 984.08 1754.77 984.08 1755.84 984.08 1755.84 982.93 1754.77 982.93 1754.77 980.07 1755.84 980.07"/>
      <polygon class="cls-15" points="1762.06 980.07 1762.06 978.3 1760.99 978.3 1760.99 964.92 1761.55 964.92 1761.55 963.26 1758.13 963.26 1758.13 964.92 1758.75 964.92 1758.75 978.3 1758.65 978.3 1757.58 978.3 1757.58 980.07 1758.65 980.07 1758.75 980.07 1758.75 982.93 1758.65 982.93 1757.58 982.93 1757.58 984.08 1758.65 984.08 1760.99 984.08 1762.06 984.08 1762.06 982.93 1760.99 982.93 1760.99 980.07 1762.06 980.07"/>
      <polygon class="cls-15" points="1773.83 980.07 1773.83 978.3 1772.75 978.3 1772.75 964.92 1773.31 964.92 1773.31 963.26 1769.9 963.26 1769.9 964.92 1770.51 964.92 1770.51 978.3 1770.42 978.3 1769.34 978.3 1769.34 980.07 1770.42 980.07 1770.51 980.07 1770.51 982.93 1770.42 982.93 1769.34 982.93 1769.34 984.08 1770.42 984.08 1772.75 984.08 1773.83 984.08 1773.83 982.93 1772.75 982.93 1772.75 980.07 1773.83 980.07"/>
      <polygon class="cls-15" points="1780.05 980.07 1780.05 978.3 1778.97 978.3 1778.97 964.92 1779.53 964.92 1779.53 963.26 1776.12 963.26 1776.12 964.92 1776.73 964.92 1776.73 978.3 1776.64 978.3 1775.56 978.3 1775.56 980.07 1776.64 980.07 1776.73 980.07 1776.73 982.93 1776.64 982.93 1775.56 982.93 1775.56 984.08 1776.64 984.08 1778.97 984.08 1780.05 984.08 1780.05 982.93 1778.97 982.93 1778.97 980.07 1780.05 980.07"/>
      <path class="cls-21" d="M1765.82,950.32a12.39,12.39,0,0,0-12.39,12.39h1.9l10.49,0,10.49,0h1.9A12.39,12.39,0,0,0,1765.82,950.32Z" transform="translate(0 0.53)"/>
      <path class="cls-21" d="M1765.82,950.32c-4.83,0-10,7.32-10,12.42h20C1775.8,957.64,1770.65,950.32,1765.82,950.32Z" transform="translate(0 0.53)"/>
      <path class="cls-21" d="M1765.82,950.32c-3.74,0-5.94,7.32-5.94,12.4l5.94,0,5.94,0C1771.76,957.64,1769.56,950.32,1765.82,950.32Z" transform="translate(0 0.53)"/>
      <polygon class="cls-15" points="1766.16 949.17 1765.81 946.56 1765.81 946.56 1765.48 949.17 1765.14 949.17 1765.14 963.26 1766.49 963.26 1766.49 949.17 1766.16 949.17"/>
      <rect class="cls-15" x="1754.26" y="958.1" width="23.13" height="1.35"/>
      <rect class="cls-15" x="1756.86" y="954.24" width="17.92" height="1.35"/>
    </g>
    <text id="OSHAWA_VALLEY_BOTANICAL_GARDENS" data-name="OSHAWA VALLEY BOTANICAL GARDENS" class="cls-22" transform="translate(1719.64 1001.77)">OSH<tspan class="cls-23" x="25.33" y="0">A</tspan><tspan class="cls-24" x="33.41" y="0">W</tspan><tspan x="44.64" y="0">A </tspan><tspan class="cls-25" x="56.71" y="0">V</tspan><tspan x="64.01" y="0">ALLEY</tspan><tspan class="cls-26"><tspan x="-14.32" y="12.96">B</tspan><tspan class="cls-27" x="-7.69" y="12.96">O</tspan><tspan class="cls-28" x="2.36" y="12.96">T</tspan><tspan class="cls-27" x="7.74" y="12.96">ANI</tspan><tspan class="cls-29" x="29.67" y="12.96">C</tspan><tspan class="cls-27" x="37.63" y="12.96">AL </tspan><tspan class="cls-30" x="55.14" y="12.96">G</tspan><tspan class="cls-27" x="64.55" y="12.96">ARDENS</tspan></tspan></text>
  </g>
  <g id="paths">
    <g id="path_south_of_creek">
      <path id="path_left_of_water_feature" class="cls-31" d="M355.15,748.78S399.22,863.09,565.53,833c90.61-16.41,143.22-135.49,143.22-135.49" transform="translate(0 0.53)"/>
      <path id="water_feature_bridge" class="cls-31" d="M630.81,801.19s64.39,44.06,140,44.06c56,0,106.8-11.4,160.94-37.47,76.22-36.7,108-109.4,108-109.4" transform="translate(0 0.53)"/>
      <path id="parking_to_bike_right" class="cls-31" d="M1191.17,921.71h-94.5a2,2,0,0,1-2-2V790.59S1134.38,632,1283.87,572" transform="translate(0 0.53)"/>
      <path id="parking_to_bike_left" class="cls-31" d="M943.53,630.62s121.74,48,151.14,160" transform="translate(0 0.53)"/>
      <g id="arena_st_to_bike">
        <path id="going_left" class="cls-32" d="M1636.33,1077.75c-.88-23.25,25.94-121,3.92-308.47-4.47-25.19-40.35-117.82-92.72-137.89" transform="translate(0 0.53)"/>
        <path id="going_right" class="cls-32" d="M1640.25,769.28s-18.36-103.52,91.91-134.82" transform="translate(0 0.53)"/>
      </g>
    </g>
    <g id="bridge">
      <line class="cls-33" x1="1774.11" y1="323.73" x2="1723.65" y2="639.17"/>
      <path class="cls-34" d="M1735.57,560.44c-9.24,79.13-61.44,87.29-61.44,87.29" transform="translate(0 0.53)"/>
      <path class="cls-34" d="M1756.26,620.89s-26.16,7.46-23.69-38" transform="translate(0 0.53)"/>
      <path class="cls-34" d="M1820.71,306.34c-12.06,2.3-48.34,26-56,75.35" transform="translate(0 0.53)"/>
      <path class="cls-34" d="M1713.9,322.12s64.53,14.82,52.94,46.52" transform="translate(0 0.53)"/>
    </g>
    <g id="path_north_of_creek">
      <path id="memory_garden_connection_bottom" class="cls-35" d="M870,364.81c-35.44,55.1-117.06,88.57-188.41,45.85-130.29-74.49-236.18-72-236.18-72" transform="translate(0 0.53)"/>
      <path id="memory_garden_connection_top" class="cls-35" d="M689.11,147.66c-2.63,35.88-22.48,61.14-45.68,69.61-39.19,14.29-90.56-22-130.3-33-41.05-11.4-102.54-32.73-146,8.73" transform="translate(0 0.53)"/>
      <path id="memory_garden_circle_psth" class="cls-35" d="M445.36,338.7c0,96.56-76.78,174.84-173.34,174.84S95.69,435.26,95.69,338.7a174.84,174.84,0,0,1,349.67,0Z" transform="translate(0 0.53)"/>
      <path id="kids_garden_2" class="cls-35" d="M856.33,177.74s-10.05.54-26.25,66c-18.45,74.57,10.41,110.84,41.19,121.55,94.87,33,150.18-37.76,165.91-61.17" transform="translate(0 0.53)"/>
      <path id="kids_garden_1" class="cls-35" d="M1107.86,327.22s16.74-88.51-29.9-101.5c-35-9.74-65-43.72-75.83-59.9" transform="translate(0 0.53)"/>
      <path id="daylilly_circle" class="cls-35" d="M1286.41,306.36S1284.67,252,1315.8,201c16.14-26.45,53.37-71.62,109.53-78.59,62.31-7.74,96.63-1.54,129.51,20.42,72.4,48.38,56.66,114.18,84.59,133" transform="translate(0 0.53)"/>
      <path id="kaiser_entry_2" class="cls-35" d="M886.42,193.9s149.36-12.42,167.8-76.76c13.42-46.82,8.93-109.57,8.93-109.57" transform="translate(0 0.53)"/>
      <path id="kaiser_entry_1_to_3" class="cls-35" d="M581.74,10.62s-31.86,140.87,36.65,136.77c70.72-4.34,158.52,6.52,232.73,28.21,87.55,34.19,127.71,130.68,232.39,151.4,90.15,5.74,182.61-20.62,309.51-37.24,129.35-16.93,175.47,1.48,296.92-22,41.83-8.09,65.74-51.85,71.62-71.78,14.17-48.08,16.27-196,16.27-196" transform="translate(0 0.53)"/>
      <path id="bridge_connection_top" class="cls-35" d="M1571,280.75c97.76-1.86,135.69,62.7,197.44,44.14,58-17.43,59.77-29.68,149.28-40.87,0,0-140.49,0-157.43-83-11.44,40.74,6.77,137.88,6.52,167.65" transform="translate(0 0.53)"/>
    </g>
    <path id="bike_path" class="cls-36" d="M2.25,1039.92s54.64,2.46,105.21-53c52.46-57.56,111-254.18,280-237.53,170.08,16.75,484.91-95.14,580.71-127.12,226.68-76.85,260.28-64.42,315.68-50.25s80.36,13.68,105.66,18c74.74,12.89,231.93,78.6,323.42,51.54,80.12-23.7,110.6-87.14,204.56-100.32" transform="translate(0 0.53)"/>
    <path id="bike_path_dashed" class="cls-37" d="M2.5,1039.92s54.64,2.46,105.21-53c52.45-57.56,110.94-254.18,280-237.53,170.09,16.75,484.91-95.14,580.71-127.12,226.69-76.85,260.28-64.42,315.69-50.25s80.36,13.68,105.66,18c74.73,12.89,231.93,78.6,323.41,51.54,80.13-23.7,109.11-87.14,203.06-100.32" transform="translate(0 0.53)"/>
  </g>
  <g id="buildings_structure">
    <rect id="parking" class="cls-38" x="1191.17" y="914.74" width="334.06" height="118.72"/>
    <polygon id="childrens_arena_main" class="cls-39" points="1064.41 1033.47 1064.41 1002.21 1075.35 1002.21 1075.35 986.27 1064.41 986.27 1064.41 940.28 1047.26 940.28 1047.26 928 1027.74 928 1027.74 915.72 996.68 915.72 996.68 902.91 958.09 902.91 958.09 925.65 727.84 925.65 727.84 1033.47 1064.41 1033.47"/>
    <polygon id="fire_department" class="cls-39" points="644.58 942.01 644.58 902.91 404.53 902.91 404.53 942.01 460.89 942.01 460.89 955.82 427 955.82 427 1033.47 622.11 1033.47 622.11 955.82 588.22 955.82 588.22 942.01 644.58 942.01"/>
    <g id="parking_icon">
      <circle class="cls-15" cx="1359.08" cy="973.6" r="21.4"/>
      <circle class="cls-15" cx="1359.08" cy="973.6" r="20.15"/>
      <g id="P">
        <path class="cls-6" d="M1356.57,986.44h-6.83V960.15h10.87q4.44,0,6.79,2.3a10.12,10.12,0,0,1,0,13q-2.36,2.3-6.79,2.3h-4Zm0-14.23h2.27q3.77,0,3.76-3.27t-3.76-3.28h-2.27Z" transform="translate(0 0.53)"/>
      </g>
    </g>
  </g>
  <g id="streets">
    <g id="streets-2" data-name="streets">
      <path class="cls-6" d="M1875,45v990H45V45H1875m45-45H0V1080H1920V0Z" transform="translate(0 0.53)"/>
    </g>
    <g id="street_names_text">
      <text class="cls-40" transform="translate(908.91 1061.58)">A<tspan class="cls-41" x="17.6" y="0">r</tspan><tspan class="cls-42" x="28.03" y="0">ena </tspan><tspan class="cls-43" x="79.52" y="0">S</tspan><tspan class="cls-44" x="93.83" y="0">t</tspan></text>
      <text class="cls-45" transform="translate(906.68 31.8)">K<tspan class="cls-42" x="16.36" y="0">aiser Cr</tspan></text>
      <text class="cls-46" transform="translate(34.19 635.32) rotate(-90)">A<tspan class="cls-44" x="17.3" y="0">delaide </tspan><tspan class="cls-47" x="112.79" y="0">A</tspan><tspan class="cls-48" x="129.51" y="0">v</tspan><tspan class="cls-42" x="143.22" y="0">e W</tspan></text>
      <text class="cls-49" transform="translate(1903.74 601.81) rotate(-90)">Bond <tspan class="cls-50" x="67.66" y="0">S</tspan><tspan class="cls-42" x="81.96" y="0">t W</tspan></text>
    </g>
  </g>
  <g id="entry_points">
    <g id="gate">
      <rect class="cls-51" x="1798.88" y="67.44" width="8.18" height="34.5" rx="1"/>
      <path class="cls-51" d="M1775.58,73.46c7,0,12.11-8,6.65-15.37a1,1,0,0,0-.23-.23c-7.35-5.46-15.37-.34-15.37,6.65A9,9,0,0,0,1775.58,73.46Zm-4.4-6.21,3.56-8.8a.94.94,0,0,1,.88-.61h0a1,1,0,0,1,.88.62l3.46,8.82a1,1,0,0,1-.55,1.25.8.8,0,0,1-.34.07h-1.55a1,1,0,0,0-1,1v.61a1,1,0,0,1-1.91,0V69.6a1,1,0,0,0-1-1h-1.55a1,1,0,0,1-.79-.44A1,1,0,0,1,1771.18,67.25Z" transform="translate(0 0.53)"/>
      <path class="cls-51" d="M1786.43,64.34v.17a10.86,10.86,0,0,1-21.68.93l-1.17-.91a69.82,69.82,0,0,0-7.68,1.86l-1,.3a1,1,0,0,0-.72,1v15l1.18-.34a68.85,68.85,0,0,1,40.45,0l1.16.34v-15a1,1,0,0,0-.71-1l-1-.3A68.36,68.36,0,0,0,1786.43,64.34Z" transform="translate(0 0.53)"/>
      <rect class="cls-51" x="1744.1" y="67.44" width="8.18" height="34.5" rx="1"/>
    </g>
    <g id="gate-2" data-name="gate">
      <rect class="cls-51" x="1085.95" y="67.56" width="8.18" height="34.5" rx="1"/>
      <path class="cls-51" d="M1062.65,73.58c7,0,12.11-8,6.66-15.37a1,1,0,0,0-.24-.23c-7.34-5.46-15.37-.34-15.37,6.65A9,9,0,0,0,1062.65,73.58Zm-4.39-6.2,3.56-8.81a.94.94,0,0,1,.88-.61h0a1,1,0,0,1,.89.62l3.46,8.82a1,1,0,0,1-.56,1.25.75.75,0,0,1-.33.07h-1.55a1,1,0,0,0-1,1v.61a1,1,0,0,1-1.91,0v-.61a1,1,0,0,0-1-1h-1.56a1,1,0,0,1-.79-.44A1,1,0,0,1,1058.26,67.38Z" transform="translate(0 0.53)"/>
      <path class="cls-51" d="M1073.5,64.46v.17a10.85,10.85,0,0,1-21.67.93l-1.17-.9a67.75,67.75,0,0,0-7.69,1.85l-1,.31a1,1,0,0,0-.71,1v15l1.17-.34a69,69,0,0,1,40.46,0l1.15.34v-15a1,1,0,0,0-.71-1l-1-.31A68.12,68.12,0,0,0,1073.5,64.46Z" transform="translate(0 0.53)"/>
      <rect class="cls-51" x="1031.18" y="67.56" width="8.18" height="34.5" rx="1"/>
    </g>
    <g id="gate-3" data-name="gate">
      <rect class="cls-51" x="597.95" y="67.52" width="8.18" height="34.5" rx="1"/>
      <path class="cls-51" d="M574.65,73.55c7,0,12.12-8,6.66-15.37a1.36,1.36,0,0,0-.24-.24c-7.34-5.45-15.37-.33-15.37,6.66A9,9,0,0,0,574.65,73.55Zm-4.39-6.21,3.56-8.81a1,1,0,0,1,.88-.61h0a1,1,0,0,1,.89.63l3.46,8.82a1,1,0,0,1-.56,1.25.93.93,0,0,1-.33.07h-1.55a1,1,0,0,0-1,1v.61a1,1,0,0,1-1.91,0v-.61a1,1,0,0,0-1-1h-1.56a1,1,0,0,1-.79-.44A1,1,0,0,1,570.26,67.34Z" transform="translate(0 0.53)"/>
      <path class="cls-51" d="M585.5,64.43c0,.06,0,.11,0,.17a10.86,10.86,0,0,1-21.68.93l-1.17-.91A67.79,67.79,0,0,0,555,66.48l-1,.3a1,1,0,0,0-.71,1v15l1.17-.34a68.89,68.89,0,0,1,40.46,0l1.16.34v-15a1,1,0,0,0-.72-1l-1-.3A68.12,68.12,0,0,0,585.5,64.43Z" transform="translate(0 0.53)"/>
      <rect class="cls-51" x="543.18" y="67.52" width="8.18" height="34.5" rx="1"/>
    </g>
  </g>
  <g id="navigation_paths">
    <path id="bridge_to_daylily" class="cls-37" d="M1724.24,623.09c11.7-34.12,36.18-211.91,45.25-271.56,1.4-9.2-4.52-18.21-13.67-19.9-70.29-13-104-44.68-144.85-49.07-39.91-4.28-143.57.59-143.57.59a8,8,0,0,1-8.16-8V272" transform="translate(0 0.53)"/>
    <path id="water_feature_to_daylily" class="cls-37" d="M1459.24,272v3.16a8,8,0,0,0,8.16,8s103.66-4.87,143.57-.59c40.88,4.39,74.63,36.17,145.09,49.12a16.73,16.73,0,0,1,13.43,19.84c-13.23,63.91-33.39,233.54-45.25,271.57-21.75,69.71-230.9-18-342.71-32.9-50-6.67-134.28-28.9-162.21-28.75-86.72.44-336.57,87.67-385.57,104.92a10,10,0,0,0-6.67,9.43v27.92" transform="translate(0 0.53)"/>
    <path id="water_feature_to_bridge" class="cls-37" d="M1750.36,471.62c-10,62.88-20.38,129.67-26.12,151.47-18.6,70.62-253.35-22.12-365.16-37.05-50-6.67-111.83-24.75-139.76-24.6-86.72.44-336.57,87.67-385.57,104.92a10,10,0,0,0-6.67,9.43v27.92" transform="translate(0 0.53)"/>
    <path id="water_feature_to_penoy" class="cls-37" d="M1359.08,660.66V594.71a10,10,0,0,0-8.44-9.88c-48.31-7.42-105-23.53-131.32-23.39-86.72.44-336.57,87.67-385.57,104.92a10,10,0,0,0-6.67,9.43v27.92" transform="translate(0 0.53)"/>
    <path id="penoy_to_daylily" class="cls-37" d="M1359.08,660.66l-.19-55.7c0-10.45,9.74-17.26,20-15.28C1488.83,610.85,1701,691,1724.24,623.09c11.7-34.12,36.18-211.91,45.25-271.56,1.4-9.2-4.52-18.21-13.67-19.9-70.29-13-104-44.68-144.85-49.07-39.91-4.28-143.57.59-143.57.59a8,8,0,0,1-8.16-8V272" transform="translate(0 0.53)"/>
    <path id="penoy_to_bridge" class="cls-37" d="M1359.08,660.66l-.32-55.7c0-10.45,9.75-17.26,20-15.28,109.93,21.17,323.07,101.27,346.34,33.41,11.7-34.12,17.75-86.4,26.82-146" transform="translate(0 0.53)"/>
  </g>
  <g id="icons">
    <g id="bike_path_icon">
      <g id="pin">
        <path class="cls-52" d="M256.39,732.75a40.77,40.77,0,1,0-42,40.73v56.25l1.28,2.22,1.28-2.22V773.48A40.76,40.76,0,0,0,256.39,732.75Z" transform="translate(0 0.53)"/>
        <circle class="cls-6" cx="215.62" cy="733.27" r="38.76"/>
      </g>
      <g id="Bike">
        <path class="cls-53" d="M203.69,738.39a8.64,8.64,0,1,0,8.64,8.64A8.63,8.63,0,0,0,203.69,738.39Zm0,16.42a7.79,7.79,0,1,1,7.78-7.78A7.78,7.78,0,0,1,203.69,754.81Z" transform="translate(0 0.53)"/>
        <circle class="cls-15" cx="203.66" cy="747.95" r="1.04"/>
        <path class="cls-53" d="M230.09,736.38a8.64,8.64,0,1,0,8.63,8.63A8.63,8.63,0,0,0,230.09,736.38Zm0,16.41a7.78,7.78,0,1,1,7.78-7.78A7.78,7.78,0,0,1,230.09,752.79Z" transform="translate(0 0.53)"/>
        <circle class="cls-15" cx="230.09" cy="745.54" r="1.04"/>
        <polygon class="cls-54" points="203.84 747.95 216.57 747 222.76 732.78 209.61 733.79 203.84 747.95"/>
        <line class="cls-54" x1="216.57" y1="747" x2="208.6" y2="731.78"/>
        <line class="cls-54" x1="222.15" y1="730.13" x2="230.12" y2="745.97"/>
        <path class="cls-55" d="M222.18,729.72l6.11-.45a1.8,1.8,0,0,1,.73,0,1.73,1.73,0,0,1,1,.85,1.14,1.14,0,0,1,.24.55.9.9,0,0,1-.61.73,3.42,3.42,0,0,1-1.1.22" transform="translate(0 0.53)"/>
        <path class="cls-55" d="M226.18,729.42l2-.15a1.8,1.8,0,0,1,.73,0,1.73,1.73,0,0,1,1,.85,1.14,1.14,0,0,1,.24.55.92.92,0,0,1-.61.73,3.42,3.42,0,0,1-1.1.22" transform="translate(0 0.53)"/>
        <circle cx="216.57" cy="747" r="1.07"/>
        <circle class="cls-15" cx="216.78" cy="711.54" r="4.64"/>
        <path class="cls-15" d="M225.36,727.25,220,725.11l-3.71-7.29h0a1.43,1.43,0,0,0-.59-.58,3.25,3.25,0,0,0-.93-.79l-2.28-1.23a3,3,0,0,0-4,1.2l-5.62,10.38s0,.06,0,.09l-.1.14-.24.46a2.17,2.17,0,0,0,.87,2.94l.63.33.07,0L206.3,732l.09,0,5.79,3.14.32.13L215,747.09a1.21,1.21,0,0,0,1.44.94l1.17-.24a1.22,1.22,0,0,0,.94-1.45l-2.91-13.86a.94.94,0,0,0-.07-.22,2.12,2.12,0,0,0-1-1.32l-3.27-1.77,3.95-7.3,2.38,4.68h0a1.4,1.4,0,0,0,.53.55,1.24,1.24,0,0,0,.72.75l5.49,2.2h0a1.22,1.22,0,0,0,1.58-.7l.18-.49A1.29,1.29,0,0,0,225.36,727.25Z" transform="translate(0 0.53)"/>
      </g>
      <line id="line1" class="cls-56" x1="193.8" y1="759.21" x2="239.36" y2="756.16"/>
      <line id="line2" class="cls-56" x1="199.69" y1="761.8" x2="233.48" y2="759.55"/>
      <line id="line3" class="cls-56" x1="203.23" y1="764.4" x2="230.73" y2="762.57"/>
    </g>
    <g id="daylily_icon">
      <g id="pin-2" data-name="pin">
        <path class="cls-57" d="M1661.22,168.71a40.8,40.8,0,1,0-42.08,40.77v56.28l1.28,2.23,1.28-2.23V209.48A40.8,40.8,0,0,0,1661.22,168.71Z" transform="translate(0 0.53)"/>
        <circle class="cls-6" cx="1620.42" cy="169.23" r="38.79"/>
      </g>
      <path id="daylily_outside" class="cls-15" d="M1643.84,152.84c-1.25-1.62-8.38.34-16.07,4.81a.66.66,0,0,1-.91-.24.6.6,0,0,1-.09-.34c.3-8.75-.23-15.18-2.24-15.49s-5,5.59-7,14a.67.67,0,0,1-.8.5.66.66,0,0,1-.34-.2c-6.1-6.43-11.18-10.14-12.78-8.94s.67,7,5.37,14.42a.68.68,0,0,1-.2.93.74.74,0,0,1-.39.11c-9-.4-15.93.58-16.18,2.57s6.2,4.39,14.93,6.48a.67.67,0,0,1,.47.82.69.69,0,0,1-.19.33c-6.57,5.87-11.49,10.9-10.24,12.49s8.39-.67,16-5.17a.68.68,0,0,1,.92.25.6.6,0,0,1,.09.37c-.36,8.72-.45,15.15,1.56,15.45s5.6-5.59,7.72-14.17a.67.67,0,0,1,.8-.5.73.73,0,0,1,.35.2c6,6.51,10.37,10.79,12,9.58s0-7.49-4.53-15a.67.67,0,0,1,.24-.92.81.81,0,0,1,.37-.09c8.89.42,15.74-.14,16-2.09s-6.15-4.84-14.84-7a.65.65,0,0,1-.28-1.15C1640.1,159.13,1645.07,154.44,1643.84,152.84Z" transform="translate(0 0.53)"/>
      <path id="daylily_inside" class="cls-6" d="M1631.32,162.21c-9,4.86-7.77,2.07-3.69-7.6-4.25,9.53-7.07,11.51-6.37,1.87-1,9.61-3.8,7.24-11.71.28,7.66,7.07,9,10.31,1.31,4.72,7.86,5.59,7.77,5.59-.42.62,8.11,5.06,4.33,5.2-5.9,6.17,10.18-.69,13.28.26,4.34,3.13,9.56-2.48,9.56-2.43.44,1.51,8.89-3.74,6.57-1.7,0,6.32,6.77-7.8,10.18-8.66,7.47.84,3.1-9.67,3.13-9.64,1.79.5,1.53-9.81,3.15-7,3.41,3.25,0-10.29.33-11.77,6.48-5.46-5.37-7.68-3.35-6.62,3.58.59-6.71-7.46-9-9.89.87-7.07-10.12-3.1-10.26-3.1-.51-.78-9.75-2.32-9.5-2.41.84-1-10.06-1.57-7-2.49,3-1.87C1626,167.3,1624.33,167.07,1631.32,162.21Z" transform="translate(0 0.53)"/>
    </g>
    <g id="water_feature_icon">
      <g id="pin-3" data-name="pin">
        <path class="cls-57" d="M867.88,603.13a40.81,40.81,0,1,0-42.09,40.77v56.29l1.29,2.23,1.28-2.23V643.9A40.8,40.8,0,0,0,867.88,603.13Z" transform="translate(0 0.53)"/>
        <circle class="cls-6" cx="827.08" cy="603.66" r="38.79"/>
      </g>
      <g id="water_drop">
        <g id="park_map" data-name="park map">
          <g id="water_feature_icon-2" data-name="water feature icon">
            <path id="droplet" class="cls-15" d="M827.69,572l-16.21,32.41c-6.06,12.12,2.37,27,15.88,27.12H828c13.52-.15,22-15,15.89-27.12Z" transform="translate(0 0.53)"/>
          </g>
        </g>
      </g>
      <g id="fountain">
        <ellipse class="cls-6" cx="827.68" cy="616.15" rx="13" ry="3.44"/>
        <ellipse class="cls-6" cx="827.68" cy="621.39" rx="7.9" ry="1.72"/>
        <ellipse class="cls-6" cx="827.68" cy="624.85" rx="5" ry="1.72"/>
        <g>
          <path class="cls-6" d="M827.69,613.69c-.32-3.2-1.5-9.55-5.9-12.63a1.86,1.86,0,0,1-.95-2.27c.63-2.26,4.49-5.15,6.88-5.15,2.17,0,5.88,2.35,6.72,4.75a2.21,2.21,0,0,1-.77,2.68C829.27,604.14,828,610.49,827.69,613.69Z" transform="translate(0 0.53)"/>
          <path class="cls-15" d="M827.72,593.77c2.13,0,5.78,2.3,6.6,4.66a2.1,2.1,0,0,1-.71,2.53c-3.18,2.21-4.69,6.08-5.39,8.94-.24,1-.41,1.88-.53,2.69-.11-.81-.27-1.72-.5-2.69-.68-2.85-2.16-6.73-5.34-8.95a1.74,1.74,0,0,1-.89-2.13c.62-2.22,4.41-5.05,6.76-5.05m0-.25c-3.3,0-9.64,5.46-6,7.64,6,4.21,6,14.45,6,14.46s.05-10.25,6.07-14.46c3.36-2.67-2.72-7.64-6-7.64Zm0,22.1Z" transform="translate(0 0.53)"/>
        </g>
      </g>
    </g>
    <g id="bridge_icon">
      <g id="pin-4" data-name="pin">
        <path class="cls-57" d="M1754.7,512a40.8,40.8,0,1,0-42.08,40.77v56.29l1.28,2.23,1.29-2.23V552.77A40.79,40.79,0,0,0,1754.7,512Z" transform="translate(0 0.53)"/>
        <circle class="cls-6" cx="1713.9" cy="512.53" r="38.79"/>
      </g>
      <g id="bridge-2" data-name="bridge">
        <path class="cls-15" d="M1713.9,502.41c-10.21,0-19.93,3.1-26.28,7.27v14.95a1,1,0,0,0,1,1h9a1,1,0,0,0,1-1v-.7a15.17,15.17,0,1,1,30.34-.15v.85a1,1,0,0,0,1,1h9.05a1,1,0,0,0,1-1V509.68C1733.76,505.46,1724.05,502.41,1713.9,502.41Z" transform="translate(0 0.53)"/>
        <path class="cls-15" d="M1738.64,497.84a1.54,1.54,0,0,0-1.55,1.55v.17a43.38,43.38,0,0,0-8.09-3.5v-1.7a1.55,1.55,0,1,0-3.09,0v.82a49.51,49.51,0,0,0-10.46-1.45V492.5a1.55,1.55,0,0,0-3.09,0v1.23a49.32,49.32,0,0,0-10.46,1.45v-.82a1.55,1.55,0,1,0-3.09,0v1.7a43.47,43.47,0,0,0-8.09,3.5v-.17a1.55,1.55,0,1,0-3.1,0v8.69c1-.58,2.08-1.13,3.1-1.61v-3.3a38.3,38.3,0,0,1,8.09-3.85v4.12c1-.3,2.06-.55,3.09-.78v-4.29a46,46,0,0,1,10.46-1.55v4.55c1,0,2.07,0,3.09,0v-4.55a46.14,46.14,0,0,1,10.46,1.55v4.29c1,.23,2,.48,3.09.78v-4.12a38.77,38.77,0,0,1,8.09,3.85v3.3c1.09.52,2.12,1,3.09,1.61v-8.69A1.54,1.54,0,0,0,1738.64,497.84Z" transform="translate(0 0.53)"/>
      </g>
      <path id="wave_1" class="cls-58" d="M1734.32,530.57c-.1,5.33-13.59,5.33-13.59,0,0,5.33-13.62,5.33-13.62,0,0,5.33-13.44,5.38-13.44,0" transform="translate(0 0.53)"/>
      <path id="wave_2" class="cls-58" d="M1729.9,537c-.08,4.19-10.7,4.19-10.7,0,0,4.19-10.72,4.19-10.72,0,0,4.19-10.57,4.23-10.57,0" transform="translate(0 0.53)"/>
    </g>
    <g id="peony_icon">
      <g id="pin-5" data-name="pin">
        <path class="cls-57" d="M1318.68,571.68a40.8,40.8,0,1,0-42.08,40.77v56.29l1.28,2.23,1.28-2.23V612.45A40.79,40.79,0,0,0,1318.68,571.68Z" transform="translate(0 0.53)"/>
        <circle class="cls-6" cx="1277.92" cy="572.16" r="38.79"/>
      </g>
      <g id="peony">
        <path class="cls-15" d="M1294.81,553.65l-.21,4.63a6.43,6.43,0,0,0,4.22,6.31l4.37,1.58a6.39,6.39,0,0,1,.78,11.7l-4.12,2.15a6.43,6.43,0,0,0-3.31,6.71l.8,4.58a6.41,6.41,0,0,1-5.2,7.42,6.49,6.49,0,0,1-4.55-.9l-3.93-2.48a6.35,6.35,0,0,0-7.54.51l-3.59,3a6.38,6.38,0,0,1-10.5-5.17l.19-4.66a6.44,6.44,0,0,0-4.23-6.28l-4.37-1.4a6.41,6.41,0,0,1-.78-11.72l4.12-2.15a6.41,6.41,0,0,0,3.29-6.87l-.83-4.58a6.41,6.41,0,0,1,5.17-7.45,6.47,6.47,0,0,1,4.58.9l3.93,2.51a6.41,6.41,0,0,0,7.54-.51l3.64-3a6.41,6.41,0,0,1,10.53,5.17Z" transform="translate(0 0.53)"/>
        <path class="cls-6" d="M1294.54,568.84h0a5.85,5.85,0,0,0,.73,6.87h0a5.85,5.85,0,0,1-4.53,9.7h0a5.89,5.89,0,0,0-5.81,4h0a5.85,5.85,0,0,1-10.78.94h0a5.85,5.85,0,0,0-6.25-2.93h0a5.84,5.84,0,0,1-6-8.78h0a5.86,5.86,0,0,0-.6-6.87h0a5.88,5.88,0,0,1,4.53-9.73h0a5.86,5.86,0,0,0,5.68-4h0a5.85,5.85,0,0,1,10.78-.91h0a5.85,5.85,0,0,0,6.25,2.93h0a5.84,5.84,0,0,1,6,8.73Z" transform="translate(0 0.53)"/>
        <path class="cls-59" d="M1290.34,570.57h0a4.28,4.28,0,0,0,.43,5.06h0a4.28,4.28,0,0,1-.39,6,4.19,4.19,0,0,1-2.92,1.07h0a4.39,4.39,0,0,0-4.18,2.91h0a4.31,4.31,0,0,1-7.84.7h0a4.23,4.23,0,0,0-4.58-2.15h0a4.31,4.31,0,0,1-4.52-6.44h0a4.29,4.29,0,0,0-.43-5.07h0a4.3,4.3,0,0,1,3.34-7.13h0a4.29,4.29,0,0,0,4.15-2.91h0a4.3,4.3,0,0,1,7.83-.68h0a4.32,4.32,0,0,0,4.61,2.16h0a4.28,4.28,0,0,1,4.5,6.44Z" transform="translate(0 0.53)"/>
        <circle class="cls-60" cx="1278.51" cy="574.73" r="4.98"/>
      </g>
    </g>
    <g id="compass">
      <g id="Compass-2" data-name="Compass">
        <path class="cls-15" d="M272.19,955.44l6-11.34-11.34,6,1,4.32Z" transform="translate(0 0.53)"/>
        <path class="cls-15" d="M245.92,955.44l4.31-1,1-4.32-11.33-6Z" transform="translate(0 0.53)"/>
        <path class="cls-15" d="M245.92,971l-6,11.33,11.33-6-1-4.32Z" transform="translate(0 0.53)"/>
        <path class="cls-15" d="M272.19,971l-4.31,1-1,4.32,11.34,6Z" transform="translate(0 0.53)"/>
        <path class="cls-15" d="M260.93,963.23l6.26,6.26,26.3-6.26L267.19,957Z" transform="translate(0 0.53)"/>
        <path class="cls-15" d="M265.32,955.1l-6.26-26.3-6.27,26.3,6.27,6.26Z" transform="translate(0 0.53)"/>
        <path class="cls-61" d="M257.18,963.23,250.92,957l-26.3,6.26,26.3,6.26Z" transform="translate(0 0.53)"/>
        <path class="cls-15" d="M252.79,971.37l6.27,26.3,6.26-26.3-6.26-6.27Z" transform="translate(0 0.53)"/>
      </g>
      <g id="north">
        <path class="cls-15" d="M215.39,958.19l4.87,6.11v-4.24a2,2,0,0,0-.26-1.2,1.4,1.4,0,0,0-1.17-.4v-.27h3.26v.27a2.52,2.52,0,0,0-.84.2.89.89,0,0,0-.33.42,2.81,2.81,0,0,0-.12,1v8.22h-.25l-6.67-8.22v6.27a1.38,1.38,0,0,0,.39,1.15,1.41,1.41,0,0,0,.89.3h.23v.27h-3.5v-.27a1.57,1.57,0,0,0,1.14-.33,1.59,1.59,0,0,0,.32-1.12v-7l-.21-.26a2.12,2.12,0,0,0-.56-.52,1.72,1.72,0,0,0-.69-.13v-.27Z" transform="translate(0 0.53)"/>
      </g>
      <g id="south">
        <path class="cls-15" d="M303.38,958.07l.08,3.29h-.3a3.34,3.34,0,0,0-1-2,2.62,2.62,0,0,0-1.79-.75,1.67,1.67,0,0,0-1.17.39,1.22,1.22,0,0,0-.44.92,1.06,1.06,0,0,0,.16.58,2.36,2.36,0,0,0,.67.67,16.06,16.06,0,0,0,1.58.86,7,7,0,0,1,2.33,1.6,2.72,2.72,0,0,1,.6,1.73,2.79,2.79,0,0,1-1,2.13,3.45,3.45,0,0,1-2.45.89,4.17,4.17,0,0,1-.88-.09,5.9,5.9,0,0,1-1-.36,1.47,1.47,0,0,0-.58-.14.72.72,0,0,0-.4.14,1.07,1.07,0,0,0-.34.45h-.27v-3.73h.27a4.31,4.31,0,0,0,1.24,2.4,2.85,2.85,0,0,0,2,.82,1.81,1.81,0,0,0,1.3-.44,1.32,1.32,0,0,0,.3-1.71,2,2,0,0,0-.56-.62,9,9,0,0,0-1.34-.77,11.75,11.75,0,0,1-1.94-1.13,3.38,3.38,0,0,1-.9-1,2.56,2.56,0,0,1-.32-1.26,2.67,2.67,0,0,1,.87-2,3,3,0,0,1,2.18-.83,3.59,3.59,0,0,1,.93.12,4.3,4.3,0,0,1,.83.32,2,2,0,0,0,.69.24.38.38,0,0,0,.3-.12,1.34,1.34,0,0,0,.2-.56Z" transform="translate(0 0.53)"/>
      </g>
      <g id="west">
        <path class="cls-15" d="M266.37,1001.47v.27a.84.84,0,0,0-.46.15,1.14,1.14,0,0,0-.34.4c0,.06-.18.43-.45,1.13l-3.1,8.14h-.28l-2.44-6.36-2.7,6.36h-.26l-3.25-8.06a8.51,8.51,0,0,0-.69-1.46.9.9,0,0,0-.66-.3v-.27H256v.27a1.25,1.25,0,0,0-.69.15.44.44,0,0,0-.17.36,4.58,4.58,0,0,0,.35,1.17l1.94,4.78,1.55-3.74-.41-1a6.77,6.77,0,0,0-.52-1.15,1.14,1.14,0,0,0-.41-.41,1.6,1.6,0,0,0-.7-.12v-.27h4.78v.27a2.45,2.45,0,0,0-.72.08.46.46,0,0,0-.24.17.44.44,0,0,0-.09.27,5.16,5.16,0,0,0,.33,1l1.8,4.67,1.6-4.23c.17-.44.28-.73.32-.89a1.86,1.86,0,0,0,.06-.45.58.58,0,0,0-.21-.47,1.34,1.34,0,0,0-.78-.18v-.27Z" transform="translate(0 0.53)"/>
      </g>
      <g id="east">
        <path class="cls-15" d="M258.33,916.42v4h.2a1.57,1.57,0,0,0,1.36-.59,3.65,3.65,0,0,0,.54-1.74h.27v5.16h-.27a3.84,3.84,0,0,0-.37-1.38,1.55,1.55,0,0,0-.65-.72,2.55,2.55,0,0,0-1.08-.19v2.78a4.39,4.39,0,0,0,.07,1,.62.62,0,0,0,.26.3,1.32,1.32,0,0,0,.61.11h.59a3.18,3.18,0,0,0,3.41-2.59h.27l-.44,3.14h-8.53v-.27h.33a1.36,1.36,0,0,0,.69-.15.68.68,0,0,0,.29-.35A3.14,3.14,0,0,0,256,924v-6.49a4.38,4.38,0,0,0,0-.82.64.64,0,0,0-.26-.39,1.25,1.25,0,0,0-.76-.21h-.33v-.26h8.26v2.91h-.28a3.6,3.6,0,0,0-.59-1.53,2.3,2.3,0,0,0-1.08-.69,6.21,6.21,0,0,0-1.53-.13Z" transform="translate(0 0.53)"/>
      </g>
    </g>
  </g>
  <g id="names">
    <text id="Joseph_Kolodzie_Bike_Path_Joseph_Kolodzie_Bike_Path_text" data-name="Joseph Kolodzie Bike Path 																									Joseph Kolodzie Bike Path_text" class="cls-62" transform="matrix(1, 0.08, -0.08, 1, 389.91, 722.96)">J</text>
    <text class="cls-62" transform="matrix(1, 0.04, -0.04, 1, 400.53, 723.84)">o</text>
    <text class="cls-62" transform="translate(414.89 724.42) rotate(0.59)">s</text>
    <text class="cls-62" transform="translate(425.36 724.54) rotate(-0.95)">e</text>
    <text class="cls-62" transform="translate(438.75 724.33) rotate(-2.51)">p</text>
    <text class="cls-62" transform="matrix(1, -0.07, 0.07, 1, 453.3, 723.68)">h</text>
    <text class="cls-62" transform="matrix(1, -0.08, 0.08, 1, 467.3, 722.7)"> </text>
    <text class="cls-62" transform="translate(474.51 722.13) rotate(-5.77)">K</text>
    <text class="cls-62" transform="matrix(0.99, -0.12, 0.12, 0.99, 490.24, 720.54)">o</text>
    <text class="cls-62" transform="translate(505.02 718.74) rotate(-7.53)">l</text>
    <text class="cls-62" transform="translate(511.6 717.89) rotate(-8.18)">o</text>
    <text class="cls-62" transform="matrix(0.99, -0.16, 0.16, 0.99, 526.28, 715.78)">d</text>
    <text class="cls-62" transform="translate(541.01 713.44) rotate(-9.7)">z</text>
    <text class="cls-62" transform="translate(553.5 711.29) rotate(-10.15)">i</text>
    <text class="cls-62" transform="matrix(0.98, -0.18, 0.18, 0.98, 560.11, 710.12)">e</text>
    <text class="cls-62" transform="translate(573.78 707.54) rotate(-11.06)"> </text>
    <text class="cls-62" transform="translate(581.09 706.13) rotate(-11.51)">B</text>
    <text class="cls-62" transform="translate(595.65 703.14) rotate(-11.91)">i</text>
    <text class="cls-62" transform="translate(602.25 701.76) rotate(-12.3)">k</text>
    <text class="cls-62" transform="translate(616.24 698.71) rotate(-12.77)">e</text>
    <text class="cls-62" transform="translate(629.84 695.62) rotate(-13.11)"> </text>
    <text class="cls-62" transform="translate(637.16 693.92) rotate(-13.44)">P</text>
    <text class="cls-62" transform="translate(651.06 690.6) rotate(-13.86)">a</text>
    <text class="cls-62" transform="translate(665.72 686.97) rotate(-14.18)">t</text>
    <text class="cls-62" transform="matrix(0.97, -0.25, 0.25, 0.97, 674.16, 684.85)">h</text>
    <text class="cls-62" transform="translate(688.03 681.25) rotate(-14.76)"> </text>
    <text class="cls-62" transform="translate(695.38 679.31) rotate(-14.95)">	</text>
    <text class="cls-62" transform="translate(700 678.08) rotate(-15.06)">	</text>
    <text class="cls-62" transform="translate(725.78 671.04) rotate(-15.66)">	</text>
    <text class="cls-62" transform="matrix(0.96, -0.28, 0.28, 0.96, 751.49, 663.73)">	</text>
    <text class="cls-62" transform="matrix(0.96, -0.29, 0.29, 0.96, 777.18, 656.18)">	</text>
    <text class="cls-62" transform="translate(802.79 648.41) rotate(-17.15)">	</text>
    <text class="cls-62" transform="matrix(0.95, -0.3, 0.3, 0.95, 828.4, 640.43)">	</text>
    <text class="cls-62" transform="translate(853.93 632.28) rotate(-17.95)">	</text>
    <text class="cls-62" transform="translate(879.47 623.95) rotate(-18.27)">	</text>
    <text class="cls-62" transform="translate(904.98 615.47) rotate(-18.53)">	</text>
    <text class="cls-62" transform="translate(930.5 606.88) rotate(-18.67)">	</text>
    <text class="cls-62" transform="translate(956.16 598.23) rotate(-18.53)">	</text>
    <text class="cls-62" transform="translate(981.86 589.61) rotate(-18.28)">	</text>
    <text class="cls-62" transform="translate(1007.77 581.14) rotate(-17.74)">	</text>
    <text class="cls-62" transform="matrix(0.96, -0.29, 0.29, 0.96, 1033.81, 572.92)">	</text>
    <text class="cls-62" transform="translate(1060.06 565.01) rotate(-16.23)">	</text>
    <text class="cls-62" transform="translate(1086.51 557.5) rotate(-15.13)">	</text>
    <text class="cls-62" transform="translate(1113.32 550.51) rotate(-13.64)">	</text>
    <text class="cls-62" transform="translate(1140.59 544.25) rotate(-11.55)">	</text>
    <text class="cls-62" transform="matrix(0.99, -0.15, 0.15, 0.99, 1168.58, 539.07)">	</text>
    <text class="cls-62" transform="matrix(1, -0.06, 0.06, 1, 1197.64, 535.6)">	</text>
    <text class="cls-62" transform="translate(1228.03 535.03) rotate(3.56)">	</text>
    <text class="cls-62" transform="translate(1258.6 538.66) rotate(11.57)">	</text>
    <text class="cls-62" transform="translate(1286.18 545.14) rotate(14.41)">	</text>
    <text class="cls-62" transform="translate(1311.31 551.22) rotate(12.03)">	</text>
    <text class="cls-62" transform="matrix(0.99, 0.15, -0.15, 0.99, 1336.32, 556.1)">J</text>
    <text class="cls-62" transform="translate(1347.17 557.8) rotate(7.36)">o</text>
    <text class="cls-62" transform="translate(1361.9 559.67) rotate(6.58)">s</text>
    <text class="cls-62" transform="translate(1373.31 560.95) rotate(7.18)">e</text>
    <text class="cls-62" transform="translate(1388.81 562.87) rotate(10.33)">p</text>
    <text class="cls-62" transform="translate(1404.95 565.88) rotate(12.8)">h</text>
    <text class="cls-62" transform="translate(1419.56 569.25) rotate(13.98)"> </text>
    <text class="cls-62" transform="matrix(0.97, 0.26, -0.26, 0.97, 1427.42, 571.19)">K</text>
    <text class="cls-62" transform="matrix(0.96, 0.27, -0.27, 0.96, 1443.48, 575.46)">o</text>
    <text class="cls-62" transform="translate(1458.26 579.57) rotate(15.74)">l</text>
    <text class="cls-62" transform="translate(1464.98 581.46) rotate(15.85)">o</text>
    <text class="cls-62" transform="translate(1479.62 585.62) rotate(15.82)">d</text>
    <text class="cls-62" transform="translate(1494.21 589.76) rotate(15.64)">z</text>
    <text class="cls-62" transform="matrix(0.96, 0.27, -0.27, 0.96, 1506.52, 593.2)">i</text>
    <text class="cls-62" transform="translate(1513.07 595.01) rotate(15.13)">e</text>
    <text class="cls-62" transform="matrix(0.97, 0.25, -0.25, 0.97, 1526.53, 598.64)"> </text>
    <text class="cls-62" transform="translate(1533.71 600.54) rotate(14.27)">B</text>
    <text class="cls-62" transform="translate(1548.05 604.17) rotate(13.72)">i</text>
    <text class="cls-62" transform="matrix(0.97, 0.23, -0.23, 0.97, 1554.49, 605.77)">k</text>
    <text class="cls-62" transform="translate(1568.2 608.96) rotate(12.16)">e</text>
    <text class="cls-62" transform="matrix(0.98, 0.2, -0.2, 0.98, 1581.64, 611.83)"> </text>
    <text class="cls-62" transform="matrix(0.98, 0.18, -0.18, 0.98, 1588.68, 613.28)">P</text>
    <text class="cls-62" transform="matrix(0.99, 0.15, -0.15, 0.99, 1602.28, 615.77)">a</text>
    <text class="cls-62" transform="translate(1616.69 617.98) rotate(7.49)">t</text>
    <text class="cls-62" transform="translate(1624.72 619.08) rotate(5.89)">h</text>
    <text class="cls-62" transform="translate(1370.92 119.87) rotate(-25.69)">D</text>
    <text class="cls-62" transform="matrix(0.95, -0.32, 0.32, 0.95, 1387.61, 112.01)">a</text>
    <text class="cls-62" transform="translate(1403.63 106.66) rotate(-12.15)">y</text>
    <text class="cls-62" transform="matrix(0.99, -0.14, 0.14, 0.99, 1419.16, 103.59)">l</text>
    <text class="cls-62" transform="translate(1425.98 102.69) rotate(-6.43)">i</text>
    <text class="cls-62" transform="matrix(1, -0.1, 0.1, 1, 1432.56, 101.95)">l</text>
    <text class="cls-62" transform="matrix(1, -0.07, 0.07, 1, 1439.53, 101.21)">y</text>
    <text class="cls-62" transform="matrix(1, -0.04, 0.04, 1, 1454.46, 100.17)"> </text>
    <text class="cls-62" transform="translate(1462.37 99.71) rotate(0.21)">G</text>
    <text class="cls-62" transform="translate(1482.11 99.87) rotate(4.63)">a</text>
    <text class="cls-62" transform="translate(1497.94 101.27) rotate(8.7)">r</text>
    <text class="cls-62" transform="translate(1509.12 102.93) rotate(13.53)">d</text>
    <text class="cls-62" transform="translate(1525.12 106.9) rotate(19.64)">e</text>
    <text class="cls-62" transform="translate(1539.5 112.12) rotate(25.68)">n</text>
    <text class="cls-62" transform="translate(1777.97 571.29) rotate(-80.91)">R<tspan x="15.09" y="0">o</tspan></text>
    <text class="cls-62" transform="translate(1782.77 541.29) rotate(-80.91)">t</text>
    <text class="cls-62" transform="matrix(0.16, -0.99, 0.99, 0.16, 1784.12, 532.84)">a</text>
    <text class="cls-62" transform="translate(1786.53 517.77) rotate(-80.91)">r</text>
    <text class="cls-62" transform="matrix(0.16, -0.99, 0.99, 0.16, 1788.26, 506.96)">y</text>
    <text class="cls-62" transform="translate(1790.63 492.16) rotate(-80.91)"> </text>
    <text class="cls-62" transform="translate(1791.83 484.61) rotate(-80.91)">B</text>
    <text class="cls-62" transform="translate(1794.21 469.73) rotate(-80.91)">r</text>
    <text class="cls-62" transform="translate(1795.85 459.53) rotate(-80.91)">i</text>
    <text class="cls-62" transform="translate(1796.94 452.72) rotate(-80.91)">d</text>
    <text class="cls-62" transform="translate(1799.35 437.65) rotate(-80.91)">g</text>
    <text class="cls-62" transform="translate(1801.78 422.42) rotate(-80.91)">e</text>
    <text id="Oshawa_Creek_text" data-name="Oshawa Creek_text" class="cls-63" transform="translate(859.16 489.68) rotate(-17.74)">O</text>
    <text class="cls-63" transform="matrix(0.95, -0.3, 0.3, 0.95, 881.02, 482.69)">s</text>
    <text class="cls-63" transform="translate(893.41 478.78) rotate(-17.37)">h</text>
    <text class="cls-63" transform="translate(909.37 473.78) rotate(-17.15)">a</text>
    <text class="cls-63" transform="translate(926.5 468.49) rotate(-16.85)">w</text>
    <text class="cls-63" transform="translate(950.29 461.29) rotate(-16.54)">a</text>
    <text class="cls-63" transform="translate(967.19 456.29) rotate(-16.32)"> </text>
    <text class="cls-63" transform="translate(975.78 453.76) rotate(-16.11)">C</text>
    <text class="cls-63" transform="translate(991.94 449.1) rotate(-15.86)">r</text>
    <text class="cls-63" transform="matrix(0.96, -0.27, 0.27, 0.96, 1003.64, 445.78)">e</text>
    <text class="cls-63" transform="translate(1019.46 441.36) rotate(-15.28)">e</text>
    <text class="cls-63" transform="matrix(0.97, -0.26, 0.26, 0.97, 1035.31, 437.03)">k</text>
    <text class="cls-62" transform="translate(771.21 880.94) rotate(-1.63)">W</text>
    <text class="cls-62" transform="translate(796.1 880.11) rotate(-4.44)">a</text>
    <text class="cls-62" transform="translate(811.91 878.81) rotate(-6.25)">t</text>
    <text class="cls-62" transform="translate(821.31 877.8) rotate(-8.08)">e</text>
    <text class="cls-62" transform="translate(836.28 875.61) rotate(-10.08)">r</text>
    <text class="cls-62" transform="translate(846.99 873.68) rotate(-11.53)"> </text>
    <text class="cls-62" transform="matrix(0.97, -0.23, 0.23, 0.97, 855.22, 872.01)">F</text>
    <text class="cls-62" transform="matrix(0.96, -0.26, 0.26, 0.96, 867.89, 869.04)">e</text>
    <text class="cls-62" transform="translate(882.69 864.98) rotate(-17.6)">a</text>
    <text class="cls-62" transform="translate(897.69 860.15) rotate(-19.36)">t</text>
    <text class="cls-62" transform="matrix(0.93, -0.36, 0.36, 0.93, 905.94, 857.28)">u</text>
    <text class="cls-62" transform="translate(919.9 851.88) rotate(-22.68)">r</text>
    <text class="cls-62" transform="matrix(0.91, -0.41, 0.41, 0.91, 929.84, 847.74)">e</text>
    <g>
      <text class="cls-62" transform="translate(95.5 252.84) rotate(-60.49)">M</text>
      <text class="cls-62" transform="translate(106.92 233.16) rotate(-55)">e</text>
      <text class="cls-62" transform="matrix(0.65, -0.76, 0.76, 0.65, 115.56, 220.66)">m</text>
      <text class="cls-62" transform="matrix(0.72, -0.69, 0.69, 0.72, 130.32, 203.74)">o</text>
      <text class="cls-62" transform="translate(141.83 192.87) rotate(-39.92)">r</text>
      <text class="cls-62" transform="matrix(0.81, -0.59, 0.59, 0.81, 150.71, 185.41)">y</text>
      <text class="cls-62" transform="matrix(0.84, -0.54, 0.54, 0.84, 163.31, 176.48)"> </text>
      <text class="cls-62" transform="matrix(0.88, -0.47, 0.47, 0.88, 170.25, 171.89)">G</text>
      <text class="cls-62" transform="matrix(0.92, -0.39, 0.39, 0.92, 187.97, 162.55)">a</text>
      <text class="cls-62" transform="translate(202.61 156.5) rotate(-18.95)">r</text>
      <text class="cls-62" transform="translate(213.06 152.87) rotate(-14.94)">d</text>
      <text class="cls-62" transform="matrix(0.98, -0.18, 0.18, 0.98, 228.59, 148.8)">e</text>
      <text class="cls-62" transform="matrix(0.99, -0.1, 0.1, 0.99, 243.19, 146.17)">n</text>
    </g>
    <g>
      <text class="cls-62" transform="translate(1147.8 851.04) rotate(-89.67)">P</text>
      <text class="cls-62" transform="translate(1147.89 837.18) rotate(-85.07)">e</text>
      <text class="cls-62" transform="translate(1149.03 823.85) rotate(-80.9)">o</text>
      <text class="cls-62" transform="translate(1151.31 809.63) rotate(-77.04)">n</text>
      <text class="cls-62" transform="translate(1154.24 796.76) rotate(-73.52)">y</text>
      <text class="cls-62" transform="translate(1158.26 783.43) rotate(-70.88)"> </text>
      <text class="cls-62" transform="translate(1160.3 777.05) rotate(-67.74)">G</text>
      <text class="cls-62" transform="translate(1167.28 760.14) rotate(-63.56)">a</text>
      <text class="cls-62" transform="translate(1173.69 747.38) rotate(-60.51)">r</text>
      <text class="cls-62" transform="translate(1178.28 739.1) rotate(-57.38)">d</text>
      <text class="cls-62" transform="translate(1186.06 726.97) rotate(-53.68)">e</text>
      <text class="cls-62" transform="translate(1193.92 716.24) rotate(-50)">n</text>
    </g>
  </g>
</svg>
