<svg xmlns="http://www.w3.org/2000/svg" width="69.773" height="69.773" viewBox="0 0 69.773 69.773"><g transform="translate(0.5 0.5)"><ellipse cx="34.386" cy="34.386" rx="34.386" ry="34.386" transform="translate(0 0)" fill="#f7f2db" stroke="#383838" stroke-width="1"/><g transform="translate(18.869 6.824)"><path d="M140.029,24.1,125.671,52.814c-5.406,10.724,2.127,23.929,14.091,24.017h.532c11.964-.089,19.409-13.294,14.091-24.017Z" transform="translate(-123.891 -24.1)" fill="#383838"/></g><g transform="translate(23.485 25.878)"><ellipse cx="11.521" cy="3.013" rx="11.521" ry="3.013" transform="translate(0 16.573)" fill="#f7f2db"/><ellipse cx="7.001" cy="1.507" rx="7.001" ry="1.507" transform="translate(4.52 22.776)" fill="#f7f2db"/><ellipse cx="4.431" cy="1.507" rx="4.431" ry="1.507" transform="translate(7.09 25.79)" fill="#f7f2db"/><g transform="translate(5.249)"><path d="M141.314,63.525c-.266-2.836-1.329-8.419-5.229-11.167a1.6,1.6,0,0,1-.8-2.038c.532-2.038,3.988-4.52,6.115-4.52,1.95,0,5.229,2.038,5.938,4.165a1.948,1.948,0,0,1-.709,2.393C142.643,55.017,141.58,60.689,141.314,63.525Z" transform="translate(-135.041 -45.623)" fill="#f7f2db"/><path d="M141.295,45.866c1.861,0,5.14,2.038,5.849,4.165a1.786,1.786,0,0,1-.62,2.216c-2.836,1.95-4.165,5.406-4.786,7.888-.177.886-.355,1.684-.443,2.393-.089-.709-.266-1.507-.443-2.393-.62-2.57-1.95-5.938-4.7-7.976a1.611,1.611,0,0,1-.8-1.861c.532-1.95,3.811-4.431,5.938-4.431m0-.266c-2.925,0-8.508,4.874-5.317,6.735,5.317,3.722,5.317,12.762,5.317,12.851,0,0,0-9.128,5.406-12.851,2.925-2.3-2.481-6.735-5.406-6.735Zm0,19.586Z" transform="translate(-135.022 -45.6)" fill="#383838"/></g></g></g></svg>